<svg xmlns="http://www.w3.org/2000/svg" xmlns:xlink="http://www.w3.org/1999/xlink" width="107" height="107" viewBox="0 0 107 107">
  <defs>
    <clipPath id="clip-path">
      <rect id="Rectángulo_379720" data-name="Rectángulo 379720" width="54.998" height="66.307" transform="translate(0 0)" fill="none"/>
    </clipPath>
  </defs>
  <g id="Grupo_1081391" data-name="Grupo 1081391" transform="translate(-810 -2767.666)">
    <g id="Grupo_156312" data-name="Grupo 156312" transform="translate(521.332 -1680.334)">
      <circle id="Elipse_5845" data-name="Elipse 5845" cx="53.5" cy="53.5" r="53.5" transform="translate(288.668 4448)" fill="#ffae7e"/>
    </g>
    <g id="Grupo_1081214" data-name="Grupo 1081214" transform="translate(836.357 2788.013)">
      <g id="Grupo_1081213" data-name="Grupo 1081213" clip-path="url(#clip-path)">
        <path id="Trazado_834204" data-name="Trazado 834204" d="M49.6,63.99a41.785,41.785,0,0,0-10.481-3.346,78,78,0,0,0-9.74-1.029c-.728-.053-1.054.2-1.012.935.018.3,0,.6-.007.9-.014.745-.307,1.279-1.131,1.26-.748-.017-1.024-.536-1.066-1.211-.021-.344-.028-.689-.018-1.033.018-.686-.312-.864-.97-.828a66.048,66.048,0,0,0-11.753,1.5c-.814.194-1.642.305-1.869-.732-.231-1.057.65-1.278,1.414-1.46A62.689,62.689,0,0,1,24.709,57.42c1.03-.046,1.365-.31,1.187-1.349A21.553,21.553,0,0,0,24.235,50.8c-.351-.775-.874-.728-1.585-.617A15.106,15.106,0,0,1,5.393,39.046a17.565,17.565,0,0,1-.462-3.96,2.037,2.037,0,0,1,1.781-2.265A15.238,15.238,0,0,1,25.251,44.21a16.789,16.789,0,0,1,.279,3.464,1.673,1.673,0,0,0,.613,1.612V40.7c0-1.679-.048-3.359.017-5.035.039-1.036-.3-1.392-1.373-1.465A18.9,18.9,0,0,1,7.682,20.337c-.253-.907-1.01-2.207.538-2.581,1.34-.324,1.319,1.051,1.556,1.9a16.606,16.606,0,0,0,14.6,12.2c.165.01.331,0,.608,0a16.9,16.9,0,0,0-1.912-3.412,62.7,62.7,0,0,0-6.681-8.526c-.555-.6-1.131-1.225-.344-1.979s1.425-.169,1.97.424a62.926,62.926,0,0,1,8.672,11.728c.7-2.05.593-4.57-.3-7.673A16.684,16.684,0,0,0,11.531,10.7c-1.74-.063-1.792-.021-2.086,1.663-.074.424-.138.85-.24,1.268a1.048,1.048,0,0,1-1.195.929A1,1,0,0,1,7.068,13.5a10.063,10.063,0,0,1,.954-4.373c.435-.854,1.374-.814,2.182-.8A18.937,18.937,0,0,1,25.166,15.5a19.765,19.765,0,0,1,3.863,8.072c.859-2.143,1.572-3.726.425-5.913A12.513,12.513,0,0,1,36.219.387C38.036-.3,38.48-.152,39.5,1.49a12.665,12.665,0,0,1-5.148,17.873A3.854,3.854,0,0,0,31.933,22.2c-.146.666-.415,1.305-.654,2.036.444-.028.61-.346.833-.549a18.832,18.832,0,0,1,15.544-5.064c1.308.156,2.214.651,2.276,2.11.033.772.1,1.544.108,2.316a.966.966,0,0,1-.9,1.07,1.081,1.081,0,0,1-1.218-.912,2.351,2.351,0,0,1-.047-.253c-.381-2.171-.381-2.171-2.577-2.188A16.484,16.484,0,0,0,28.557,35.548a5.789,5.789,0,0,0-.13,2.062c.466.1.544-.332.728-.561a50.049,50.049,0,0,1,9.97-9.683c.562-.395,1.152-.755,1.748-1.1.642-.368,1.258-.367,1.659.353.373.671.036,1.175-.524,1.525a36.17,36.17,0,0,0-4.65,3.471,57.137,57.137,0,0,0-7.094,7.664c-.18.226-.444.561-.386.764.117.41.579.229.9.264a3.267,3.267,0,0,0,3.511-1.631,11.716,11.716,0,0,1,9.137-5.358,2.573,2.573,0,0,0,2.3-1.556A23.037,23.037,0,0,0,47.3,27.953c.22-.76.648-1.267,1.5-1,.793.252.817.921.631,1.6a16.423,16.423,0,0,1-1.632,4.061c-.358.606-.392.91.4,1.174,1.8.6,2.035,1.081,1.737,2.974-1.018,6.445-5.266,10.548-11.751,11.328a9.914,9.914,0,0,1-4.075-.475,1.537,1.537,0,0,0-1.951.709,20.937,20.937,0,0,0-3.4,7.6c-.261,1.125.063,1.427,1.169,1.475a55.744,55.744,0,0,1,19.124,3.852,26.778,26.778,0,0,1,4.693,2.428,2.883,2.883,0,0,1,1.082,1.085c.417.857.106,1.42-.847,1.517-.341.034-.688.015-1.032.015H2.19c-.344,0-.689,0-1.033-.013a1.07,1.07,0,0,1-1.1-.735A1.018,1.018,0,0,1,.408,64.39a21.155,21.155,0,0,1,6.92-3.646.965.965,0,0,1,1.265.616,1.022,1.022,0,0,1-.585,1.39c-.807.4-1.642.734-2.789,1.24ZM22.843,44.742c.225-.288.094-.488.046-.69A12.838,12.838,0,0,0,8.8,34.743c-1.582.208-1.781.406-1.565,1.949A12.742,12.742,0,0,0,20.962,48.075c.37-.018.874.145,1.071-.242.242-.475-.258-.766-.524-1.068a22.8,22.8,0,0,0-7.264-5.48c-.663-.32-1.246-.744-.854-1.59.38-.82,1.063-.731,1.761-.428a21.361,21.361,0,0,1,5.113,3.22c.877.728,1.718,1.5,2.578,2.255m12.071-2.379a32.657,32.657,0,0,1,5.465-3.055c.645-.247,1.211-.193,1.523.493a1.058,1.058,0,0,1-.6,1.489c-.38.2-.77.384-1.158.57a23.916,23.916,0,0,0-4.667,2.984c-.191.155-.493.307-.347.6.074.145.349.221.548.264,5.139,1.122,11.254-3.237,11.909-8.43.143-1.134-.3-1.583-1.34-1.7a10.572,10.572,0,0,0-10.019,4.117,6.2,6.2,0,0,0-1.313,2.67M33.74,16.74l.267.217a4.478,4.478,0,0,0,.557-.258c4.2-2.648,5.8-9.049,3.4-13.425a1.069,1.069,0,0,0-1.682-.491,10.254,10.254,0,0,0-5.873,8.793,7.672,7.672,0,0,0,1.014,4.941c1.029-2.825,1.981-5.448,2.944-8.066A6.26,6.26,0,0,1,34.9,7.284a.993.993,0,0,1,1.342-.42.98.98,0,0,1,.595,1.164,7.314,7.314,0,0,1-.35,1.1q-1.373,3.806-2.752,7.609M28.365,49.657c1.135-1.478,2.223-2.943,3.361-4.378a2.7,2.7,0,0,0,.4-2.43c-.212-.643-1.147-.223-1.755-.312-.3-.043-.6.005-.9-.028-.85-.094-1.135.3-1.122,1.118.031,2.009.01,4.02.01,6.03"/>
      </g>
    </g>
  </g>
</svg>
