<svg xmlns="http://www.w3.org/2000/svg" xmlns:xlink="http://www.w3.org/1999/xlink" width="400" height="389.949" viewBox="0 0 400 389.949">
  <defs>
    <clipPath id="clip-path">
      <rect id="Rectángulo_379789" data-name="Rectángulo 379789" width="400" height="389.949" fill="none"/>
    </clipPath>
  </defs>
  <g id="Grupo_1081325" data-name="Grupo 1081325" transform="translate(-22 -187.004)">
    <g id="Grupo_1081324" data-name="Grupo 1081324" transform="translate(22 187.004)" clip-path="url(#clip-path)">
      <path id="Trazado_834397" data-name="Trazado 834397" d="M381.711,388.2s28.821,14.05,43.009-49.624c18.407-82.609-7.428-161.083-51.993-166.735-64.276-8.151-28.654-219.166-130.08-161.912-28.52,16.1-90.551-67.009-127.067,73.808-6.209,23.944-24.771,22.769-49.5,63.618-43.624,72.058-27.92,241.61,8.837,242.381S381.711,388.2,381.711,388.2" transform="translate(-30.717 -0.004)" fill="#d5fff5"/>
      <path id="Trazado_834398" data-name="Trazado 834398" d="M0,1589.748s1.781-11.668,24.5-14.807,43.848-28.307,81.317-24.654,68.562,26.573,111.213,19.55,69.358,1.928,78.925,8.989,49.16-1.657,52.084,11.279Z" transform="translate(0 -1200.156)" fill="#a8d29f"/>
      <path id="Trazado_834399" data-name="Trazado 834399" d="M358.9,494.389s-25.644-1.254-12.04,76.9c0,0,9.152,26.53-2.4,43.629H514.528V494.389Z" transform="translate(-265.507 -382.82)" fill="#afcdfb"/>
      <path id="Trazado_834400" data-name="Trazado 834400" d="M472.384,1296.188s-11.881-13.861-.733-22.665c0,0,8.143-4.93,14.783-4.53,0,0-9.409,15.777-6.365,17.347S489.286,1268,489.286,1268s18.531-1.8,24.493,1.069c0,0-15.842,12.964-12.506,13.736s20.448-11.953,20.448-11.953,17.248,2.935,16.328,13.457-6.863,13.77-9.474,13.49-17.892-6.112-18.225-3.972,8.865,9.135,15.306,9.462c0,0-12.16,13.41-20.242,9.54s-8.771-10.005-13.809-12.306-9.338-2.3-7.258.051,11.2,4.628,14.078,9.723,5.466,8.533-2.9,7.274-21.952-7.376-22.549-14.382Z" transform="translate(-361.519 -981.424)" fill="#599dad"/>
      <path id="Trazado_834401" data-name="Trazado 834401" d="M512.687,1343.159s-46.845-1.805-57.19,11.592a33.879,33.879,0,0,1-9.328,13.092l-1.1,2.991s8.118-8.559,11.022-9.077c0,0-4.542-16.6,56.594-18.6" transform="translate(-344.632 -1039.987)" fill="#599dad"/>
      <path id="Trazado_834402" data-name="Trazado 834402" d="M413.037,1448.773s-10.055,7.436-10.753,20.723l1.825.163s3.212-13.738,9.016-19.111-.087-1.775-.087-1.775" transform="translate(-311.501 -1120.917)" fill="#599dad"/>
      <path id="Trazado_834403" data-name="Trazado 834403" d="M69.324,1149.626s18.9-10.584,10.08-24.948c0,0-7.056-8.82-14.616-11.088,0,0,4.032,21.42,0,21.924s-2.772-24.192-2.772-24.192-19.908-9.576-27.72-8.82c0,0,12.348,20.916,8.316,20.412s-17.892-21.672-17.892-21.672-20.412-3.78-23.688,8.316,2.016,18.144,5.04,18.9,22.428.5,21.924,3.024-13.608,6.552-20.916,4.284c0,0,8.064,19.908,18.648,18.9s13.86-7.56,20.412-8.064,11.34,1.26,8.064,3.024-14.364.578-19.656,5.077-9.576,7.271.252,9.287,27.467.756,31-6.8Z" transform="translate(0 -852.294)" fill="#6bb7bf"/>
      <path id="Trazado_834404" data-name="Trazado 834404" d="M45.9,1156.762s52.919,17.136,58.967,36.287a40.2,40.2,0,0,0,5.04,18.4v3.78s-5.544-12.852-8.568-14.616c0,0,11.844-16.632-55.439-43.847" transform="translate(-35.539 -895.717)" fill="#6bb7bf"/>
      <path id="Trazado_834405" data-name="Trazado 834405" d="M320.853,1391s8.161,12.393,3.508,27.479l-2.1-.564s2.038-16.615-2.232-24.973.823-1.942.823-1.942" transform="translate(-246.488 -1075.277)" fill="#6bb7bf"/>
      <path id="Trazado_834406" data-name="Trazado 834406" d="M384.236,1031.511s-24.913-13.952-13.287-32.886c0,0,9.3-11.626,19.266-14.616,0,0-5.315,28.235,0,28.9s3.654-31.889,3.654-31.889,26.242-12.623,36.54-11.626c0,0-16.277,27.571-10.962,26.906s23.585-28.567,23.585-28.567,26.906-4.983,31.225,10.962-2.657,23.917-6.643,24.914-29.564.664-28.9,3.986,17.938,8.636,27.571,5.647c0,0-10.63,26.242-24.581,24.913s-18.27-9.965-26.906-10.63-14.948,1.661-10.63,3.986,18.934.762,25.91,6.692,12.623,9.584-.332,12.242-36.208,1-40.858-8.969Z" transform="translate(-284.843 -748.775)" fill="#86d1cd"/>
      <path id="Trazado_834407" data-name="Trazado 834407" d="M495.368,1040.917s-69.757,22.588-77.73,47.834c0,0,.332,11.294-6.643,24.249v4.983s7.308-16.941,11.294-19.266c0,0-15.612-21.924,73.079-57.8" transform="translate(-318.246 -806.015)" fill="#6bb7bf"/>
      <path id="Trazado_834408" data-name="Trazado 834408" d="M388.641,1349.693s-10.758,16.336-4.625,36.222l2.768-.743s-2.687-21.9,2.942-32.919-1.085-2.56-1.085-2.56" transform="translate(-295.892 -1042.708)" fill="#6bb7bf"/>
      <path id="Trazado_834409" data-name="Trazado 834409" d="M269.264,1544.48a48.8,48.8,0,0,0,48.8-48.8h-97.6a48.8,48.8,0,0,0,48.8,48.8" transform="translate(-170.711 -1158.151)" fill="#efcbab"/>
      <path id="Trazado_834410" data-name="Trazado 834410" d="M301.681,1544.106a48.836,48.836,0,0,1-54.862-48.428h12.124a48.809,48.809,0,0,0,42.738,48.428" transform="translate(-191.119 -1158.15)" fill="#ffebdc"/>
      <path id="Trazado_834411" data-name="Trazado 834411" d="M316.426,1702.275h-98.95a6.021,6.021,0,0,1,6.021-6.021h86.909a6.021,6.021,0,0,1,6.021,6.021" transform="translate(-168.398 -1313.462)" fill="#efcbab"/>
      <rect id="Rectángulo_379785" data-name="Rectángulo 379785" width="100.317" height="1.497" transform="translate(48.147 337.528)" fill="#efcdaf"/>
      <path id="Trazado_834412" data-name="Trazado 834412" d="M1085.929,289.921s-8.549-16.131,4.26-22.273c0,0,9.027-3.022,15.417-1.174,0,0-12.642,13.327-10.017,15.526s13.016-15.866,13.016-15.866,18.474,2.314,23.661,6.419c0,0-18.3,9.171-15.216,10.656s22.573-7.173,22.573-7.173,16.183,6.65,12.976,16.712-9.718,11.928-12.2,11.082-16.114-9.89-16.908-7.875,6.643,10.858,12.855,12.59c0,0-14.806,10.414-21.841,4.864s-6.361-11.686-10.771-15.037-8.607-4.289-7.093-1.543,9.908,6.972,11.6,12.576,3.459,9.524-4.422,6.462-19.8-12.015-18.842-18.98Z" transform="translate(-838.704 -205.876)" fill="#599dad"/>
      <path id="Trazado_834413" data-name="Trazado 834413" d="M1106.844,358.242S1061.537,346.2,1048.5,357a33.88,33.88,0,0,1-11.974,10.725L1034.8,370.4s9.8-6.569,12.746-6.436c0,0-.789-17.19,59.3-5.722" transform="translate(-801.279 -272.953)" fill="#599dad"/>
      <path id="Trazado_834414" data-name="Trazado 834414" d="M990.85,417.837s-11.442,5.048-15.04,17.857l1.745.56s6.148-12.7,12.99-16.666.3-1.751.3-1.751" transform="translate(-755.599 -323.067)" fill="#599dad"/>
      <path id="Trazado_834415" data-name="Trazado 834415" d="M524.414,66.536s-25.317-13.2-14.26-32.475c0,0,8.951-11.9,18.823-15.183,0,0-4.472,28.381.86,28.887s2.7-31.984,2.7-31.984,25.855-13.4,36.177-12.709c0,0-15.449,28.043-10.156,27.221S581.285,1.036,581.285,1.036s26.746-5.781,31.537,10.028-1.944,23.985-5.9,25.1-29.531,1.544-28.768,4.845,18.187,8.1,27.726,4.824c0,0-9.844,26.547-23.829,25.634s-18.558-9.417-27.211-9.824-14.892,2.105-10.506,4.3,18.948.2,26.1,5.918,12.9,9.2.032,12.246-36.162,2.074-41.107-7.748Z" transform="translate(-392.863 -0.004)" fill="#86d1cd"/>
      <path id="Trazado_834416" data-name="Trazado 834416" d="M638.9,72.7s-69.054,24.655-76.272,50.126c0,0,.669,11.279-5.918,24.436l.148,4.98s6.8-17.151,10.716-19.594c0,0-16.258-21.449,71.326-59.949" transform="translate(-431.077 -56.296)" fill="#6bb7bf"/>
      <path id="Trazado_834417" data-name="Trazado 834417" d="M536.715,392.148s-10.267,16.649-3.545,36.343l2.744-.825s-3.337-21.813,1.961-32.992-1.16-2.526-1.16-2.526" transform="translate(-411.083 -301.18)" fill="#6bb7bf"/>
      <rect id="Rectángulo_379786" data-name="Rectángulo 379786" width="177.553" height="231.553" transform="translate(104.181 157.829)" fill="#9abcef"/>
      <rect id="Rectángulo_379787" data-name="Rectángulo 379787" width="174.568" height="231.553" transform="translate(109.986 157.829)" fill="#e9f3fe"/>
      <path id="Trazado_834418" data-name="Trazado 834418" d="M1494.937,1588.971H1459.76c-1.885-1.6,1.3-5.23,4.637-5.474a20.564,20.564,0,0,1,5.369.635c.484-6.43,3.248-35.333,13.667-34.172,11.715,1.3,0,12.728-3.311,19.495a160.853,160.853,0,0,0-6.224,15.59c.951.206,1.936.408,2.941.593,1.553-4.768,7.33-20.8,14.677-19.869,8.626,1.094,5.159,7.524-.955,11.34-4.486,2.807-9.994,6.8-12.611,8.723a37.384,37.384,0,0,0,6.88.551c6.026-.143,8.967,1.633,10.107,2.588" transform="translate(-1129.901 -1200.156)" fill="#a8d29f"/>
      <path id="Trazado_834419" data-name="Trazado 834419" d="M610.431,540.647l0,0H435.86c.966-13.2-.489-22.787-2.82-29.68-4.477-13.255-12.193-16.58-12.193-16.58H585.482c14.052,0,24.947,8.465,27.913,19.7.11.423.214.844.3,1.264,2.815,12.855-3.151,25.057-3.267,25.292" transform="translate(-325.875 -382.821)" fill="#e9f3fe"/>
      <path id="Trazado_834420" data-name="Trazado 834420" d="M652.267,597.538l0,0H477.7c.966-13.2-.489-22.787-2.82-29.68,17.84,3.267,62.025,10.228,109.319,9.055,30.6-.759,54.775-2.806,71.339-4.67,2.815,12.856-3.151,25.057-3.267,25.292" transform="translate(-367.711 -439.712)" fill="#d8e8fd"/>
      <path id="Trazado_834421" data-name="Trazado 834421" d="M733.012,921.084H640.435a1.733,1.733,0,0,1-1.728-1.728v-.886a1.733,1.733,0,0,1,1.728-1.728h92.577a1.733,1.733,0,0,1,1.728,1.728v.886a1.733,1.733,0,0,1-1.728,1.728" transform="translate(-494.57 -709.861)" fill="#bbd5fc"/>
      <path id="Trazado_834422" data-name="Trazado 834422" d="M697.18,953.458H640.071a1.368,1.368,0,0,1-1.364-1.364v-1.614a1.368,1.368,0,0,1,1.364-1.364H697.18a1.368,1.368,0,0,1,1.364,1.364v1.614a1.368,1.368,0,0,1-1.364,1.364" transform="translate(-494.57 -734.93)" fill="#bbd5fc"/>
      <path id="Trazado_834423" data-name="Trazado 834423" d="M590.369,927.685v-8.87H589.2q-1.065,0-1.065-.886,0-.639.834-.9a6.189,6.189,0,0,1,1.357-.213q.931-.07,1.5-.071.55,0,.692.222a2.644,2.644,0,0,1,.142,1.126v9.6h1.206q1.171,0,1.171,1.012,0,1.064-1.171,1.064H589a1.337,1.337,0,0,1-.86-.275.929.929,0,0,1-.346-.771q0-1.029,1.188-1.029Z" transform="translate(-455.149 -709.861)" fill="#bbd5fc"/>
      <path id="Trazado_834424" data-name="Trazado 834424" d="M733.012,1123.73H640.435a1.733,1.733,0,0,1-1.728-1.728v-.887a1.733,1.733,0,0,1,1.728-1.728h92.577a1.733,1.733,0,0,1,1.728,1.728V1122a1.733,1.733,0,0,1-1.728,1.728" transform="translate(-494.57 -866.777)" fill="#d2e4fd"/>
      <path id="Trazado_834425" data-name="Trazado 834425" d="M697.18,1156.1H640.071a1.368,1.368,0,0,1-1.364-1.364v-1.614a1.368,1.368,0,0,1,1.364-1.364H697.18a1.368,1.368,0,0,1,1.364,1.364v1.614a1.368,1.368,0,0,1-1.364,1.364" transform="translate(-494.57 -891.845)" fill="#d2e4fd"/>
      <path id="Trazado_834426" data-name="Trazado 834426" d="M594.968,1130.15q0,.887-1.238.886h-5.142q-1.113,0-1.113-.893a1.129,1.129,0,0,1,.3-.659q.438-.5,1.285-1.505,1.285-1.615,2.148-2.791.3-.392.846-1.192a2.879,2.879,0,0,0,.455-1.348,1.386,1.386,0,0,0-.392-1.011,1.345,1.345,0,0,0-1-.4,1.538,1.538,0,0,0-1.035.376,1.785,1.785,0,0,0-.47.941,10.639,10.639,0,0,1-.282,1.035.8.8,0,0,1-.768.5.88.88,0,0,1-.737-.345,1.177,1.177,0,0,1-.251-.784,3.787,3.787,0,0,1,.173-1.113,3.343,3.343,0,0,1,1.332-1.85,3.867,3.867,0,0,1,2.211-.611,3.423,3.423,0,0,1,2.383.864,3.021,3.021,0,0,1,.988,2.324,4.052,4.052,0,0,1-.706,2.167q-.392.613-1.615,2.167-.627.8-1.975,2.324h3.386q1.223,0,1.223.917" transform="translate(-454.899 -866.777)" fill="#d2e4fd"/>
      <path id="Trazado_834427" data-name="Trazado 834427" d="M733.012,1292.775H640.435a1.733,1.733,0,0,1-1.728-1.728v-.886a1.733,1.733,0,0,1,1.728-1.728h92.577a1.733,1.733,0,0,1,1.728,1.728v.886a1.733,1.733,0,0,1-1.728,1.728" transform="translate(-494.57 -997.673)" fill="#d2e4fd"/>
      <path id="Trazado_834428" data-name="Trazado 834428" d="M697.18,1325.149H640.071a1.368,1.368,0,0,1-1.364-1.364v-1.614a1.368,1.368,0,0,1,1.364-1.364H697.18a1.368,1.368,0,0,1,1.364,1.364v1.614a1.368,1.368,0,0,1-1.364,1.364" transform="translate(-494.57 -1022.742)" fill="#d2e4fd"/>
      <path id="Trazado_834429" data-name="Trazado 834429" d="M594.288,1294.787a3.361,3.361,0,0,1-1.17,2.676,4.12,4.12,0,0,1-2.8.961,3.929,3.929,0,0,1-2.244-.625,2.857,2.857,0,0,1-1.474-2.388,1,1,0,0,1,.257-.689.838.838,0,0,1,.657-.288,1,1,0,0,1,.785.561q.593.929.689,1.026a1.788,1.788,0,0,0,1.362.561,1.7,1.7,0,0,0,1.6-.833,2.219,2.219,0,0,0,.224-1.058q0-1.57-1.843-1.746-1.042-.1-1.041-.881a.838.838,0,0,1,.6-.817q1.13-.417,1.146-.433a1.547,1.547,0,0,0,.605-1.394,1.253,1.253,0,0,0-.351-.937,1.288,1.288,0,0,0-.942-.345,1.723,1.723,0,0,0-1.15.352,2.306,2.306,0,0,0-.591,1.042.73.73,0,0,1-.735.561.753.753,0,0,1-.631-.336,1.219,1.219,0,0,1-.248-.737,2.051,2.051,0,0,1,.273-.994,3.074,3.074,0,0,1,1.378-1.3,4.035,4.035,0,0,1,1.859-.433,3.238,3.238,0,0,1,2.268.826,2.8,2.8,0,0,1,.906,2.171,2.976,2.976,0,0,1-1.346,2.564,2.9,2.9,0,0,1,1.955,2.932" transform="translate(-454.219 -996.017)" fill="#d2e4fd"/>
      <path id="Trazado_834430" data-name="Trazado 834430" d="M804.768,750.224H747.1a1.8,1.8,0,0,1-1.795-1.8v-1.454a1.8,1.8,0,0,1,1.795-1.795h57.671a1.8,1.8,0,0,1,1.795,1.795v1.454a1.8,1.8,0,0,1-1.795,1.8" transform="translate(-577.11 -577.016)" fill="#bbd5fc"/>
      <path id="Trazado_834431" data-name="Trazado 834431" d="M766.81,784.691H679.062a2.208,2.208,0,0,1-2.2-2.2v-.642a2.208,2.208,0,0,1,2.2-2.2H766.81a2.208,2.208,0,0,1,2.2,2.2v.642a2.208,2.208,0,0,1-2.2,2.2" transform="translate(-524.114 -603.705)" fill="#bbd5fc"/>
      <path id="Trazado_834432" data-name="Trazado 834432" d="M605.966,886.022c-19.017,0-37.063-2.386-50.517-5.8-13.592-3.446-20.913-9.078-20.913-14.074,0-4.528,5.966-8.692,17.255-12.043-10.818,3.211-16.6,7.926-16.6,12.043,0,4.568,7.5,9.089,20.575,12.4,13.406,3.4,31.235,5.271,50.2,5.271s36.8-1.872,50.2-5.271c13.076-3.315,20.574-7.837,20.574-12.4,0-4.837-7.9-10.849-20.608-15.689-14.453-5.5-32.271-7.546-50.17-7.546-33.6,0-47.436,3.923-59.438,8.838,12.054-4.937,25.716-10.532,59.438-10.532,17.971,0,35.865,3.045,50.386,8.574,12.98,4.942,21.043,11.209,21.043,16.354,0,5-7.485,9.645-21.077,13.09-13.454,3.411-31.335,6.78-50.352,6.78" transform="translate(-413.908 -651.385)" fill="#c65447"/>
      <path id="Trazado_834433" data-name="Trazado 834433" d="M1336.47,1233.007s-.626,6.088-1.313,7.239-3.613,4.831-4.859,5.553.761-4.849.507-5.933-1.026,1.978-1.575,2.05-.408-2.684-.428-3.687,2.672-3.479,3.621-5.615,4.046.391,4.046.391" transform="translate(-1028.93 -953.789)" fill="#ffb27d"/>
      <path id="Trazado_834434" data-name="Trazado 834434" d="M996.335,952.316l-1.4-2.64s.694-4.7-5.2-7.68a2.876,2.876,0,0,0-3.37.88c-1.12,1.618,2.135,1.326,1.96,4.094a5.092,5.092,0,0,0,2.969,5.295l1.512,1.751Z" transform="translate(-763.59 -729.247)" fill="#ffb27d"/>
      <path id="Trazado_834435" data-name="Trazado 834435" d="M1067.625,957.385s-5.062,24.845-32.918,32.962c-8.7,2.534-28.45-26.094-28.45-26.094s.695-2.639,5.046-2.033c0,0,19.234,12.734,21.656,14.117,2.149,1.227,16.279-15.779,22.721-18.522a16.442,16.442,0,0,1,11.945-.431" transform="translate(-779.176 -740.628)" fill="#e58638"/>
      <rect id="Rectángulo_379788" data-name="Rectángulo 379788" width="5.203" height="26.172" transform="matrix(0.152, -0.988, 0.988, 0.152, 213.536, 217.014)" fill="#c65447"/>
      <path id="Trazado_834436" data-name="Trazado 834436" d="M921.334,940.507,926.953,944l.79-5.143Z" transform="translate(-713.417 -726.988)" fill="#ffb27d"/>
      <path id="Trazado_834437" data-name="Trazado 834437" d="M1064.4,958.634l-.249,1.626a1.832,1.832,0,0,1-2.089,1.532l-1.2-.183.79-5.143,1.3.2a1.726,1.726,0,0,1,1.444,1.968" transform="translate(-821.458 -740.622)" fill="#ffb27d"/>
      <path id="Trazado_834438" data-name="Trazado 834438" d="M1382.605,1647.469s3.456,3.154,2.781,5.394-3.792,3.735-4.214,6.473-2.107,4.233-3.624,4.233h-7.233s-1.117-1.927,1.581-2.508,3.714-3.8,3.545-6.787a52.668,52.668,0,0,1,.253-6.971l5.731-1.328Z" transform="translate(-1060.899 -1274.529)" fill="#233862"/>
      <path id="Trazado_834439" data-name="Trazado 834439" d="M1168,1679.208s.62,7.177-.9,7.924l-19.416-.04s0-2.241,3.119-2.739,8.6-2.324,9.524-6.391,7.67,1.245,7.67,1.245" transform="translate(-888.688 -1298.112)" fill="#233862"/>
      <path id="Trazado_834440" data-name="Trazado 834440" d="M1165.059,1233.5s1.024,12.581,2.228,27.7c1.636,20.543,3.6,45.777,3.8,50.557.336,8.3,1.687,21.579,1.687,21.579s3.2,3.155,9.609,1.825a214.263,214.263,0,0,0,7.34-39.01c.025-.329.051-.66.076-.991,1.517-20.416,3.876-63.407,3.876-63.407Z" transform="translate(-902.141 -953.789)" fill="#2b478b"/>
      <path id="Trazado_834441" data-name="Trazado 834441" d="M1165.059,1233.5s1.024,12.581,2.228,27.7l22.433,34.951c.025-.329.051-.66.076-.991,1.517-20.416,3.876-63.407,3.876-63.407Z" transform="translate(-902.141 -953.789)" fill="#233862"/>
      <path id="Trazado_834442" data-name="Trazado 834442" d="M1185.782,1217.91s18.459,45.563,30.6,66.974,15.93,27.388,15.93,27.388,6.953-2.739,7.585-4.606c0,0-4.641-41.336-12.769-51.413-4.593-5.694-9.988-22.781-10.241-28.756s-1.643-17.8-1.643-17.8Z" transform="translate(-918.187 -936.704)" fill="#2b478b"/>
      <path id="Trazado_834443" data-name="Trazado 834443" d="M1225.84,883.032s-12.489,6.026-19.689,3.79a16.989,16.989,0,0,1,4.874-3.9c-.249-1.445-.443-2.7-.554-3.763a34.794,34.794,0,0,1-.3-3.845l4.818-3.79,4.569-3.627c-.36,10.2,6.286,15.133,6.286,15.133" transform="translate(-933.959 -672.042)" fill="#ffb27d"/>
      <path id="Trazado_834444" data-name="Trazado 834444" d="M1197.041,989.572c.027.763-1.606,1.636-2.326,1.963a51.006,51.006,0,0,1-15.978,4.527c-6.674.682-14.566-.818-17.28-.764a1.128,1.128,0,0,1-.748-.3c-.194-.137-.332-8.18-.194-18.3,0-.409,0-.818.028-1.227v-.136c.055-3.954.194-8.1.387-12.243.388-9.108,1.108-17.888,2.326-22.741a24.657,24.657,0,0,1,7.809-12.27l2.492-2.182a11.976,11.976,0,0,0,7.754-.926c2.88-1.391,5.981-2.891,6.48-2.509,3.766,2.754,6.313,8.944,7.671,16.852a87.65,87.65,0,0,1,1.135,15c0,1.963-.056,3.981-.166,5.972a188.263,188.263,0,0,0,.388,25.6c.111,1.582.194,2.809.221,3.681" transform="translate(-898.579 -714.249)" fill="#ee9849"/>
      <path id="Trazado_834445" data-name="Trazado 834445" d="M1246.87,1047.105c-43.734-.087-8.066-47.456-8.066-47.456l7.085-2.3a137.626,137.626,0,0,1,.821,16.023c0,2.1-.04,4.253-.12,6.38-.48,11.536,0,21.558.28,27.355" transform="translate(-948.629 -772.278)" fill="#e58638"/>
      <path id="Trazado_834446" data-name="Trazado 834446" d="M1233.416,884.243s-3.157,5.753-9.166,7.362a34.767,34.767,0,0,1-.3-3.845l4.818-3.79Z" transform="translate(-947.738 -684.486)" fill="#ed985f"/>
      <path id="Trazado_834447" data-name="Trazado 834447" d="M1206.232,833.434s11.915,1.949,13.033-5.375,3.409-12.006-4.15-13.56-9.468,1.021-10.445,3.377-1.507,14.863,1.563,15.558" transform="translate(-932.222 -630.326)" fill="#ffb27d"/>
      <path id="Trazado_834448" data-name="Trazado 834448" d="M1210.383,798.354c.108-.124.357-.224.913-.254a2.252,2.252,0,0,0-1.037-.292,2.793,2.793,0,0,0-1.856-2.47,1.665,1.665,0,0,1,.807,1.2c-1.539-1.581-4.836-2.731-13.967-2.01-12.034.95-8.068,8.654-6.51,9.573s5.48-1.6,8.382-1.369,3.455,4.425,4.439,5,.6-.442,1.93-1.044,1.459,1.605,1.074,3.041,1.446,3.329,1.446,3.329l1.85-1.992c1.85-1.992,3.593-10.431,2.752-12.229-.074-.159-.148-.32-.223-.482" transform="translate(-919.01 -615.058)" fill="#2c3a64"/>
      <path id="Trazado_834449" data-name="Trazado 834449" d="M1261.977,922.407s7.538,3.57,11.153,9.058c5.607,8.512,12.105,39.536,12.225,42.409s-4.743,23.155-4.743,23.155-4.932-.325-6.2-2.815c0,0,.985-20.839.361-22.179s-20.563-27.954-18.322-33.633,5.531-16,5.531-16" transform="translate(-972.768 -714.249)" fill="#ee9849"/>
      <path id="Trazado_834450" data-name="Trazado 834450" d="M1012.417,959.716s.41-1.619-.713-2.347-2.157-2.707-2.63-2.439c-.981.555.537,2.283.259,4.437-.1.754,1.659,2.731,3.084.349" transform="translate(-781.098 -739.413)" fill="#ffb27d"/>
      <path id="Trazado_834451" data-name="Trazado 834451" d="M102.188,1522.27s-17.708-45.342-30.126-38.122,30.126,38.122,30.126,38.122" transform="translate(-54.041 -1148.618)" fill="#a8d29f"/>
      <path id="Trazado_834452" data-name="Trazado 834452" d="M51.97,1597.669s-23.393-20.216-34.078-16.462,34.078,16.462,34.078,16.462" transform="translate(-12.578 -1224.018)" fill="#a8d29f"/>
      <path id="Trazado_834453" data-name="Trazado 834453" d="M1272.136,1627.338s5.391-18.744,11.715-16.532-11.715,16.532-11.715,16.532" transform="translate(-985.054 -1247.156)" fill="#a8d29f"/>
      <path id="Trazado_834454" data-name="Trazado 834454" d="M1293.935,1656.9s13.761-9.033,16.786-6.241-16.786,6.241-16.786,6.241" transform="translate(-1001.933 -1277.745)" fill="#a8d29f"/>
      <path id="Trazado_834455" data-name="Trazado 834455" d="M712.729,1493.348H605.384a1.306,1.306,0,0,1,0-2.613H712.729a1.306,1.306,0,0,1,0,2.613" transform="translate(-467.756 -1154.322)" fill="#d2e4fd"/>
      <path id="Trazado_834456" data-name="Trazado 834456" d="M712.729,1516.518H605.384a1.306,1.306,0,0,1,0-2.613H712.729a1.306,1.306,0,0,1,0,2.613" transform="translate(-467.756 -1172.264)" fill="#d2e4fd"/>
      <path id="Trazado_834457" data-name="Trazado 834457" d="M712.729,1542.194H605.384a1.306,1.306,0,0,1,0-2.613H712.729a1.306,1.306,0,0,1,0,2.613" transform="translate(-467.756 -1192.145)" fill="#d2e4fd"/>
      <path id="Trazado_834458" data-name="Trazado 834458" d="M698.637,1567.871H605.3a1.223,1.223,0,0,1-1.219-1.219v-.174a1.223,1.223,0,0,1,1.219-1.219h93.34a1.223,1.223,0,0,1,1.219,1.219v.174a1.223,1.223,0,0,1-1.219,1.219" transform="translate(-467.756 -1212.028)" fill="#d2e4fd"/>
    </g>
  </g>
</svg>
