<svg xmlns="http://www.w3.org/2000/svg" xmlns:xlink="http://www.w3.org/1999/xlink" width="120" height="120" viewBox="0 0 120 120">
  <defs>
    <clipPath id="clip-path">
      <rect id="Rectángulo_379718" data-name="Rectángulo 379718" width="74.515" height="74.139" fill="none"/>
    </clipPath>
  </defs>
  <g id="Grupo_1081418" data-name="Grupo 1081418" transform="translate(-182.5 -2766.034)">
    <circle id="Elipse_5979" data-name="Elipse 5979" cx="60" cy="60" r="60" transform="translate(182.5 2766.034)" fill="#d5fff5"/>
    <g id="Grupo_1081210" data-name="Grupo 1081210" transform="translate(205.822 2787.62)">
      <g id="Grupo_1081209" data-name="Grupo 1081209" transform="translate(0 0)" clip-path="url(#clip-path)">
        <path id="Trazado_834185" data-name="Trazado 834185" d="M37.265,84.432q-15.43,0-30.861.009c-.971,0-1.713-.07-1.684-1.352.022-.986.393-1.417,1.375-1.4,1.158.024,2.318-.021,3.477,0,.842.016,1.229-.313,1.22-1.2q-.04-4.418,0-8.838a1.806,1.806,0,0,0-1-1.624c-1.329-.879-2.677-1.737-3.946-2.7a14.7,14.7,0,0,1,.022-23.493c1.732-1.308,3.592-2.444,5.375-3.686a1.324,1.324,0,0,1,1.715-.017c3.218,2.271,6.873,4.02,9,7.586a1.325,1.325,0,0,0,1.249.563,10.676,10.676,0,0,1,5.956,1.984,1.354,1.354,0,0,0,1.805.029,10.537,10.537,0,0,1,12.592.005,1.347,1.347,0,0,0,1.8-.045,9.9,9.9,0,0,1,5.946-1.976,1.519,1.519,0,0,0,1.419-.8c2.184-3.515,5.856-5.236,9.082-7.494a.9.9,0,0,1,1.086-.057c2.993,2.095,6.337,3.724,8.625,6.742a14.733,14.733,0,0,1-2.73,20.564c-1.266.964-2.6,1.843-3.944,2.7a2.1,2.1,0,0,0-1.125,2c.051,2.752.06,5.507,0,8.258-.026,1.152.4,1.564,1.521,1.5,1.059-.061,2.125.013,3.187-.013.979-.023,1.379.4,1.375,1.393s-.4,1.36-1.387,1.356c-6.375-.024-12.75-.01-19.125-.01H37.265M13.539,56.611l.455.273c.826-.917,1.666-1.821,2.474-2.754.7-.813,1.2-.382,1.783.178.6.585.9,1.074.145,1.789-1.33,1.263-2.6,2.585-3.9,3.888-.338.34-.835.65-.848,1.139-.049,1.987-.02,3.976-.02,6.185.912-.609,1.6-1.044,2.265-1.516,7.659-5.456,7.53-15.3-.265-20.575-3.56-2.408-3.543-2.383-7.12.055a12.136,12.136,0,0,0-5.686,11.6c.3,4.259,4.1,9.215,7.867,10.133.542-5.581.542-5.581-3.261-9.384-.478-.478-.928-.989-1.441-1.426-.729-.623-.858-1.146-.075-1.881.72-.675,1.237-.909,2.035-.089a10.451,10.451,0,0,0,2.837,2.53c0-2.831.036-5.484-.017-8.135-.022-1.109.335-1.557,1.494-1.529,1.085.025,1.285.579,1.28,1.469-.015,2.683-.005,5.367-.005,8.05m46.957.251.488-.277q0-.78,0-1.561c0-2.221.026-4.442,0-6.663-.013-1.069.568-1.258,1.479-1.26.933,0,1.3.361,1.283,1.286-.033,1.786-.006,3.572-.005,5.359q0,1.463,0,2.925l.444.177c.817-.88,1.66-1.737,2.442-2.646s1.339-.48,2.019.156c.718.672.618,1.15-.044,1.778-1.331,1.262-2.614,2.576-3.9,3.887-.332.339-.834.735-.851,1.123-.086,1.985-.04,3.976-.04,6.207,1.163-.777,2.1-1.366,3-2.01a12.084,12.084,0,0,0,3.062-16.271c-1.713-2.669-4.419-4.116-6.925-5.821a.88.88,0,0,0-1.078,0c-2.019,1.4-4.256,2.516-5.883,4.423-4.815,5.647-4.179,14.5,4.242,19.218.625.351.757.11.754-.469,0-1.3-.053-2.61.018-3.91a3.143,3.143,0,0,0-1.1-2.684c-1.209-1.109-2.306-2.338-3.5-3.46-.765-.717-.987-1.26-.1-2.116.828-.8,1.364-.641,2.007.119.714.844,1.459,1.661,2.191,2.49M35.523,59.081a2.009,2.009,0,0,0,.3-1.4c.084-1.035-.373-2.359,1.479-2.328,1.872.033,1.275,1.4,1.406,2.4.053.405-.161.87.262,1.229a5,5,0,0,0,1.5-1.324c.524-.524.907-.482,1.468-.009.977.825,1.183,1.525.06,2.4-.68.531-1.195,1.273-1.867,1.816a3.874,3.874,0,0,0-1.442,3.568c.112,1.782.29,1.94,1.961,1.189a8.173,8.173,0,1,0-11.454-8.44c-.313,3.942,1.515,7.129,4.893,8.532,1.462.607,1.625.453,1.761-1.064a4.168,4.168,0,0,0-1.592-3.942c-.786-.631-1.438-1.429-2.167-2.133a.841.841,0,0,1-.048-1.357c1.054-1.235,1.286-1.266,2.481-.094.306.3.621.591,1.006.957M24.293,75.763c0,1.543.027,3.087-.01,4.629-.023.916.33,1.314,1.267,1.306q4.484-.04,8.969,0c.917.007,1.31-.38,1.3-1.3q-.028-4.63,0-9.259a1.144,1.144,0,0,0-1.016-1.315,10.077,10.077,0,0,1-3.912-1.807A1.124,1.124,0,0,0,29.337,68a10,10,0,0,1-4.054,1.833,1.1,1.1,0,0,0-1,1.3c.027,1.543.008,3.086.008,4.63m25.94.011c0-1.544-.017-3.087.008-4.63.011-.724-.195-1.146-.988-1.314A10,10,0,0,1,45.2,68a1.124,1.124,0,0,0-1.557.008,10.053,10.053,0,0,1-3.909,1.812A1.147,1.147,0,0,0,38.7,71.128q.02,4.63,0,9.259C38.7,81.3,39.07,81.7,40,81.7q4.485-.031,8.97,0c.928.008,1.3-.368,1.278-1.295-.039-1.542-.01-3.086-.01-4.629m-28.707,0a33.727,33.727,0,0,1,.028-3.764c.17-1.505-.37-2.225-1.862-2.411a6.449,6.449,0,0,1-1.747-.674c-1.379-.624-4.343,1.036-4.375,2.551-.064,2.994-.01,5.99-.03,8.985-.005.848.333,1.24,1.2,1.231,1.835-.021,3.672-.027,5.507.005.921.016,1.312-.347,1.287-1.286-.041-1.544-.011-3.092-.007-4.637M53,75.717c0,1.546.026,3.092-.01,4.637-.021.887.258,1.361,1.229,1.343q2.752-.05,5.507,0c.949.016,1.269-.419,1.261-1.322-.026-2.9-.011-5.8-.008-8.7a1.516,1.516,0,0,0-.571-1.4c-1.478-1.043-2.858-2.419-4.848-.917a3.224,3.224,0,0,1-1.509.467c-.883.11-1.079.612-1.061,1.4.034,1.5.01,2.994.01,4.492M24.313,59.09c2.047-1,2.375-2.871,3.078-4.519.788-1.844.822-1.89-.98-2.726a14.437,14.437,0,0,0-1.759-.622c-.6-.187-1.039.015-.86.676.625,2.3.459,4.662.521,7.192m25.908.021c.049-2.56-.116-4.962.525-7.3.125-.457-.173-.741-.674-.637a9.179,9.179,0,0,0-1.244.351c-2.372.863-2.434,1.116-1.558,3.382.607,1.57,1.057,3.191,2.952,4.2M24.286,65.065c.286.62-.494,1.8.561,1.936a3.817,3.817,0,0,0,2.94-1.326c.628-.608-.142-1.129-.321-1.676-.21-.638-.515-1.246-.7-1.89-.2-.667-.454-.784-.981-.29-.934.875-1.871,1.734-1.495,3.245m25.948,0c0-.241.007-.482,0-.722-.028-.866-1.388-2.946-1.921-2.794-.877.251-.581,1.3-1,1.9-.136.194-.176.457-.318.645-.876,1.158-.334,1.826.776,2.308.4.173.8.341,1.192.513.856.372,1.293.117,1.272-.841-.007-.336,0-.674,0-1.011" transform="translate(0 -10.304)"/>
        <path id="Trazado_834186" data-name="Trazado 834186" d="M52.827,10.117a11.909,11.909,0,0,1-5.472,4.13c-1.749.594-1.947.5-1.917-1.326A11.66,11.66,0,0,0,44.069,6.5a.979.979,0,0,0-.811-.628c-.236,2.1-1.66,3.676-2.535,5.523a7.724,7.724,0,0,0,.537,7.989c.72,1.074.6,1.659-.5,2.275-.705.4-1.107.336-1.543-.333-2.446-3.753-2.977-7.733-.632-11.6a13.55,13.55,0,0,0,2.131-8.361C40.68.923,40.486.3,41.014.057c.511-.235.855.318,1.235.58a13.4,13.4,0,0,1,5.785,9c.213,1.206.562.951,1.21.357a14.8,14.8,0,0,0,2.775-4.373c.219-.416.311-1.111.794-1.125.6-.018.68.725.911,1.175,1.5,2.916,3.1,5.777,2.832,9.271a16.087,16.087,0,0,1-2.177,6.378c-.494.924-1.13.381-1.724.119-.644-.283-1.072-.658-.666-1.444s.808-1.542,1.131-2.346a8.752,8.752,0,0,0-.291-7.534" transform="translate(-9.602 0)"/>
        <path id="Trazado_834187" data-name="Trazado 834187" d="M45.579,34.634c-.739,1.333-1.467,2.473-2.022,3.692a5.173,5.173,0,0,0,.185,4.617c.557,1.114-.356,1.286-1,1.66-.711.416-1.134.185-1.478-.524a7.6,7.6,0,0,1-.024-7.241,38.488,38.488,0,0,0,3.183-7.275c.1-.346.127-.843.608-.867.376-.019.51.4.691.675A19.553,19.553,0,0,1,48.9,35.178c1.047-1,1.03-2.236,1.5-3.24.158-.336.133-.86.6-.9.359-.03.515.392.693.67.806,1.26,1.679,2.485,2.383,3.8,1.547,2.889,1.032,5.789-.119,8.667-.333.833-.9.524-1.435.337-.57-.2-1.337-.253-1.1-1.185.167-.654.377-1.3.587-1.939a6.71,6.71,0,0,0,.2-3.011c-.2-1.544-.462-1.627-1.76-.773a5.934,5.934,0,0,1-1.423.7c-2.139.688-2.612.357-2.809-1.879a2.553,2.553,0,0,0-.643-1.79" transform="translate(-10.446 -7.431)"/>
        <path id="Trazado_834188" data-name="Trazado 834188" d="M25.9,27.6a10.451,10.451,0,0,1,1.734-5.882A9.993,9.993,0,0,0,29.4,17.491c.136-1.165,1.067-.9,1.8-.885.865.016,1,.609.9,1.313a10.327,10.327,0,0,1-1.667,4.431c-2.3,3.323-2.505,6.713-.219,10.118.677,1.009-.013,1.327-.653,1.8-.677.5-1.163.507-1.65-.275A11.443,11.443,0,0,1,25.9,27.6" transform="translate(-6.706 -4.292)"/>
        <path id="Trazado_834189" data-name="Trazado 834189" d="M72.5,27.692a11.367,11.367,0,0,1-2.01,6.284c-.479.77-.96.8-1.644.294-.625-.467-1.355-.771-.672-1.79,2.285-3.4,2.1-6.791-.205-10.119a10.343,10.343,0,0,1-1.672-4.429c-.1-.7.01-1.306.881-1.325.729-.017,1.672-.293,1.809.868a10.473,10.473,0,0,0,1.847,4.354A10.467,10.467,0,0,1,72.5,27.692" transform="translate(-17.16 -4.291)"/>
        <path id="Trazado_834190" data-name="Trazado 834190" d="M79.592,25.556c.084.712-.236,1.118-.956,1.109-.678-.009-1.549.262-1.73-.786a10.215,10.215,0,0,0-1.658-4.089c-.632-.929.484-1.29.946-1.8.524-.576.949-.113,1.3.3a9.341,9.341,0,0,1,2.1,5.264" transform="translate(-19.438 -5.107)"/>
        <path id="Trazado_834191" data-name="Trazado 834191" d="M19.069,28.284c-.848.07-1.434-.239-1.294-1.3A9.8,9.8,0,0,1,19.9,21.876c.425-.511.891-.8,1.418-.182.448.525,1.469.886.746,1.855A7.764,7.764,0,0,0,20.5,27.363c-.1.865-.694.921-1.436.921" transform="translate(-4.598 -5.527)"/>
        <path id="Trazado_834192" data-name="Trazado 834192" d="M31.429,10.378c-.857.091-1.388-.14-1.46-1.12a5.9,5.9,0,0,0-1.361-3.276c-.946-1.175.189-1.615.764-2.181.731-.72,1.074.077,1.438.531a9.418,9.418,0,0,1,1.907,4.594c.153,1.02-.169,1.6-1.289,1.452" transform="translate(-7.315 -0.909)"/>
        <path id="Trazado_834193" data-name="Trazado 834193" d="M67.537,10.392c-1.073.116-1.393-.434-1.265-1.388A9.591,9.591,0,0,1,68.307,4.16c.326-.4.7-.992,1.254-.41.5.522,1.657.892,1,1.905a9.756,9.756,0,0,0-1.645,4.087c-.1.808-.858.579-1.383.65" transform="translate(-17.156 -0.908)"/>
      </g>
    </g>
  </g>
</svg>
