<svg xmlns="http://www.w3.org/2000/svg" xmlns:xlink="http://www.w3.org/1999/xlink" width="120" height="120" viewBox="0 0 120 120">
  <defs>
    <clipPath id="clip-path">
      <rect id="Rectángulo_379717" data-name="Rectángulo 379717" width="74.516" height="74.636" fill="none"/>
    </clipPath>
  </defs>
  <g id="Grupo_1081417" data-name="Grupo 1081417" transform="translate(-182.5 -2569.034)">
    <circle id="Elipse_5978" data-name="Elipse 5978" cx="60" cy="60" r="60" transform="translate(182.5 2569.034)" fill="#d5fff5"/>
    <g id="Grupo_1081208" data-name="Grupo 1081208" transform="translate(205.241 2591.716)">
      <g id="Grupo_1081207" data-name="Grupo 1081207" transform="translate(0 0)" clip-path="url(#clip-path)">
        <path id="Trazado_834177" data-name="Trazado 834177" d="M45.89,44.862c-.874,2.047-1.373,4.377-3.91,4.367s-3-2.361-3.917-4.421c-.688.72-1.239,1.374-1.871,1.937a5.626,5.626,0,0,1-1.977,1.44c-2.672.7-3.857,2.806-5.181,4.9a63.427,63.427,0,0,1-8.13,10.2c-.236.243-.467.493-.724.712a1.227,1.227,0,0,1-1.818.078,1.213,1.213,0,0,1,.049-1.819c1.126-1.264,2.309-2.478,3.413-3.762A68.853,68.853,0,0,0,34.7,35.932a5.586,5.586,0,0,1,1.83-3.055,1.066,1.066,0,0,0,.435-.711c.041-1.982.054-3.965.025-5.947-.01-.658-.547-.72-1.065-.665a10,10,0,0,1-5.758-1.091,2.332,2.332,0,0,0-1.816-.029,8.862,8.862,0,0,1-9.765-3.082,8.179,8.179,0,0,1-1.05-9.388,8.865,8.865,0,0,1,8.772-5.05,1.17,1.17,0,0,0,1.3-.836,10.117,10.117,0,0,1,17.3-2.122,1.29,1.29,0,0,0,1.617.533,9.049,9.049,0,0,1,5.294-.012,3.647,3.647,0,0,0,1.571,0c5.75-.705,11.058,2.538,12.439,7.716A10.291,10.291,0,0,1,62.92,22.967a10.426,10.426,0,0,1-11.281,2.475c-1.738-.638-2.854.164-4.195.667-.493.185-.48.685-.485,1.122-.011,1.016.017,2.034-.015,3.049-.041,1.28-.067,2.488,1.223,3.333A2.938,2.938,0,0,1,49,35.107a72.871,72.871,0,0,0,6.546,14.213,5.772,5.772,0,0,1,.275.511,1.192,1.192,0,0,1-.361,1.668,1.12,1.12,0,0,1-1.743-.414c-.646-1.432-1.87-1.952-3.2-2.486-1.831-.738-3.132-2.219-4.627-3.738M39.681,27.65h.02c0,.532-.007,1.065,0,1.6.053,3.41-.539,3.064,3.25,3.107,1.017.011,1.37-.414,1.35-1.389-.036-1.74-.012-3.483.007-5.224a1.7,1.7,0,0,1,1.559-1.917,4.405,4.405,0,0,0,2.414-.926c2.211-2.088,4.451-4.185,6.452-6.445,1.885-2.128,1.422-5.343-.411-7.5a6.671,6.671,0,0,0-8.051-1.639c-1.348.64-2.083.4-2.8-.89a7.415,7.415,0,0,0-7.951-3.808A7.1,7.1,0,0,0,29.5,8.986c-.19,1.845-1.146,3.238-1.8,4.814a1.213,1.213,0,0,1-2.287-.81,9,9,0,0,1,.914-2.118c.581-.959.483-1.373-.73-1.4a6.47,6.47,0,0,0-6.459,6.593,6.506,6.506,0,0,0,6.9,6.147c.714-.069,1.026-.238.535-.958a9.811,9.811,0,0,1-1.25-2.608c-.255-.819-.275-1.6.645-1.954.938-.362,1.4.245,1.736,1.05,1.927,4.56,5.115,6.137,9.853,4.906,1.363-.354,2.02.08,2.108,1.519.071,1.157.014,2.321.014,3.482m-6,17.411.466.352c.843-.912,1.636-1.877,2.54-2.724,1.38-1.292,2.772-.978,3.59.737.145.3.227.639.376.941.37.749.334,2.046,1.295,2.061,1.088.017,1.077-1.313,1.389-2.116,1.122-2.888,2.455-3.178,4.637-1a5.624,5.624,0,0,0,2.438,1.969,90.566,90.566,0,0,1-3.794-9.36,1.241,1.241,0,0,0-1.316-.912q-3.333-.005-6.666.006a1.1,1.1,0,0,0-1.168.685,100.769,100.769,0,0,1-3.787,9.356M56.163,6.946a6.387,6.387,0,0,0,.322.69c3.227,4.841,2.261,9.882-2.529,13.065a5.124,5.124,0,0,0-1.31,1.323c-.614.845-.3,1.1.588,1.316a8.656,8.656,0,0,0,9.057-3.48,7.768,7.768,0,0,0,.524-8.39,8.337,8.337,0,0,0-6.652-4.524" transform="translate(-4.741 0)"/>
        <path id="Trazado_834178" data-name="Trazado 834178" d="M6.261,93.354H68.236c-.211-.575-.731-.775-1.122-1.061A68.817,68.817,0,0,1,52.056,77.078c-.55-.758-1.442-1.624-.309-2.493s1.708.2,2.3.951c1.174,1.477,2.3,3,3.525,4.429a62.008,62.008,0,0,0,15.65,13.283c.722.426,1.544.826,1.219,1.864-.3.966-1.2.826-1.96.826q-35.22.005-70.44,0c-.809,0-1.756.151-2.005-.95-.22-.974.56-1.337,1.236-1.731a55.876,55.876,0,0,0,8.261-5.9c.184-.158.37-.312.557-.466.65-.533,1.355-.891,2.042-.13s.282,1.445-.373,1.987C10.383,89.891,8.975,91,7.593,92.133c-.432.355-1,.565-1.332,1.221" transform="translate(0 -21.31)"/>
        <path id="Trazado_834179" data-name="Trazado 834179" d="M24.541,42.987a4.305,4.305,0,0,1-4.32,4.312,4.43,4.43,0,0,1-4.31-4.226A4.324,4.324,0,0,1,20.138,38.8a4.194,4.194,0,0,1,4.4,4.19m-4.26,1.668c.965-.056,1.686-.509,1.683-1.642a1.544,1.544,0,0,0-1.6-1.668,1.649,1.649,0,0,0-1.861,1.6c-.061,1.043.59,1.676,1.783,1.711" transform="translate(-4.566 -11.134)"/>
        <path id="Trazado_834180" data-name="Trazado 834180" d="M16,71.88a4.267,4.267,0,0,1-4.367-4.256,4.35,4.35,0,0,1,4.271-4.24A4.463,4.463,0,0,1,20.3,67.677a4.324,4.324,0,0,1-4.3,4.2m-.06-2.508c1.034-.148,1.789-.687,1.775-1.737A1.561,1.561,0,0,0,15.9,66.044a1.527,1.527,0,0,0-1.651,1.739c.041,1.054.756,1.463,1.7,1.589" transform="translate(-3.34 -18.189)"/>
        <path id="Trazado_834181" data-name="Trazado 834181" d="M79.44,53.162a4.3,4.3,0,0,1,4.332-4.18,4.231,4.231,0,0,1,4.266,4.363,4.3,4.3,0,0,1-8.6-.183m4.442,1.678c.989-.1,1.681-.615,1.613-1.74a1.57,1.57,0,0,0-1.721-1.578A1.629,1.629,0,0,0,82,53.217c0,1.08.727,1.614,1.883,1.623" transform="translate(-22.797 -14.056)"/>
        <path id="Trazado_834182" data-name="Trazado 834182" d="M59.676,73.966a1.214,1.214,0,0,1,2.205-.8,1.531,1.531,0,0,1,.207.381,27.978,27.978,0,0,0,8.554,11.693c.613.506.973,1.157.439,1.894a1.164,1.164,0,0,1-1.8.161,28.209,28.209,0,0,1-9.5-12.9c-.047-.136-.069-.281-.1-.424" transform="translate(-17.125 -20.843)"/>
        <path id="Trazado_834183" data-name="Trazado 834183" d="M37.749,78.776c-.051.176-.122.457-.216.73A25.852,25.852,0,0,1,29.757,91.02c-.221.188-.448.37-.685.538-.666.471-1.367.62-1.922-.1s-.215-1.373.416-1.878a23.672,23.672,0,0,0,6.182-7.6c.646-1.236,1.082-2.582,1.646-3.862a1.168,1.168,0,0,1,1.5-.8,1.263,1.263,0,0,1,.854,1.462" transform="translate(-7.71 -22.168)"/>
        <path id="Trazado_834184" data-name="Trazado 834184" d="M53,78.123c0,1.5,0,3,0,4.5,0,.845-.209,1.611-1.23,1.624s-1.258-.738-1.26-1.59q-.009-4.57,0-9.141c0-.863.307-1.6,1.295-1.572.892.028,1.18.732,1.185,1.538.01,1.547,0,3.1,0,4.643h0" transform="translate(-14.492 -20.645)"/>
      </g>
    </g>
  </g>
</svg>
