<svg xmlns="http://www.w3.org/2000/svg" xmlns:xlink="http://www.w3.org/1999/xlink" width="107" height="107" viewBox="0 0 107 107">
  <defs>
    <clipPath id="clip-path">
      <rect id="Rectángulo_379719" data-name="Rectángulo 379719" width="73.227" height="67.365" transform="translate(0 0)" fill="none"/>
    </clipPath>
  </defs>
  <g id="Grupo_1081389" data-name="Grupo 1081389" transform="translate(-810 -2568.689)">
    <g id="Grupo_156312" data-name="Grupo 156312" transform="translate(521.332 -1879.311)">
      <circle id="Elipse_5845" data-name="Elipse 5845" cx="53.5" cy="53.5" r="53.5" transform="translate(288.668 4448)" fill="#ffae7e"/>
    </g>
    <g id="Grupo_1081212" data-name="Grupo 1081212" transform="translate(827.243 2588)">
      <g id="Grupo_1081211" data-name="Grupo 1081211" clip-path="url(#clip-path)">
        <path id="Trazado_834194" data-name="Trazado 834194" d="M67.711,54.475c-.727-.73-1.434-1.476-2.179-2.182q-4.614-4.368-9.244-8.717a6.268,6.268,0,0,1-.6-.612,1.158,1.158,0,0,1-.016-1.672,1.118,1.118,0,0,1,1.558-.1,10.2,10.2,0,0,1,1.2,1.006q6.075,5.729,12.142,11.469A3.618,3.618,0,0,0,72.2,54.777a1.174,1.174,0,0,1,1.014,1.344c-.1.841-.731,1-1.457,1.042-3.276.17-6.557.29-9.825.559-2.6.214-5.2.543-7.779.955a54.146,54.146,0,0,0-9.79,2.387c2.592.532,5.173,1.119,7.776,1.587A129.294,129.294,0,0,0,70.4,64.74c.474.017.945.1,1.418.156.773.088,1.457.335,1.395,1.27-.065.981-.811,1.237-1.634,1.2-1.851-.092-3.7-.243-5.549-.368-12.026-.815-23.6-3.91-35.23-6.818a109.643,109.643,0,0,0-18.742-2.762,2.654,2.654,0,0,1-1.366-.343,1.143,1.143,0,0,1,.356-2.087.884.884,0,0,1,.423-.04c3.05.834,4.875-1.043,6.689-2.984a15.205,15.205,0,0,1,1.49-1.33,1.134,1.134,0,0,1,1.668.007,1.147,1.147,0,0,1-.072,1.768c-.922.954-1.867,1.887-2.918,2.945a33.842,33.842,0,0,0,5.457.93,142.123,142.123,0,0,1,14.073,3.053,4.955,4.955,0,0,0,2.933-.059,80.653,80.653,0,0,1,8.979-2.3c2.575-.519,3.761-2.328,3.189-4.926a9.024,9.024,0,0,0-2.241-4.083,51.025,51.025,0,0,0-4.652-4.423c-2.334-2.03-4.659-4.071-6.94-6.158-.707-.647-1.166-.67-1.883.014-3.822,3.644-7.693,7.238-11.548,10.849-.243.228-.478.465-.733.678a1.151,1.151,0,0,1-1.769-.009,1.181,1.181,0,0,1,.116-1.782c.979-.971,1.971-1.935,3.016-2.833.809-.695.835-1.246.011-1.949-.9-.77-1.72-1.643-2.59-2.455a1.863,1.863,0,0,0-2.886.009q-7.21,6.814-14.449,13.6c-.614.577-.969,1.031.274,1.2a1.063,1.063,0,0,1,.95,1.223,1.115,1.115,0,0,1-1.115,1.1,29.823,29.823,0,0,1-5.411-.1A1.141,1.141,0,0,1,0,55.819a1.158,1.158,0,0,1,1.07-1.3,3.5,3.5,0,0,0,1.9-1.163q7.939-7.5,15.889-14.986c2.366-2.226,4.313-2.252,6.77-.084a31.47,31.47,0,0,1,2.479,2.364c.725.8,1.238.861,2.071.053,3.276-3.183,6.632-6.283,9.952-9.42,2.249-2.125,4.4-2.134,6.634-.03q3.222,3.031,6.463,6.046c.1.1.212.192.309.3.573.62.887,1.309.185,2-.658.649-1.309.329-1.882-.207q-2.4-2.244-4.788-4.494c-.659-.618-1.313-1.243-1.995-1.836-1.282-1.113-1.908-1.108-3.212.023-2.232,1.935-2.009,1.633-.03,3.371q4.185,3.672,8.326,7.393a21.326,21.326,0,0,1,3.773,4.266A8.3,8.3,0,0,1,55.3,54.9c-.079.308-.636,1.069.359.98,3.925-.352,7.846-.753,11.767-1.144.071-.007.132-.116.288-.261"/>
        <path id="Trazado_834195" data-name="Trazado 834195" d="M33.287,16.55a9.126,9.126,0,0,1-9.053,9.124,9.251,9.251,0,0,1-9.115-9.117,9.243,9.243,0,0,1,9.031-9.2,9.119,9.119,0,0,1,9.137,9.189m-9,6.516a6.458,6.458,0,0,0,6.543-6.611,6.477,6.477,0,0,0-6.66-6.493,6.553,6.553,0,1,0,.117,13.1"/>
        <path id="Trazado_834196" data-name="Trazado 834196" d="M25.556,3.077c-.04.708-.025,1.424-.135,2.121A1.155,1.155,0,0,1,24.25,6.242a1.109,1.109,0,0,1-1.173-1.019,12.347,12.347,0,0,1-.025-4.1A1.159,1.159,0,0,1,24.292,0a1.222,1.222,0,0,1,1.162,1.229,17.439,17.439,0,0,1,.014,1.844l.088,0"/>
        <path id="Trazado_834197" data-name="Trazado 834197" d="M25.472,29.927a16.687,16.687,0,0,1-.015,1.845c-.082.716-.448,1.3-1.261,1.274a1.214,1.214,0,0,1-1.167-1.219,14.457,14.457,0,0,1,0-3.826c.093-.686.459-1.191,1.176-1.207.811-.019,1.172.572,1.251,1.288a16.687,16.687,0,0,1,.013,1.845"/>
        <path id="Trazado_834198" data-name="Trazado 834198" d="M32.4,9.627a1.225,1.225,0,0,1-1.078-.608,1.044,1.044,0,0,1,.066-1.32c.969-1.026,1.964-2.03,3-2.989a1.037,1.037,0,0,1,1.429.043.983.983,0,0,1,.338,1.374,15.306,15.306,0,0,1-3.375,3.38,1.179,1.179,0,0,1-.379.12"/>
        <path id="Trazado_834199" data-name="Trazado 834199" d="M32.311,23.447a1.467,1.467,0,0,1,1.018.446c.846.832,1.7,1.66,2.517,2.516a1.145,1.145,0,0,1,.083,1.763,1.171,1.171,0,0,1-1.778-.019c-.9-.842-1.766-1.722-2.617-2.614a1.175,1.175,0,0,1-.253-1.438,1.193,1.193,0,0,1,1.03-.654"/>
        <path id="Trazado_834200" data-name="Trazado 834200" d="M17.27,8.388a1.131,1.131,0,0,1-1.836.962,16.419,16.419,0,0,1-3.012-2.994,1.1,1.1,0,0,1,.05-1.447.966.966,0,0,1,1.264-.353A11.992,11.992,0,0,1,17.21,8.03a.831.831,0,0,1,.06.358"/>
        <path id="Trazado_834201" data-name="Trazado 834201" d="M17.271,24.643a1.252,1.252,0,0,1-.362.9c-.861.879-1.713,1.768-2.61,2.608a1.154,1.154,0,0,1-1.768.02,1.132,1.132,0,0,1,.008-1.666c.905-.964,1.854-1.89,2.824-2.79a1.057,1.057,0,0,1,1.32-.132,1.15,1.15,0,0,1,.588,1.06"/>
        <path id="Trazado_834202" data-name="Trazado 834202" d="M37.586,17.714c-.618,0-1.24.036-1.855-.01a1.124,1.124,0,0,1-1.178-1.173,1.056,1.056,0,0,1,1.017-1.168,40.41,40.41,0,0,1,4.133-.017A1.063,1.063,0,0,1,40.74,16.5a1.125,1.125,0,0,1-1.157,1.2c-.662.052-1.331.011-2,.011v.006"/>
        <path id="Trazado_834203" data-name="Trazado 834203" d="M10.789,17.685A18.572,18.572,0,0,1,8.8,17.669a1.1,1.1,0,0,1-1.058-1.14,1.067,1.067,0,0,1,1.024-1.165,40.771,40.771,0,0,1,4.122-.017A1.072,1.072,0,0,1,13.934,16.5a1.128,1.128,0,0,1-1.153,1.2c-.66.052-1.328.012-1.992.012v-.022"/>
      </g>
    </g>
  </g>
</svg>
