<svg xmlns="http://www.w3.org/2000/svg" xmlns:xlink="http://www.w3.org/1999/xlink" width="129" height="128" viewBox="0 0 129 128">
  <defs>
    <clipPath id="clip-path">
      <rect id="Rect치ngulo_379921" data-name="Rect치ngulo 379921" width="76.805" height="96.753" fill="none"/>
    </clipPath>
  </defs>
  <g id="Grupo_1081413" data-name="Grupo 1081413" transform="translate(-389 -1569)">
    <g id="Grupo_108927" data-name="Grupo 108927" transform="translate(-1 -2898)">
      <path id="Rect치ngulo_36179" data-name="Rect치ngulo 36179" d="M0,0H129V128H0Z" transform="translate(390 4467)" fill="#c1e29a"/>
    </g>
    <g id="Grupo_1081400" data-name="Grupo 1081400" transform="translate(415.098 1584.623)">
      <g id="Grupo_1081399" data-name="Grupo 1081399" clip-path="url(#clip-path)">
        <path id="Trazado_835043" data-name="Trazado 835043" d="M.007,51.364q0-16.186,0-32.371A9.221,9.221,0,0,1,1.3,13.59a6.7,6.7,0,0,1,5.773-2.984c2.635-.036,5.27-.028,7.9-.007a2.117,2.117,0,0,0,2.178-1.1,6.419,6.419,0,0,1,5.529-3.378,2.161,2.161,0,0,0,2.045-1.542A7.259,7.259,0,0,1,31.678,0a7.174,7.174,0,0,1,7.056,4.4,2.6,2.6,0,0,0,2.5,1.761,5.811,5.811,0,0,1,4.928,3.024,2.622,2.622,0,0,0,2.76,1.429c2.445-.055,4.894-.04,7.34-.008,4.4.058,7.148,2.8,7.155,7.227q.033,20.7-.024,41.405a2.675,2.675,0,0,0,2.014,3.01,17.367,17.367,0,0,1,11.35,17.378c-.654,9.052-6.652,15.659-14.987,16.9A17.307,17.307,0,0,1,48.261,93.2a5.049,5.049,0,0,0-3.286-1.069q-18.537.048-37.076.017C2.666,92.15.031,89.566.017,84.3-.014,73.321.007,62.342.007,51.364M9.2,51.355c0,9.847.016,19.694-.018,29.541,0,1.34.235,2.1,1.83,2.1,9.533-.048,19.067-.031,28.6-.015,1.262,0,1.769-.322,1.568-1.77A17.606,17.606,0,0,1,51.95,62.43c1.872-.746,2.339-1.749,2.326-3.622-.076-11.289.01-22.579-.057-33.868-.036-6.06,1.1-5.005-5.33-5.14-1.2-.025-1.638.41-1.685,1.636-.092,2.421-1.122,3.561-3.428,3.58-8.027.068-16.056.05-24.083.009-1.662-.009-3.148-.84-3.219-2.562-.107-2.6-1.5-2.91-3.547-2.662a6.146,6.146,0,0,1-1.5,0c-1.7-.216-2.276.436-2.262,2.2.078,9.784.038,19.568.038,29.352M44.151,78.762a14.832,14.832,0,0,0,14.7,14.987c7.975.132,14.88-6.783,14.878-14.9a14.966,14.966,0,0,0-14.7-14.873A14.789,14.789,0,0,0,44.151,78.762M24.378,89.031c5.774,0,11.547.011,17.321-.016.64,0,1.606.372,1.851-.411s-.48-1.5-.978-2.126c-.343-.433-.912-.352-1.41-.357-1.067-.01-2.134-.006-3.2-.006q-13.931,0-27.863-.006c-2.67,0-3.781-1.046-3.995-3.676-.051-.625-.036-1.255-.036-1.882q0-29.181,0-58.361a20.189,20.189,0,0,1,.051-2.069c.236-2.282,1.373-3.37,3.672-3.457,1.567-.059,3.137-.036,4.706-.017,1.012.012,1.7-.229,1.7-1.449s-.7-1.44-1.706-1.432c-2.322.02-4.644-.011-6.966.009C4.471,13.8,3.17,15.083,3.169,18.14q-.017,33.228,0,66.457c0,3.215,1.213,4.414,4.455,4.427,5.585.022,11.17.006,16.755.007M31.6,21.883c3.576,0,7.153-.032,10.728.017,1.3.017,1.81-.494,1.784-1.777-.048-2.257.01-4.518-.018-6.775-.037-2.947-1.17-4.148-4.13-4.068-2.1.055-3.4-.358-3.764-2.793-.313-2.12-2.272-3.331-4.429-3.319a4.407,4.407,0,0,0-4.408,3.155c-.886,2.856-.886,2.856-3.984,2.924-2.73.059-3.975,1.3-4.014,4.077-.031,2.2.076,4.4-.037,6.587-.083,1.63.615,2.034,2.107,2,3.386-.078,6.775-.024,10.164-.027m28.693,16.5c0-6.838.027-13.677-.012-20.515-.017-2.908-1.256-4.073-4.172-4.1-2.322-.02-4.643,0-6.964,0-.966,0-1.9-.082-1.923,1.375-.027,1.553.948,1.508,2,1.5,1.317-.008,2.636-.017,3.952,0,3.094.047,4.213,1.15,4.217,4.2q.018,12.516.005,25.032c0,4.455-.011,8.909.008,13.363.007,1.565.737,2.135,2.06,1.707,1.1-.356.82-1.3.823-2.055.023-6.839.013-13.677.008-20.515" transform="translate(0 0)"/>
        <path id="Trazado_835044" data-name="Trazado 835044" d="M53.282,42.516c0,2.949.022,5.9-.01,8.845-.023,2.121-.466,2.551-2.527,2.577-1.379.017-2.76,0-4.139-.011a1.592,1.592,0,0,1-1.775-1.744q-.025-9.691,0-19.38a1.594,1.594,0,0,1,1.8-1.722q1.5-.014,3.011-.016c3.57,0,3.64.072,3.642,3.737q0,3.858,0,7.715M50.108,42.5c0-2.251.014-4.5-.008-6.752-.007-.783.171-1.765-1.106-1.73-1.118.031-1.029.908-1.032,1.645q-.02,6.846,0,13.692c0,.739-.078,1.612,1.041,1.636,1.279.027,1.09-.959,1.1-1.739.023-2.25.008-4.5.008-6.752" transform="translate(-5.717 -3.962)"/>
        <path id="Trazado_835045" data-name="Trazado 835045" d="M39.957,45.244c0,2.384-.024,4.769.01,7.153.022,1.5-.634,2.2-2.149,2.16-1.379-.039-2.761-.033-4.141,0a1.85,1.85,0,0,1-2.144-2.037q-.041-7.34.006-14.681a1.815,1.815,0,0,1,2.018-1.98c1.443-.005,2.886.006,4.329-.01A1.794,1.794,0,0,1,39.961,37.9c-.017,2.446-.005,4.894,0,7.341m-5.281.055q0,2.541,0,5.083c0,.706.192,1.241,1.05,1.231.826-.01,1.091-.525,1.093-1.228q.018-4.989,0-9.977c0-.769-.263-1.381-1.19-1.34-.864.038-.954.673-.956,1.337-.006,1.631,0,3.263,0,4.894" transform="translate(-4.02 -4.572)"/>
        <path id="Trazado_835046" data-name="Trazado 835046" d="M26.9,47.923c0,1.693.017,3.388-.006,5.082a1.917,1.917,0,0,1-2.237,2.143c-1.442-.039-2.886-.012-4.329-.014a1.647,1.647,0,0,1-1.861-1.852q-.008-5.364.005-10.729a1.777,1.777,0,0,1,1.872-1.916c.126-.01.251-.01.376-.018,6.189-.386,6.2-.38,6.2,5.8v1.506Zm-3.162.147c0-1,0-2,0-3,0-.7-.2-1.243-1.047-1.234-.822.01-1.082.536-1.087,1.234q-.022,3,.005,6.005A1.011,1.011,0,0,0,22.786,52.2c.739-.029.947-.5.952-1.13.006-1,0-2,0-3" transform="translate(-2.356 -5.164)"/>
        <path id="Trazado_835047" data-name="Trazado 835047" d="M34.2,61.313q6.207,0,12.414,0a13.644,13.644,0,0,1,1.691.054,1.458,1.458,0,0,1,1.466,1.436,1.485,1.485,0,0,1-1.386,1.527,10.526,10.526,0,0,1-1.869.133q-12.414.013-24.829-.007c-1.262,0-3.019.306-3.072-1.567-.057-2,1.755-1.549,2.983-1.561,4.2-.044,8.4-.017,12.6-.017" transform="translate(-2.374 -7.819)"/>
        <path id="Trazado_835048" data-name="Trazado 835048" d="M34.019,71.831c-4.141,0-8.28.006-12.421-.007a8.514,8.514,0,0,1-1.863-.168,1.462,1.462,0,0,1,.074-2.888,8.746,8.746,0,0,1,1.686-.1q12.7-.008,25.406,0a8.672,8.672,0,0,1,1.5.078,1.478,1.478,0,0,1,1.387,1.519,1.414,1.414,0,0,1-1.294,1.4,13.006,13.006,0,0,1-2.243.161c-4.078.014-8.155.006-12.233.006" transform="translate(-2.365 -8.759)"/>
        <path id="Trazado_835049" data-name="Trazado 835049" d="M29.2,76.021q4.23,0,8.459,0c1.066,0,2.16.166,2.208,1.481.053,1.449-1.118,1.661-2.236,1.665q-8.459.03-16.918,0c-1.064,0-2.136-.274-2.123-1.59s1.079-1.544,2.151-1.549c2.82-.014,5.639,0,8.459-.006" transform="translate(-2.371 -9.697)"/>
        <path id="Trazado_835050" data-name="Trazado 835050" d="M29.206,86.524c-2.757,0-5.514.014-8.271,0-1.109-.007-2.32-.13-2.34-1.557s1.177-1.589,2.3-1.59q8.364-.016,16.729,0c1.135,0,2.287.179,2.243,1.631-.038,1.315-1.15,1.5-2.2,1.511-2.819.024-5.639.008-8.458.01" transform="translate(-2.372 -10.634)"/>
        <path id="Trazado_835051" data-name="Trazado 835051" d="M63.014,96.515c-1.23.011-6.608-5.279-6.638-6.41a1.424,1.424,0,0,1,.789-1.385,1.3,1.3,0,0,1,1.569.2c1.031.911,2.075,1.817,3.018,2.816.846.9,1.484.843,2.327-.023,2.62-2.691,5.3-5.325,7.958-7.979.4-.4.793-.8,1.226-1.161a1.487,1.487,0,0,1,2.08,2.126c-.882.973-1.825,1.891-2.753,2.821q-3.913,3.922-7.838,7.834c-.528.525-1.022,1.122-1.735,1.157" transform="translate(-7.191 -10.475)"/>
        <path id="Trazado_835052" data-name="Trazado 835052" d="M34.873,22.241c-2.631,0-5.263.005-7.895,0-1.136,0-2.3-.2-2.269-1.622.026-1.289,1.131-1.519,2.194-1.522q7.988-.018,15.977.006c1.1,0,2.3.168,2.252,1.636s-1.263,1.5-2.364,1.5c-2.631.009-5.263,0-7.895,0" transform="translate(-3.152 -2.434)"/>
      </g>
    </g>
  </g>
</svg>
