<svg xmlns="http://www.w3.org/2000/svg" xmlns:xlink="http://www.w3.org/1999/xlink" width="169" height="169" viewBox="0 0 169 169">
  <defs>
    <clipPath id="clip-path">
      <rect id="Rect치ngulo_379912" data-name="Rect치ngulo 379912" width="92.157" height="98.907" fill="none"/>
    </clipPath>
  </defs>
  <g id="Grupo_1081426" data-name="Grupo 1081426" transform="translate(-719.001 -857.215)">
    <g id="Grupo_1081370" data-name="Grupo 1081370" transform="translate(-18 -1200.785)">
      <g id="Grupo_159183" data-name="Grupo 159183" transform="translate(737.001 2058)">
        <path id="Uni칩n_12" data-name="Uni칩n 12" d="M84.5,0A84.5,84.5,0,1,1,0,84.5,84.5,84.5,0,0,1,84.5,0Z" fill="#ffae7e"/>
      </g>
    </g>
    <g id="Grupo_1081378" data-name="Grupo 1081378" transform="translate(757.422 891.489)">
      <g id="Grupo_1081377" data-name="Grupo 1081377" clip-path="url(#clip-path)">
        <path id="Trazado_834894" data-name="Trazado 834894" d="M0,52.756q0-19.5,0-39C0,8.819,1.965,6.84,6.855,6.829c.385,0,.772,0,1.158,0,1.608-.013,3.43.439,4.764-.172C14.2,6,13.952,3.856,14.591,2.424A3.532,3.532,0,0,1,18,.055q8.976-.02,17.953,0a3.578,3.578,0,0,1,3.522,2.753c1.44,4.023,1.45,4.02,5.691,4.02,1.673,0,3.349-.066,5.018.025A1.369,1.369,0,0,0,51.8,5.65C53.535-1.1,54.907.1,59.785.055,64.353.011,68.922.039,73.491.049c2.533.005,3.477.687,4.276,3.024C79.05,6.829,79.05,6.825,83.09,6.831c1.286,0,2.578-.049,3.858.052a5.456,5.456,0,0,1,5.177,5.244c.042.577.031,1.158.031,1.737q0,38.9,0,77.8c0,5.389-1.877,7.243-7.327,7.243q-39,0-77.99,0C2.066,98.906.005,96.873,0,92.139Q0,72.448,0,52.756m81.21-42.98C78,9.753,74.784,9.7,71.57,9.721c-1.084.005-1.91-.215-2.144-1.418a1.68,1.68,0,0,1,1.969-1.4c1.155.042,2.314.012,3.471,0,.46-.005.878-.022.889-.7a3.12,3.12,0,0,0-3.248-3.344c-4.756-.005-9.515.1-14.267-.049-1.976-.06-2.862.612-3.364,2.49-.378,1.415-.044,1.665,1.258,1.632,2.568-.064,5.141-.005,7.712-.024.989-.007,1.8.182,2.006,1.327-.249,1.641-1.49,1.481-2.66,1.481q-28.28,0-56.561,0c-2.886,0-3.767.9-3.776,3.815-.007,2.445.1,4.9-.039,7.334-.091,1.576.311,2.02,1.959,2.014,21.3-.064,42.6-.038,63.9-.045,4.438,0,8.877-.039,13.315-.06,2.048.02,4.1.029,6.142.068.708.014,1.211-.02,1.195-.981-.052-3.137.048-6.277-.056-9.411a2.643,2.643,0,0,0-2.874-2.717c-1.726-.036-3.453.03-5.18.052m-.007,86.1a16.671,16.671,0,0,0,4.029.139c3.281.014,4.073-.81,4.073-4.116q0-32.043.041-64.085c0-1.666-.358-2.152-2.093-2.148q-41.21.088-82.419,0c-1.845,0-2.254.615-1.912,2.2-.023.706-.066,1.411-.066,2.117q-.007,30.772,0,61.545c0,3.838.631,4.47,4.475,4.47q35.884,0,71.767,0c.7,0,1.407-.076,2.109-.117M26.964,6.905c3.087,0,6.174.014,9.26-.015.494,0,1.244.3,1.29-.671A3.131,3.131,0,0,0,34.3,2.852c-4.759-.006-9.522.119-14.275-.057-2.138-.08-2.951.765-3.42,2.678-.3,1.225-.02,1.46,1.1,1.446,3.086-.039,6.173-.013,9.26-.013" transform="translate(0 0)" fill="#030303"/>
        <path id="Trazado_834895" data-name="Trazado 834895" d="M81.564,99.385c-.7.041-1.406.117-2.109.117q-35.884.009-71.767,0c-3.844,0-4.475-.632-4.475-4.47q0-30.772,0-61.545c0-.706.044-1.411.067-2.117q38.635-.009,77.271-.017c.321,0,.642.005.963.024a.755.755,0,0,1,.807.867c-.094,1.12.409,2.3-.346,3.354A4.871,4.871,0,0,0,78.6,34.5c-2.632.049-5.267.021-7.9.012-1.627-.006-3.3.287-4.6-1.185-.521-.587-1.432-.457-2.205-.457q-6.841.005-13.681,0c-.773,0-1.687-.141-2.209.444-1.3,1.465-2.967,1.2-4.6,1.2-2.633,0-5.267.019-7.9-.007-1.132-.012-2.059.2-2.283,1.512l-3.487.019c-.337-1.335-1.3-1.549-2.515-1.537-4.247.038-8.494.008-12.741.017-3.287.006-4.375,1.11-4.386,4.415,0,.644-.02,1.288.007,1.931.083,1.946,1.092,3.341,2.976,3.384,1.724.038,1.729.842,1.722,2.123-.043,7.207-.008,14.415-.033,21.623,0,1.2.122,2.206,1.56,2.427q-.005,1.719-.01,3.438c-1.205.291-1.584,1.069-1.559,2.277.062,2.958.016,5.918.021,8.878.006,3.276,1.084,4.348,4.42,4.349q27.211.007,54.423,0c3.446,0,4.493-1.048,4.494-4.47,0-12.738.026-25.476-.032-38.213-.006-1.539.044-2.619,2-2.448.725.063,1.283-.523,1.871-.907.688.625.4,1.45.4,2.185q.025,24.983.029,49.965a8.773,8.773,0,0,1-.806,3.914" transform="translate(-0.359 -3.508)" fill="#b5c2cc"/>
        <path id="Trazado_834896" data-name="Trazado 834896" d="M82.339,23.793c-4.438.021-8.877.06-13.315.06-21.3.007-42.6-.019-63.9.045-1.647.005-2.05-.439-1.958-2.014.141-2.437.031-4.889.039-7.334.009-2.917.889-3.815,3.776-3.815q28.281-.007,56.561,0c1.17,0,2.411.161,2.66-1.481a14.376,14.376,0,0,1,3.575.075c.234,1.2,1.06,1.424,2.144,1.418,3.214-.017,6.428.032,9.642.056a9.743,9.743,0,0,1,.795,4.8c-.052,2.728-.019,5.458-.021,8.188M17.157,12.3c-2.608-.129-4.513,1.209-5.1,3.16a4.513,4.513,0,0,0,2.1,5.3,4.459,4.459,0,0,0,5.6-.974,3.885,3.885,0,0,1,2.3-1.758c1.112-.226,1.205-2.161.149-2.336-1.518-.25-1.943-1.451-2.831-2.255A4.333,4.333,0,0,0,17.157,12.3m13.406-.036A4.538,4.538,0,0,0,28.2,20.733a4.492,4.492,0,0,0,5.489-.76c.762-.816,1.244-1.782,2.6-2.012.987-.169,1.051-2.063.1-2.242-1.545-.29-2.028-1.568-3-2.379a4.429,4.429,0,0,0-2.823-1.073M60.27,21.338A4.253,4.253,0,0,0,63.734,19.8c.633-.79,1.07-1.679,2.306-1.745.611-.032.885-.692.854-1.332s-.441-1.254-1-1.249c-1.121.012-1.463-.764-2-1.458a4.4,4.4,0,0,0-5.364-1.357,4.531,4.531,0,0,0,1.743,8.679m9.685-3.827a4.232,4.232,0,0,0,2.866,3.524,4.425,4.425,0,0,0,5.069-1.3c.6-.721.961-1.619,2.152-1.639.647-.011.942-.667.946-1.276.005-.7-.375-1.384-1.08-1.371-1.068.02-1.361-.7-1.849-1.369a4.409,4.409,0,0,0-4.973-1.589c-1.955.653-3.153,2.321-3.131,5.02m-24.692,2a1.489,1.489,0,0,0-1.456-1.385,1.353,1.353,0,0,0-1.461,1.446,1.329,1.329,0,0,0,1.314,1.4c.882.059,1.422-.456,1.6-1.464m5.281.041c-.125-.836-.571-1.449-1.481-1.423a1.359,1.359,0,0,0-1.416,1.493A1.332,1.332,0,0,0,49,20.98c.886.044,1.4-.513,1.54-1.427m-5.3-4.9a1.434,1.434,0,0,0-1.611-1.3,1.291,1.291,0,0,0-1.29,1.391,1.32,1.32,0,0,0,1.478,1.4c.927-.04,1.323-.636,1.423-1.49m5.3.141c-.1-.83-.484-1.417-1.426-1.446a1.3,1.3,0,0,0-1.457,1.215,1.326,1.326,0,0,0,1.292,1.576c.928.1,1.393-.466,1.591-1.345" transform="translate(-0.353 -1.027)" fill="#d5e3e7"/>
        <path id="Trazado_834897" data-name="Trazado 834897" d="M81.559,99.109a8.773,8.773,0,0,0,.806-3.914q-.039-24.983-.029-49.965c0-.734.292-1.56-.4-2.185a8.328,8.328,0,0,0,.032-7.719c.755-1.051.252-2.235.346-3.354a.755.755,0,0,0-.807-.867c-.321-.019-.642-.024-.963-.024q-38.636.007-77.271.017c-.342-1.587.067-2.207,1.912-2.2q41.209.1,82.418,0c1.736,0,2.1.482,2.093,2.148q-.089,32.042-.04,64.085c0,3.306-.792,4.13-4.074,4.115a16.62,16.62,0,0,1-4.028-.139" transform="translate(-0.354 -3.233)" fill="#9ca8b4"/>
        <path id="Trazado_834898" data-name="Trazado 834898" d="M92.216,23.99c0-2.729-.03-5.459.021-8.188a9.768,9.768,0,0,0-.795-4.8c1.727-.021,3.455-.088,5.18-.051A2.643,2.643,0,0,1,99.5,13.665c.1,3.134,0,6.275.057,9.411.015.961-.487.995-1.195.981-2.047-.039-4.1-.048-6.142-.068" transform="translate(-10.23 -1.224)" fill="#c3d1db"/>
        <path id="Trazado_834899" data-name="Trazado 834899" d="M76.32,8.655a14.376,14.376,0,0,0-3.575-.075c-.205-1.145-1.017-1.334-2.006-1.327-2.57.019-5.143-.041-7.712.024-1.3.032-1.636-.218-1.258-1.632.5-1.879,1.388-2.551,3.364-2.49C69.885,3.3,74.645,3.2,79.4,3.2a3.119,3.119,0,0,1,3.248,3.344c-.011.68-.429.7-.889.7-1.157.012-2.315.043-3.471,0A1.682,1.682,0,0,0,76.32,8.655" transform="translate(-6.894 -0.352)" fill="#52656d"/>
        <path id="Trazado_834900" data-name="Trazado 834900" d="M29.04,7.257c-3.087,0-6.174-.026-9.26.013-1.123.014-1.4-.221-1.1-1.446.469-1.913,1.282-2.758,3.42-2.678,4.752.176,9.516.051,14.275.057A3.131,3.131,0,0,1,39.591,6.57c-.046.973-.8.667-1.29.671-3.086.029-6.173.015-9.26.015" transform="translate(-2.077 -0.351)" fill="#52656d"/>
        <path id="Trazado_834901" data-name="Trazado 834901" d="M82.841,35.791a8.328,8.328,0,0,1-.031,7.719c-.588.384-1.147.971-1.872.907-1.955-.171-2.005.909-2,2.448.058,12.738.034,25.476.031,38.214,0,3.421-1.047,4.468-4.494,4.469q-27.211.007-54.423,0c-3.336,0-4.414-1.073-4.419-4.349-.005-2.959.04-5.919-.021-8.878-.026-1.208.353-1.986,1.559-2.277l1.053.554a5.454,5.454,0,0,1,.315,2.249c.028,2.287.076,4.573.117,6.86-.3,3.109-.3,3.109,2.771,2.931l24.3-.026c9.692.032,19.385.047,29.078.115,1.461.01,1.268-.918,1.269-1.806,0-6.164.032-12.33-.01-18.494-.023-3.4.2-6.8-.136-10.189a87.574,87.574,0,0,0,.09-9.162c.356-2.63.356-2.631-2.1-2.634q-1.431,0-2.86,0c-2.631,0-2.631,0-2.306,2.632q.031,7.681.062,15.363c-.04,1.344-.062,2.689-.124,4.032A3.422,3.422,0,0,1,65.063,70.1c-1.282.06-2.567.058-3.85.083l-9.784-.074c-3.195-.025-4.343-1.2-4.379-4.439-.017-1.6-.066-3.192-.1-4.788.31-3.577.31-3.577-1.971-3.437-3.859-.271-4.455-.838-4.881-4.652a31.655,31.655,0,0,0,.025-5.759c.257-2.517.257-2.52-2.078-2.52q-8.679,0-17.358,0c-2.338,0-2.338,0-2.048,2.528-.034.7-.1,1.4-.1,2.106q-.012,9.423,0,18.846c0,1.113.06,2.241-1.359,2.608-1.438-.221-1.564-1.23-1.56-2.427.026-7.208-.009-14.416.033-21.623.008-1.281,0-2.084-1.721-2.123-1.885-.043-2.894-1.438-2.976-3.384-.028-.643-.01-1.287-.008-1.931.012-3.3,1.1-4.408,4.386-4.415,4.247-.009,8.495.021,12.742-.017,1.211-.011,2.177.2,2.514,1.537-.366,1.181-1.217,1.474-2.376,1.464-4.3-.041-8.609.063-12.909-.053-1.839-.049-1.468,1.074-1.524,2.121-.061,1.138-.008,1.9,1.566,1.887q15.124-.105,30.251.008c1.679.014,1.52-.862,1.449-1.89-.067-.949.554-2.224-1.409-2.129-3.076.15-6.164.022-9.247.049-1.123.009-2.061-.167-2.313-1.475.225-1.315,1.151-1.523,2.282-1.512,2.633.026,5.267.009,7.9.007,1.632,0,3.295.266,4.6-1.2.521-.585,1.435-.444,2.209-.444q6.839,0,13.68,0c.774,0,1.685-.131,2.206.456,1.306,1.472,2.977,1.179,4.6,1.185,2.633.011,5.267.037,7.9-.012a4.87,4.87,0,0,1,3.382,1.1m-6.2,5.747a21.662,21.662,0,0,1,2.282.083c1.508.208,1.918-.37,1.953-1.886.039-1.705-.466-2.336-2.143-2.077a18.343,18.343,0,0,1-2.089.094c-2.229-.027-4.463.011-6.688-.1-1.866-.092-1.186,1.239-1.23,2.088s-.465,1.989,1.226,1.892c2.224-.127,4.459-.071,6.689-.093M61.18,36.028c-3.335-.036-6.669-.06-10-.114-.925-.015-1.195.407-1.193,1.29q.032,14.35,0,28.7c0,.9.276,1.259,1.205,1.242,3.336-.061,6.673-.067,10.009-.094.7.028,1.406.08,2.109.083,2.517.01,2.518,0,2.518-2.422q0-12.317,0-24.634c0-4.526,0-4.526-4.645-4.053M43.092,49.348c0,1.342-.042,2.686.011,4.026.066,1.681,1.4.893,2.184.973.695.07,1.774.464,1.753-.986-.036-2.62-.024-5.24-.027-7.86a.794.794,0,0,0-.718-.918c-2.4-.555-3.188.027-3.2,2.465,0,.766,0,1.534,0,2.3" transform="translate(-1.224 -3.696)" fill="#050505"/>
        <path id="Trazado_834902" data-name="Trazado 834902" d="M40.909,48.8a31.576,31.576,0,0,1-.026,5.759c-.737.189-1.131.818-1.621,1.307q-9.389,9.367-18.755,18.756c-.538.54-1,1.157-1.5,1.738l-1.054-.554q.005-1.719.01-3.438c1.418-.367,1.359-1.495,1.358-2.608q-.005-9.423,0-18.846c0-.7.063-1.4.1-2.106L40.909,48.8" transform="translate(-2.009 -5.459)" fill="#a7e6ee"/>
        <path id="Trazado_834903" data-name="Trazado 834903" d="M34.434,36.6c.252,1.308,1.19,1.484,2.314,1.474,3.083-.026,6.171.1,9.247-.048,1.963-.1,1.342,1.179,1.409,2.129.072,1.028.231,1.9-1.449,1.889Q30.831,41.915,15.7,42.04c-1.573.011-1.627-.75-1.566-1.888.057-1.047-.315-2.17,1.524-2.12,4.3.115,8.606.012,12.909.053,1.16.011,2.011-.282,2.377-1.465l3.487-.018" transform="translate(-1.58 -4.095)" fill="#f3f5f6"/>
        <path id="Trazado_834904" data-name="Trazado 834904" d="M18.253,12.693a4.341,4.341,0,0,1,2.227,1.132c.887.8,1.313,2,2.83,2.255,1.056.175.963,2.109-.149,2.335a3.889,3.889,0,0,0-2.3,1.759,4.46,4.46,0,0,1-5.6.974,4.514,4.514,0,0,1-2.1-5.3c.588-1.951,2.493-3.288,5.1-3.16m-.719,2.9c-.93.054-1.607.488-1.663,1.484a1.5,1.5,0,0,0,1.607,1.741,1.471,1.471,0,0,0,1.581-1.572c.039-1-.533-1.525-1.524-1.653" transform="translate(-1.449 -1.419)" fill="#060707"/>
        <path id="Trazado_834905" data-name="Trazado 834905" d="M33.433,12.655a4.429,4.429,0,0,1,2.823,1.073c.969.812,1.451,2.09,3,2.378.955.179.891,2.073-.1,2.242-1.355.232-1.838,1.2-2.6,2.013a4.494,4.494,0,0,1-5.489.76,4.538,4.538,0,0,1,2.363-8.467m1.582,4.505a1.61,1.61,0,0,0-1.8-1.547,1.459,1.459,0,0,0-1.467,1.639,1.5,1.5,0,0,0,1.564,1.569c1.052.012,1.578-.647,1.7-1.661" transform="translate(-3.222 -1.416)" fill="#060707"/>
        <path id="Trazado_834906" data-name="Trazado 834906" d="M66.9,21.726a4.531,4.531,0,0,1-1.743-8.679,4.4,4.4,0,0,1,5.363,1.358c.537.694.88,1.47,2,1.458.561-.006.972.594,1,1.248s-.243,1.3-.854,1.332c-1.237.066-1.674.955-2.306,1.745A4.254,4.254,0,0,1,66.9,21.726m0-2.878a1.575,1.575,0,0,0,1.671-1.519,1.432,1.432,0,0,0-1.409-1.71,1.467,1.467,0,0,0-1.766,1.552,1.582,1.582,0,0,0,1.5,1.677" transform="translate(-6.985 -1.415)" fill="#060707"/>
        <path id="Trazado_834907" data-name="Trazado 834907" d="M78.37,17.9c-.022-2.7,1.175-4.368,3.13-5.02a4.406,4.406,0,0,1,4.973,1.589c.489.669.782,1.389,1.85,1.369.7-.012,1.085.67,1.08,1.37,0,.61-.3,1.266-.946,1.277-1.192.019-1.553.917-2.152,1.639a4.426,4.426,0,0,1-5.069,1.3A4.232,4.232,0,0,1,78.37,17.9m6.177-.652A1.62,1.62,0,0,0,83,15.613a1.5,1.5,0,0,0-1.75,1.56,1.513,1.513,0,0,0,1.5,1.644c1.068.069,1.592-.592,1.8-1.569" transform="translate(-8.768 -1.415)" fill="#060707"/>
        <path id="Trazado_834908" data-name="Trazado 834908" d="M50.2,20.639c-.181,1.007-.721,1.522-1.6,1.463a1.329,1.329,0,0,1-1.314-1.4,1.352,1.352,0,0,1,1.461-1.446A1.489,1.489,0,0,1,50.2,20.639" transform="translate(-5.29 -2.154)" fill="#060707"/>
        <path id="Trazado_834909" data-name="Trazado 834909" d="M56.148,20.68c-.137.914-.654,1.47-1.54,1.427a1.333,1.333,0,0,1-1.357-1.357,1.359,1.359,0,0,1,1.417-1.493c.91-.026,1.355.587,1.481,1.423" transform="translate(-5.957 -2.154)" fill="#060707"/>
        <path id="Trazado_834910" data-name="Trazado 834910" d="M50.185,15.175c-.1.854-.5,1.45-1.423,1.49a1.32,1.32,0,0,1-1.478-1.4,1.291,1.291,0,0,1,1.289-1.391,1.435,1.435,0,0,1,1.612,1.3" transform="translate(-5.29 -1.551)" fill="#060707"/>
        <path id="Trazado_834911" data-name="Trazado 834911" d="M56.15,15.317c-.2.878-.663,1.442-1.591,1.345a1.326,1.326,0,0,1-1.292-1.576,1.3,1.3,0,0,1,1.457-1.215c.942.028,1.327.616,1.426,1.446" transform="translate(-5.958 -1.552)" fill="#060707"/>
        <path id="Trazado_834912" data-name="Trazado 834912" d="M65.6,73.107c1.283-.026,2.568-.024,3.85-.083a3.421,3.421,0,0,0,3.628-3.632c.062-1.344.084-2.688.124-4.033,1.545-.842,2.472-2.364,3.791-3.449,1.109-.913,1.77-2.37,3.32-2.749.333,3.393.113,6.793.136,10.189.043,6.165.014,12.33.01,18.5,0,.886.193,1.814-1.269,1.8-9.692-.068-19.385-.083-29.078-.115.122-.776.774-1.158,1.259-1.647Q57.818,81.4,64.29,74.937c.528-.531,1.25-.949,1.3-1.83" transform="translate(-5.606 -6.618)" fill="#a6e4eb"/>
        <path id="Trazado_834913" data-name="Trazado 834913" d="M62.535,73.692c-.054.88-.776,1.3-1.3,1.83q-6.452,6.485-12.924,12.95c-.486.488-1.138.87-1.259,1.647l-24.3.026c.125-.849.836-1.266,1.366-1.8q11.273-11.3,22.571-22.574c.494-.494,1.054-.922,1.584-1.38.035,1.6.083,3.192.1,4.788.036,3.242,1.184,4.415,4.378,4.439l9.784.074" transform="translate(-2.545 -7.204)" fill="#d3f1f5"/>
        <path id="Trazado_834914" data-name="Trazado 834914" d="M66.116,67.416c-3.337.027-6.673.033-10.009.094-.929.017-1.207-.344-1.205-1.242q.035-14.35,0-28.7c0-.884.268-1.306,1.193-1.29,3.334.053,6.668.078,10,.114q.008,15.513.018,31.027" transform="translate(-6.142 -4.058)" fill="#fb8f84"/>
        <path id="Trazado_834915" data-name="Trazado 834915" d="M19.144,77.086c.5-.581.957-1.2,1.5-1.738Q30,65.957,39.4,56.59c.49-.488.884-1.117,1.621-1.306.427,3.814,1.023,4.381,4.881,4.652a7.512,7.512,0,0,1-.589.753Q32.975,73.036,20.628,85.368a10.874,10.874,0,0,1-1.052.825c-.04-2.286-.088-4.572-.116-6.859a5.452,5.452,0,0,0-.315-2.249" transform="translate(-2.142 -6.185)" fill="#d3f1f5"/>
        <path id="Trazado_834916" data-name="Trazado 834916" d="M67.527,67.405q-.009-15.513-.018-31.027c4.645-.472,4.645-.472,4.645,4.053V65.066c0,2.425,0,2.432-2.518,2.422-.7,0-1.406-.054-2.109-.083" transform="translate(-7.553 -4.047)" fill="#f67a68"/>
        <path id="Trazado_834917" data-name="Trazado 834917" d="M19.614,86.774a10.755,10.755,0,0,0,1.052-.825Q33.015,73.618,45.347,61.27a7.552,7.552,0,0,0,.589-.754c2.281-.14,2.281-.14,1.971,3.438-.529.458-1.09.885-1.584,1.379Q35.026,76.61,23.752,87.908c-.53.531-1.241.949-1.366,1.8-3.068.179-3.068.179-2.772-2.931" transform="translate(-2.18 -6.765)" fill="#a6e4eb"/>
        <path id="Trazado_834918" data-name="Trazado 834918" d="M83.209,57.973c-1.55.379-2.211,1.836-3.32,2.749-1.32,1.085-2.246,2.607-3.791,3.449q-.031-7.681-.062-15.363a25.449,25.449,0,0,1,7.263,0,87.574,87.574,0,0,1-.09,9.162" transform="translate(-8.506 -5.431)" fill="#d3f1f5"/>
        <path id="Trazado_834919" data-name="Trazado 834919" d="M41.077,48.482l-21.485.009c-.29-2.526-.29-2.528,2.048-2.528q8.679,0,17.358,0c2.335,0,2.335,0,2.078,2.52" transform="translate(-2.177 -5.142)" fill="#6bc4cf"/>
        <path id="Trazado_834920" data-name="Trazado 834920" d="M47.14,50.777c0-.766,0-1.534,0-2.3.014-2.438.8-3.02,3.2-2.465a.793.793,0,0,1,.718.918c0,2.62-.009,5.24.028,7.86.02,1.45-1.059,1.056-1.753.986-.788-.081-2.118.708-2.184-.973-.052-1.34-.011-2.684-.011-4.026" transform="translate(-5.272 -5.126)" fill="#f67a68"/>
        <path id="Trazado_834921" data-name="Trazado 834921" d="M83.914,42.118c-2.23.023-4.465-.034-6.69.094-1.691.1-1.271-1.049-1.226-1.893s-.636-2.18,1.231-2.088c2.226.11,4.458.073,6.688.1l0,3.787" transform="translate(-8.493 -4.277)" fill="#f3f5f6"/>
        <path id="Trazado_834922" data-name="Trazado 834922" d="M83.281,48.512a25.514,25.514,0,0,0-7.263,0c-.325-2.63-.325-2.63,2.306-2.632q1.429,0,2.86,0c2.454,0,2.454,0,2.1,2.634" transform="translate(-8.488 -5.132)" fill="#7da5aa"/>
        <path id="Trazado_834923" data-name="Trazado 834923" d="M84.922,42.112l0-3.787a18.327,18.327,0,0,0,2.088-.094c1.678-.258,2.183.372,2.143,2.077-.035,1.516-.444,2.094-1.953,1.886a21.636,21.636,0,0,0-2.281-.083" transform="translate(-9.501 -4.271)" fill="#d5e3e7"/>
        <path id="Trazado_834924" data-name="Trazado 834924" d="M17.9,15.957c.991.128,1.563.648,1.524,1.653a1.471,1.471,0,0,1-1.581,1.572,1.5,1.5,0,0,1-1.607-1.741c.057-1,.734-1.43,1.663-1.484" transform="translate(-1.816 -1.785)" fill="#6bc4cf"/>
        <path id="Trazado_834925" data-name="Trazado 834925" d="M35.385,17.532c-.126,1.014-.653,1.673-1.7,1.661a1.5,1.5,0,0,1-1.564-1.569,1.459,1.459,0,0,1,1.467-1.639,1.61,1.61,0,0,1,1.8,1.547" transform="translate(-3.593 -1.788)" fill="#6bc4cf"/>
        <path id="Trazado_834926" data-name="Trazado 834926" d="M67.271,19.221a1.582,1.582,0,0,1-1.5-1.677,1.467,1.467,0,0,1,1.766-1.552,1.432,1.432,0,0,1,1.409,1.71,1.575,1.575,0,0,1-1.671,1.519" transform="translate(-7.358 -1.788)" fill="#6bc4cf"/>
        <path id="Trazado_834927" data-name="Trazado 834927" d="M84.91,17.62c-.2.977-.728,1.639-1.8,1.569a1.513,1.513,0,0,1-1.5-1.644,1.5,1.5,0,0,1,1.75-1.56A1.62,1.62,0,0,1,84.91,17.62" transform="translate(-9.13 -1.788)" fill="#6bc4cf"/>
      </g>
    </g>
  </g>
</svg>
