<svg xmlns="http://www.w3.org/2000/svg" xmlns:xlink="http://www.w3.org/1999/xlink" width="169" height="169" viewBox="0 0 169 169">
  <defs>
    <clipPath id="clip-path">
      <rect id="Rect치ngulo_379913" data-name="Rect치ngulo 379913" width="122.042" height="96.294" fill="none"/>
    </clipPath>
  </defs>
  <g id="Grupo_1081427" data-name="Grupo 1081427" transform="translate(-1069.666 -857.214)">
    <g id="Grupo_1081371" data-name="Grupo 1081371" transform="translate(-18.334 -1200.785)">
      <g id="Grupo_159184" data-name="Grupo 159184" transform="translate(1088 2057.999)">
        <path id="Uni칩n_12" data-name="Uni칩n 12" d="M84.5,0A84.5,84.5,0,1,1,0,84.5,84.5,84.5,0,0,1,84.5,0Z" transform="translate(0 0)" fill="#ffae7e"/>
      </g>
    </g>
    <g id="Grupo_1081380" data-name="Grupo 1081380" transform="translate(1092.889 885.616)">
      <g id="Grupo_1081379" data-name="Grupo 1081379" clip-path="url(#clip-path)">
        <path id="Trazado_834928" data-name="Trazado 834928" d="M13.6,125.912c3.5,0,6.994-.045,10.489.024,1.2.024,1.649-.257,1.617-1.56-.091-3.732-.084-7.469,0-11.2.027-1.255-.34-1.658-1.589-1.586-1.742.1-3.5-.007-5.243.034-1.767.041-3.329-.29-3.288-2.451.041-2.18,1.68-2.367,3.4-2.338,2.145.036,4.306-.151,6.434.043,4.117.375,6.13-2.288,7.885-5.265.918-1.558,1.392-3.374,2.273-4.959,3.663-6.587,9.27-10.307,16.81-10.867,3.084-.229,6.2-.169,9.292-.1,1.334.029,1.917-.326,1.723-1.7a5.561,5.561,0,0,1,.013-1.427A2.287,2.287,0,0,1,65.74,80.3c1.441,0,2.575.9,2.362,2.387-.4,2.773.919,3.042,3.285,3.267a44.552,44.552,0,0,1,29.627,15.007,5.014,5.014,0,0,0,3.127,1.8c10.922,1.829,17.833,10.146,17.89,21.277.035,6.873.335,6.8-6.566,6.622-1.746-.047-2.718.314-3.542,2.1a9.151,9.151,0,0,1-8.987,5.521,9.394,9.394,0,0,1-8.964-5.964,2.338,2.338,0,0,0-2.587-1.657q-17.522.073-35.044.006a2.333,2.333,0,0,0-2.619,1.617,9.37,9.37,0,0,1-9.176,6,9.279,9.279,0,0,1-8.986-5.911c-.644-1.488-1.425-1.719-2.836-1.71-9.456.056-18.912.029-28.369.029-.477,0-.954-.011-1.43,0C1.269,130.732.018,130.1,0,128.322s1.206-2.423,2.873-2.415c3.576.016,7.152,0,10.728,0m72.447-18.6c-5.4,0-10.793.042-16.188-.03-1.347-.018-1.751.358-1.73,1.721.079,5,.1,10-.008,14.993-.034,1.6.467,1.964,1.991,1.947q10.711-.115,21.425,0a2.176,2.176,0,0,0,2.4-1.6,9.4,9.4,0,0,1,9.144-6.03,9.206,9.206,0,0,1,9.106,6.065c.964,2.42,2.71,1.441,4.133,1.456,1.739.018.616-1.554.91-2.369a2.64,2.64,0,0,0,0-.946c-.189-4.754-.588-5.143-5.269-5.145-5.956,0-8.136-2.026-8.087-7.878.016-1.907-.716-2.234-2.359-2.211-5.157.072-10.316.027-15.473.022m-22.659,9.276c0-2.463-.11-4.933.039-7.387.1-1.644-.526-1.939-2.01-1.92-6.2.076-12.4.032-18.6.032-3.819,0-3.819,0-3.886,3.8-.067,3.824-1.938,6.553-5.027,7.58-1.137.378-2.83-.425-3.357.987-.417,1.118-.1,2.511-.1,3.782,0,.477,0,.954,0,1.43.006.387-.01.759.438.987,1.335.68,3.945-.294,4.643-1.761,3.342-7.019,13.172-8.112,17.087-1.509,1.818,3.067,3.743,3.632,6.7,3.317a13.094,13.094,0,0,1,2.619,0c1.153.11,1.5-.331,1.472-1.471-.074-2.62-.023-5.244-.023-7.866m-24.9-14.05c7.943,0,15.85-.015,23.757.02,1.01,0,1.161-.434,1.152-1.284-.033-3.172-.047-6.345.007-9.517.017-1.031-.315-1.377-1.349-1.347-3.408.1-6.833-.058-10.223.218a15.367,15.367,0,0,0-13.343,11.911m57.546,0c-7.757-7.287-16.312-11.282-26.362-12-1.085-.077-1.573.12-1.541,1.357.08,3.095.061,6.194.006,9.29-.018,1.015.262,1.377,1.329,1.372,8.644-.038,17.288-.021,26.568-.021m-56.6,25.846a5.185,5.185,0,0,0,5.158,5.147,5.239,5.239,0,1,0,.052-10.478,5.184,5.184,0,0,0-5.211,5.331m68.816-.167a5.183,5.183,0,0,0-5.144-5.164,5.239,5.239,0,1,0-.09,10.477,5.2,5.2,0,0,0,5.235-5.313M34.1,108.258c-1.342,1.173-2.21,1.951-3.1,2.7s-.531,1.732-.527,2.634c0,.639.549.679,1.033.65a2.416,2.416,0,0,0,2.412-1.535c.468-1.278.264-2.567.181-4.452m74.622.937c-.171,3.411.437,3.838,4.1,3.083a14.081,14.081,0,0,0-4.1-3.083" transform="translate(0 -41.984)" fill="#030303"/>
        <path id="Trazado_834929" data-name="Trazado 834929" d="M119.545,23.338q-12.858,0-25.717.008c-1.143,0-2.253-.035-2.983-1.074a2.322,2.322,0,0,1-.133-2.491,2.443,2.443,0,0,1,2.393-1.23c4.286.029,8.574-.052,12.858.047,1.354.031,1.9-.336,2.242-1.681,1.164-4.588,4.323-7.069,8.915-7.682a2.645,2.645,0,0,0,2.311-1.541c5.352-9.525,17.647-10.35,24.381-1.665a2.5,2.5,0,0,0,2.078,1.193,8.053,8.053,0,1,1-.389,16.1c-8.652.056-17.3.016-25.955.016m6.814-5.72c-1.783.81-2.89.058-3.95-1.421A4.992,4.992,0,0,0,116.8,14.1a4.908,4.908,0,0,0-4.01,4.378h13.6q6.666.04,13.332.077c2.064.009,4.135.1,6.19-.046a3.121,3.121,0,0,0,3.029-3.747c-.291-1.864-2.019-3.313-3.761-2.691-2.483.886-3.508-.134-4.606-2.2a9.57,9.57,0,0,0-15.986-1.426c-.959,1.211-1.591,2.08.217,3.418,2.752,2.035,2.94,3.558,1.556,5.755" transform="translate(-47.274 0)" fill="#050505"/>
        <path id="Trazado_834930" data-name="Trazado 834930" d="M19.335,155.915c1.583,0,3.168-.057,4.747.014a2.211,2.211,0,0,1,2.3,2.464,2.169,2.169,0,0,1-2.274,2.256c-3.323.053-6.648.068-9.97-.009a2.352,2.352,0,0,1-.029-4.7c1.737-.081,3.481-.02,5.222-.022" transform="translate(-6.192 -81.512)" fill="#030303"/>
        <path id="Trazado_834931" data-name="Trazado 834931" d="M72.242,41.127c-.1,1.5-.854,2.491-2.324,2.518a2.168,2.168,0,0,1-2.379-2.362,2.124,2.124,0,0,1,2.144-2.335c1.547-.112,2.282.809,2.559,2.18" transform="translate(-35.314 -20.359)" fill="#0c0c0c"/>
        <path id="Trazado_834932" data-name="Trazado 834932" d="M18.177,138.381c-.176,1.487-.971,2.39-2.471,2.317a2.173,2.173,0,0,1-2.211-2.523,2.148,2.148,0,0,1,2.316-2.19,2.268,2.268,0,0,1,2.366,2.4" transform="translate(-7.053 -71.102)" fill="#0c0c0c"/>
        <path id="Trazado_834933" data-name="Trazado 834933" d="M160.7,136.894c5.158,0,10.316.048,15.473-.025,1.644-.023,2.376.3,2.359,2.212-.049,5.852,2.13,7.875,8.087,7.877,4.681,0,5.08.391,5.269,5.145a2.643,2.643,0,0,1,0,.946c-.293.815.829,2.387-.91,2.369-1.423-.014-3.169.964-4.133-1.456a9.206,9.206,0,0,0-9.106-6.065,9.4,9.4,0,0,0-9.144,6.031,2.176,2.176,0,0,1-2.4,1.6q-10.712-.109-21.425,0c-1.524.016-2.024-.351-1.991-1.947.107-5,.087-10,.008-14.993-.021-1.364.383-1.739,1.73-1.721,5.395.072,10.791.03,16.188.032m-11.936,7.7c.714,0,1.432.052,2.14-.012a2.323,2.323,0,0,0,.409-4.525,9.962,9.962,0,0,0-4.935.016,2.113,2.113,0,0,0-1.629,2.341,2.169,2.169,0,0,0,2.112,2.17c.629.056,1.268.01,1.9.01" transform="translate(-74.651 -71.561)" fill="#fcc36b"/>
        <path id="Trazado_834934" data-name="Trazado 834934" d="M96.634,146.166c0,2.622-.051,5.246.023,7.865.032,1.14-.319,1.581-1.472,1.471a13.094,13.094,0,0,0-2.619,0c-2.955.316-4.88-.25-6.7-3.317-3.914-6.6-13.744-5.509-17.087,1.51-.7,1.467-3.308,2.441-4.643,1.76-.448-.228-.432-.6-.438-.986-.008-.477-.006-.953,0-1.43.005-1.271-.315-2.664.1-3.783.527-1.412,2.22-.609,3.357-.987,3.089-1.027,4.96-3.756,5.027-7.58.067-3.8.067-3.8,3.886-3.8,6.2,0,12.4.044,18.6-.032,1.484-.018,2.11.276,2.01,1.921-.149,2.454-.039,4.924-.039,7.387" transform="translate(-33.245 -71.559)" fill="#fcc46b"/>
        <path id="Trazado_834935" data-name="Trazado 834935" d="M80.675,113.627a15.367,15.367,0,0,1,13.343-11.912c3.391-.275,6.816-.117,10.223-.218,1.034-.03,1.367.316,1.349,1.347-.054,3.171-.04,6.344-.007,9.516.009.851-.143,1.289-1.152,1.284-7.907-.034-15.814-.019-23.757-.019" transform="translate(-42.183 -53.069)" fill="#c7f0fc"/>
        <path id="Trazado_834936" data-name="Trazado 834936" d="M170.7,113.761c-9.279,0-17.923-.017-26.567.021-1.067,0-1.347-.357-1.329-1.372.054-3.1.073-6.2-.007-9.29-.032-1.237.456-1.434,1.541-1.356,10.05.716,18.605,4.711,26.362,12" transform="translate(-74.665 -53.201)" fill="#c6effb"/>
        <path id="Trazado_834937" data-name="Trazado 834937" d="M82.654,175.252a5.184,5.184,0,0,1,5.211-5.331,5.239,5.239,0,1,1-.052,10.478,5.185,5.185,0,0,1-5.158-5.147" transform="translate(-43.217 -88.846)" fill="#858594"/>
        <path id="Trazado_834938" data-name="Trazado 834938" d="M215.427,175.085a5.2,5.2,0,0,1-5.235,5.313,5.239,5.239,0,1,1,.09-10.477,5.184,5.184,0,0,1,5.144,5.164" transform="translate(-107.174 -88.846)" fill="#858594"/>
        <path id="Trazado_834939" data-name="Trazado 834939" d="M67.414,138.9c.084,1.886.287,3.174-.181,4.452a2.416,2.416,0,0,1-2.412,1.535c-.484.029-1.031-.011-1.033-.65,0-.9-.355-1.89.526-2.634s1.757-1.53,3.1-2.7" transform="translate(-33.315 -72.627)" fill="#ea5555"/>
        <path id="Trazado_834940" data-name="Trazado 834940" d="M227.836,140.864a14.08,14.08,0,0,1,4.1,3.083c-3.665.754-4.272.328-4.1-3.083" transform="translate(-119.115 -73.654)" fill="#ef5757"/>
        <path id="Trazado_834941" data-name="Trazado 834941" d="M162.784,22.86c1.384-2.2,1.2-3.72-1.556-5.755-1.808-1.338-1.176-2.207-.217-3.418A9.57,9.57,0,0,1,177,15.113c1.1,2.07,2.123,3.089,4.606,2.2,1.742-.621,3.47.828,3.761,2.691a3.121,3.121,0,0,1-3.029,3.747c-2.055.143-4.126.055-6.19.046q-6.667-.027-13.332-.077l-.029-.865" transform="translate(-83.699 -5.242)" fill="#c6effb"/>
        <path id="Trazado_834942" data-name="Trazado 834942" d="M150.882,32.861l.029.865h-13.6a4.908,4.908,0,0,1,4.01-4.378,4.992,4.992,0,0,1,5.609,2.092c1.06,1.479,2.167,2.232,3.95,1.421" transform="translate(-71.797 -15.243)" fill="#b8dfea"/>
        <path id="Trazado_834943" data-name="Trazado 834943" d="M150.92,147.775c-.635,0-1.273.046-1.9-.01a2.169,2.169,0,0,1-2.112-2.17,2.113,2.113,0,0,1,1.629-2.341,9.962,9.962,0,0,1,4.935-.016,2.323,2.323,0,0,1-.409,4.525c-.708.064-1.427.012-2.14.012" transform="translate(-76.808 -74.737)" fill="#0a0804"/>
      </g>
    </g>
  </g>
</svg>
