<svg xmlns="http://www.w3.org/2000/svg" xmlns:xlink="http://www.w3.org/1999/xlink" width="169" height="169" viewBox="0 0 169 169">
  <defs>
    <clipPath id="clip-path">
      <rect id="Rect치ngulo_379915" data-name="Rect치ngulo 379915" width="114.028" height="76.981" fill="none"/>
    </clipPath>
  </defs>
  <g id="Grupo_1081429" data-name="Grupo 1081429" transform="translate(-4168.001 10842.785)">
    <g id="Grupo_1081373" data-name="Grupo 1081373" transform="translate(3431 -12900.785)">
      <g id="Grupo_159183" data-name="Grupo 159183" transform="translate(737.001 2058)">
        <path id="Uni칩n_12" data-name="Uni칩n 12" d="M84.5,0A84.5,84.5,0,1,1,0,84.5,84.5,84.5,0,0,1,84.5,0Z" fill="#ffae7e"/>
      </g>
    </g>
    <g id="Grupo_1081384" data-name="Grupo 1081384" transform="translate(4195.487 -10796.775)">
      <g id="Grupo_1081383" data-name="Grupo 1081383" clip-path="url(#clip-path)">
        <path id="Trazado_834962" data-name="Trazado 834962" d="M86.355,36.335c-.362,1.45-1.425,1.689-2.729,1.682-5.193-.029-10.388.051-15.579-.048-1.653-.032-2.383.282-2.217,2.127a18.746,18.746,0,0,1-.175,5.094c-1.09,5.788-5.728,9.525-11.888,9.644-4.153.08-8.311.086-12.463-.022a2.345,2.345,0,0,0-2.585,1.77c-2.329,5.756-4.736,11.48-7.137,17.206-1.174,2.8-2.3,3.49-5.354,3.09C19.248,75.962,12.27,75.026,5.306,74c-4.873-.72-6.536-4.05-4.379-8.569,3.854-8.075,7.686-16.161,11.624-24.195,1.474-3.008,1.335-5.666-.9-8.2a10.8,10.8,0,0,1-2-3.438c-.713-1.928-.794-4.123-2.839-5.451-.768-.5-.676-1.73-.671-2.713.018-3.709-.017-7.418.015-11.126.031-3.544,2.116-5.569,5.71-5.619a11.443,11.443,0,0,1,1.779.011,3.28,3.28,0,0,0,4-2.173C18.4.682,20-.012,21.963.011,24.708.042,27.454.065,30.2,0a4.489,4.489,0,0,1,4.64,2.765c.7,1.608,1.794,1.96,3.478,1.954q27.153-.1,54.306-.016c1.328,0,2.065-.119,2.428-1.7C95.6.61,97.571-.044,99.872.006c2.759.061,4.142.79,4.733,3.1a1.8,1.8,0,0,0,2.309,1.582c4.94-.549,7.408,2.383,7.084,6.988-.223,3.174-.031,6.376-.046,9.566-.014,2.859-.866,4.119-3.612,4.748-1.069.245-1.057.745-1.052,1.514.012,1.706.065,3.415-.021,5.117-.163,3.237-2.136,5.269-5.357,5.355-3.781.1-7.566.025-11.35.029-1.144,0-2.058-.305-2.262-1.614.2-1.5,1.192-1.867,2.535-1.855,3.108.029,6.216.01,9.324.008,3.6,0,3.839-.261,3.721-4,.016-.443.045-.887.048-1.33.025-3.135.023-3.136-3.043-3.136H70.7c-4.073,0-4.072,0-5.465,3.836-.076.208-.188.4-.283.6a6.06,6.06,0,0,1-5.016,1.789,44.81,44.81,0,0,0-5.977,0,6.091,6.091,0,0,1-5.018-1.785,7.4,7.4,0,0,1-.782-2.295c.016-2.047-1.154-2.248-2.758-2.164-1.554.081-3.116-.026-4.672.037-.728.029-1.756-.427-2.014.779a2.251,2.251,0,0,0,.958,2.532c.553.37,1.1.745,1.654,1.118a10.957,10.957,0,0,0,9.628,4.116A140.77,140.77,0,0,1,68,34.627c3.318.173,5.716-.635,7.239-3.627.927-.988,1.509-2.3,3.273-2.281,6.735.076,13.472.04,20.209.022a2.076,2.076,0,0,1,2.378,1.806c-.33,1.624-1.528,1.747-2.879,1.742-5.917-.023-11.836.047-17.751-.046a3.041,3.041,0,0,0-3.23,2.3c2.277,0,4.4.03,6.52-.011,1.335-.025,2.34.32,2.6,1.8M58.79,42.116c-.264,4.1-1.737,5.5-5.847,5.518-2.444.011-4.889,0-7.333,0-3.492,0-3.492,0-4.453,3.832,4.244,0,8.45.03,12.655-.008,5.405-.049,8.883-3.822,8.635-9.3.055-.8.08-1.609.172-2.407.154-1.327-.38-1.7-1.724-1.808-2.008-.159-2.416.721-2.182,2.414.08.579.054,1.172.077,1.759M14.127,30.53c3.489,4.156,3.424,8.471,1.033,13.2-3.844,7.6-7.424,15.341-11.1,23.028-1.216,2.544-.7,3.488,2.051,3.883,6.732.966,13.469,1.9,20.191,2.932a1.71,1.71,0,0,0,2.21-1.209c.758-1.929,1.6-3.824,2.4-5.736,3.914-9.361,7.8-18.732,11.759-28.075a2.183,2.183,0,0,0-.782-2.977c-1.978-1.669-4.2-3.06-5.912-5.036-1.38-1.163.226-3.851-1.971-4.369-1.684-.4-3.534-.086-5.31-.09-.3,0-.594-.02-.888,0a1.743,1.743,0,0,1-2.141-1.9c.467-1.849,1.985-1.491,3.263-1.492q36.842-.023,73.684-.017c.96,0,1.921-.087,2.881-.133.955.039,1.919.007,2.862.132,1.8.24,2.306-.542,2.227-2.258-.123-2.648-.032-5.306-.032-7.959,0-4.417-.2-4.61-4.618-4.365a2.364,2.364,0,0,0-.428.105c-2.549.141-3.821-1.105-3.951-3.615-.057-1.113-.81-1.213-1.716-1.23s-1.5.18-1.819,1.173c-1.106,3.469-1.144,3.576-4.75,3.454-1.7-.058-2.124.675-2.4,2.091-.709,3.656-1.821,4.508-5.609,4.51q-14.018.006-28.036,0c-3.866,0-4.91-.816-5.669-4.706-.278-1.427-.872-1.916-2.356-1.879-4.3.1-8.6.036-12.9.036-1.126,0-2.42.086-2.856-1.2-1.175-3.468-3.783-3.82-6.865-3.482a20.584,20.584,0,0,1-4,0,2.1,2.1,0,0,0-2.428,1.439C19.1,7.6,17.038,8.492,14.19,8.047a17.026,17.026,0,0,0-2.223-.016c-1.783-.038-2.551.876-2.543,2.6.016,3.411.04,6.823-.015,10.233-.021,1.33.457,1.865,1.815,1.83,2.594-.068,5.193.03,7.787-.038a2.433,2.433,0,0,1,2.7,1.73,1.922,1.922,0,0,1-2.188,1.694,29.477,29.477,0,0,0-3.517.026c-1.172.127-2.841-.733-3.412.54-.578,1.289.562,2.6,1.361,3.744a.8.8,0,0,0,.17.138M71.42,7.941c-4.9,0-9.8-.029-14.694.032-.711.009-2.039-.633-1.97.939.051,1.162.163,2.43,1.909,2.426q14.583-.033,29.166,0c1.576,0,1.744-1.073,1.865-2.231.166-1.576-1.032-1.141-1.8-1.146-4.823-.033-9.648-.017-14.472-.017M44.009,44.323c3.27,0,6.367-.017,9.463.01,1.011.009,1.888-.238,1.844-1.375-.064-1.638.571-3.344-.374-4.909-.044-.073-.281-.041-.427-.041-2.584.019-5.446-.635-7.661.278-1.748.722-1.962,3.7-2.845,6.035m12.96-18.242q-1.99,0-3.98,0c-.7,0-1.359.053-1.373,1-.012.811.178,1.577,1.118,1.6,2.8.059,5.6.054,8.4.008.942-.016,1.157-.754,1.158-1.569,0-.93-.613-1.045-1.339-1.041-1.327.007-2.653,0-3.98,0" transform="translate(0 0)" fill="#060506"/>
        <path id="Trazado_834963" data-name="Trazado 834963" d="M182.458,74.341c-.256-1.48-1.261-1.826-2.6-1.8-2.121.041-4.243.011-6.52.011a3.041,3.041,0,0,1,3.229-2.3c5.916.094,11.834.023,17.752.046,1.351,0,2.549-.118,2.878-1.742h4.782c.118,3.738-.123,4-3.721,4-3.108,0-6.216.021-9.323-.008-1.343-.012-2.338.35-2.535,1.855l-3.945-.056" transform="translate(-96.103 -38.006)" fill="#433f43"/>
        <path id="Trazado_834964" data-name="Trazado 834964" d="M33.421,28.424a2.433,2.433,0,0,0-2.7-1.729c-2.594.068-5.193-.029-7.787.038-1.358.035-1.836-.5-1.815-1.83.054-3.41.031-6.822.014-10.233-.008-1.728.76-2.642,2.543-2.6a16.949,16.949,0,0,1,2.223.016c2.848.445,4.907-.446,5.958-3.265a2.1,2.1,0,0,1,2.428-1.438,20.584,20.584,0,0,0,4,0c3.083-.337,5.69.013,6.865,3.482.436,1.288,1.73,1.2,2.856,1.2,4.3,0,8.605.069,12.9-.036,1.485-.036,2.078.453,2.356,1.88.759,3.89,1.8,4.7,5.669,4.706q14.018.007,28.036,0c3.789,0,4.9-.853,5.609-4.51.274-1.417.7-2.149,2.4-2.091,3.606.123,3.644.015,4.75-3.453.316-.993.9-1.19,1.819-1.173s1.658.118,1.716,1.23c.13,2.509,1.4,3.756,3.951,3.615q-.005,7.172-.01,14.343c-.96.046-1.921.133-2.881.133q-36.842.011-73.684.017c-1.278,0-2.8-.357-3.263,1.492l-3.957.206M43.662,19.7c0-.881.068-1.769-.018-2.641a1.614,1.614,0,0,0-1.734-1.621,1.533,1.533,0,0,0-1.591,1.525,52.677,52.677,0,0,0,0,5.5,1.511,1.511,0,0,0,1.607,1.5,1.585,1.585,0,0,0,1.72-1.618c.082-.873.017-1.761.015-2.641m-9.718-.016h.014c0,.89-.049,1.783.013,2.669A1.665,1.665,0,0,0,37.3,22.4a50.355,50.355,0,0,0,0-5.334,1.56,1.56,0,0,0-1.743-1.627,1.664,1.664,0,0,0-1.6,1.8c-.034.815-.007,1.632-.007,2.448m16.017-.052c0-.811.022-1.623-.006-2.433a1.6,1.6,0,0,0-1.609-1.748,1.515,1.515,0,0,0-1.639,1.682c-.041,1.695-.036,3.391-.005,5.086.018,1.007.474,1.732,1.586,1.724,1.2-.008,1.674-.757,1.678-1.877q0-1.216,0-2.433m-19.084.082H30.9c0-.884.025-1.769-.007-2.652a1.493,1.493,0,0,0-1.488-1.6,1.513,1.513,0,0,0-1.716,1.6c-.053,1.84-.063,3.686.024,5.524.045.951.744,1.4,1.687,1.359a1.378,1.378,0,0,0,1.461-1.358c.066-.953.015-1.914.015-2.871m25.375-.031c0-.884.031-1.769-.008-2.652a1.493,1.493,0,0,0-1.519-1.575A1.517,1.517,0,0,0,53.044,17.1c-.042,1.767-.032,3.537,0,5.3a1.437,1.437,0,0,0,1.523,1.544,1.481,1.481,0,0,0,1.683-1.608c.028-.883.006-1.768,0-2.652" transform="translate(-11.708 -4.036)" fill="#a299a3"/>
        <path id="Trazado_834965" data-name="Trazado 834965" d="M40.259,68.451c1.714,1.977,3.935,3.368,5.912,5.036a2.183,2.183,0,0,1,.782,2.977C43,85.807,39.109,95.178,35.2,104.539c-.8,1.913-1.646,3.808-2.4,5.736a1.71,1.71,0,0,1-2.21,1.209c-6.722-1.032-13.458-1.965-20.19-2.932-2.751-.395-3.268-1.339-2.051-3.883,3.676-7.688,7.257-15.425,11.1-23.029,2.39-4.728,2.455-9.044-1.033-13.2,4.22,0,8.439-.024,12.658.009.852.007,1.789-.322,2.542.4a1.608,1.608,0,0,0,.313,2.334,1.543,1.543,0,0,0,2.018.02,1.6,1.6,0,0,0,.356-2.326c1.243-.873,2.645-.265,3.964-.427m-7,26.621A2.125,2.125,0,0,0,35.692,93.6c1.549-3.764,3.17-7.5,4.643-11.294,1.157-2.981.1-4.978-3.023-5.969C34.986,75.6,32.645,74.9,30.3,74.228c-2.491-.716-4.832.4-5.337,2.9-.7,3.484-2.4,6.51-3.874,9.646C18.852,91.538,16.5,96.243,14.269,101c-1.092,2.33-.487,4.054,1.773,4.475a113.84,113.84,0,0,0,11.844,1.642c2.665.21,5.708-5.915,4.26-8.225a1.464,1.464,0,0,0-.337-.286l1.447-3.539" transform="translate(-4.28 -37.912)" fill="#534c53"/>
        <path id="Trazado_834966" data-name="Trazado 834966" d="M186.695,62.994h-4.782a2.076,2.076,0,0,0-2.377-1.806c-6.736.018-13.473.054-20.209-.022-1.764-.02-2.346,1.293-3.273,2.281-.569-.69-1.359-.46-2.072-.466-2.738-.024-5.477-.014-8.215-.016.095-.2.208-.394.283-.6,1.393-3.836,1.392-3.836,5.465-3.836H183.7c3.066,0,3.068,0,3.043,3.136,0,.443-.031.886-.048,1.33" transform="translate(-80.815 -32.449)" fill="#333133"/>
        <path id="Trazado_834967" data-name="Trazado 834967" d="M139.546,17.708c4.824,0,9.648-.016,14.472.016.773.005,1.97-.43,1.8,1.146-.122,1.159-.289,2.234-1.865,2.231q-14.583-.023-29.166,0c-1.747,0-1.859-1.264-1.909-2.426-.069-1.572,1.26-.93,1.97-.939,4.9-.061,9.8-.032,14.694-.032" transform="translate(-68.126 -9.768)" fill="#847684"/>
        <path id="Trazado_834968" data-name="Trazado 834968" d="M51.456,60.627c-1.319.162-2.722-.446-3.964.427a2.251,2.251,0,0,0-2.688-.029c-.753-.72-1.691-.392-2.542-.4-4.219-.033-8.438-.011-12.658-.009a.811.811,0,0,1-.171-.139c-.8-1.142-1.94-2.455-1.361-3.744.571-1.273,2.24-.413,3.412-.54A29.477,29.477,0,0,1,35,56.17a1.921,1.921,0,0,0,2.187-1.694l3.957-.206a1.743,1.743,0,0,0,2.141,1.9c.294-.022.592,0,.888,0,1.776,0,3.627-.307,5.31.09,2.2.517.591,3.206,1.971,4.369" transform="translate(-15.476 -30.088)" fill="#433f43"/>
        <path id="Trazado_834969" data-name="Trazado 834969" d="M116.373,68.467c2.738,0,5.477-.008,8.215.016.712.006,1.5-.224,2.072.466-1.524,2.993-3.921,3.8-7.239,3.628a140.862,140.862,0,0,0-17.043.016,10.955,10.955,0,0,1-9.628-4.115l7.614-.006a6.091,6.091,0,0,0,5.018,1.785,44.737,44.737,0,0,1,5.977,0,6.061,6.061,0,0,0,5.015-1.789" transform="translate(-51.421 -37.95)" fill="#423e42"/>
        <path id="Trazado_834970" data-name="Trazado 834970" d="M113.656,94.558c.248,5.48-3.23,9.253-8.635,9.3-4.2.038-8.411.008-12.655.008.961-3.831.961-3.831,4.452-3.832,2.444,0,4.889.009,7.333,0,4.111-.018,5.584-1.413,5.848-5.518l3.656.042" transform="translate(-51.209 -52.401)" fill="#9f959f"/>
        <path id="Trazado_834971" data-name="Trazado 834971" d="M236.762,32.521q.005-7.172.01-14.343a2.309,2.309,0,0,1,.428-.105c4.413-.246,4.617-.053,4.618,4.364,0,2.653-.091,5.311.032,7.959.08,1.716-.426,2.5-2.227,2.258-.943-.126-1.908-.094-2.862-.132" transform="translate(-131.264 -9.981)" fill="#8e808e"/>
        <path id="Trazado_834972" data-name="Trazado 834972" d="M97.022,62.919l-7.614.006c-.551-.373-1.1-.747-1.654-1.118a2.251,2.251,0,0,1-.958-2.532c.258-1.206,1.286-.749,2.014-.779,1.555-.063,3.118.044,4.672-.037,1.6-.084,2.774.117,2.757,2.164a7.413,7.413,0,0,0,.782,2.295" transform="translate(-48.081 -32.398)" fill="#333133"/>
        <path id="Trazado_834973" data-name="Trazado 834973" d="M121.191,58.53c1.327,0,2.653.005,3.98,0,.727,0,1.34.111,1.339,1.041,0,.815-.215,1.554-1.158,1.569-2.8.046-5.6.051-8.4-.008-.94-.02-1.13-.786-1.118-1.6.014-.95.669-1,1.373-1q1.99,0,3.98,0" transform="translate(-64.222 -32.449)" fill="#272527"/>
        <path id="Trazado_834974" data-name="Trazado 834974" d="M135.426,89.343,131.77,89.3c-.023-.587,0-1.18-.077-1.759-.234-1.693.174-2.573,2.182-2.413,1.343.106,1.878.481,1.724,1.808-.093.8-.117,1.6-.172,2.406" transform="translate(-72.98 -47.187)" fill="#847684"/>
        <path id="Trazado_834975" data-name="Trazado 834975" d="M67.466,29.859c0,.881.066,1.769-.016,2.641a1.585,1.585,0,0,1-1.72,1.618,1.511,1.511,0,0,1-1.607-1.5,52.689,52.689,0,0,1,0-5.5A1.534,1.534,0,0,1,65.713,25.6a1.614,1.614,0,0,1,1.734,1.621c.086.873.018,1.761.019,2.641" transform="translate(-35.51 -14.19)" fill="#0a0a0a"/>
        <path id="Trazado_834976" data-name="Trazado 834976" d="M49.89,29.84c0-.816-.027-1.633.007-2.448a1.664,1.664,0,0,1,1.6-1.8,1.56,1.56,0,0,1,1.743,1.627,50.236,50.236,0,0,1,0,5.334,1.664,1.664,0,0,1-3.325-.047c-.063-.885-.014-1.779-.014-2.669H49.89" transform="translate(-27.654 -14.187)" fill="#0a0a0a"/>
        <path id="Trazado_834977" data-name="Trazado 834977" d="M81.768,29.808c0,.811,0,1.622,0,2.433,0,1.121-.474,1.869-1.678,1.877-1.112.008-1.568-.717-1.585-1.724-.031-1.7-.036-3.392,0-5.086a1.515,1.515,0,0,1,1.639-1.682,1.6,1.6,0,0,1,1.609,1.748c.029.81.006,1.622.008,2.433" transform="translate(-43.512 -14.207)" fill="#040303"/>
        <path id="Trazado_834978" data-name="Trazado 834978" d="M39.006,29.9c0,.958.05,1.918-.015,2.871a1.378,1.378,0,0,1-1.462,1.358c-.943.039-1.642-.408-1.687-1.359-.087-1.838-.077-3.684-.024-5.524a1.513,1.513,0,0,1,1.716-1.6,1.493,1.493,0,0,1,1.488,1.6c.033.883.007,1.768.007,2.653h-.024" transform="translate(-19.836 -14.214)" fill="#040303"/>
        <path id="Trazado_834979" data-name="Trazado 834979" d="M95.945,29.866c0,.884.024,1.769,0,2.652a1.481,1.481,0,0,1-1.683,1.608,1.437,1.437,0,0,1-1.523-1.544c-.033-1.768-.043-3.537,0-5.3a1.516,1.516,0,0,1,1.682-1.638,1.493,1.493,0,0,1,1.519,1.575c.04.882.008,1.768.011,2.652" transform="translate(-51.398 -14.214)" fill="#040303"/>
        <path id="Trazado_834980" data-name="Trazado 834980" d="M39.3,105.619a1.475,1.475,0,0,1,.337.286c1.448,2.311-1.594,8.436-4.26,8.225a113.7,113.7,0,0,1-11.844-1.642c-2.26-.421-2.866-2.146-1.773-4.475,2.232-4.762,4.583-9.467,6.818-14.227,1.473-3.136,3.171-6.162,3.874-9.647.505-2.5,2.846-3.619,5.337-2.9,2.346.675,4.687,1.367,7.013,2.107,3.121.992,4.18,2.988,3.023,5.97-1.472,3.794-3.093,7.53-4.643,11.294a2.126,2.126,0,0,1-2.436,1.473c-1.106-.894-1.092-1.911-.536-3.151,1.208-2.694,2.308-5.436,3.441-8.163,1.619-3.9,1.615-3.9-2.429-4.907-.836-.291-1.66-.629-2.512-.864-2.866-.79-2.713-1.36-3.453,1.9a14.336,14.336,0,0,1-1.078,2.9c-2.242,4.747-4.531,9.471-6.785,14.212-2.842,5.978-2.834,5.981,3.918,6.141,3.753,1.009,3.792,1.026,5.286-2.556.531-1.273,1.144-2.213,2.7-1.981" transform="translate(-11.772 -44.92)" fill="#040303"/>
        <path id="Trazado_834981" data-name="Trazado 834981" d="M53.766,91.876c4.044,1.01,4.048,1.011,2.429,4.907-1.133,2.727-2.234,5.469-3.441,8.163-.556,1.241-.57,2.257.536,3.151l-1.446,3.538c-1.559-.232-2.171.708-2.7,1.981-1.495,3.582-1.534,3.566-5.286,2.556.441-1.167.852-2.345,1.327-3.5q4.28-10.4,8.585-20.8" transform="translate(-24.314 -50.937)" fill="#a66852"/>
        <path id="Trazado_834982" data-name="Trazado 834982" d="M65.376,68.895a2.251,2.251,0,0,1,2.688.029,1.6,1.6,0,0,1-.356,2.326,1.543,1.543,0,0,1-2.018-.02,1.608,1.608,0,0,1-.313-2.334" transform="translate(-36.049 -37.957)" fill="#060506"/>
        <path id="Trazado_834983" data-name="Trazado 834983" d="M46.659,90.04q-4.295,10.4-8.585,20.8c-.474,1.153-.886,2.331-1.327,3.5-6.752-.16-6.76-.164-3.918-6.141,2.254-4.741,4.543-9.466,6.785-14.212a14.336,14.336,0,0,0,1.078-2.9c.74-3.264.587-2.694,3.453-1.9.852.235,1.675.573,2.512.864" transform="translate(-17.207 -49.102)" fill="#b67a63"/>
      </g>
    </g>
  </g>
</svg>
