<svg xmlns="http://www.w3.org/2000/svg" xmlns:xlink="http://www.w3.org/1999/xlink" width="85" height="85" viewBox="0 0 85 85">
  <defs>
    <clipPath id="clip-path">
      <rect id="Rectángulo_379831" data-name="Rectángulo 379831" width="61.53" height="60.482" fill="none"/>
    </clipPath>
  </defs>
  <g id="Grupo_1081396" data-name="Grupo 1081396" transform="translate(-285.332 -2145.3)">
    <g id="Grupo_1013927" data-name="Grupo 1013927" transform="translate(0 -4305.7)">
      <circle id="Elipse_4872" data-name="Elipse 4872" cx="42.5" cy="42.5" r="42.5" transform="translate(285.332 6451)" fill="#ffae7e"/>
    </g>
    <g id="Grupo_1081337" data-name="Grupo 1081337" transform="translate(297.067 2157.559)">
      <g id="Grupo_1081336" data-name="Grupo 1081336" clip-path="url(#clip-path)">
        <path id="Trazado_834641" data-name="Trazado 834641" d="M83.075,131.31c3.311,0,6.623-.015,9.934.005,3,.019,4.254,1.251,4.195,4.233-.037,1.847.418,3.766-.615,5.51a.807.807,0,0,0,.034.69,11.786,11.786,0,0,1-.073,8.256.748.748,0,0,0,.041.678c1.151,2.189.631,4.539.519,6.81a3.132,3.132,0,0,1-3.36,2.8c-4.507.055-9.016.025-13.524.015-.73,0-1.442-.215-1.429-1.091.014-.891.783-1.04,1.48-1.045,3.909-.027,7.819-.024,11.728-.028,3.153,0,3.153,0,3.153-3.194,0-.6.008-1.2,0-1.8-.026-1.4-.46-1.865-1.881-1.868q-10.232-.023-20.465,0c-1.476,0-1.9.467-1.912,1.957-.01,1.037-.013,2.075,0,3.112.019,1.375.4,1.744,1.8,1.784.877.025,1.755.014,2.63.064.648.038,1.224.3,1.218,1.049s-.6,1.015-1.235,1.035a24.914,24.914,0,0,1-3.346-.026,3.327,3.327,0,0,1-3.124-3.463,17.808,17.808,0,0,1,.1-4.528,10.523,10.523,0,0,0,.029-3.924c-.242-2.163-.621-4.459.45-6.583a.835.835,0,0,0,.01-.8c-1.084-2.162-.589-4.473-.509-6.71.065-1.824,1.569-2.878,3.747-2.93,2.073-.049,4.149-.015,6.223-.016q2.095,0,4.189,0m-.05,2.184c-3.473,0-6.946-.012-10.418.006-1.261.006-1.672.41-1.7,1.633-.03,1.2-.013,2.395,0,3.592a1.442,1.442,0,0,0,1.647,1.6q10.478,0,20.956-.009c1.182,0,1.619-.488,1.647-1.711.023-1,.011-2,.006-2.994-.009-1.8-.312-2.115-2.071-2.119q-5.029-.011-10.059,0m-.12,15.725c3.513,0,7.025.01,10.537-.005,1.254-.006,1.674-.411,1.7-1.63.031-1.2.012-2.395,0-3.592a1.392,1.392,0,0,0-1.528-1.585q-10.6-.008-21.195,0a1.392,1.392,0,0,0-1.529,1.584c-.009,1.077-.012,2.155,0,3.233.012,1.635.353,1.99,1.951,1.994,3.353.009,6.706,0,10.059,0" transform="translate(-52.242 -99.85)" fill="#161615"/>
        <path id="Trazado_834642" data-name="Trazado 834642" d="M109.609,10.81c0,2.552.013,5.1,0,7.657-.013,2.106-.9,3-2.974,3.006q-5.743.013-11.486,0c-1.955-.006-2.875-.892-2.894-2.833-.026-2.752-.01-5.5-.005-8.255A5.768,5.768,0,0,1,94.005,6.2Q96.2,3.988,98.4,1.8a5.507,5.507,0,0,1,3.37-1.656A30.367,30.367,0,0,1,107.267.11,2.43,2.43,0,0,1,109.6,2.794c.031,2.672.008,5.344.01,8.016m-2.06.051c0-2.474-.024-4.948.013-7.421.013-.863-.278-1.253-1.168-1.222-1.116.039-2.234.014-3.351.015a1.227,1.227,0,0,0-1.384,1.406c0,1.037.036,2.078-.04,3.111a2.573,2.573,0,0,1-2.851,2.7c-.877.027-1.756,0-2.633.011-1.46.022-1.814.374-1.824,1.868-.014,2.274.026,4.549-.018,6.823-.018.925.3,1.276,1.245,1.267q5.386-.054,10.773,0c.934.009,1.27-.325,1.253-1.258-.044-2.433-.015-4.868-.015-7.3M99.427,4.194,96.447,7.16c2.714.574,3.1.278,3.02-2.49-.006-.195-.033-.389-.04-.477" transform="translate(-70.145 0)" fill="#161615"/>
        <path id="Trazado_834643" data-name="Trazado 834643" d="M201.772,42.691c0,2.631.011,5.262,0,7.894-.009,1.89-.882,2.766-2.8,2.774q-5.8.024-11.6,0c-1.842-.007-2.8-.811-2.859-2.64a85.874,85.874,0,0,1,.061-9.2,5.094,5.094,0,0,1,1.542-3.28c1.541-1.56,3.1-3.105,4.649-4.654a4.972,4.972,0,0,1,2.683-1.474,25.107,25.107,0,0,1,6.314-.088,2.183,2.183,0,0,1,2,2.418c.023,2.751.007,5.5.008,8.252m-2.056.036c0-2.513-.018-5.026.01-7.538.009-.845-.263-1.261-1.171-1.22-1.075.049-2.154-.009-3.23.024a1.334,1.334,0,0,0-1.472,1.5c.011,1,.013,1.994-.006,2.991a2.563,2.563,0,0,1-2.7,2.835c-.994.055-1.994.04-2.991.019-1.046-.022-1.535.433-1.524,1.5.025,2.393.038,4.786-.009,7.179-.02,1.007.385,1.307,1.35,1.3,3.47-.04,6.94-.049,10.41,0,1.078.017,1.376-.4,1.355-1.41-.051-2.392-.016-4.786-.018-7.179m-7.942-6.495-3,2.9c.668,0,1.458.008,2.248,0a.672.672,0,0,0,.75-.734c0-.823,0-1.646,0-2.164" transform="translate(-140.246 -24.233)" fill="#161615"/>
        <path id="Trazado_834644" data-name="Trazado 834644" d="M17.354,42.819c0,2.473.024,4.946-.006,7.418s-.872,3.292-3.335,3.295q-5.5.005-11.008,0C.865,53.524.047,52.694.039,50.558c0-.678-.01-1.357.027-2.033a.9.9,0,0,1,.91-.928.906.906,0,0,1,1.019.812,10.511,10.511,0,0,1,.091,1.9c-.022.791.256,1.165,1.105,1.159q5.444-.038,10.888,0c.854.006,1.105-.386,1.1-1.167q-.02-7.478,0-14.956c0-.849-.284-1.255-1.183-1.213-.995.047-1.994-.008-2.99.017-1.274.031-1.679.458-1.7,1.768-.017.917.007,1.835-.009,2.752a2.536,2.536,0,0,1-2.714,2.81c-.994.053-1.994.038-2.99.019-1.053-.02-1.551.45-1.507,1.517a6.364,6.364,0,0,1-.072,1.428.976.976,0,0,1-1.093.888.933.933,0,0,1-.869-.975c-.188-2.5.017-4.832,2.149-6.634,1.4-1.18,2.619-2.567,3.91-3.87a5.793,5.793,0,0,1,4.3-1.765c1.316,0,2.632-.016,3.948.005,1.987.031,2.92.9,2.968,2.945.062,2.591.015,5.184.015,7.776h.008M7.222,36.4,4.227,39.3c.665,0,1.454.007,2.243,0a.67.67,0,0,0,.75-.732c0-.822,0-1.644,0-2.17" transform="translate(0 -24.401)" fill="#161615"/>
        <path id="Trazado_834645" data-name="Trazado 834645" d="M18.28,143.164c-2.082-.143-4.351-.274-6.614-.464a1.781,1.781,0,0,1-1.469-2.85,2.155,2.155,0,0,0-.062-2.588A15.043,15.043,0,0,1,8.49,126.85a2.965,2.965,0,0,1,3.247-2.668,2.833,2.833,0,0,1,2.346,3.539,11.229,11.229,0,0,0,.034,4.273c.135.6.242,1.036,1.092.694,1.226-.494,2-.138,2.646,1.1,1,1.909,1.945,3.843,2.906,5.771,1.256,2.521.508,3.694-2.481,3.608m-6.261-15.585c.04-.626.029-1.19-.57-1.273-.678-.094-.82.512-.921,1.026a13.112,13.112,0,0,0,1.948,9.825c.6.944.912,1.734.14,2.692-.347.431-.377.791.354.839,1.826.121,3.65.268,5.475.408.51.039.674-.15.436-.625-.838-1.675-1.683-3.345-2.511-5.025-.265-.538-.473-.491-.84-.058-1.177,1.388-1.717,1.3-2.521-.376a11.434,11.434,0,0,1-.99-7.434" transform="translate(-6.231 -94.413)" fill="#161615"/>
        <path id="Trazado_834646" data-name="Trazado 834646" d="M196.724,143.219a5.457,5.457,0,0,1-1.756-.112,1.794,1.794,0,0,1-1.048-2.541c1.121-2.378,2.309-4.727,3.536-7.053a1.741,1.741,0,0,1,2.46-.784c.722.333.945.02,1.056-.583a8.889,8.889,0,0,0,.147-3.675,7.089,7.089,0,0,1-.168-1.3,2.8,2.8,0,0,1,5.35-1.3,8.8,8.8,0,0,1,.58,3.394,1.016,1.016,0,0,1-.968,1.155c-.668.033-.982-.421-1.059-1.057s-.149-1.266-.259-1.893c-.1-.552-.207-1.235-.956-1.106-.659.113-.625.77-.53,1.282a11.85,11.85,0,0,1-1.239,7.87c-.624,1.114-1.384,1.213-2.092.178-.616-.9-.86-.608-1.22.15-.718,1.512-1.472,3.008-2.241,4.5-.324.628-.227.865.515.8q2.558-.222,5.121-.383c.684-.042,1.067-.225.524-.895a1.863,1.863,0,0,1,.1-2.585,12.081,12.081,0,0,0,1.682-3.551c.221-.682.562-1.353,1.428-1.051.822.286.78.989.547,1.7a13.912,13.912,0,0,1-1.5,3.378,1.444,1.444,0,0,0-.034,1.745c1.126,1.9.465,3.1-1.759,3.273-2.1.165-4.21.3-6.22.447" transform="translate(-147.319 -94.457)" fill="#161615"/>
        <path id="Trazado_834647" data-name="Trazado 834647" d="M114.24,220.02a2.982,2.982,0,0,1-2.9,2.908,2.923,2.923,0,1,1,.047-5.845,2.943,2.943,0,0,1,2.857,2.938" transform="translate(-82.435 -165.086)" fill="#161615"/>
        <path id="Trazado_834648" data-name="Trazado 834648" d="M88.16,219.991a2.924,2.924,0,1,1-2.9-2.905,2.99,2.99,0,0,1,2.9,2.905" transform="translate(-62.597 -165.088)" fill="#161615"/>
        <path id="Trazado_834649" data-name="Trazado 834649" d="M22.137,93.242c1.034,0,2.069-.027,3.1.01.636.023,1.229.266,1.257,1.008s-.533,1.058-1.182,1.068q-3.218.05-6.437.007c-.644-.008-1.221-.3-1.2-1.051.024-.728.587-1.013,1.237-1.034,1.073-.034,2.147-.009,3.22-.009" transform="translate(-13.444 -70.901)" fill="#161615"/>
        <path id="Trazado_834650" data-name="Trazado 834650" d="M22.036,81.091c-1.073,0-2.146.012-3.218,0-.625-.01-1.128-.3-1.161-.956-.036-.734.486-1.071,1.158-1.077q3.277-.03,6.556.006a1.013,1.013,0,1,1,0,2.018c-1.112.028-2.225.008-3.337.008v.006" transform="translate(-13.427 -60.107)" fill="#161615"/>
        <path id="Trazado_834651" data-name="Trazado 834651" d="M144.419,227.063c-.8,0-1.595,0-2.392,0-.76,0-1.554-.092-1.538-1.068.014-.894.761-1,1.484-1q2.392,0,4.784,0c.763,0,1.55.07,1.531,1.06-.017.9-.751,1.007-1.477,1.006q-1.2,0-2.392,0" transform="translate(-106.838 -171.105)" fill="#161615"/>
        <path id="Trazado_834652" data-name="Trazado 834652" d="M85.224,148.161a2.918,2.918,0,0,1-2.912-2.871,2.925,2.925,0,1,1,5.849.025,2.918,2.918,0,0,1-2.937,2.846" transform="translate(-62.596 -108.247)" fill="#161615"/>
        <path id="Trazado_834653" data-name="Trazado 834653" d="M114.236,145.3a2.921,2.921,0,0,1-5.841-.133,3.073,3.073,0,0,1,3-2.833,3.007,3.007,0,0,1,2.843,2.967" transform="translate(-82.43 -108.243)" fill="#161615"/>
        <path id="Trazado_834654" data-name="Trazado 834654" d="M144.317,152.216c-.952,0-1.9.008-2.855,0-.584-.007-1.025-.268-1.073-.884a.969.969,0,0,1,1-1.1c1.941-.049,3.884-.045,5.825,0a.976.976,0,0,1,1.021,1.087c-.049.679-.559.9-1.184.9h-2.736v0" transform="translate(-106.759 -114.217)" fill="#161615"/>
        <path id="Trazado_834655" data-name="Trazado 834655" d="M88.16,182.876a2.924,2.924,0,1,1-5.847-.125,2.926,2.926,0,0,1,5.847.125" transform="translate(-62.596 -136.872)" fill="#161615"/>
        <path id="Trazado_834656" data-name="Trazado 834656" d="M111.382,179.986a2.845,2.845,0,0,1,2.854,2.889,2.968,2.968,0,0,1-2.907,2.893,3.012,3.012,0,0,1-2.933-2.879,2.882,2.882,0,0,1,2.986-2.9" transform="translate(-82.432 -136.875)" fill="#161615"/>
        <path id="Trazado_834657" data-name="Trazado 834657" d="M144.329,189.605c-.875,0-1.751.031-2.624-.01-.678-.032-1.312-.267-1.307-1.086.005-.754.6-1.011,1.235-1.021q2.682-.043,5.366.01c.633.012,1.24.261,1.25,1.01.011.807-.6,1.067-1.3,1.093-.874.032-1.749.008-2.624.008v0" transform="translate(-106.77 -142.566)" fill="#161615"/>
        <path id="Trazado_834658" data-name="Trazado 834658" d="M114.628,63.477c-.995,0-1.99.03-2.983-.011-.66-.027-1.326-.19-1.349-1.035s.625-1.07,1.293-1.082q3.042-.052,6.086-.006c.66.009,1.336.187,1.347,1.032.012.92-.709,1.068-1.41,1.1-.993.039-1.989.01-2.983.01v0" transform="translate(-83.877 -46.635)" fill="#161615"/>
        <path id="Trazado_834659" data-name="Trazado 834659" d="M114.532,49.144q-1.491,0-2.982,0c-.657,0-1.222-.175-1.263-.948s.481-1.075,1.143-1.083q3.22-.04,6.441,0c.662.008,1.185.32,1.145,1.082s-.6.948-1.263.949q-1.611,0-3.221,0" transform="translate(-83.868 -35.812)" fill="#161615"/>
        <path id="Trazado_834660" data-name="Trazado 834660" d="M207.033,93.213c.993,0,1.987-.018,2.98.006.688.017,1.331.252,1.347,1.046.017.814-.652,1.055-1.323,1.065q-3.1.043-6.2-.007c-.678-.011-1.326-.272-1.286-1.092s.706-.993,1.378-1.012c1.032-.028,2.066-.007,3.1-.007" transform="translate(-154.037 -70.881)" fill="#161615"/>
        <path id="Trazado_834661" data-name="Trazado 834661" d="M206.98,79.039c1.073,0,2.146-.017,3.219.007.672.015,1.2.325,1.178,1.06-.019.661-.516.969-1.141.973q-3.278.022-6.557,0a.992.992,0,0,1-1.118-.992c0-.737.533-1.025,1.2-1.038,1.073-.021,2.146-.006,3.219-.005" transform="translate(-154.043 -60.103)" fill="#161615"/>
      </g>
    </g>
  </g>
</svg>
