<svg xmlns="http://www.w3.org/2000/svg" xmlns:xlink="http://www.w3.org/1999/xlink" width="85" height="85" viewBox="0 0 85 85">
  <defs>
    <clipPath id="clip-path">
      <rect id="Rectángulo_379833" data-name="Rectángulo 379833" width="42" height="56.553" fill="none"/>
    </clipPath>
  </defs>
  <g id="Grupo_1081398" data-name="Grupo 1081398" transform="translate(-285 -2409)">
    <g id="Grupo_1081363" data-name="Grupo 1081363" transform="translate(0 -4290)">
      <path id="Trazado_605481" data-name="Trazado 605481" d="M42.5,0A42.5,42.5,0,1,1,0,42.5,42.5,42.5,0,0,1,42.5,0Z" transform="translate(285 6699)" fill="#ffae7e"/>
    </g>
    <g id="Grupo_1081364" data-name="Grupo 1081364" transform="translate(306.5 2425.802)">
      <g id="Grupo_1081340" data-name="Grupo 1081340" clip-path="url(#clip-path)">
        <path id="Trazado_834670" data-name="Trazado 834670" d="M42.047,68.337q0,10.681,0,21.361c0,1.8-.143,1.946-1.943,1.946q-19.049,0-38.1,0C.209,91.644.066,91.5.065,89.7q0-4.845,0-9.689a4.744,4.744,0,0,1,.078-1.092.879.879,0,0,1,.974-.717.835.835,0,0,1,.8.784,12.289,12.289,0,0,1,.047,1.428c0,2.716.031,5.432-.014,8.148-.015.9.259,1.215,1.184,1.213q17.892-.036,35.785.007c1.1,0,1.245-.455,1.243-1.38q-.033-17.948-.014-35.9c0-1.982,0-3.964,0-5.946,0-.7-.073-1.541.932-1.55s.964.82.964,1.528q.005,10.9,0,21.8" transform="translate(-0.049 -35.092)" fill="#161615"/>
        <path id="Trazado_834671" data-name="Trazado 834671" d="M21.12,0q9.525,0,19.051,0C41.814,0,41.993.183,42,1.843q.007,2.312,0,4.625c0,.674-.147,1.336-.968,1.325S40.1,7.107,40.1,6.438c0-1.175-.033-2.351.009-3.524.027-.761-.256-1.052-1.021-1.034-1.541.036-3.083.009-4.625.009H3.518c-1.6,0-1.6,0-1.6,1.645q0,17.785-.008,35.569c0,.764.258,1.885-.9,1.9-1.247.014-.979-1.149-.98-1.945q-.019-18.5-.008-37C.016.1.116,0,2.069,0H21.12" transform="translate(0 0.001)" fill="#161615"/>
        <path id="Trazado_834672" data-name="Trazado 834672" d="M139.287,152.09c0-3.044-.008-6.088,0-9.132.006-1.556.31-1.843,1.885-1.851,1.357-.006,2.714,0,4.071,0a1.2,1.2,0,0,1,1.363,1.35c0,.806.023,1.615-.03,2.419a.923.923,0,0,1-.968.985c-.657-.01-.834-.456-.883-1.034-.154-1.839-.165-1.785-2.064-1.849-1.049-.035-1.4.29-1.39,1.361q.07,7.756,0,15.513c-.008,1.018.33,1.339,1.334,1.307,2.428-.077,2.1.215,2.112-2.129.015-3.081,0-6.161,0-9.242,0-.293,0-.587.014-.88.03-.544.286-.928.86-.947a.9.9,0,0,1,.956.875,14.435,14.435,0,0,1,.057,1.756q.006,5.336,0,10.672c0,1.526-.261,1.77-1.8,1.777q-1.815.008-3.631,0c-1.633,0-1.885-.252-1.89-1.932-.009-3.007,0-6.015,0-9.022" transform="translate(-108.601 -110.021)" fill="#161615"/>
        <path id="Trazado_834673" data-name="Trazado 834673" d="M22.744,49a6.467,6.467,0,1,1-6.576,6.431A6.509,6.509,0,0,1,22.744,49m.4,11.038a4.371,4.371,0,0,0,3.7-2.571c.368-.7.307-1.09-.619-1.057-1.024.037-2.05-.015-3.075.011a1.24,1.24,0,0,1-1.436-1.391c-.019-.951,0-1.9-.019-2.855-.022-1.081-.288-1.226-1.251-.712a4.614,4.614,0,0,0-2.184,5.159c.5,2.028,2.3,3.411,4.879,3.416m2.221-5.528c.422,0,.752,0,1.082,0,.67.011.732-.317.492-.843a4.582,4.582,0,0,0-2.322-2.387c-.318-.143-.73-.253-.812.191a4.961,4.961,0,0,0,.05,2.709c.262.656,1.06.208,1.511.33" transform="translate(-12.606 -38.21)" fill="#161615"/>
        <path id="Trazado_834674" data-name="Trazado 834674" d="M60.386,16.018c2.714,0,5.428-.006,8.142,0,1.308,0,1.609.3,1.645,1.616.023.843.014,1.687-.017,2.53a1.167,1.167,0,0,1-1.3,1.287q-8.582-.011-17.165,0a1.166,1.166,0,0,1-1.3-1.291c-.029-.879-.044-1.761-.011-2.64.045-1.217.362-1.5,1.644-1.5,2.788-.008,5.575,0,8.362,0m-.1,1.9c-2.272,0-4.544,0-6.816,0-.592,0-1.105.013-1.094.837.01.746.457.8,1.022.8q6.871-.008,13.743,0c.553,0,1.022-.026,1.039-.781.018-.812-.471-.858-1.077-.856-2.272.01-4.544,0-6.816,0" transform="translate(-39.267 -12.488)" fill="#161615"/>
        <path id="Trazado_834675" data-name="Trazado 834675" d="M106.261,170c0,2.423-.023,4.846.011,7.268.014,1.024-.383,1.485-1.428,1.457-1.431-.039-2.863-.032-4.294,0-1.008.021-1.5-.4-1.493-1.43q.017-7.323,0-14.646a1.251,1.251,0,0,1,1.411-1.427c1.431-.013,2.864-.026,4.295,0,1.205.019,1.49.312,1.5,1.516.013,2.423,0,4.846,0,7.268m-1.891-.019q0-2.308,0-4.617c0-2.208,0-2.172-2.229-2.17-.911,0-1.208.318-1.2,1.223.041,3.37,0,6.742.022,10.113.02,2.56-.456,2.24,2.372,2.3.861.017,1.054-.371,1.041-1.13-.031-1.9-.01-3.811-.009-5.716" transform="translate(-77.235 -125.688)" fill="#161615"/>
        <path id="Trazado_834676" data-name="Trazado 834676" d="M58.93,197.253c0-1.355.015-2.71,0-4.064-.013-.883.4-1.261,1.269-1.25q2.306.029,4.613,0c.94-.014,1.323.45,1.321,1.346q-.009,4.009,0,8.018c0,.966-.461,1.395-1.422,1.381-1.464-.022-2.929-.027-4.393,0-.968.02-1.418-.378-1.394-1.368.032-1.354.008-2.709.009-4.064m1.889-.039c0,.4-.006.807,0,1.211.047,2.642-.43,2.318,2.44,2.36.7.01,1-.231.978-.956-.036-1.246.009-2.5-.012-3.742-.043-2.472.492-2.235-2.423-2.258-.7-.006-1.015.247-.988.964.031.806.007,1.614,0,2.421" transform="translate(-45.941 -149.656)" fill="#161615"/>
        <path id="Trazado_834677" data-name="Trazado 834677" d="M100.426,67.366c-2.421,0-4.842,0-7.264,0a5.459,5.459,0,0,1-1.092-.092.9.9,0,0,1-.807-.907.883.883,0,0,1,.8-.9,6.019,6.019,0,0,1,1.092-.095c4.769-.006,9.538-.017,14.307.009.793,0,1.982-.237,2.017.938.039,1.289-1.182,1.034-2.015,1.044-2.347.03-4.7.01-7.043.01" transform="translate(-71.159 -50.959)" fill="#161615"/>
        <path id="Trazado_834678" data-name="Trazado 834678" d="M100.538,82.228q3.687,0,7.374,0a2.668,2.668,0,0,1,1.188.166.891.891,0,0,1,.567.866.8.8,0,0,1-.633.806,7.007,7.007,0,0,1-1.414.158q-7.153.017-14.307,0c-.777,0-1.861.16-1.88-.975s1.055-1.008,1.841-1.014c2.421-.02,4.842-.007,7.263-.007" transform="translate(-71.291 -64.111)" fill="#161615"/>
        <path id="Trazado_834679" data-name="Trazado 834679" d="M100.511,49q3.847,0,7.693,0c.659,0,1.371.044,1.4.863.034.876-.7,1.019-1.4,1.02q-7.748.012-15.5,0c-.667,0-1.332-.154-1.339-.964-.008-.841.665-.922,1.335-.921q3.9.008,7.8,0" transform="translate(-71.244 -38.202)" fill="#161615"/>
        <path id="Trazado_834680" data-name="Trazado 834680" d="M21.817,221.467q-1.207,0-2.414,0a1.111,1.111,0,0,1-1.241-1.215c-.024-.987-.021-1.974,0-2.961a1.111,1.111,0,0,1,1.212-1.244c1.609-.006,3.218,0,4.827-.005a1.085,1.085,0,0,1,1.229,1.11c.049,1.057.051,2.12.005,3.178a1.12,1.12,0,0,1-1.313,1.144c-.767-.016-1.536,0-2.3,0m-.072-1.908v.01c.218,0,.436-.008.653,0,.6.026,1.084-.056,1.066-.851-.016-.737-.472-.793-1.026-.783-.58.011-1.161.009-1.742.01-.536,0-.662.325-.66.787,0,.44.067.813.619.824.363.007.726,0,1.088,0" transform="translate(-14.148 -168.448)" fill="#161615"/>
        <path id="Trazado_834681" data-name="Trazado 834681" d="M31.757,141.013q3.412,0,6.824,0c.694,0,1.45.041,1.438.944-.012.881-.764.951-1.457.951q-6.934,0-13.868,0c-.7,0-1.429-.087-1.429-.98,0-.938.773-.912,1.448-.913q3.522,0,7.044,0" transform="translate(-18.14 -109.949)" fill="#161615"/>
        <path id="Trazado_834682" data-name="Trazado 834682" d="M31.574,125.951q-3.41,0-6.82,0c-.687,0-1.442-.037-1.453-.938s.736-.96,1.428-.96q6.93,0,13.86,0c.692,0,1.446.048,1.457.937s-.734.963-1.432.963h-7.04" transform="translate(-18.168 -96.724)" fill="#161615"/>
        <path id="Trazado_834683" data-name="Trazado 834683" d="M97.15,101.033c-1.468,0-2.937,0-4.405,0-.662,0-1.353-.046-1.378-.885-.025-.814.631-1,1.306-1q4.46-.013,8.92,0c.659,0,1.327.134,1.315.978-.012.867-.7.9-1.353.9q-2.2,0-4.405,0" transform="translate(-71.239 -77.305)" fill="#161615"/>
        <path id="Trazado_834684" data-name="Trazado 834684" d="M28.4,157.971c1.245,0,2.49,0,3.735,0,.607,0,1.164.158,1.19.849.027.734-.538,1.013-1.18,1.018q-3.9.029-7.8,0c-.591-.005-1.12-.259-1.123-.952,0-.792.585-.914,1.223-.914H28.4" transform="translate(-18.109 -123.171)" fill="#161615"/>
      </g>
    </g>
  </g>
</svg>
