<svg xmlns="http://www.w3.org/2000/svg" xmlns:xlink="http://www.w3.org/1999/xlink" width="85" height="85" viewBox="0 0 85 85">
  <defs>
    <clipPath id="clip-path">
      <rect id="Rectángulo_379832" data-name="Rectángulo 379832" width="50.831" height="56.403" fill="none"/>
    </clipPath>
  </defs>
  <g id="Grupo_1081397" data-name="Grupo 1081397" transform="translate(-285 -2283)">
    <g id="Grupo_1081361" data-name="Grupo 1081361" transform="translate(0 -4292)">
      <path id="Trazado_834734" data-name="Trazado 834734" d="M42.5,0A42.5,42.5,0,1,1,0,42.5,42.5,42.5,0,0,1,42.5,0Z" transform="translate(285 6575)" fill="#ffae7e"/>
    </g>
    <g id="Grupo_1081362" data-name="Grupo 1081362" transform="translate(302.417 2298)">
      <g id="Grupo_1081338" data-name="Grupo 1081338" clip-path="url(#clip-path)">
        <path id="Trazado_834662" data-name="Trazado 834662" d="M33.383,48.659c4.16,0,8.007,0,11.854,0,2.377,0,3.309.923,3.311,3.323q.013,13.221,0,26.441c0,.9-.065,1.7,1.14,1.987.742.175,1.031.919,1.045,1.706.019,1.07.047,2.14.1,3.208.026.54-.2.834-.725.883-.355.033-.714.029-1.071.029q-23.642,0-47.284,0A8.083,8.083,0,0,1,.68,86.2c-.54-.073-.869-.478-.561-.914.676-.958.366-2,.406-3a1.863,1.863,0,0,1,1.225-1.97c.833-.255.945-.754.944-1.506Q2.665,66.31,2.682,53.8q0-.893,0-1.787c0-2.594.751-3.356,3.3-3.358,3.494,0,6.987,0,10.481-.01.331,0,.788.2.971-.2.14-.305-.212-.566-.38-.823-.585-.9-1.2-1.779-1.777-2.679a2.885,2.885,0,0,0-1.863-1.5,1.872,1.872,0,0,1-1.412-1.983,2.159,2.159,0,0,1,1.46-2.11,4.172,4.172,0,0,1,1.645-.185q10.422,0,20.843,0a4.734,4.734,0,0,1,1.648.17,2.1,2.1,0,0,1,1.523,2.172,1.956,1.956,0,0,1-1.563,2,2.224,2.224,0,0,0-1.468,1.078c-.841,1.287-1.7,2.56-2.712,4.069M25.492,77.747c5.912,0,11.824-.022,17.735.02,1.066.007,1.454-.283,1.448-1.4q-.063-11.307,0-22.615c0-1.028-.293-1.385-1.352-1.369-3.689.056-7.379.02-11.069.022-1.6,0-2.108.487-2.268,2.059q-.464,4.552-.966,9.1c-.126,1.133-.527,1.359-1.6.908a32.334,32.334,0,0,0-3.5-1.5c-1.7-.484-2.105-1.615-2.189-3.191-.1-1.895-.367-3.784-.632-5.665A1.8,1.8,0,0,0,19,52.374c-3.728.076-7.459.064-11.188,0-1.1-.018-1.42.318-1.414,1.415q.064,11.248,0,22.5c-.007,1.144.328,1.493,1.476,1.483,5.872-.051,11.744-.024,17.616-.024m.267,3.9H11.952c-2.9,0-5.792-.005-8.688.007-.495,0-1.061-.115-1.308.542-.612,1.635.1,2.673,1.837,2.673H43.308q2.38,0,4.761,0c.436,0,.952.054,1.143-.436a3.435,3.435,0,0,0,.036-2.33c-.225-.67-.946-.445-1.471-.445q-11.009-.019-22.019-.009m-6.6-30.61a1.177,1.177,0,0,0-1.35-1.013c-3.969.009-7.937-.007-11.906.012-1.416.007-1.851.458-1.852,1.866-.008,9.009,0,18.017-.017,27.026,0,.843.215,1.206,1.133,1.2q20.359-.033,40.718,0c.9,0,1.152-.347,1.15-1.2Q47,65.3,47.027,51.668c0-1.1-.509-1.631-1.571-1.634-4.088-.011-8.175,0-12.263-.009-.523,0-1.078.134-1.057.694s.634.3.971.3c3.73.022,7.461.012,11.191.015,1.809,0,1.882.07,1.883,1.872q0,12.084,0,24.169c0,2.149-.05,2.2-2.206,2.2q-18.394,0-36.789,0c-2.145,0-2.259-.111-2.26-2.3q0-11.906,0-23.812c0-.317.011-.635.021-.952.025-.825.42-1.2,1.276-1.184,2.262.031,4.524.009,6.786.008h6.146m6.37,1.673a16.354,16.354,0,0,1,1.9.013A2.192,2.192,0,0,0,29.752,51.5c1.438-2.282,2.991-4.491,4.487-6.736.167-.25.51-.494.332-.832S34,43.73,33.7,43.729c-5.4-.007-10.794,0-16.191-.011-.935,0-1.167.248-.59,1.081a60.715,60.715,0,0,1,3.415,5.159c1.17,2.128,2.6,3.459,5.192,2.749m.044,1.364c-.674,0-1.35.021-2.023-.006-.75-.03-.981.273-.844,1.014a10.345,10.345,0,0,1,.313,2.708c-.242,2.743,1.161,4.084,3.618,4.783.792.225,1.026.224,1.095-.661.153-1.973.394-3.94.637-5.905.229-1.85.175-1.933-1.724-1.934q-.536,0-1.071,0M25.642,40.7q-4.993,0-9.986,0c-.436,0-.872,0-1.307.021s-.773.214-.782.708a.731.731,0,0,0,.74.77,7.6,7.6,0,0,0,.95.03q10.343,0,20.686,0c.277,0,.556.01.831-.017.477-.047.875-.255.861-.79-.013-.472-.383-.666-.818-.7-.355-.025-.713-.025-1.069-.025q-5.053,0-10.105,0" transform="translate(0 -29.836)" fill="#161615"/>
        <path id="Trazado_834663" data-name="Trazado 834663" d="M117.231,6.006A15.919,15.919,0,0,1,123.41.888a8.734,8.734,0,0,1,3.674-.88c.531.011,1.27-.156,1.335.616.069.818-.679.691-1.211.752-3.814.434-6.534,2.57-8.775,5.525.413.428.817.147,1.185.184.4.04.7.206.733.633a.629.629,0,0,1-.534.693c-1.014.178-2.036.315-3.058.433a.812.812,0,0,1-.528-.225,6.841,6.841,0,0,1-.538-3.787c.366-.494.809-.518,1.15,0a5.307,5.307,0,0,1,.389,1.17" transform="translate(-88.053 0)" fill="#161615"/>
        <path id="Trazado_834664" data-name="Trazado 834664" d="M55.278,7.122C52.811,3.868,50,1.656,46,1.365c-.469-.034-.944-.121-.934-.68.011-.643.556-.673,1.05-.682a10.76,10.76,0,0,1,6.39,2.253,15.393,15.393,0,0,1,3.18,3.02c.342.424.678.85.864-.095.086-.439.3-.764.791-.687s.592.494.554.909c-.085.905-.174,1.812-.325,2.708a.847.847,0,0,1-1.052.721c-.785-.1-1.569-.212-2.354-.311-.5-.063-1.019-.168-.969-.8.058-.733.625-.678,1.167-.605a8.45,8.45,0,0,0,.912.005" transform="translate(-34.334 -0.001)" fill="#161615"/>
        <path id="Trazado_834665" data-name="Trazado 834665" d="M150.324,135.577c0-2.3.028-4.593-.011-6.888-.019-1.08.46-1.518,1.5-1.486.831.025,1.663,0,2.494.022a1.056,1.056,0,0,1,1.15,1.2q-.007,7.3,0,14.609a1.04,1.04,0,0,1-1.181,1.161c-.04,0-.079,0-.119,0-4.409-.014-3.787.455-3.825-3.633-.015-1.663,0-3.326,0-4.988m1.53.063c0,1.982.014,3.965-.008,5.947-.008.723.207,1.1,1.013,1.1.747-.005,1.083-.256,1.08-1.035q-.026-5.947,0-11.894c0-.778-.328-1.03-1.077-1.035-.8-.005-1.024.366-1.016,1.092.022,1.942.008,3.885.008,5.828" transform="translate(-114.506 -96.901)" fill="#161615"/>
        <path id="Trazado_834666" data-name="Trazado 834666" d="M128.5,147.978c0,1.824-.016,3.649.007,5.473.011.893-.373,1.322-1.273,1.321-4.322,0-3.846.388-3.859-3.532q-.015-4.283,0-8.567c.006-1.39.2-1.576,1.592-1.592.753-.009,1.507.016,2.261,0,.909-.022,1.287.414,1.277,1.307-.02,1.864-.006,3.728-.006,5.592m-1.511-.017c0-1.383-.013-2.766.005-4.148.01-.723-.129-1.215-1.025-1.223-.858-.008-1.079.385-1.073,1.159q.036,4.208,0,8.415c0,.723.207,1.086,1.008,1.093.848.008,1.107-.366,1.091-1.148-.029-1.382-.008-2.766-.008-4.148" transform="translate(-93.981 -107.472)" fill="#161615"/>
        <path id="Trazado_834667" data-name="Trazado 834667" d="M74.612,155.684c0,1.505-.03,3.011.009,4.515.025.977-.416,1.355-1.354,1.35-4.161-.022-3.753.411-3.764-3.627-.006-2.178.016-4.357,0-6.535-.01-.987.37-1.439,1.41-1.417,4.368.091,3.63-.591,3.7,3.576.012.713,0,1.426,0,2.139m-1.368-.026c0-1.147-.022-2.294.008-3.44.021-.8-.439-.886-1.069-.883-.651,0-1.175.029-1.164.913.029,2.293.025,4.587,0,6.881-.009.894.56.881,1.19.894.657.014,1.061-.158,1.04-.923-.031-1.146-.008-2.293-.008-3.44" transform="translate(-52.942 -114.245)" fill="#161615"/>
        <path id="Trazado_834668" data-name="Trazado 834668" d="M101.553,167.186c0,1.029-.008,2.057,0,3.086a1.03,1.03,0,0,1-1.143,1.189c-.04,0-.079,0-.119,0-4.325,0-3.837.417-3.858-3.635-.006-1.187.01-2.374,0-3.56-.006-.886.393-1.308,1.3-1.274s1.819.016,2.729.01a.949.949,0,0,1,1.081,1.094c-.005,1.029,0,2.057,0,3.086m-3.583-.08c0,.632.022,1.265-.006,1.9-.033.743.346.951,1.021.944.65-.007,1.076-.176,1.07-.922-.009-1.145-.02-2.291.012-3.436.023-.8-.179-1.248-1.119-1.242s-1.014.516-.986,1.22c.02.513,0,1.027.007,1.54" transform="translate(-73.46 -124.168)" fill="#161615"/>
        <path id="Trazado_834669" data-name="Trazado 834669" d="M47.7,175.551c-.029,3.16.424,3.032-3,3.02-1.962-.007-2.091-.133-2.1-2.089,0-.952.008-1.9.008-2.855a1.155,1.155,0,0,1,1.326-1.3c.159,0,.317-.006.476-.007,3.925-.022,3.223-.066,3.288,3.232m-3.586-.2c0,.237.013.4,0,.552-.076.777.19,1.154,1.052,1.155s1.277-.253,1.175-1.153a3.472,3.472,0,0,1,0-.828c.131-1.009-.333-1.287-1.292-1.263-1.3.033-.819.969-.934,1.537" transform="translate(-32.45 -131.268)" fill="#161615"/>
      </g>
    </g>
  </g>
</svg>
