<svg id="Grupo_1081335" data-name="Grupo 1081335" xmlns="http://www.w3.org/2000/svg" xmlns:xlink="http://www.w3.org/1999/xlink" width="400" height="305.262" viewBox="0 0 400 305.262">
  <defs>
    <clipPath id="clip-path">
      <rect id="Rectángulo_379830" data-name="Rectángulo 379830" width="400" height="305.262" fill="none"/>
    </clipPath>
    <clipPath id="clip-path-2">
      <rect id="Rectángulo_379791" data-name="Rectángulo 379791" width="102.621" height="71.224" fill="none"/>
    </clipPath>
    <clipPath id="clip-path-4">
      <rect id="Rectángulo_379793" data-name="Rectángulo 379793" width="141.796" height="98.42" fill="none"/>
    </clipPath>
  </defs>
  <g id="Grupo_1081334" data-name="Grupo 1081334" clip-path="url(#clip-path)">
    <path id="Trazado_834459" data-name="Trazado 834459" d="M220.563,332.506c.521.005,1.041.021,1.563.021a137.392,137.392,0,0,0,102.12-45.306H220.563Z" transform="translate(-20.938 -27.265)" fill="#aaabb0"/>
    <path id="Trazado_834460" data-name="Trazado 834460" d="M210.016,332.506V287.221H109.461a137.38,137.38,0,0,0,100.555,45.285" transform="translate(-10.391 -27.265)" fill="#83b7be"/>
    <path id="Trazado_834461" data-name="Trazado 834461" d="M221.007,282.65H323.981a137.527,137.527,0,0,0,30.33-54.5h-133.3Z" transform="translate(-20.98 -21.658)" fill="#c8c7c7"/>
    <path id="Trazado_834462" data-name="Trazado 834462" d="M105.941,282.65H207.206v-54.5H75.612a137.514,137.514,0,0,0,30.329,54.5" transform="translate(-7.178 -21.658)" fill="#c5e2f2"/>
    <path id="Trazado_834463" data-name="Trazado 834463" d="M50.132,153.931l-.451-.006a6.935,6.935,0,0,0-8.308-6.91,8.122,8.122,0,0,0-15.727.87,6.424,6.424,0,0,0-.841-.075,6.34,6.34,0,0,0-6.426,6.07,11.669,11.669,0,0,0-8.284,8.2l49.462.763c-1.2-5.029-4.032-8.833-9.426-8.913" transform="translate(-0.958 -13.414)" fill="#b8e3ff"/>
    <path id="Trazado_834464" data-name="Trazado 834464" d="M35.529,141.209a8.125,8.125,0,0,0-8.138,6.516,6.34,6.34,0,0,1,5.345,5.8l10.387-6.56a8.127,8.127,0,0,0-7.594-5.755" transform="translate(-2.6 -13.405)" fill="#b8e3ff"/>
    <path id="Trazado_834465" data-name="Trazado 834465" d="M19.317,154.344l7.308-5.945a6.435,6.435,0,0,0-.841-.081,6.339,6.339,0,0,0-6.468,6.025" transform="translate(-1.834 -14.08)" fill="#b8e3ff"/>
    <path id="Trazado_834466" data-name="Trazado 834466" d="M27.391,148.408l5.345,5.8a6.34,6.34,0,0,0-5.345-5.8" transform="translate(-2.6 -14.088)" fill="#b8e3ff"/>
    <path id="Trazado_834467" data-name="Trazado 834467" d="M46.144,147.428a6.966,6.966,0,0,0-1.469.126l-.943,6.766,9.2.2a6.943,6.943,0,0,0-6.79-7.093" transform="translate(-4.151 -13.995)" fill="#b8e3ff"/>
    <path id="Trazado_834468" data-name="Trazado 834468" d="M50.192,155.248l-.451-.01-31.313-.084c0-.06.01-.118.013-.177a11.67,11.67,0,0,0-8.341,8.145l49.876,1.117c-1.167-5.039-4.391-8.872-9.784-8.99" transform="translate(-0.959 -14.712)" fill="#b8e3ff"/>
    <path id="Trazado_834469" data-name="Trazado 834469" d="M32.593,158.074a6.306,6.306,0,0,0,.654-2.658c0-.2,0-.4-.017-.6Z" transform="translate(-3.094 -14.696)" fill="#b8e3ff"/>
    <path id="Trazado_834470" data-name="Trazado 834470" d="M32.593,158.074a6.306,6.306,0,0,0,.654-2.658c0-.2,0-.4-.017-.6Z" transform="translate(-3.094 -14.696)" fill="#b8e3ff"/>
    <path id="Trazado_834471" data-name="Trazado 834471" d="M27.39,148.661s4.327,1.4,4.111,5.439a5.823,5.823,0,0,1-4.111,5.439,5.439,5.439,0,1,0,0-10.878" transform="translate(-2.6 -14.112)" fill="#c6e9ff"/>
    <path id="Trazado_834472" data-name="Trazado 834472" d="M55.19,155.7a8.029,8.029,0,0,0-8.147,7.908s2.152-6.747,8.1-6.338a8.81,8.81,0,0,1,7.954,6.578A8.028,8.028,0,0,0,55.19,155.7" transform="translate(-4.466 -14.78)" fill="#c6e9ff"/>
    <path id="Trazado_834473" data-name="Trazado 834473" d="M165.117,97.412a7.94,7.94,0,0,0-9.166-7.562,10.245,10.245,0,0,0-19.836-1.1,8.75,8.75,0,0,0-10.479,8.716l-.568.008c-6.8.1-10.374,4.9-11.889,11.243l62.387-.962a14.718,14.718,0,0,0-10.449-10.346" transform="translate(-10.744 -7.742)" fill="#b8e3ff"/>
    <path id="Trazado_834474" data-name="Trazado 834474" d="M159.577,90.83a6.86,6.86,0,0,0,0,13.721,7.343,7.343,0,0,1-5.184-6.86c-.273-5.088,5.184-6.86,5.184-6.86" transform="translate(-14.497 -8.622)" fill="#c6e9ff"/>
    <path id="Trazado_834475" data-name="Trazado 834475" d="M123.108,99.706a10.126,10.126,0,0,0-9.974,10.277s1.752-7.728,10.032-8.3c7.5-.515,10.219,7.994,10.219,7.994a10.127,10.127,0,0,0-10.277-9.974" transform="translate(-10.74 -9.465)" fill="#c6e9ff"/>
    <path id="Trazado_834476" data-name="Trazado 834476" d="M210.647,256.234l-.043-.047-.043.048c-1.211,1.355-3.723,3.632-6.936,3.647h-.032a9.2,9.2,0,0,1-6.964-3.676l-.044-.055-.046.053c-1.218,1.387-3.741,3.71-6.969,3.71h-.032a9.127,9.127,0,0,1-6.9-3.707l-.043-.055-.046.053a10.206,10.206,0,0,1-5.666,3.589l.023.116a10.279,10.279,0,0,0,5.685-3.573,9.229,9.229,0,0,0,6.951,3.7h.033c3.235,0,5.763-2.29,7.012-3.7A9.3,9.3,0,0,0,203.592,260h.033c2.4-.012,4.876-1.3,6.98-3.638a10.587,10.587,0,0,0,5.878,3.543l.019-.116a10.518,10.518,0,0,1-5.854-3.555" transform="translate(-16.791 -24.316)" fill="#0076ce"/>
    <path id="Trazado_834477" data-name="Trazado 834477" d="M210.647,256.234l-.043-.047-.043.048c-1.211,1.355-3.723,3.632-6.936,3.647h-.032a9.2,9.2,0,0,1-6.964-3.676l-.044-.055-.046.053c-1.218,1.387-3.741,3.71-6.969,3.71h-.032a9.127,9.127,0,0,1-6.9-3.707l-.043-.055-.046.053a10.206,10.206,0,0,1-5.666,3.589l.023.116a10.279,10.279,0,0,0,5.685-3.573,9.229,9.229,0,0,0,6.951,3.7h.033c3.235,0,5.763-2.29,7.012-3.7A9.3,9.3,0,0,0,203.592,260h.033c2.4-.012,4.876-1.3,6.98-3.638a10.587,10.587,0,0,0,5.878,3.543l.019-.116A10.518,10.518,0,0,1,210.647,256.234Z" transform="translate(-16.791 -24.316)" fill="none" stroke="#0065c4" stroke-miterlimit="10" stroke-width="0.283"/>
    <path id="Trazado_834478" data-name="Trazado 834478" d="M210.647,258.3l-.043-.047-.043.048c-1.211,1.355-3.723,3.632-6.936,3.647h-.032a9.2,9.2,0,0,1-6.964-3.676l-.044-.055-.046.052c-1.218,1.387-3.741,3.71-6.969,3.71h-.032a9.127,9.127,0,0,1-6.9-3.707l-.043-.055-.046.052a10.206,10.206,0,0,1-5.666,3.589l.023.116a10.279,10.279,0,0,0,5.685-3.573,9.229,9.229,0,0,0,6.951,3.7h.033c3.235,0,5.763-2.29,7.012-3.7a9.3,9.3,0,0,0,7.012,3.666h.033c2.4-.011,4.876-1.3,6.98-3.637a10.587,10.587,0,0,0,5.878,3.543l.019-.116a10.518,10.518,0,0,1-5.854-3.555" transform="translate(-16.791 -24.512)" fill="#0076ce"/>
    <path id="Trazado_834479" data-name="Trazado 834479" d="M210.647,258.3l-.043-.047-.043.048c-1.211,1.355-3.723,3.632-6.936,3.647h-.032a9.2,9.2,0,0,1-6.964-3.676l-.044-.055-.046.052c-1.218,1.387-3.741,3.71-6.969,3.71h-.032a9.127,9.127,0,0,1-6.9-3.707l-.043-.055-.046.052a10.206,10.206,0,0,1-5.666,3.589l.023.116a10.279,10.279,0,0,0,5.685-3.573,9.229,9.229,0,0,0,6.951,3.7h.033c3.235,0,5.763-2.29,7.012-3.7a9.3,9.3,0,0,0,7.012,3.666h.033c2.4-.011,4.876-1.3,6.98-3.637a10.587,10.587,0,0,0,5.878,3.543l.019-.116A10.518,10.518,0,0,1,210.647,258.3Z" transform="translate(-16.791 -24.512)" fill="none" stroke="#0065c4" stroke-miterlimit="10" stroke-width="0.283"/>
    <path id="Trazado_834480" data-name="Trazado 834480" d="M210.647,260.355l-.043-.046-.043.048c-1.211,1.354-3.723,3.631-6.936,3.647h-.032a9.2,9.2,0,0,1-6.964-3.676l-.044-.055-.046.052c-1.218,1.387-3.741,3.71-6.969,3.71h-.032a9.127,9.127,0,0,1-6.9-3.707l-.043-.055-.046.052a10.213,10.213,0,0,1-5.666,3.59l.023.116a10.281,10.281,0,0,0,5.685-3.574,9.227,9.227,0,0,0,6.951,3.7h.033c3.235,0,5.763-2.291,7.012-3.7a9.3,9.3,0,0,0,7.012,3.666h.033c2.4-.011,4.876-1.3,6.98-3.637a10.349,10.349,0,0,0,6.2,3.587l.014-.117a10.273,10.273,0,0,1-6.172-3.6" transform="translate(-16.791 -24.707)" fill="#0076ce"/>
    <path id="Trazado_834481" data-name="Trazado 834481" d="M210.647,260.355l-.043-.046-.043.048c-1.211,1.354-3.723,3.631-6.936,3.647h-.032a9.2,9.2,0,0,1-6.964-3.676l-.044-.055-.046.052c-1.218,1.387-3.741,3.71-6.969,3.71h-.032a9.127,9.127,0,0,1-6.9-3.707l-.043-.055-.046.052a10.213,10.213,0,0,1-5.666,3.59l.023.116a10.281,10.281,0,0,0,5.685-3.574,9.227,9.227,0,0,0,6.951,3.7h.033c3.235,0,5.763-2.291,7.012-3.7a9.3,9.3,0,0,0,7.012,3.666h.033c2.4-.011,4.876-1.3,6.98-3.637a10.349,10.349,0,0,0,6.2,3.587l.014-.117A10.273,10.273,0,0,1,210.647,260.355Z" transform="translate(-16.791 -24.707)" fill="none" stroke="#0065c4" stroke-miterlimit="10" stroke-width="0.283"/>
    <path id="Trazado_834482" data-name="Trazado 834482" d="M254.776,256.234l-.043-.047-.043.048c-1.211,1.355-3.723,3.632-6.936,3.647h-.032a9.2,9.2,0,0,1-6.965-3.676l-.043-.055-.046.053c-1.218,1.387-3.741,3.71-6.969,3.71h-.032a9.127,9.127,0,0,1-6.9-3.707l-.043-.055-.047.053a10.2,10.2,0,0,1-5.665,3.589l.022.116a10.278,10.278,0,0,0,5.686-3.573,9.228,9.228,0,0,0,6.951,3.7h.033c3.235,0,5.763-2.29,7.012-3.7A9.3,9.3,0,0,0,247.721,260h.033c2.4-.012,4.876-1.3,6.98-3.638a10.587,10.587,0,0,0,5.878,3.543l.019-.116a10.516,10.516,0,0,1-5.854-3.555" transform="translate(-20.98 -24.316)" fill="#424445"/>
    <path id="Trazado_834483" data-name="Trazado 834483" d="M254.776,256.234l-.043-.047-.043.048c-1.211,1.355-3.723,3.632-6.936,3.647h-.032a9.2,9.2,0,0,1-6.965-3.676l-.043-.055-.046.053c-1.218,1.387-3.741,3.71-6.969,3.71h-.032a9.127,9.127,0,0,1-6.9-3.707l-.043-.055-.047.053a10.2,10.2,0,0,1-5.665,3.589l.022.116a10.278,10.278,0,0,0,5.686-3.573,9.228,9.228,0,0,0,6.951,3.7h.033c3.235,0,5.763-2.29,7.012-3.7A9.3,9.3,0,0,0,247.721,260h.033c2.4-.012,4.876-1.3,6.98-3.638a10.587,10.587,0,0,0,5.878,3.543l.019-.116A10.516,10.516,0,0,1,254.776,256.234Z" transform="translate(-20.98 -24.316)" fill="none" stroke="#424445" stroke-miterlimit="10" stroke-width="0.283"/>
    <path id="Trazado_834484" data-name="Trazado 834484" d="M254.776,258.3l-.043-.047-.043.048c-1.211,1.355-3.723,3.632-6.936,3.647h-.032a9.2,9.2,0,0,1-6.965-3.676l-.043-.055-.046.052c-1.218,1.387-3.741,3.71-6.969,3.71h-.032a9.127,9.127,0,0,1-6.9-3.707l-.043-.055-.047.052a10.2,10.2,0,0,1-5.665,3.589l.022.116a10.278,10.278,0,0,0,5.686-3.573,9.228,9.228,0,0,0,6.951,3.7h.033c3.235,0,5.763-2.29,7.012-3.7a9.3,9.3,0,0,0,7.012,3.666h.033c2.4-.011,4.876-1.3,6.98-3.637a10.587,10.587,0,0,0,5.878,3.543l.019-.116a10.515,10.515,0,0,1-5.854-3.555" transform="translate(-20.98 -24.512)" fill="#424445"/>
    <path id="Trazado_834485" data-name="Trazado 834485" d="M254.776,258.3l-.043-.047-.043.048c-1.211,1.355-3.723,3.632-6.936,3.647h-.032a9.2,9.2,0,0,1-6.965-3.676l-.043-.055-.046.052c-1.218,1.387-3.741,3.71-6.969,3.71h-.032a9.127,9.127,0,0,1-6.9-3.707l-.043-.055-.047.052a10.2,10.2,0,0,1-5.665,3.589l.022.116a10.278,10.278,0,0,0,5.686-3.573,9.228,9.228,0,0,0,6.951,3.7h.033c3.235,0,5.763-2.29,7.012-3.7a9.3,9.3,0,0,0,7.012,3.666h.033c2.4-.011,4.876-1.3,6.98-3.637a10.587,10.587,0,0,0,5.878,3.543l.019-.116A10.515,10.515,0,0,1,254.776,258.3Z" transform="translate(-20.98 -24.512)" fill="none" stroke="#424445" stroke-miterlimit="10" stroke-width="0.283"/>
    <path id="Trazado_834486" data-name="Trazado 834486" d="M254.776,260.355l-.043-.046-.043.048c-1.211,1.354-3.723,3.631-6.936,3.647h-.032a9.2,9.2,0,0,1-6.965-3.676l-.043-.055-.046.052c-1.218,1.387-3.741,3.71-6.969,3.71h-.032a9.127,9.127,0,0,1-6.9-3.707l-.043-.055-.047.052a10.208,10.208,0,0,1-5.665,3.59l.022.116a10.28,10.28,0,0,0,5.686-3.574,9.226,9.226,0,0,0,6.951,3.7h.033c3.235,0,5.763-2.291,7.012-3.7a9.3,9.3,0,0,0,7.012,3.666h.033c2.4-.011,4.876-1.3,6.98-3.637a10.347,10.347,0,0,0,6.2,3.587l.014-.117a10.273,10.273,0,0,1-6.172-3.6" transform="translate(-20.98 -24.707)" fill="#424445"/>
    <path id="Trazado_834487" data-name="Trazado 834487" d="M254.776,260.355l-.043-.046-.043.048c-1.211,1.354-3.723,3.631-6.936,3.647h-.032a9.2,9.2,0,0,1-6.965-3.676l-.043-.055-.046.052c-1.218,1.387-3.741,3.71-6.969,3.71h-.032a9.127,9.127,0,0,1-6.9-3.707l-.043-.055-.047.052a10.208,10.208,0,0,1-5.665,3.59l.022.116a10.28,10.28,0,0,0,5.686-3.574,9.226,9.226,0,0,0,6.951,3.7h.033c3.235,0,5.763-2.291,7.012-3.7a9.3,9.3,0,0,0,7.012,3.666h.033c2.4-.011,4.876-1.3,6.98-3.637a10.347,10.347,0,0,0,6.2,3.587l.014-.117A10.273,10.273,0,0,1,254.776,260.355Z" transform="translate(-20.98 -24.707)" fill="none" stroke="#424445" stroke-miterlimit="10" stroke-width="0.283"/>
    <path id="Trazado_834488" data-name="Trazado 834488" d="M327.635,278.145h-.027A7.864,7.864,0,0,1,321.654,275l-.037-.047-.04.045c-1.041,1.187-3.2,3.171-5.956,3.171h-.028a7.8,7.8,0,0,1-5.9-3.169l-.037-.048-.04.045a8.717,8.717,0,0,1-4.843,3.067l.019.1a8.784,8.784,0,0,0,4.859-3.055,7.889,7.889,0,0,0,5.943,3.16h.028c2.764,0,4.925-1.957,5.992-3.161a7.949,7.949,0,0,0,5.994,3.133h.028a5.825,5.825,0,0,0,.672-.047l-.019-.1a5.549,5.549,0,0,1-.654.046" transform="translate(-28.932 -26.101)" fill="#424445"/>
    <path id="Trazado_834489" data-name="Trazado 834489" d="M327.635,278.145h-.027A7.864,7.864,0,0,1,321.654,275l-.037-.047-.04.045c-1.041,1.187-3.2,3.171-5.956,3.171h-.028a7.8,7.8,0,0,1-5.9-3.169l-.037-.048-.04.045a8.717,8.717,0,0,1-4.843,3.067l.019.1a8.784,8.784,0,0,0,4.859-3.055,7.889,7.889,0,0,0,5.943,3.16h.028c2.764,0,4.925-1.957,5.992-3.161a7.949,7.949,0,0,0,5.994,3.133h.028a5.825,5.825,0,0,0,.672-.047l-.019-.1A5.549,5.549,0,0,1,327.635,278.145Z" transform="translate(-28.932 -26.101)" fill="none" stroke="#424445" stroke-miterlimit="10" stroke-width="0.283"/>
    <path id="Trazado_834490" data-name="Trazado 834490" d="M327.635,279.906h-.027a7.864,7.864,0,0,1-5.954-3.142l-.037-.047-.04.045c-1.041,1.187-3.2,3.171-5.956,3.171h-.028a7.8,7.8,0,0,1-5.9-3.169l-.037-.048-.04.045a8.717,8.717,0,0,1-4.843,3.067l.019.1a8.784,8.784,0,0,0,4.859-3.055,7.889,7.889,0,0,0,5.943,3.16h.028c2.764,0,4.925-1.957,5.992-3.16a7.949,7.949,0,0,0,5.994,3.133h.028a5.645,5.645,0,0,0,.718-.052c0-.033,0-.067,0-.1a5.49,5.49,0,0,1-.718.053" transform="translate(-28.932 -26.268)" fill="#424445"/>
    <path id="Trazado_834491" data-name="Trazado 834491" d="M327.635,279.906h-.027a7.864,7.864,0,0,1-5.954-3.142l-.037-.047-.04.045c-1.041,1.187-3.2,3.171-5.956,3.171h-.028a7.8,7.8,0,0,1-5.9-3.169l-.037-.048-.04.045a8.717,8.717,0,0,1-4.843,3.067l.019.1a8.784,8.784,0,0,0,4.859-3.055,7.889,7.889,0,0,0,5.943,3.16h.028c2.764,0,4.925-1.957,5.992-3.16a7.949,7.949,0,0,0,5.994,3.133h.028a5.645,5.645,0,0,0,.718-.052c0-.033,0-.067,0-.1A5.49,5.49,0,0,1,327.635,279.906Z" transform="translate(-28.932 -26.268)" fill="none" stroke="#424445" stroke-miterlimit="10" stroke-width="0.283"/>
    <path id="Trazado_834492" data-name="Trazado 834492" d="M327.608,281.667a7.864,7.864,0,0,1-5.954-3.142l-.037-.047-.04.045c-1.041,1.187-3.2,3.171-5.957,3.171h-.027a7.8,7.8,0,0,1-5.9-3.169l-.037-.048-.04.045a8.72,8.72,0,0,1-4.843,3.067l.019.1a8.787,8.787,0,0,0,4.859-3.055,7.889,7.889,0,0,0,5.942,3.16h.028c2.765,0,4.926-1.957,5.993-3.161a7.949,7.949,0,0,0,5.994,3.133h.028a5.729,5.729,0,0,0,.711-.052c0-.034,0-.068,0-.1a5.594,5.594,0,0,1-.713.053Z" transform="translate(-28.932 -26.435)" fill="#424445"/>
    <path id="Trazado_834493" data-name="Trazado 834493" d="M327.608,281.667a7.864,7.864,0,0,1-5.954-3.142l-.037-.047-.04.045c-1.041,1.187-3.2,3.171-5.957,3.171h-.027a7.8,7.8,0,0,1-5.9-3.169l-.037-.048-.04.045a8.72,8.72,0,0,1-4.843,3.067l.019.1a8.787,8.787,0,0,0,4.859-3.055,7.889,7.889,0,0,0,5.942,3.16h.028c2.765,0,4.926-1.957,5.993-3.161a7.949,7.949,0,0,0,5.994,3.133h.028a5.729,5.729,0,0,0,.711-.052c0-.034,0-.068,0-.1a5.594,5.594,0,0,1-.713.053Z" transform="translate(-28.932 -26.435)" fill="none" stroke="#424445" stroke-miterlimit="10" stroke-width="0.283"/>
    <path id="Trazado_834494" data-name="Trazado 834494" d="M130.974,52.656a5.029,5.029,0,0,0-2.685.777,6.754,6.754,0,0,0-9.872-4.908,14.009,14.009,0,0,0-25.639.634,8.608,8.608,0,0,0-9.451,10.517h42.591c.1-.081.2-.16.291-.247.03.084.065.166.1.247h9.339a5.066,5.066,0,0,0-4.674-7.02" transform="translate(-7.888 -3.842)" fill="#c6e9ff"/>
    <path id="Trazado_834495" data-name="Trazado 834495" d="M106.753,40.456a14.009,14.009,0,0,0-12.959,8.688,8.629,8.629,0,0,1,7.584,8.563l18.055-9.2a14.007,14.007,0,0,0-12.68-8.053" transform="translate(-8.904 -3.84)" fill="#c6e9ff"/>
    <path id="Trazado_834496" data-name="Trazado 834496" d="M83.1,58.611l9.681-8.563A8.588,8.588,0,0,0,83.1,58.611" transform="translate(-7.888 -4.744)" fill="#c6e9ff"/>
    <path id="Trazado_834497" data-name="Trazado 834497" d="M93.794,50.055l7.585,8.563a8.63,8.63,0,0,0-7.585-8.563" transform="translate(-8.904 -4.752)" fill="#c6e9ff"/>
    <path id="Trazado_834498" data-name="Trazado 834498" d="M125.323,48.464a6.725,6.725,0,0,0-3.2.806l9.871,4.907a6.755,6.755,0,0,0-6.67-5.713" transform="translate(-11.593 -4.601)" fill="#c6e9ff"/>
    <path id="Trazado_834499" data-name="Trazado 834499" d="M177.327,5.751a4.734,4.734,0,0,0-.581.039,7.771,7.771,0,0,0-14.221-.352,3.746,3.746,0,0,0-5.476,2.722,2.808,2.808,0,0,0-4.082,3.463h5.18c.019-.045.039-.091.055-.137.053.048.108.091.162.137h23.623a4.775,4.775,0,0,0-4.66-5.872" transform="translate(-14.5 -0.092)" fill="#fff"/>
    <path id="Trazado_834500" data-name="Trazado 834500" d="M170.583.962a7.77,7.77,0,0,0-7.033,4.467l10.015,5.1a4.787,4.787,0,0,1,4.207-4.75A7.772,7.772,0,0,0,170.583.962" transform="translate(-15.526 -0.091)" fill="#fff"/>
    <path id="Trazado_834501" data-name="Trazado 834501" d="M179.844,6.244a4.734,4.734,0,0,0-.581.039l5.369,4.749a4.787,4.787,0,0,0-4.788-4.788" transform="translate(-17.017 -0.593)" fill="#fff"/>
    <path id="Trazado_834502" data-name="Trazado 834502" d="M174.615,11.036l4.207-4.75a4.787,4.787,0,0,0-4.207,4.75" transform="translate(-16.576 -0.597)" fill="#fff"/>
    <path id="Trazado_834503" data-name="Trazado 834503" d="M157.5,8.573l5.475-2.722A3.746,3.746,0,0,0,157.5,8.573" transform="translate(-14.951 -0.513)" fill="#fff"/>
    <path id="Trazado_834504" data-name="Trazado 834504" d="M63.356,93.4a6.092,6.092,0,0,0-2.036.354,11.976,11.976,0,0,0-23.909-.175,4.79,4.79,0,0,0-3.485,6.366H69.462c.01-.138.022-.277.022-.418A6.127,6.127,0,0,0,63.356,93.4" transform="translate(-3.192 -7.822)" fill="#fff"/>
    <path id="Trazado_834505" data-name="Trazado 834505" d="M373.1,126.561a4.412,4.412,0,0,0-1.473.256,8.665,8.665,0,0,0-17.3-.127,3.468,3.468,0,0,0-2.522,4.607h25.711c.006-.1.015-.2.015-.3a4.434,4.434,0,0,0-4.434-4.434" transform="translate(-33.376 -11.259)" fill="#c8c7c7"/>
    <path id="Trazado_834506" data-name="Trazado 834506" d="M95.268,50.436a16.21,16.21,0,0,0-32.364.235,8.278,8.278,0,0,0-11.05,7.817c0,.19.015.377.028.565h48.1a6.484,6.484,0,0,0-4.717-8.617" transform="translate(-4.922 -3.351)" fill="#b8e3ff"/>
    <g id="Grupo_1081329" data-name="Grupo 1081329" transform="translate(31.803 112.029)">
      <g id="Grupo_1081328" data-name="Grupo 1081328" clip-path="url(#clip-path-2)">
        <g id="Grupo_1081327" data-name="Grupo 1081327">
          <g id="Grupo_1081326" data-name="Grupo 1081326" clip-path="url(#clip-path-2)">
            <path id="Trazado_834507" data-name="Trazado 834507" d="M93,150.146a2.664,2.664,0,0,1-5.32.213v-4.833a2.675,2.675,0,1,0-5.35,0v5.634a2.67,2.67,0,1,1-5.34,0v-8.846a2.671,2.671,0,0,0-4.884-1.49,2.611,2.611,0,0,0-.456,1.49v2.877a2.484,2.484,0,0,1-2.483,2.473h-.234a2.478,2.478,0,0,1-2.442-2.128L36.06,188.64c-2.108,2.989-.4,7.448,3.06,7.7.111.01.233.01.344.01h93.973c.121,0,.233,0,.344-.01,3.456-.253,5.168-4.722,3.05-7.7l-33.307-46.834v5.948a2.482,2.482,0,0,1-2.472,2.473h-.234a2.485,2.485,0,0,1-2.483-2.473v-7.1a2.67,2.67,0,0,0-5.34,0Z" transform="translate(-35.139 -125.128)" fill="#fff"/>
            <path id="Trazado_834508" data-name="Trazado 834508" d="M96.714,139.3a2.67,2.67,0,0,1,5.34,0v7.1a2.485,2.485,0,0,0,2.483,2.473h.234a2.482,2.482,0,0,0,2.472-2.473v-5.948l-8.613-12.108a10.514,10.514,0,0,0-8.552-4.571,10.75,10.75,0,0,0-8.776,4.7l-7,9.92,1.521,1.073a2.671,2.671,0,0,1,4.884,1.49v8.846a2.67,2.67,0,1,0,5.34,0v-5.634a2.675,2.675,0,1,1,5.35,0v4.833a2.664,2.664,0,0,0,5.32-.213Z" transform="translate(-38.856 -123.779)" fill="#fff"/>
          </g>
        </g>
      </g>
    </g>
    <path id="Trazado_834509" data-name="Trazado 834509" d="M126.714,178.3H46.125L36.119,192.475c-2.1,2.978-.391,7.432,3.057,7.687.113.008.227.013.341.013H133.4c.115,0,.229,0,.341-.013,3.451-.255,5.158-4.717,3.045-7.69Z" transform="translate(-3.341 -16.926)" fill="#007980"/>
    <g id="Grupo_1081333" data-name="Grupo 1081333" transform="translate(91.788 85.261)">
      <g id="Grupo_1081332" data-name="Grupo 1081332" clip-path="url(#clip-path-4)">
        <g id="Grupo_1081331" data-name="Grupo 1081331">
          <g id="Grupo_1081330" data-name="Grupo 1081330" clip-path="url(#clip-path-4)">
            <path id="Trazado_834510" data-name="Trazado 834510" d="M183.342,133.136V120.024a3.962,3.962,0,0,0-7.924,0v8.359a3.962,3.962,0,1,1-7.924,0h.031v-16.01a3.962,3.962,0,0,0-7.924,0v23.316a3.962,3.962,0,1,1-7.924,0V113.924l-48.992,69.4c-2.908,4.124-.538,10.274,4.235,10.629.152.01.315.021.466.021H237.249c.162,0,.314-.011.466-.021,4.782-.355,7.134-6.526,4.215-10.629l-50.654-71.254v21.066a3.967,3.967,0,0,1-7.934,0" transform="translate(-101.415 -95.553)" fill="#fff"/>
            <path id="Trazado_834511" data-name="Trazado 834511" d="M156.949,112.686V134.34a3.974,3.974,0,0,0,3.962,3.962,3.98,3.98,0,0,0,3.962-3.962V111.025a3.962,3.962,0,1,1,7.924,0v16.01h-.031a3.955,3.955,0,0,0,6.759,2.8,3.936,3.936,0,0,0,1.165-2.8v-8.359a3.962,3.962,0,1,1,7.924,0v13.112a3.967,3.967,0,0,0,7.935,0V110.721l-7.266-10.2A14.544,14.544,0,0,0,177.458,94.2a14.909,14.909,0,0,0-12.129,6.5l-8.38,11.875Z" transform="translate(-106.687 -94.204)" fill="#83b7be"/>
          </g>
        </g>
      </g>
    </g>
    <path id="Trazado_834512" data-name="Trazado 834512" d="M228,169.517H116.529L102.69,189.123c-2.908,4.12-.541,10.28,4.229,10.633.156.012.313.017.472.017H237.25c.158,0,.316-.005.472-.017,4.773-.353,7.134-6.526,4.211-10.636Z" transform="translate(-9.628 -16.092)" fill="#62898f"/>
    <rect id="Rectángulo_379794" data-name="Rectángulo 379794" width="48.545" height="58.86" transform="translate(219.934 125.15)" fill="#615654"/>
    <rect id="Rectángulo_379795" data-name="Rectángulo 379795" width="48.545" height="2.988" transform="translate(219.934 146.321)" fill="#d9cbca"/>
    <rect id="Rectángulo_379796" data-name="Rectángulo 379796" width="48.545" height="10.242" transform="translate(219.934 157.347)" fill="#d9cbca"/>
    <path id="Trazado_834513" data-name="Trazado 834513" d="M281.449,184.335h5.983V173.389h-5.983Zm.576-10.374h4.832v9.8h-4.832Z" transform="translate(-26.718 -16.46)" fill="#615654"/>
    <path id="Trazado_834514" data-name="Trazado 834514" d="M269.5,184.335h5.982V173.389H269.5Zm.576-10.374h4.83v9.8h-4.83Z" transform="translate(-25.583 -16.46)" fill="#615654"/>
    <path id="Trazado_834515" data-name="Trazado 834515" d="M293.4,184.335h3.223V173.389H293.4Zm.576-10.374h2.072v9.8h-2.072Z" transform="translate(-27.852 -16.46)" fill="#615654"/>
    <path id="Trazado_834516" data-name="Trazado 834516" d="M287.423,184.335H293.4V173.389h-5.982ZM288,173.961h4.83v9.8H288Z" transform="translate(-27.285 -16.46)" fill="#615654"/>
    <path id="Trazado_834517" data-name="Trazado 834517" d="M275.476,184.335h5.982V173.389h-5.982Zm.575-10.374h4.83v9.8h-4.83Z" transform="translate(-26.151 -16.46)" fill="#615654"/>
    <path id="Trazado_834518" data-name="Trazado 834518" d="M242.684,184.335h3.223V173.389h-3.223Zm.576-10.374h2.072v9.8H243.26Z" transform="translate(-23.038 -16.46)" fill="#615654"/>
    <path id="Trazado_834519" data-name="Trazado 834519" d="M245.609,184.335h5.982V173.389h-5.982Zm.576-10.374h4.83v9.8h-4.83Z" transform="translate(-23.315 -16.46)" fill="#615654"/>
    <path id="Trazado_834520" data-name="Trazado 834520" d="M251.582,184.335h5.982V173.389h-5.982Zm.576-10.374h4.83v9.8h-4.83Z" transform="translate(-23.882 -16.46)" fill="#615654"/>
    <path id="Trazado_834521" data-name="Trazado 834521" d="M263.528,184.335h5.983V173.389h-5.983Zm.576-10.374h4.831v9.8H264.1Z" transform="translate(-25.016 -16.46)" fill="#615654"/>
    <path id="Trazado_834522" data-name="Trazado 834522" d="M257.555,184.335h5.982V173.389h-5.982Zm.576-10.374h4.83v9.8h-4.83Z" transform="translate(-24.449 -16.46)" fill="#615654"/>
    <path id="Trazado_834523" data-name="Trazado 834523" d="M262.924,101.562,258.8,193.469l15.269.181-1.95-91.98Z" transform="translate(-24.567 -9.641)" fill="#a3a1a1"/>
    <path id="Trazado_834524" data-name="Trazado 834524" d="M258.8,193.57l7.634.09,1.088-91.943-4.6-.054Z" transform="translate(-24.567 -9.651)" fill="#757474"/>
    <path id="Trazado_834525" data-name="Trazado 834525" d="M267.568,126.124l-5.271-.062-.24,5.335,5.448.065,5.448.064-.113-5.34Z" transform="translate(-24.877 -11.967)" fill="#edecec"/>
    <path id="Trazado_834526" data-name="Trazado 834526" d="M267.349,139.913l-5.7-.067-.349,7.8,5.953.071,5.953.071-.166-7.807Z" transform="translate(-24.805 -13.275)" fill="#edecec"/>
    <path id="Trazado_834527" data-name="Trazado 834527" d="M201.712,41.116a10.064,10.064,0,0,0-11.35,10.038h0v.016a10.173,10.173,0,0,0,.27,2.292h27.9V31.02c-.536-.052-1.076-.09-1.626-.09a16.424,16.424,0,0,0-15.193,10.186" transform="translate(-18.071 -2.936)" fill="#b8e3ff"/>
    <path id="Trazado_834528" data-name="Trazado 834528" d="M249.338,45.209a5.96,5.96,0,0,0-3.18.92l0-.018,0,0a8,8,0,0,0-11.69-5.812,16.594,16.594,0,0,0-13.374-9.447v22.67h22.258c.116-.1.234-.19.345-.293.036.1.077.2.118.293h11.06a6,6,0,0,0-5.535-8.314" transform="translate(-20.988 -2.929)" fill="#95969c"/>
    <rect id="Rectángulo_379797" data-name="Rectángulo 379797" width="54.815" height="50.854" transform="translate(305.571 133.044)" fill="#747176"/>
    <rect id="Rectángulo_379798" data-name="Rectángulo 379798" width="13.628" height="50.854" transform="translate(346.793 133.155)" fill="#a3a1a1"/>
    <path id="Trazado_834529" data-name="Trazado 834529" d="M393.316,145.8H336.17a1.084,1.084,0,0,0,0,2.168h57.145a1.084,1.084,0,0,0,0-2.168" transform="translate(-31.809 -13.841)" fill="#525151"/>
    <rect id="Rectángulo_379799" data-name="Rectángulo 379799" width="3.427" height="5.093" transform="translate(353.209 142.886)" fill="#edecec"/>
    <rect id="Rectángulo_379800" data-name="Rectángulo 379800" width="3.428" height="5.093" transform="translate(346.949 142.886)" fill="#edecec"/>
    <rect id="Rectángulo_379801" data-name="Rectángulo 379801" width="3.428" height="5.093" transform="translate(340.689 142.886)" fill="#edecec"/>
    <rect id="Rectángulo_379802" data-name="Rectángulo 379802" width="3.428" height="5.093" transform="translate(334.429 142.886)" fill="#edecec"/>
    <rect id="Rectángulo_379803" data-name="Rectángulo 379803" width="3.427" height="5.093" transform="translate(328.169 142.886)" fill="#edecec"/>
    <rect id="Rectángulo_379804" data-name="Rectángulo 379804" width="3.428" height="5.093" transform="translate(321.91 142.886)" fill="#edecec"/>
    <rect id="Rectángulo_379805" data-name="Rectángulo 379805" width="3.428" height="5.093" transform="translate(315.649 142.886)" fill="#edecec"/>
    <rect id="Rectángulo_379806" data-name="Rectángulo 379806" width="3.428" height="5.093" transform="translate(309.39 142.886)" fill="#edecec"/>
    <rect id="Rectángulo_379807" data-name="Rectángulo 379807" width="3.427" height="5.093" transform="translate(353.209 152.676)" fill="#edecec"/>
    <rect id="Rectángulo_379808" data-name="Rectángulo 379808" width="3.428" height="5.093" transform="translate(346.949 152.676)" fill="#edecec"/>
    <rect id="Rectángulo_379809" data-name="Rectángulo 379809" width="3.428" height="5.093" transform="translate(340.689 152.676)" fill="#edecec"/>
    <rect id="Rectángulo_379810" data-name="Rectángulo 379810" width="3.428" height="5.093" transform="translate(334.429 152.676)" fill="#edecec"/>
    <rect id="Rectángulo_379811" data-name="Rectángulo 379811" width="3.427" height="5.093" transform="translate(328.169 152.676)" fill="#edecec"/>
    <rect id="Rectángulo_379812" data-name="Rectángulo 379812" width="3.428" height="5.093" transform="translate(321.91 152.676)" fill="#edecec"/>
    <rect id="Rectángulo_379813" data-name="Rectángulo 379813" width="3.428" height="5.093" transform="translate(315.649 152.676)" fill="#edecec"/>
    <rect id="Rectángulo_379814" data-name="Rectángulo 379814" width="3.428" height="5.093" transform="translate(309.39 152.676)" fill="#edecec"/>
    <rect id="Rectángulo_379815" data-name="Rectángulo 379815" width="3.427" height="5.093" transform="translate(353.209 162.464)" fill="#edecec"/>
    <rect id="Rectángulo_379816" data-name="Rectángulo 379816" width="3.428" height="5.093" transform="translate(346.949 162.464)" fill="#edecec"/>
    <rect id="Rectángulo_379817" data-name="Rectángulo 379817" width="3.428" height="5.093" transform="translate(340.689 162.464)" fill="#edecec"/>
    <rect id="Rectángulo_379818" data-name="Rectángulo 379818" width="3.428" height="5.093" transform="translate(334.429 162.464)" fill="#edecec"/>
    <rect id="Rectángulo_379819" data-name="Rectángulo 379819" width="3.427" height="5.093" transform="translate(328.169 162.464)" fill="#edecec"/>
    <rect id="Rectángulo_379820" data-name="Rectángulo 379820" width="3.428" height="5.093" transform="translate(321.91 162.464)" fill="#edecec"/>
    <rect id="Rectángulo_379821" data-name="Rectángulo 379821" width="3.428" height="5.093" transform="translate(315.649 162.464)" fill="#edecec"/>
    <rect id="Rectángulo_379822" data-name="Rectángulo 379822" width="3.428" height="5.093" transform="translate(309.39 162.464)" fill="#edecec"/>
    <rect id="Rectángulo_379823" data-name="Rectángulo 379823" width="54.85" height="3.288" transform="translate(305.509 180.179)" fill="#525151"/>
    <path id="Trazado_834530" data-name="Trazado 834530" d="M305.145,129.719s-2.844,59.19-9.048,66.6h45.5s-9.306-20.16-10.857-66.6Z" transform="translate(-28.108 -12.314)" fill="#7d6660"/>
    <path id="Trazado_834531" data-name="Trazado 834531" d="M321.231,129.719v66.6H343.98s-9.307-20.16-10.857-66.6Z" transform="translate(-30.494 -12.314)" fill="#97776c"/>
    <path id="Trazado_834532" data-name="Trazado 834532" d="M304.761,150.072l-.253,3.361h28.442l-.313-3.361Z" transform="translate(-28.906 -14.246)" fill="#624800"/>
    <path id="Trazado_834533" data-name="Trazado 834533" d="M303.516,164.638l-.338,3.378h31.277l-.482-3.378Z" transform="translate(-28.78 -15.629)" fill="#624800"/>
    <path id="Trazado_834534" data-name="Trazado 834534" d="M306.385,129.719l-.2,3.729,25.654.053-.146-3.782Z" transform="translate(-29.066 -12.314)" fill="#624800"/>
    <path id="Trazado_834535" data-name="Trazado 834535" d="M236.023,116.026c-6.763-7.592-15.054-20.082-15.054-20.082l-.073,97.173h25.765s-.362-55.106-1.024-58.807-2.851-10.693-9.614-18.284" transform="translate(-20.969 -9.108)" fill="#8f534a"/>
    <path id="Trazado_834536" data-name="Trazado 834536" d="M236.031,116.026c-6.763-7.592-15.054-20.082-15.054-20.082l9.272,20.8c.393.882,7.151,14.466,7.23,28.853l.443,47.522h8.746s-.362-55.106-1.024-58.807-2.851-10.693-9.614-18.284" transform="translate(-20.977 -9.108)" fill="#a5756e"/>
    <rect id="Rectángulo_379824" data-name="Rectángulo 379824" width="24.99" height="4.607" transform="translate(199.977 126.951)" fill="#bfa8a6"/>
    <rect id="Rectángulo_379825" data-name="Rectángulo 379825" width="25.359" height="1.105" transform="translate(199.927 140.01)" fill="#bfa8a6"/>
    <rect id="Rectángulo_379826" data-name="Rectángulo 379826" width="25.359" height="1.105" transform="translate(199.927 142.551)" fill="#bfa8a6"/>
    <rect id="Rectángulo_379827" data-name="Rectángulo 379827" width="25.359" height="1.105" transform="translate(199.927 145.091)" fill="#bfa8a6"/>
    <rect id="Rectángulo_379828" data-name="Rectángulo 379828" width="25.359" height="1.105" transform="translate(199.927 147.632)" fill="#bfa8a6"/>
    <rect id="Rectángulo_379829" data-name="Rectángulo 379829" width="25.359" height="1.105" transform="translate(199.927 150.172)" fill="#bfa8a6"/>
    <path id="Trazado_834537" data-name="Trazado 834537" d="M126.366,188.15c-15.317,0-28.262,5.591-32.509,13.275h65.019c-4.247-7.684-17.193-13.275-32.509-13.275" transform="translate(-8.91 -17.861)" fill="#93b033"/>
    <path id="Trazado_834538" data-name="Trazado 834538" d="M182.336,183.062c-15.017,0-27.71,7.608-31.874,18.063H214.21c-4.164-10.455-16.857-18.063-31.874-18.063" transform="translate(-14.283 -17.378)" fill="#789c00"/>
    <path id="Trazado_834539" data-name="Trazado 834539" d="M168.895,188.085c-2.995.877-4.794,3.09-4.166,4.454s3.12,1.519,5.695.764,4.571-2.226,4.362-3.713-2.9-2.382-5.891-1.505" transform="translate(-15.626 -17.822)" fill="#93b033"/>
    <path id="Trazado_834540" data-name="Trazado 834540" d="M180.791,188.709c-1.594.012-2.821.787-2.751,1.593s1.307,1.346,2.773,1.335,2.7-.568,2.762-1.375-1.19-1.565-2.784-1.553" transform="translate(-16.901 -17.914)" fill="#93b033"/>
    <path id="Trazado_834541" data-name="Trazado 834541" d="M93.836,181.028a4.974,4.974,0,1,0-9.949,0,5.116,5.116,0,0,0,.054.7,6.315,6.315,0,1,0,9.839,0,4.975,4.975,0,0,0,.055-.7" transform="translate(-7.836 -16.713)" fill="#dadf4d"/>
    <path id="Trazado_834542" data-name="Trazado 834542" d="M89.747,184.178,89.5,200.547a.243.243,0,0,0,.244.241h.032a.243.243,0,0,0,.244-.241s-.11-16.369-.244-16.369c0,0-.032-.132-.032,0" transform="translate(-8.496 -17.478)" fill="#624800"/>
    <path id="Trazado_834543" data-name="Trazado 834543" d="M87.707,190.035a7.471,7.471,0,0,1-1.47-1.463c1.659,2.67,3.184,2.592,3.184,2.592l.033-.376s-.328.25-1.747-.754" transform="translate(-8.186 -17.901)" fill="#624800"/>
    <path id="Trazado_834544" data-name="Trazado 834544" d="M91.275,189.016c-1.206.853-1.484.641-1.484.641l.027.319s1.3.066,2.706-2.2a6.351,6.351,0,0,1-1.249,1.243" transform="translate(-8.524 -17.825)" fill="#624800"/>
    <path id="Trazado_834545" data-name="Trazado 834545" d="M88.361,187.028a5.114,5.114,0,0,1-1.008-1c1.138,1.831,2.184,1.778,2.184,1.778l.023-.258s-.225.172-1.2-.517" transform="translate(-8.292 -17.659)" fill="#624800"/>
    <path id="Trazado_834546" data-name="Trazado 834546" d="M208.678,146.328a4.488,4.488,0,0,0-4.689,0c-5.116,3.207-20.157,44.4,2.345,44.4,23.817,0,7.461-41.2,2.344-44.4" transform="translate(-18.446 -13.828)" fill="#33a257"/>
    <path id="Trazado_834547" data-name="Trazado 834547" d="M200.324,174.218c-.361-16.231,4.448-28.314,3.666-27.824-5.117,3.207-20.157,44.4,2.344,44.4,0,0-5.651-.461-6.01-16.581" transform="translate(-18.446 -13.896)" fill="#00744c"/>
    <path id="Trazado_834548" data-name="Trazado 834548" d="M208.423,168.446l-1.6,31.018c.38-.017,2.866.023,3.246,0-.118-13.269-1.32-31.018-1.56-31.018,0,0-.088-.364-.088,0" transform="translate(-19.634 -15.975)" fill="#624800"/>
    <path id="Trazado_834549" data-name="Trazado 834549" d="M202.927,184.5a20.448,20.448,0,0,1-4.031-4.009c4.55,7.319,8.73,7.106,8.73,7.106l.088-1.031s-.9.686-4.787-2.066" transform="translate(-18.881 -17.134)" fill="#624800"/>
    <path id="Trazado_834550" data-name="Trazado 834550" d="M212.709,181.709c-3.305,2.339-4.069,1.756-4.069,1.756l.075.876s3.553.182,7.419-6.039a17.358,17.358,0,0,1-3.425,3.407" transform="translate(-19.806 -16.926)" fill="#624800"/>
    <path id="Trazado_834551" data-name="Trazado 834551" d="M204.721,176.259a14.027,14.027,0,0,1-2.765-2.75c3.121,5.02,5.989,4.874,5.989,4.874l.061-.707s-.616.471-3.285-1.417" transform="translate(-19.171 -16.471)" fill="#624800"/>
    <path id="Trazado_834552" data-name="Trazado 834552" d="M150.611,163.629a3.124,3.124,0,0,0-3.266,0c-3.564,2.234-14.039,30.929,1.634,30.929,16.589,0,5.2-28.7,1.633-30.929" transform="translate(-13.347 -15.489)" fill="#33a257"/>
    <path id="Trazado_834553" data-name="Trazado 834553" d="M144.792,183.056c-.252-11.305,3.1-19.721,2.553-19.38-3.564,2.234-14.04,30.929,1.633,30.929,0,0-3.936-.32-4.186-11.549" transform="translate(-13.347 -15.537)" fill="#00744c"/>
    <path id="Trazado_834554" data-name="Trazado 834554" d="M150.434,179.036l-1.112,21.6c.263-.013,2,.015,2.259,0-.081-9.243-.919-21.6-1.087-21.6,0,0-.06-.253-.06,0" transform="translate(-14.175 -16.985)" fill="#624800"/>
    <path id="Trazado_834555" data-name="Trazado 834555" d="M146.6,190.218a14.233,14.233,0,0,1-2.808-2.792c3.169,5.1,6.081,4.95,6.081,4.95l.062-.718s-.626.478-3.335-1.44" transform="translate(-13.65 -17.792)" fill="#624800"/>
    <path id="Trazado_834556" data-name="Trazado 834556" d="M153.419,188.273c-2.3,1.629-2.835,1.223-2.835,1.223l.052.611s2.475.126,5.168-4.207a12.13,12.13,0,0,1-2.386,2.373" transform="translate(-14.295 -17.647)" fill="#624800"/>
    <path id="Trazado_834557" data-name="Trazado 834557" d="M147.855,184.477a9.78,9.78,0,0,1-1.927-1.915c2.174,3.5,4.171,3.395,4.171,3.395l.043-.492s-.431.328-2.288-.987" transform="translate(-13.853 -17.33)" fill="#624800"/>
    <path id="Trazado_834558" data-name="Trazado 834558" d="M192.608,158.412a3.4,3.4,0,0,0-3.552,0c-3.876,2.429-16.265,33.634,1.776,33.634,17.044,0,5.651-31.205,1.776-33.634" transform="translate(-17.21 -14.99)" fill="#97c266"/>
    <path id="Trazado_834559" data-name="Trazado 834559" d="M185.355,179.883c-.265-11.864,3.251-20.7,2.678-20.337C184.294,161.89,173.3,192,189.748,192c0,0-4.131-.337-4.392-12.12" transform="translate(-17.178 -15.144)" fill="#71924d"/>
    <path id="Trazado_834560" data-name="Trazado 834560" d="M191.217,177.591,190.03,200.64c.282-.014,2.129.016,2.411,0-.088-9.86-.981-23.049-1.159-23.049,0,0-.065-.27-.065,0" transform="translate(-18.039 -16.847)" fill="#624800"/>
    <path id="Trazado_834561" data-name="Trazado 834561" d="M187.132,189.522a15.182,15.182,0,0,1-2.995-2.979c3.38,5.439,6.488,5.28,6.488,5.28l.065-.767s-.668.51-3.558-1.535" transform="translate(-17.48 -17.708)" fill="#624800"/>
    <path id="Trazado_834562" data-name="Trazado 834562" d="M194.4,187.445c-2.455,1.739-3.024,1.3-3.024,1.3l.056.652s2.64.135,5.513-4.487a12.936,12.936,0,0,1-2.545,2.531" transform="translate(-18.167 -17.554)" fill="#624800"/>
    <path id="Trazado_834563" data-name="Trazado 834563" d="M188.465,183.4a10.426,10.426,0,0,1-2.055-2.043c2.319,3.731,4.45,3.621,4.45,3.621l.045-.525s-.459.349-2.441-1.053" transform="translate(-17.696 -17.216)" fill="#624800"/>
    <path id="Trazado_834564" data-name="Trazado 834564" d="M122.372,158.261a3.4,3.4,0,0,0-3.551,0c-3.876,2.429-16.265,33.634,1.776,33.634,17.044,0,5.651-31.205,1.776-33.634" transform="translate(-10.543 -14.976)" fill="#009969"/>
    <path id="Trazado_834565" data-name="Trazado 834565" d="M115.118,179.732c-.264-11.864,3.252-20.7,2.679-20.337-3.74,2.344-14.734,32.457,1.714,32.457,0,0-4.131-.337-4.393-12.12" transform="translate(-10.511 -15.13)" fill="#00744c"/>
    <path id="Trazado_834566" data-name="Trazado 834566" d="M120.98,177.44l-1.187,23.049c.282-.014,2.13.016,2.411,0-.088-9.861-.98-23.049-1.159-23.049,0,0-.065-.271-.065,0" transform="translate(-11.372 -16.833)" fill="#624800"/>
    <path id="Trazado_834567" data-name="Trazado 834567" d="M116.895,189.37a15.182,15.182,0,0,1-2.995-2.979c3.38,5.439,6.487,5.28,6.487,5.28l.066-.767s-.668.51-3.558-1.535" transform="translate(-10.812 -17.694)" fill="#624800"/>
    <path id="Trazado_834568" data-name="Trazado 834568" d="M124.164,187.294c-2.455,1.738-3.024,1.3-3.024,1.3l.056.652s2.64.135,5.513-4.487a12.936,12.936,0,0,1-2.545,2.531" transform="translate(-11.5 -17.539)" fill="#624800"/>
    <path id="Trazado_834569" data-name="Trazado 834569" d="M118.228,183.245a10.426,10.426,0,0,1-2.055-2.043c2.319,3.731,4.45,3.621,4.45,3.621l.045-.525s-.459.349-2.441-1.053" transform="translate(-11.028 -17.201)" fill="#624800"/>
    <path id="Trazado_834570" data-name="Trazado 834570" d="M136.563,151.334a4,4,0,0,0-4.18,0c-4.562,2.858-19.142,39.583,2.09,39.583,20.058,0,6.651-36.725,2.09-39.583" transform="translate(-11.7 -14.31)" fill="#00b452"/>
    <path id="Trazado_834571" data-name="Trazado 834571" d="M128.408,176.817c-.314-14.091,3.862-24.582,3.182-24.155-4.442,2.784-17.5,38.55,2.036,38.55,0,0-4.906-.4-5.218-14.394" transform="translate(-11.694 -14.491)" fill="#00873e"/>
    <path id="Trazado_834572" data-name="Trazado 834572" d="M135.208,174.6l-1.32,25.62c.314-.014,2.368.018,2.681,0-.1-10.96-1.091-25.62-1.289-25.62,0,0-.072-.3-.072,0" transform="translate(-12.71 -16.562)" fill="#624800"/>
    <path id="Trazado_834573" data-name="Trazado 834573" d="M130.668,187.858a16.893,16.893,0,0,1-3.329-3.311c3.757,6.045,7.211,5.868,7.211,5.868l.073-.852s-.743.567-3.955-1.706" transform="translate(-12.088 -17.519)" fill="#624800"/>
    <path id="Trazado_834574" data-name="Trazado 834574" d="M138.748,185.551c-2.73,1.931-3.361,1.45-3.361,1.45l.062.724s2.935.15,6.128-4.988a14.34,14.34,0,0,1-2.829,2.814" transform="translate(-12.852 -17.347)" fill="#624800"/>
    <path id="Trazado_834575" data-name="Trazado 834575" d="M132.15,181.049a11.581,11.581,0,0,1-2.284-2.27c2.578,4.147,4.946,4.026,4.946,4.026l.05-.585s-.509.388-2.712-1.171" transform="translate(-12.328 -16.971)" fill="#624800"/>
    <path id="Trazado_834576" data-name="Trazado 834576" d="M112.933,171.126a7.405,7.405,0,1,0-14.811,0,7.323,7.323,0,0,0,.082,1.043,9.4,9.4,0,1,0,14.647,0,7.457,7.457,0,0,0,.081-1.043" transform="translate(-9.125 -15.542)" fill="#c2d56a"/>
    <path id="Trazado_834577" data-name="Trazado 834577" d="M106.885,171.861l-.406,27.7a.406.406,0,0,0,.406.406h.053a.406.406,0,0,0,.406-.406s-.182-27.7-.406-27.7c0,0-.053-.224-.053,0" transform="translate(-10.108 -16.305)" fill="#624800"/>
    <path id="Trazado_834578" data-name="Trazado 834578" d="M103.493,181.771a12.522,12.522,0,0,1-2.444-2.474c2.758,4.518,5.294,4.386,5.294,4.386l.053-.636s-.545.424-2.9-1.275" transform="translate(-9.592 -17.02)" fill="#624800"/>
    <path id="Trazado_834579" data-name="Trazado 834579" d="M109.425,180.047c-2,1.444-2.467,1.083-2.467,1.083l.045.541s2.155.112,4.5-3.727a10.637,10.637,0,0,1-2.077,2.1" transform="translate(-10.153 -16.892)" fill="#624800"/>
    <path id="Trazado_834580" data-name="Trazado 834580" d="M104.581,176.683a8.589,8.589,0,0,1-1.676-1.7c1.892,3.1,3.631,3.008,3.631,3.008l.037-.436s-.375.291-1.992-.875" transform="translate(-9.769 -16.611)" fill="#624800"/>
    <path id="Trazado_834581" data-name="Trazado 834581" d="M70.1,179.729a5.312,5.312,0,1,0-10.564.748,6.742,6.742,0,1,0,10.505,0,5.352,5.352,0,0,0,.059-.748" transform="translate(-5.511 -16.557)" fill="#c2d56a"/>
    <path id="Trazado_834582" data-name="Trazado 834582" d="M65.766,180.255l-.291,19.866a.292.292,0,0,0,.291.292H65.8a.292.292,0,0,0,.291-.292s-.13-19.866-.291-19.866c0,0-.038-.161-.038,0" transform="translate(-6.215 -17.105)" fill="#624800"/>
    <path id="Trazado_834583" data-name="Trazado 834583" d="M63.334,187.364a8.992,8.992,0,0,1-1.753-1.775c1.978,3.241,3.8,3.146,3.8,3.146l.039-.456s-.391.3-2.083-.915" transform="translate(-5.846 -17.618)" fill="#624800"/>
    <path id="Trazado_834584" data-name="Trazado 834584" d="M67.588,186.127c-1.437,1.035-1.769.777-1.769.777l.033.388s1.545.08,3.227-2.674a7.656,7.656,0,0,1-1.49,1.508" transform="translate(-6.248 -17.526)" fill="#624800"/>
    <path id="Trazado_834585" data-name="Trazado 834585" d="M64.114,183.714a6.19,6.19,0,0,1-1.2-1.217c1.358,2.223,2.6,2.158,2.6,2.158l.026-.313s-.268.208-1.428-.627" transform="translate(-5.972 -17.324)" fill="#624800"/>
    <path id="Trazado_834586" data-name="Trazado 834586" d="M54.913,197.447a2.052,2.052,0,0,0-1.32.48c.007-.1.015-.193.015-.291a3.922,3.922,0,0,0-6.955-2.488,2.748,2.748,0,0,0-.841-.133,2.713,2.713,0,0,0-1.134.249,5.461,5.461,0,0,0-10.86.83c0,.026,0,.051,0,.077a2.732,2.732,0,1,0-.639,5.388v.1H55.2v-.124a2.054,2.054,0,0,0-.286-4.089" transform="translate(-2.891 -18.096)" fill="#93b033"/>
    <path id="Trazado_834587" data-name="Trazado 834587" d="M39.056,190.81a5,5,0,1,0,0,9.994s-2.87-.908-3.089-5a5.135,5.135,0,0,1,3.089-5" transform="translate(-3.233 -18.113)" fill="#6d9300"/>
    <path id="Trazado_834588" data-name="Trazado 834588" d="M47.234,195.546a2.605,2.605,0,0,0-2.565,2.644,2.911,2.911,0,0,1,5.208-.078,2.605,2.605,0,0,0-2.643-2.566" transform="translate(-4.24 -18.563)" fill="#6d9300"/>
    <path id="Trazado_834589" data-name="Trazado 834589" d="M128.728,144.919a3.832,3.832,0,0,0-1.182,1.4,3.846,3.846,0,0,0-1.688-.653c-1.492-.22-2.591.3-2.727,1.223,0,0,.413-.837,2.634-.585a4.026,4.026,0,0,1,1.611.505l-.041,1.151.552-.127.646-.148-.587-1a5.247,5.247,0,0,1,1.168-1.245c1.58-1.268,2.591-.75,2.591-.75-.558-.748-1.77-.671-2.978.234" transform="translate(-11.689 -13.687)" fill="#84888a"/>
    <path id="Trazado_834590" data-name="Trazado 834590" d="M71.565,117.695a3.309,3.309,0,0,0-.971,1.3,3.249,3.249,0,0,0-1.45-.661c-1.273-.244-2.195.222-2.288,1.094,0,0,.33-.785,2.224-.491a3.333,3.333,0,0,1,1.381.518l-.007,1.091.467-.107.545-.125-.523-.966a4.474,4.474,0,0,1,.963-1.154c1.313-1.165,2.185-.649,2.185-.649-.493-.722-1.521-.678-2.525.15" transform="translate(-6.347 -11.11)" fill="#84888a"/>
    <path id="Trazado_834591" data-name="Trazado 834591" d="M69.959,131.893a1.928,1.928,0,0,0-.6.693,1.954,1.954,0,0,0-.853-.316c-.755-.1-1.314.157-1.387.611,0,0,.212-.414,1.337-.3a2.069,2.069,0,0,1,.815.243l-.025.567.281-.064.328-.075-.294-.491a2.65,2.65,0,0,1,.6-.617c.806-.63,1.316-.378,1.316-.378-.281-.367-.9-.324-1.51.125" transform="translate(-6.371 -12.485)" fill="#84888a"/>
    <path id="Trazado_834592" data-name="Trazado 834592" d="M43.264,125.34a2.645,2.645,0,0,0-.824.945,2.647,2.647,0,0,0-1.162-.431c-1.029-.14-1.791.214-1.889.834,0,0,.289-.564,1.822-.405a2.815,2.815,0,0,1,1.11.331l-.033.773.382-.088.447-.1-.4-.671a3.654,3.654,0,0,1,.813-.841c1.1-.858,1.793-.516,1.793-.516-.382-.5-1.219-.441-2.057.171" transform="translate(-3.739 -11.85)" fill="#84888a"/>
    <path id="Trazado_834593" data-name="Trazado 834593" d="M130.231,137.432a1.4,1.4,0,0,0-.439.5,1.424,1.424,0,0,0-.62-.23c-.549-.075-.956.114-1.008.444,0,0,.154-.3.972-.216a1.5,1.5,0,0,1,.592.177l-.018.412.2-.047.238-.054-.214-.357a1.925,1.925,0,0,1,.434-.449c.586-.458.957-.275.957-.275-.2-.266-.651-.235-1.1.091" transform="translate(-12.166 -13.021)" fill="#84888a"/>
    <path id="Trazado_834594" data-name="Trazado 834594" d="M212.5,199.811a1.317,1.317,0,0,0-.847.308c.005-.062.01-.123.01-.186a2.517,2.517,0,0,0-4.464-1.6,1.736,1.736,0,0,0-1.268.074,3.505,3.505,0,0,0-6.97.532c0,.017,0,.033,0,.05a1.754,1.754,0,1,0-.41,3.458v.065h14.131v-.08a1.319,1.319,0,0,0-.184-2.625" transform="translate(-18.682 -18.552)" fill="#93b033"/>
    <path id="Trazado_834595" data-name="Trazado 834595" d="M202.321,195.551a3.207,3.207,0,1,0,0,6.414,3.585,3.585,0,0,1,0-6.414" transform="translate(-18.901 -18.563)" fill="#6d9300"/>
    <path id="Trazado_834596" data-name="Trazado 834596" d="M207.57,198.591a1.671,1.671,0,0,0-1.646,1.7,1.868,1.868,0,0,1,3.342-.05,1.671,1.671,0,0,0-1.7-1.646" transform="translate(-19.548 -18.852)" fill="#6d9300"/>
    <path id="Trazado_834597" data-name="Trazado 834597" d="M95.2,198.365a1.821,1.821,0,0,0-.424.052c0-.017,0-.033,0-.051a3.616,3.616,0,0,0-7.191-.549,1.794,1.794,0,0,0-.75-.165,1.823,1.823,0,0,0-.557.088,2.6,2.6,0,0,0-4.6,1.647c0,.065.005.129.01.193a1.36,1.36,0,1,0-1.063,2.389v.082H95.2v-.067a1.81,1.81,0,0,0,0-3.619" transform="translate(-7.543 -18.487)" fill="#789c00"/>
    <path id="Trazado_834598" data-name="Trazado 834598" d="M92.81,194.867a3.7,3.7,0,0,1,0,6.617,3.308,3.308,0,1,0,0-6.617" transform="translate(-8.81 -18.498)" fill="#00744c"/>
    <path id="Trazado_834599" data-name="Trazado 834599" d="M87.381,198a1.724,1.724,0,0,0-1.75,1.7,1.927,1.927,0,0,1,3.447.052,1.724,1.724,0,0,0-1.7-1.749" transform="translate(-8.129 -18.796)" fill="#00744c"/>
    <path id="Trazado_834600" data-name="Trazado 834600" d="M81.165,173.284a6.812,6.812,0,1,0-13.549.958,8.648,8.648,0,1,0,13.474,0,6.825,6.825,0,0,0,.075-.958" transform="translate(-6.237 -15.803)" fill="#97c266"/>
    <path id="Trazado_834601" data-name="Trazado 834601" d="M75.6,173.959l-.374,25.48a.374.374,0,0,0,.374.374h.049a.374.374,0,0,0,.374-.374s-.167-25.48-.374-25.48c0,0-.049-.206-.049,0" transform="translate(-7.141 -16.505)" fill="#624800"/>
    <path id="Trazado_834602" data-name="Trazado 834602" d="M72.48,183.076a11.527,11.527,0,0,1-2.248-2.276c2.538,4.156,4.87,4.035,4.87,4.035l.049-.586s-.5.39-2.671-1.173" transform="translate(-6.667 -17.163)" fill="#624800"/>
    <path id="Trazado_834603" data-name="Trazado 834603" d="M77.937,181.49c-1.844,1.329-2.27,1-2.27,1l.042.5s1.982.1,4.139-3.428a9.764,9.764,0,0,1-1.911,1.933" transform="translate(-7.183 -17.045)" fill="#624800"/>
    <path id="Trazado_834604" data-name="Trazado 834604" d="M73.481,178.4a7.9,7.9,0,0,1-1.542-1.561c1.74,2.851,3.341,2.768,3.341,2.768l.034-.4s-.345.268-1.833-.8" transform="translate(-6.829 -16.787)" fill="#624800"/>
    <path id="Trazado_834605" data-name="Trazado 834605" d="M312.47,90.922a5.107,5.107,0,1,0,5.107,5.107,5.107,5.107,0,0,0-5.107-5.107" transform="translate(-29.177 -8.631)" fill="#aaabb0"/>
    <path id="Trazado_834606" data-name="Trazado 834606" d="M264.458,90.373a3.248,3.248,0,1,0,3.248,3.248,3.248,3.248,0,0,0-3.248-3.248" transform="translate(-24.796 -8.579)" fill="#aaabb0"/>
    <path id="Trazado_834607" data-name="Trazado 834607" d="M272.406,76.818a6.279,6.279,0,1,0,6.278,6.279,6.279,6.279,0,0,0-6.278-6.279" transform="translate(-25.263 -7.292)" fill="#c8c7c7"/>
    <path id="Trazado_834608" data-name="Trazado 834608" d="M304.264,102.876a2.148,2.148,0,1,0,2.167,2.13,2.148,2.148,0,0,0-2.167-2.13" transform="translate(-28.681 -9.766)" fill="#aaabb0"/>
    <path id="Trazado_834609" data-name="Trazado 834609" d="M383.192,81.11l-.436.008a6.715,6.715,0,0,0-8.264-6.411,7.862,7.862,0,0,0-15.185,1.359,6.241,6.241,0,0,0-.816-.044,6.137,6.137,0,0,0-6.017,6.084,11.292,11.292,0,0,0-7.744,8.208l47.876-.891c-1.328-4.827-4.191-8.413-9.413-8.313" transform="translate(-32.725 -6.592)" fill="#95969c"/>
    <path id="Trazado_834610" data-name="Trazado 834610" d="M383.25,81.117l-.436.005a6.716,6.716,0,0,0-8.22-6.469A7.862,7.862,0,0,0,359.4,75.909a6.09,6.09,0,0,0-6.875,5.992,11.3,11.3,0,0,0-7.8,8.154l48.287-.561c-1.3-4.836-4.54-8.439-9.761-8.376" transform="translate(-32.724 -6.582)" fill="#95969c"/>
    <path id="Trazado_834611" data-name="Trazado 834611" d="M360.09,76.5s4.189,1.36,3.979,5.265a5.637,5.637,0,0,1-3.979,5.266,5.265,5.265,0,0,0,0-10.531" transform="translate(-34.183 -7.262)" fill="#a3a1a1"/>
    <path id="Trazado_834612" data-name="Trazado 834612" d="M388,82.314a7.771,7.771,0,0,0-7.887,7.654s2.083-6.531,7.842-6.135a8.527,8.527,0,0,1,7.7,6.367A7.771,7.771,0,0,0,388,82.314" transform="translate(-36.084 -7.814)" fill="#a3a1a1"/>
    <path id="Trazado_834613" data-name="Trazado 834613" d="M91.52,44.52a3.872,3.872,0,1,0,3.873,3.873A3.873,3.873,0,0,0,91.52,44.52" transform="translate(-8.32 -4.226)" fill="#dceef7"/>
    <path id="Trazado_834614" data-name="Trazado 834614" d="M68.508,56.232a1.44,1.44,0,1,0,1.44,1.44,1.44,1.44,0,0,0-1.44-1.44" transform="translate(-6.367 -5.338)" fill="#fff"/>
    <path id="Trazado_834615" data-name="Trazado 834615" d="M151.215,103.972a1.827,1.827,0,1,0,1.826,1.826,1.826,1.826,0,0,0-1.826-1.826" transform="translate(-14.181 -9.87)" fill="#fff"/>
    <path id="Trazado_834616" data-name="Trazado 834616" d="M121,116.569a9.269,9.269,0,1,0,9.269,9.269A9.269,9.269,0,0,0,121,116.569" transform="translate(-10.606 -11.066)" fill="#fdffb2"/>
    <path id="Trazado_834617" data-name="Trazado 834617" d="M121.351,116.569a9.269,9.269,0,1,0,0,18.539s-5.03-4.635-5.03-9.27,5.03-9.269,5.03-9.269" transform="translate(-10.64 -11.066)" fill="#fff566"/>
    <path id="Trazado_834618" data-name="Trazado 834618" d="M290.386,60.491H279.695a5.914,5.914,0,0,0,0,11.828h10.692a5.914,5.914,0,0,0,0-11.828" transform="translate(-25.99 -5.742)" fill="#aaabb0"/>
    <path id="Trazado_834619" data-name="Trazado 834619" d="M281.984,0H271.293a5.914,5.914,0,0,0,0,11.828h10.692a5.914,5.914,0,0,0,0-11.828" transform="translate(-25.192)" fill="#c8c7c7"/>
    <path id="Trazado_834620" data-name="Trazado 834620" d="M226.867,77.221H221.7V89.049h5.168a5.914,5.914,0,0,0,0-11.828" transform="translate(-21.045 -7.33)" fill="#aaabb0"/>
    <path id="Trazado_834621" data-name="Trazado 834621" d="M319.67,38.385H302.562a9.463,9.463,0,0,0,0,18.927H319.67a9.463,9.463,0,1,0,0-18.927" transform="translate(-27.823 -3.644)" fill="#c8c7c7"/>
    <path id="Trazado_834622" data-name="Trazado 834622" d="M345.837,52.141H315.547a6.03,6.03,0,0,0,0,12.061h30.289a6.03,6.03,0,0,0,0-12.061" transform="translate(-29.382 -4.95)" fill="#c8c7c7"/>
    <path id="Trazado_834623" data-name="Trazado 834623" d="M169.8,276.941H155a2.946,2.946,0,1,0,0,5.892h14.8a2.946,2.946,0,1,0,0-5.892" transform="translate(-14.434 -26.29)" fill="#a1d1e0"/>
    <path id="Trazado_834624" data-name="Trazado 834624" d="M153.981,258.3h-45.7c-5,0-7.289,1.947-7.289,4.327s2.284,4.326,7.289,4.326h45.7c5,0,7.289-1.947,7.289-4.326s-2.284-4.327-7.289-4.327" transform="translate(-9.587 -24.52)" fill="#a1d1e0"/>
    <path id="Trazado_834625" data-name="Trazado 834625" d="M322.354,246.975H304.782a3.5,3.5,0,1,0,0,7h17.572a3.5,3.5,0,0,0,0-7" transform="translate(-28.6 -23.445)" fill="#aaabb0"/>
    <path id="Trazado_834626" data-name="Trazado 834626" d="M308.915,251.849H280.23a5.711,5.711,0,0,0,0,11.422h28.685a5.711,5.711,0,0,0,0-11.422" transform="translate(-26.06 -23.908)" fill="#aaabb0"/>
    <path id="Trazado_834627" data-name="Trazado 834627" d="M133.272,246.44a5.173,5.173,0,0,1-.605.043,7.343,7.343,0,0,1-5.573-2.932l-.131-.167-.138.163c-.971,1.105-2.986,2.962-5.554,2.962a7.28,7.28,0,0,1-5.523-2.957l-.131-.167-.139.159a8.147,8.147,0,0,1-4.521,2.868l-.127.024.065.347.127-.024a8.379,8.379,0,0,0,4.581-2.827,7.584,7.584,0,0,0,5.641,2.928h.027c2.6,0,4.639-1.786,5.681-2.929a7.648,7.648,0,0,0,5.691,2.9,5.607,5.607,0,0,0,.68-.046l.137-.017-.068-.346Z" transform="translate(-10.521 -23.104)" fill="#0065c4"/>
    <path id="Trazado_834628" data-name="Trazado 834628" d="M133.331,248.1a5.283,5.283,0,0,1-.664.05,7.344,7.344,0,0,1-5.573-2.933l-.13-.167-.138.163c-.972,1.105-2.986,2.962-5.554,2.962a7.282,7.282,0,0,1-5.524-2.957l-.13-.167-.14.159a8.144,8.144,0,0,1-4.521,2.868l-.126.024.065.347.127-.024a8.368,8.368,0,0,0,4.58-2.827,7.584,7.584,0,0,0,5.642,2.929h.027c2.6,0,4.639-1.786,5.68-2.93a7.648,7.648,0,0,0,5.691,2.9,5.664,5.664,0,0,0,.723-.05l.116-.015,0-.354Z" transform="translate(-10.521 -23.263)" fill="#0065c4"/>
    <path id="Trazado_834629" data-name="Trazado 834629" d="M132.667,249.825a7.343,7.343,0,0,1-5.573-2.932l-.131-.167-.138.163c-.971,1.106-2.986,2.962-5.554,2.962a7.277,7.277,0,0,1-5.523-2.957l-.131-.167-.139.159a8.145,8.145,0,0,1-4.521,2.868l-.127.024.065.347.127-.024a8.379,8.379,0,0,0,4.581-2.827,7.584,7.584,0,0,0,5.641,2.928h.027c2.6,0,4.639-1.786,5.681-2.929a7.648,7.648,0,0,0,5.691,2.9,5.568,5.568,0,0,0,.718-.052l.109-.014,0-.355-.146.019a5.029,5.029,0,0,1-.66.05" transform="translate(-10.521 -23.421)" fill="#0065c4"/>
    <path id="Trazado_834630" data-name="Trazado 834630" d="M379.013,202.4H25.759c-11.787,0-10.793,11.595,0,11.595H379.013c9.8,0,8.806-11.595,0-11.595" transform="translate(-1.641 -19.214)" fill="#009969"/>
    <path id="Trazado_834631" data-name="Trazado 834631" d="M356.9,228.005a6.667,6.667,0,0,0-1.032-.085H56.011c-9.419.1-10.082,9.786,0,9.786H356.382c5.553,0,5.384-8.936.515-9.7" transform="translate(-4.623 -21.636)" fill="#84888a"/>
    <path id="Trazado_834632" data-name="Trazado 834632" d="M395.028,215.322a7.969,7.969,0,0,0-1.219-.11H8.715c-11.455,0-11.785,11.6,0,11.6H394.422c7.139,0,7.514-10.408.606-11.487" transform="translate(0 -20.43)" fill="#00744c"/>
    <path id="Trazado_834633" data-name="Trazado 834633" d="M398.348,202.4H220.977V214H398.348c9.8,0,8.806-11.595,0-11.595" transform="translate(-20.977 -19.214)" fill="#cf9e50"/>
    <path id="Trazado_834634" data-name="Trazado 834634" d="M373.3,228.026H220.976v9.69H372.737c5.533,0,5.383-8.871.565-9.69" transform="translate(-20.977 -21.646)" fill="#84888a"/>
    <path id="Trazado_834635" data-name="Trazado 834635" d="M416.006,215.322a7.969,7.969,0,0,0-1.219-.11H220.977v11.5H372.221a6.664,6.664,0,0,1,1.031.085l.051.011h42.1c7.14,0,7.515-10.408.607-11.487" transform="translate(-20.977 -20.43)" fill="#ab6e37"/>
    <path id="Trazado_834636" data-name="Trazado 834636" d="M372.22,227.92H220.977v.1H373.3c-.017,0-.033-.008-.05-.011a6.675,6.675,0,0,0-1.032-.085" transform="translate(-20.977 -21.636)" fill="#ab6e37"/>
    <path id="Trazado_834637" data-name="Trazado 834637" d="M292.631,114.168l-3.614,80.522,13.377.158-1.707-80.585Z" transform="translate(-27.436 -10.838)" fill="#a3a1a1"/>
    <path id="Trazado_834638" data-name="Trazado 834638" d="M289.017,194.689l6.688.079.954-80.552-4.029-.048Z" transform="translate(-27.436 -10.838)" fill="#757474"/>
    <path id="Trazado_834639" data-name="Trazado 834639" d="M296.7,135.686l-4.619-.054-.21,4.675,4.773.056,4.772.057-.1-4.679Z" transform="translate(-27.707 -12.875)" fill="#edecec"/>
    <path id="Trazado_834640" data-name="Trazado 834640" d="M296.508,147.767l-4.99-.059-.307,6.834,5.216.062,5.215.062-.145-6.841Z" transform="translate(-27.644 -14.022)" fill="#edecec"/>
  </g>
</svg>
