<svg xmlns="http://www.w3.org/2000/svg" xmlns:xlink="http://www.w3.org/1999/xlink" width="109.992" height="121.333" viewBox="0 0 109.992 121.333">
  <defs>
    <clipPath id="clip-path">
      <rect id="Rect치ngulo_379715" data-name="Rect치ngulo 379715" width="77.088" height="77.172" fill="#fff"/>
    </clipPath>
  </defs>
  <g id="Grupo_1081190" data-name="Grupo 1081190" transform="translate(-917.868 -381.695)">
    <g id="Grupo_1081184" data-name="Grupo 1081184" transform="translate(0 -2)">
      <path id="Uni칩n_38" data-name="Uni칩n 38" d="M12825.9,11832.6l-37.685-21.453a17.367,17.367,0,0,1-8.747-14.938l-.262-43.365a17.358,17.358,0,0,1,8.563-15.041l37.423-21.909a17.356,17.356,0,0,1,17.31-.107l37.685,21.457a17.347,17.347,0,0,1,8.747,14.938l.266,43.362a17.362,17.362,0,0,1-8.566,15.042l-.161-.271.161.271-37.423,21.909a17.286,17.286,0,0,1-7.835,2.342c-.3.016-.609.024-.914.024A17.31,17.31,0,0,1,12825.9,11832.6Z" transform="translate(-11861.333 -11329.837)" fill="#264100"/>
    </g>
    <g id="Grupo_1081187" data-name="Grupo 1081187" transform="translate(933.865 403.828)" clip-path="url(#clip-path)">
      <path id="Trazado_834167" data-name="Trazado 834167" d="M75.529,98.342A22.622,22.622,0,1,1,98.247,75.891,22.461,22.461,0,0,1,75.529,98.342m-19.3-22.426a19.92,19.92,0,0,1,.227,2.055c.02,1.09.476,1.405,1.519,1.13,1.254-.331,2.53-.583,3.8-.847C67.821,77,65.732,76.726,70.793,80c2.082,1.348,2.906,2.871,2.1,5.2a1.6,1.6,0,0,0,1.358,2.405,4.807,4.807,0,0,1,4.17,4.727c.031.343.219.672.252,1.015.122,1.261.808,1.368,1.871,1.073a21.175,21.175,0,0,0,8.106-4.384c.925-.783.862-1.272-.113-1.9-.751-.486-1.4-1.125-2.112-1.676a2.132,2.132,0,0,1-.724-2.779c.663-1.617,1.253-3.265,1.894-4.891a1.317,1.317,0,0,0-1.75-1.835c-1.268.459-2.563.842-3.828,1.307a2.129,2.129,0,0,1-2.548-.689q-1.983-2.25-3.979-4.486a2.3,2.3,0,0,1-.612-2.063c.422-2.408.847-4.818,1.189-7.239.208-1.478.979-2.006,2.431-2.012,3.268-.015,3.215-.06,3.082-3.182a1.534,1.534,0,0,0-1.47-1.683,23.458,23.458,0,0,0-6.537-.4c-8.838.857-17.067,8.217-17.345,19.4m38.78-.482a26.275,26.275,0,0,0-.917-5.461A19.385,19.385,0,0,0,86.2,59.545c-.28-.185-.575-.509-.938-.3s-.225.63-.2.961c.067.895.2,1.786.252,2.681.086,1.353-.587,1.992-1.931,2.13s-3.039-.644-3.991.469c-.866,1.013-.555,2.679-.891,4.032a4.161,4.161,0,0,0-.094.892c-.021.86,2.418,4.1,3.24,4.232a2.312,2.312,0,0,0,1.013-.17c1.189-.379,2.362-.812,3.556-1.175,1.618-.492,5.386,2.281,5.375,3.964a3.97,3.97,0,0,1-.312,1.3c-.466,1.265-.974,2.515-1.451,3.776-.783,2.069-.734,2.093,1.04,3.423.716.537,1.042.442,1.477-.311a21.035,21.035,0,0,0,2.667-10.016M69.644,84.062c.129-.447-.187-.784-.595-1.135-1.777-1.53-3.614-2.535-6.088-1.533a18.165,18.165,0,0,1-3.93.889c-1.134.182-1.446.577-.89,1.676,3.419,6.761,8.917,10.4,16.431,11.069.752.067,1.018-.162.857-.921-.351-1.658-.8-3.177-2.821-3.55a11.691,11.691,0,0,1-2.226-.865,1.824,1.824,0,0,1-1.249-2.245c.2-1.076.331-2.167.512-3.385" transform="translate(-37.092 -37.159)" fill="#fff"/>
      <path id="Trazado_834168" data-name="Trazado 834168" d="M0,38.376A38.225,38.225,0,0,1,33.426.356c14.116-1.762,25.83,3.056,35.064,13.882.162.19.317.387.466.587.683.916.874,1.855-.138,2.633-.97.746-1.787.282-2.453-.543a37.255,37.255,0,0,0-5.316-5.48A35.283,35.283,0,0,0,3.993,31.7a34.464,34.464,0,0,0,7.725,29.7c.48.576.989,1.128,1.466,1.707a1.565,1.565,0,0,1-.1,2.394A1.537,1.537,0,0,1,10.8,65.36a33.524,33.524,0,0,1-5-6.352A37.358,37.358,0,0,1,0,38.376" transform="translate(0 0)" fill="#fff"/>
      <path id="Trazado_834169" data-name="Trazado 834169" d="M113.265,85.36a38.461,38.461,0,0,1-32.459,38.481,37.79,37.79,0,0,1-27.479-6.006,5.373,5.373,0,0,1-1.169-.926,1.535,1.535,0,0,1-.045-2.066,1.459,1.459,0,0,1,1.874-.486,8.008,8.008,0,0,1,1.161.683,34.082,34.082,0,0,0,19.367,5.953A35.3,35.3,0,0,0,106.5,70.439c-.064-.136-.131-.27-.193-.407a1.633,1.633,0,0,1,.69-2.423c1.11-.558,1.82.08,2.306,1a34.985,34.985,0,0,1,3.327,9.76,29.34,29.34,0,0,1,.631,6.989" transform="translate(-36.205 -47.167)" fill="#fff"/>
      <path id="Trazado_834170" data-name="Trazado 834170" d="M119.283,56.1A30.433,30.433,0,0,1,107.66,80.367a7.313,7.313,0,0,1-1.743,1.146,1.517,1.517,0,0,1-1.977-.6,1.5,1.5,0,0,1,.25-2.039,9.813,9.813,0,0,1,.924-.763A27.778,27.778,0,0,0,92.355,28.569,27.323,27.323,0,0,0,74.7,31.857c-.306.171-.6.364-.91.522a1.609,1.609,0,0,1-2.344-.562,1.564,1.564,0,0,1,.669-2.306,28.333,28.333,0,0,1,7.224-3.26,31.141,31.141,0,0,1,39.927,26.4,29.521,29.521,0,0,1,.017,3.447" transform="translate(-49.806 -17.456)" fill="#fff"/>
      <path id="Trazado_834171" data-name="Trazado 834171" d="M56.158,119.493a31.067,31.067,0,0,1-31.24-27.717,30.419,30.419,0,0,1,4.011-18.9c.85-1.463,1.743-1.9,2.716-1.316s1.045,1.507.192,3.008a27.721,27.721,0,0,0,15.932,40.42,27.057,27.057,0,0,0,17.372-.4c1.919-.676,2.839-.5,3.255.575.427,1.106-.273,1.97-2.191,2.615a27.559,27.559,0,0,1-10.047,1.711" transform="translate(-17.307 -49.904)" fill="#fff"/>
      <path id="Trazado_834172" data-name="Trazado 834172" d="M56.955,55.349a1.608,1.608,0,0,1-1.584,1.663A1.506,1.506,0,0,1,53.7,55.458a1.473,1.473,0,0,1,1.538-1.665,1.611,1.611,0,0,1,1.712,1.555" transform="translate(-37.581 -37.645)" fill="#fff"/>
    </g>
  </g>
</svg>
