<svg xmlns="http://www.w3.org/2000/svg" xmlns:xlink="http://www.w3.org/1999/xlink" width="120" height="120" viewBox="0 0 120 120">
  <defs>
    <clipPath id="clip-path">
      <rect id="Rectángulo_379831" data-name="Rectángulo 379831" width="85.332" height="83.878" fill="none"/>
    </clipPath>
  </defs>
  <g id="Grupo_1081421" data-name="Grupo 1081421" transform="translate(-182.5 -2213.368)">
    <circle id="Elipse_5982" data-name="Elipse 5982" cx="60" cy="60" r="60" transform="translate(182.5 2213.368)" fill="#d5fff5"/>
    <g id="Grupo_1081337" data-name="Grupo 1081337" transform="translate(199.5 2231.026)">
      <g id="Grupo_1081336" data-name="Grupo 1081336" clip-path="url(#clip-path)">
        <path id="Trazado_834641" data-name="Trazado 834641" d="M88.636,131.314c4.592,0,9.184-.021,13.776.007,4.16.026,5.9,1.735,5.817,5.871-.051,2.561.579,5.223-.853,7.642a1.119,1.119,0,0,0,.048.956,16.345,16.345,0,0,1-.1,11.45,1.038,1.038,0,0,0,.056.94c1.6,3.036.875,6.3.719,9.444-.114,2.3-2.135,3.854-4.66,3.885-6.251.076-12.5.034-18.755.02-1.013,0-2-.3-1.981-1.513.019-1.236,1.086-1.443,2.053-1.45,5.422-.037,10.843-.034,16.265-.039,4.373,0,4.373,0,4.373-4.429,0-.83.011-1.66,0-2.49-.036-1.936-.638-2.586-2.609-2.591q-14.191-.032-28.382,0c-2.047,0-2.632.647-2.652,2.714-.014,1.438-.018,2.877,0,4.315.027,1.907.55,2.418,2.5,2.475,1.216.035,2.434.019,3.648.089.9.052,1.7.419,1.689,1.454s-.825,1.407-1.713,1.436a34.551,34.551,0,0,1-4.641-.036,4.614,4.614,0,0,1-4.332-4.8c-.044-2.1-.356-4.294.132-6.279a14.593,14.593,0,0,0,.04-5.441c-.336-3-.861-6.184.624-9.129a1.158,1.158,0,0,0,.014-1.109c-1.5-3-.816-6.2-.706-9.305.09-2.53,2.176-3.992,5.2-4.063,2.875-.068,5.754-.021,8.63-.022q2.9,0,5.809,0m-.069,3.028c-4.816,0-9.633-.016-14.449.009-1.749.009-2.319.569-2.363,2.264-.042,1.66-.018,3.321-.006,4.982a2,2,0,0,0,2.284,2.22q14.532,0,29.063-.012c1.64,0,2.246-.677,2.285-2.373.032-1.383.015-2.768.008-4.152-.012-2.493-.432-2.934-2.873-2.939q-6.975-.015-13.95,0M88.4,156.15c4.871,0,9.742.014,14.614-.008,1.739-.008,2.321-.57,2.364-2.26.043-1.66.017-3.321.006-4.982a1.93,1.93,0,0,0-2.119-2.2q-14.7-.011-29.394,0a1.931,1.931,0,0,0-2.121,2.2c-.012,1.494-.016,2.989,0,4.483.017,2.267.489,2.76,2.706,2.766,4.65.012,9.3,0,13.95,0" transform="translate(-45.877 -87.684)" fill="#161615"/>
        <path id="Trazado_834642" data-name="Trazado 834642" d="M116.328,14.991c0,3.54.019,7.079,0,10.619-.018,2.92-1.253,4.163-4.125,4.169q-7.964.017-15.929,0c-2.711-.008-3.987-1.238-4.013-3.929-.036-3.816-.014-7.632-.007-11.449a8,8,0,0,1,2.438-5.807q3.039-3.061,6.1-6.1a7.637,7.637,0,0,1,4.673-2.3,42.114,42.114,0,0,1,7.619-.043c2.066.159,3.209,1.555,3.233,3.722.043,3.705.012,7.411.014,11.117m-2.857.07c0-3.431-.033-6.862.018-10.292.018-1.2-.386-1.737-1.62-1.694-1.548.054-3.1.02-4.648.021a1.7,1.7,0,0,0-1.92,1.95c0,1.438.05,2.882-.055,4.314-.184,2.511-1.44,3.67-3.954,3.748-1.216.037-2.435,0-3.652.016-2.025.03-2.516.519-2.529,2.591-.019,3.154.036,6.309-.025,9.462-.025,1.283.419,1.77,1.726,1.757q7.47-.074,14.94,0c1.3.013,1.761-.45,1.738-1.745-.06-3.375-.02-6.751-.02-10.126M102.207,5.816,98.075,9.93c3.764.8,4.3.385,4.189-3.453-.008-.27-.046-.539-.056-.661" transform="translate(-61.599 0)" fill="#161615"/>
        <path id="Trazado_834643" data-name="Trazado 834643" d="M208.485,46.878c0,3.649.015,7.3,0,10.947-.013,2.622-1.223,3.836-3.881,3.847q-8.045.034-16.089,0c-2.554-.01-3.884-1.124-3.965-3.662a119.094,119.094,0,0,1,.085-12.76,7.065,7.065,0,0,1,2.138-4.549c2.137-2.163,4.294-4.307,6.447-6.454a6.9,6.9,0,0,1,3.721-2.045,34.82,34.82,0,0,1,8.756-.123c1.786.146,2.763,1.484,2.779,3.353.032,3.815.01,7.63.011,11.445m-2.851.049c0-3.485-.025-6.97.014-10.454.013-1.172-.364-1.749-1.623-1.691-1.49.068-2.987-.012-4.479.034a1.85,1.85,0,0,0-2.042,2.073c.015,1.383.018,2.766-.009,4.148-.047,2.476-1.282,3.794-3.751,3.931-1.379.077-2.765.056-4.148.027-1.451-.031-2.129.6-2.114,2.086.035,3.318.052,6.638-.013,9.955-.028,1.4.534,1.813,1.872,1.8,4.812-.056,9.625-.068,14.436.005,1.494.023,1.909-.556,1.879-1.956-.07-3.317-.023-6.637-.025-9.956M194.62,37.92l-4.16,4.024c.926,0,2.022.011,3.117,0a.933.933,0,0,0,1.04-1.018c.006-1.141,0-2.283,0-3" transform="translate(-123.159 -21.28)" fill="#161615"/>
        <path id="Trazado_834644" data-name="Trazado 834644" d="M24.067,46.97c0,3.429.033,6.859-.009,10.288s-1.21,4.566-4.626,4.569q-7.632.007-15.266,0C1.2,61.816.065,60.665.054,57.7c0-.94-.014-1.882.037-2.82A1.254,1.254,0,0,1,1.353,53.6a1.256,1.256,0,0,1,1.413,1.127,14.577,14.577,0,0,1,.126,2.642c-.031,1.1.355,1.616,1.533,1.608q7.55-.053,15.1,0c1.185.008,1.533-.535,1.53-1.618q-.028-10.37,0-20.741c0-1.177-.394-1.741-1.641-1.682-1.38.065-2.765-.011-4.147.023-1.767.043-2.329.635-2.362,2.451-.023,1.272.01,2.544-.013,3.816-.045,2.478-1.26,3.762-3.764,3.9-1.379.074-2.765.053-4.147.026-1.46-.028-2.152.624-2.09,2.1a8.826,8.826,0,0,1-.1,1.981A1.354,1.354,0,0,1,1.28,50.461,1.294,1.294,0,0,1,.075,49.109c-.26-3.469.024-6.7,2.98-9.2,1.936-1.637,3.632-3.56,5.423-5.367a8.034,8.034,0,0,1,5.966-2.447c1.825,0,3.651-.022,5.476.007,2.756.044,4.049,1.253,4.116,4.085.086,3.593.021,7.19.021,10.785h.011M10.015,38.064,5.863,42.092c.922,0,2.016.01,3.111,0a.93.93,0,0,0,1.04-1.015c.006-1.14,0-2.28,0-3.009" transform="translate(0 -21.428)" fill="#161615"/>
        <path id="Trazado_834645" data-name="Trazado 834645" d="M22.181,150.52c-2.888-.2-6.034-.379-9.173-.644a2.471,2.471,0,0,1-2.037-3.952c.883-1.354.628-2.306-.085-3.59A20.862,20.862,0,0,1,8.6,127.894c.473-2.477,2.38-4.032,4.5-3.7,2.319.363,3.666,2.269,3.254,4.909a15.572,15.572,0,0,0,.048,5.925c.187.827.335,1.437,1.515.962,1.7-.685,2.774-.191,3.67,1.521,1.384,2.647,2.7,5.33,4.03,8,1.742,3.5.7,5.123-3.441,5M13.5,128.905c.055-.868.04-1.65-.79-1.765-.941-.13-1.137.71-1.277,1.423a18.184,18.184,0,0,0,2.7,13.626c.829,1.309,1.264,2.405.194,3.734-.482.6-.523,1.1.491,1.164,2.532.168,5.062.371,7.593.565.708.054.934-.209.6-.867-1.162-2.322-2.334-4.64-3.483-6.968-.368-.746-.656-.681-1.165-.081-1.633,1.925-2.381,1.807-3.5-.521a15.857,15.857,0,0,1-1.373-10.31" transform="translate(-5.471 -82.91)" fill="#161615"/>
        <path id="Trazado_834646" data-name="Trazado 834646" d="M197.887,150.574a7.567,7.567,0,0,1-2.436-.156A2.488,2.488,0,0,1,194,146.895c1.555-3.3,3.2-6.556,4.9-9.782a2.414,2.414,0,0,1,3.412-1.088c1,.462,1.311.028,1.464-.808a12.326,12.326,0,0,0,.2-5.1,9.831,9.831,0,0,1-.233-1.807,3.883,3.883,0,0,1,7.42-1.8,12.209,12.209,0,0,1,.8,4.707,1.409,1.409,0,0,1-1.343,1.6c-.926.046-1.361-.584-1.469-1.466s-.207-1.756-.359-2.626c-.134-.766-.287-1.712-1.326-1.534-.914.157-.867,1.068-.735,1.777a16.434,16.434,0,0,1-1.718,10.914c-.866,1.545-1.92,1.682-2.9.246-.854-1.249-1.193-.843-1.692.209-1,2.1-2.042,4.171-3.108,6.234-.45.87-.315,1.2.715,1.111q3.547-.308,7.1-.531c.948-.058,1.48-.313.727-1.241-1.03-1.271-.759-2.371.142-3.585a16.755,16.755,0,0,0,2.333-4.925c.306-.946.779-1.876,1.981-1.458,1.14.4,1.082,1.372.759,2.363a19.293,19.293,0,0,1-2.08,4.684,2,2,0,0,0-.047,2.42c1.561,2.634.644,4.3-2.44,4.539-2.918.229-5.839.421-8.626.619" transform="translate(-129.37 -82.948)" fill="#161615"/>
        <path id="Trazado_834647" data-name="Trazado 834647" d="M116.5,221.157a4.136,4.136,0,0,1-4.027,4.032,4.054,4.054,0,1,1,.065-8.106,4.082,4.082,0,0,1,3.963,4.074" transform="translate(-72.391 -144.972)" fill="#161615"/>
        <path id="Trazado_834648" data-name="Trazado 834648" d="M90.422,221.115a4.055,4.055,0,1,1-4.025-4.029,4.147,4.147,0,0,1,4.025,4.029" transform="translate(-54.97 -144.974)" fill="#161615"/>
        <path id="Trazado_834649" data-name="Trazado 834649" d="M23.861,93.245c1.434,0,2.869-.038,4.3.014.882.032,1.7.368,1.743,1.4s-.739,1.468-1.639,1.482q-4.463.069-8.927.01c-.893-.012-1.693-.414-1.659-1.457.033-1.009.814-1.405,1.715-1.433,1.488-.047,2.977-.013,4.466-.013" transform="translate(-11.806 -62.262)" fill="#161615"/>
        <path id="Trazado_834650" data-name="Trazado 834650" d="M23.731,81.884c-1.488,0-2.976.017-4.463-.007-.866-.014-1.565-.413-1.61-1.326-.05-1.018.673-1.485,1.606-1.493q4.545-.042,9.091.009a1.4,1.4,0,1,1,0,2.8c-1.542.039-3.085.011-4.628.011v.008" transform="translate(-11.791 -52.784)" fill="#161615"/>
        <path id="Trazado_834651" data-name="Trazado 834651" d="M145.939,227.862c-1.106,0-2.212,0-3.317,0-1.054,0-2.155-.128-2.134-1.481.02-1.239,1.055-1.381,2.058-1.38q3.318,0,6.635,0c1.058,0,2.149.1,2.124,1.47-.023,1.243-1.041,1.4-2.048,1.394q-1.659,0-3.318,0" transform="translate(-93.821 -150.258)" fill="#161615"/>
        <path id="Trazado_834652" data-name="Trazado 834652" d="M86.35,150.412a4.046,4.046,0,0,1-4.038-3.981,4.056,4.056,0,1,1,8.112.035,4.046,4.046,0,0,1-4.073,3.946" transform="translate(-54.97 -95.058)" fill="#161615"/>
        <path id="Trazado_834653" data-name="Trazado 834653" d="M116.5,146.451a4.051,4.051,0,0,1-8.1-.185,4.261,4.261,0,0,1,4.157-3.929,4.171,4.171,0,0,1,3.943,4.114" transform="translate(-72.387 -95.055)" fill="#161615"/>
        <path id="Trazado_834654" data-name="Trazado 834654" d="M145.838,153c-1.32,0-2.64.011-3.96,0-.81-.01-1.421-.371-1.488-1.226a1.344,1.344,0,0,1,1.388-1.529c2.692-.068,5.387-.062,8.079,0a1.354,1.354,0,0,1,1.416,1.508c-.068.942-.775,1.252-1.642,1.253q-1.9,0-3.795,0v0" transform="translate(-93.752 -100.301)" fill="#161615"/>
        <path id="Trazado_834655" data-name="Trazado 834655" d="M90.422,184a4.055,4.055,0,1,1-8.109-.174,4.057,4.057,0,0,1,8.109.174" transform="translate(-54.969 -120.196)" fill="#161615"/>
        <path id="Trazado_834656" data-name="Trazado 834656" d="M112.536,179.986a3.945,3.945,0,0,1,3.958,4.006A4.116,4.116,0,0,1,112.463,188a4.177,4.177,0,0,1-4.068-3.992,4,4,0,0,1,4.141-4.026" transform="translate(-72.389 -120.198)" fill="#161615"/>
        <path id="Trazado_834657" data-name="Trazado 834657" d="M145.85,190.432c-1.213,0-2.428.043-3.639-.014-.94-.044-1.82-.37-1.812-1.506.007-1.045.833-1.4,1.713-1.416q3.72-.06,7.441.014c.878.017,1.72.362,1.734,1.4.015,1.119-.837,1.48-1.8,1.516-1.211.044-2.426.011-3.639.011v-.006" transform="translate(-93.761 -125.196)" fill="#161615"/>
        <path id="Trazado_834658" data-name="Trazado 834658" d="M116.3,64.31c-1.379,0-2.76.041-4.137-.015-.915-.037-1.839-.264-1.87-1.435s.867-1.485,1.793-1.5q4.219-.073,8.44-.008c.915.013,1.853.259,1.868,1.431.017,1.276-.983,1.481-1.956,1.519-1.377.053-2.758.013-4.137.013V64.31" transform="translate(-73.658 -40.953)" fill="#161615"/>
        <path id="Trazado_834659" data-name="Trazado 834659" d="M116.175,49.937q-2.068,0-4.136,0c-.912,0-1.7-.243-1.752-1.315s.667-1.491,1.586-1.5q4.466-.056,8.932,0c.918.012,1.643.443,1.588,1.5s-.839,1.315-1.751,1.316q-2.234,0-4.467,0" transform="translate(-73.65 -31.449)" fill="#161615"/>
        <path id="Trazado_834660" data-name="Trazado 834660" d="M208.766,93.216c1.378,0,2.756-.025,4.133.009.955.024,1.846.35,1.868,1.451.024,1.129-.9,1.464-1.834,1.477q-4.3.06-8.592-.01c-.94-.015-1.839-.377-1.784-1.514.054-1.119.979-1.378,1.912-1.4,1.432-.039,2.865-.01,4.3-.01" transform="translate(-135.27 -62.245)" fill="#161615"/>
        <path id="Trazado_834661" data-name="Trazado 834661" d="M208.69,79.042c1.488,0,2.976-.024,4.464.01.932.021,1.663.451,1.634,1.47-.027.917-.716,1.344-1.583,1.35q-4.546.03-9.093-.006a1.375,1.375,0,0,1-1.551-1.376c-.006-1.022.739-1.422,1.665-1.44,1.488-.029,2.976-.008,4.464-.007" transform="translate(-135.274 -52.78)" fill="#161615"/>
      </g>
    </g>
  </g>
</svg>
