<svg xmlns="http://www.w3.org/2000/svg" xmlns:xlink="http://www.w3.org/1999/xlink" width="129" height="128" viewBox="0 0 129 128">
  <defs>
    <clipPath id="clip-path">
      <rect id="Rect치ngulo_379917" data-name="Rect치ngulo 379917" width="76.803" height="92" fill="none"/>
    </clipPath>
  </defs>
  <g id="Grupo_1081409" data-name="Grupo 1081409" transform="translate(-390 -845)">
    <g id="Grupo_108927" data-name="Grupo 108927" transform="translate(0 -3622)">
      <path id="Rect치ngulo_36179" data-name="Rect치ngulo 36179" d="M0,0H129V128H0Z" transform="translate(390 4467)" fill="#c1e29a"/>
    </g>
    <g id="Grupo_1081392" data-name="Grupo 1081392" transform="translate(415.099 863)">
      <g id="Grupo_1081391" data-name="Grupo 1081391" clip-path="url(#clip-path)">
        <path id="Trazado_835002" data-name="Trazado 835002" d="M64.442,109.928c-3.286,0-6.572.021-9.857-.006-2.066-.017-2.5-.519-2.575-2.526-.188-4.762-1.4-8.9-4.916-12.621-6.351-6.724-8.175-14.923-5.109-23.762C45.057,62.158,51.429,56.771,60.7,55.2A23.685,23.685,0,0,1,81.3,95.294a14.524,14.524,0,0,0-4.29,10.1c-.037.716-.038,1.433-.058,2.15a2.161,2.161,0,0,1-2.469,2.388c-3.345-.023-6.691-.007-10.037-.005m-.227-3.4c2.568,0,5.138-.039,7.7.017,1.194.027,1.669-.385,1.782-1.62a20.4,20.4,0,0,1,5.982-12.841C84.331,87.316,85.6,81.259,84.5,74.8A20.192,20.192,0,0,0,62.2,58.23c-8.224.946-14.057,5.312-16.931,13.022-2.852,7.651-1.7,14.993,4,20.982a20.316,20.316,0,0,1,5.846,12.88c.088,1.1.558,1.437,1.577,1.423,2.508-.033,5.017-.011,7.526-.009" transform="translate(-25.992 -35.188)"/>
        <path id="Trazado_835003" data-name="Trazado 835003" d="M83.25,219.205c-2.981,0-5.962.028-8.943-.006-2.463-.027-4.144-1.6-4.1-3.758a3.847,3.847,0,0,1,4.087-3.634q9.122-.051,18.244,0a3.7,3.7,0,0,1,3.978,3.694c.018,2.125-1.558,3.646-3.967,3.687-3.1.052-6.2.013-9.3.015m-9.462-4.073v.6c6.3.182,12.608.173,18.912.006v-.6Z" transform="translate(-45.022 -135.81)"/>
        <path id="Trazado_835004" data-name="Trazado 835004" d="M88.5,243.16c-2.212,0-4.424.037-6.634-.011a3.7,3.7,0,0,1-3.839-3.664,3.749,3.749,0,0,1,3.844-3.7q6.544-.088,13.089,0a3.689,3.689,0,0,1,3.83,3.689,3.74,3.74,0,0,1-3.834,3.679c-2.151.046-4.3.01-6.455.01m-6.839-4.068v.468H95.183v-.468Z" transform="translate(-50.035 -151.174)"/>
        <path id="Trazado_835005" data-name="Trazado 835005" d="M48.1,27.786a1.584,1.584,0,0,1-1.028,1.526,1.334,1.334,0,0,1-1.748-.471q-2.758-4.162-5.4-8.4a1.512,1.512,0,0,1,.422-2.081,1.309,1.309,0,0,1,1.936.095,61.205,61.205,0,0,1,5.763,8.979,1.1,1.1,0,0,1,.052.352" transform="translate(-25.445 -11.531)"/>
        <path id="Trazado_835006" data-name="Trazado 835006" d="M182.948,68.606a1.51,1.51,0,0,1-1.593-1.058,1.407,1.407,0,0,1,.584-1.739c2.965-1.661,5.95-3.288,8.975-4.835a1.425,1.425,0,0,1,1.948.8,1.357,1.357,0,0,1-.532,1.884c-2.9,1.657-5.844,3.233-8.781,4.824a1.816,1.816,0,0,1-.6.121" transform="translate(-116.24 -39.004)"/>
        <path id="Trazado_835007" data-name="Trazado 835007" d="M2.1,61.013c.4.188.949.416,1.468.7q3.527,1.919,7.037,3.867a1.634,1.634,0,0,1,.861,2.377,1.574,1.574,0,0,1-2.34.5Q5.033,66.283.994,64a1.509,1.509,0,0,1-.824-2.086,1.691,1.691,0,0,1,1.933-.9" transform="translate(0 -39.115)"/>
        <path id="Trazado_835008" data-name="Trazado 835008" d="M160.771,21.178a12.273,12.273,0,0,1-.656,1.249q-2.313,3.517-4.664,7.01c-.6.888-1.311,1.737-2.477.992-1.233-.788-.8-1.824-.151-2.793,1.625-2.433,3.245-4.869,4.887-7.291a1.609,1.609,0,0,1,3.061.834" transform="translate(-97.595 -12.437)"/>
        <path id="Trazado_835009" data-name="Trazado 835009" d="M105.769,6.454c0,1.554.023,3.109-.008,4.663-.021,1.022-.494,1.793-1.6,1.755a1.517,1.517,0,0,1-1.471-1.712q-.036-4.752,0-9.5C102.7.71,103.135,0,104.176,0a1.493,1.493,0,0,1,1.564,1.612c.052,1.612.014,3.227.014,4.841h.014" transform="translate(-65.84 0)"/>
        <path id="Trazado_835010" data-name="Trazado 835010" d="M122.755,89.316V89.8c0,1-.29,1.827-1.436,1.9-1.124.071-1.572-.644-1.679-1.674-.08-.772-.208-1.539-.315-2.308a15.1,15.1,0,0,0-12.973-12.536,21.486,21.486,0,0,1-2.3-.345,1.413,1.413,0,0,1-1.213-1.542,1.435,1.435,0,0,1,1.484-1.48,13.611,13.611,0,0,1,4.093.333c8,1.832,14.193,9.054,14.341,17.17" transform="translate(-65.945 -46.028)"/>
      </g>
    </g>
  </g>
</svg>
