<svg xmlns="http://www.w3.org/2000/svg" xmlns:xlink="http://www.w3.org/1999/xlink" width="85" height="85" viewBox="0 0 85 85">
  <defs>
    <clipPath id="clip-path">
      <rect id="Rectángulo_379834" data-name="Rectángulo 379834" width="50.831" height="50.784" fill="none"/>
    </clipPath>
  </defs>
  <g id="Grupo_1081365" data-name="Grupo 1081365" transform="translate(-285 -2536.316)">
    <g id="Grupo_1013925" data-name="Grupo 1013925" transform="translate(0 -4278.684)">
      <circle id="Elipse_4875" data-name="Elipse 4875" cx="42.5" cy="42.5" r="42.5" transform="translate(285 6815)" fill="#ffae7e"/>
    </g>
    <g id="Grupo_1081343" data-name="Grupo 1081343" transform="translate(302.417 2553.425)">
      <g id="Grupo_1081342" data-name="Grupo 1081342" clip-path="url(#clip-path)">
        <path id="Trazado_834685" data-name="Trazado 834685" d="M20.941,40c0,5.654-4.165,10.33-9.339,10.716a10.5,10.5,0,0,1-11.49-8.96A10.383,10.383,0,0,1,10.253,29.89a4.027,4.027,0,0,0,3.654-1.58,6.572,6.572,0,0,1,.484-.493c.4-.432.975-.809,1.147-1.32.2-.591-.6-.847-.9-1.3A1.631,1.631,0,0,1,15,22.832c.63-.585.533-.932-.036-1.483-1.986-1.924-3.937-3.885-5.869-5.863a2.186,2.186,0,0,0-1.82-.77A21.869,21.869,0,0,1,5,14.708a1.851,1.851,0,0,1-1.84-1.369c-.991-3-2-5.992-2.993-8.99A1.8,1.8,0,0,1,.65,2.36C3.558-.5,2.768-.418,6.538.825q3.281,1.082,6.554,2.187c1.324.449,1.819.938,1.64,2.32a5.451,5.451,0,0,0,2.242,5.189c1.6,1.367,3.019,2.937,4.483,4.452.477.493.784.629,1.34.06,1.085-1.111,1.865-1.109,2.925.044.623.678,1.037.638,1.531-.048a1.37,1.37,0,0,1,.278-.28,6.051,6.051,0,0,0,2.463-5.277C30.016,4.488,34.792.11,39.773,0a11.057,11.057,0,0,1,4.447.717c1.781.718,2.033,1.823.7,3.24-1.06,1.127-2.157,2.219-3.235,3.33-.227.234-.55.442-.563.785-.02.529-.346,1.254.258,1.527a1.658,1.658,0,0,0,1.924-.3c1.168-1.16,2.352-2.3,3.536-3.447a2.257,2.257,0,0,1,1.335-.791,1.692,1.692,0,0,1,1.755,1.161,10.526,10.526,0,0,1-6.6,14.272,12.409,12.409,0,0,1-3.909.394c-.391-.015-.81-.091-1.128.22q-1.447,1.416-2.874,2.852c-.421.422-.078.7.206.983Q37.3,26.618,38.98,28.3q5.029,5.029,10.056,10.058c2.388,2.394,2.39,4.954.015,7.35q-1.6,1.614-3.212,3.213c-2.491,2.48-5.021,2.491-7.491.025-4.379-4.374-8.77-8.738-13.113-13.146-.692-.7-1.125-.691-1.714.034A10.233,10.233,0,0,1,22.2,37.157c-.961.817-1.637,1.726-1.257,2.841m9.05-8.514a1.571,1.571,0,0,1,2.287-1.335,4.853,4.853,0,0,1,1.058.875q5.942,5.926,11.872,11.866c.186.186.385.361.558.559.33.377.607.363.989.019,1.106-1,1.157-1.735.074-2.82Q40.2,34.006,33.57,27.375a3.217,3.217,0,0,0-1.618-.868,7.323,7.323,0,0,1-5.79-5.687A4.594,4.594,0,0,0,24.8,18.6c-.43-.421-.706-.427-1.126.005-1.422,1.463-2.891,2.881-4.312,4.345-.4.408-1.228.774-1.021,1.315a3.008,3.008,0,0,0,1.762,1.627,5.892,5.892,0,0,0,.665.187A7.4,7.4,0,0,1,26.549,31.9a3.535,3.535,0,0,0,1.007,1.759Q34.065,40.139,40.55,46.64a5,5,0,0,0,.737.653c.758.5,1.548.249,2.287-.657.615-.755-.189-.995-.509-1.317q-6.044-6.1-12.136-12.161a2.456,2.456,0,0,1-.937-1.673M10.46,47.6A7.283,7.283,0,0,0,17.6,38.757a2.282,2.282,0,0,1,.736-2.294c1.345-1.307,2.659-2.647,3.984-3.974.923-.924.911-1.1-.006-2.062-.868-.912-2.055-1.089-3.16-1.5a1.41,1.41,0,0,0-1.783.45c-1.01,1.081-2.092,2.1-3.128,3.154a2.1,2.1,0,0,1-2.13.675,7.2,7.2,0,0,0-2.542-.12,7.151,7.151,0,0,0-6.35,7.359A7.245,7.245,0,0,0,10.46,47.6M41.8,12.952c-.931,0-1.591.027-2.247-.008A1.448,1.448,0,0,1,38.064,12a12.062,12.062,0,0,1-.014-5.357c.067-.315.408-.584.65-.849.622-.679,1.265-1.338,1.887-2.017.1-.111.22-.3.19-.419-.055-.219-.3-.243-.495-.215a17.924,17.924,0,0,0-1.847.3,7.2,7.2,0,0,0-5.2,8.535,2.274,2.274,0,0,1-.728,2.3c-.857.816-1.619,1.745-2.533,2.488a2.3,2.3,0,0,0-.827,3.022,6.235,6.235,0,0,0,1.779,2.875.846.846,0,0,0,1.343-.092c1.2-1.26,2.523-2.417,3.669-3.726a3.485,3.485,0,0,1,3.554-1.225A7.04,7.04,0,0,0,47.5,11.5c.062-.488.47-1.175-.08-1.441-.408-.2-.807.461-1.128.8-1.3,1.379-2.607,2.688-4.491,2.1M3.546,4.361c.08.263.151.516.234.765.489,1.466.969,2.934,1.473,4.394.792,2.3.29,1.982,2.669,1.936a3.544,3.544,0,0,1,2.856,1.209c1.905,2,3.878,3.936,5.85,5.87,1.524,1.5,1,1.563,2.651,0,.492-.465.518-.78.014-1.27-1.816-1.764-3.521-3.65-5.4-5.337-1.632-1.463-2.824-2.994-2.371-5.336a.743.743,0,0,0-.55-.918c-2.123-.7-4.236-1.43-6.366-2.108-.641-.2-.985.158-1.057.8" transform="translate(0 0)" fill="#161615"/>
        <path id="Trazado_834686" data-name="Trazado 834686" d="M34.775,181.056a4.514,4.514,0,1,1-4.487,4.523,4.446,4.446,0,0,1,4.487-4.523m1.365,4.547a1.337,1.337,0,0,0-2.673-.086,1.338,1.338,0,1,0,2.673.086" transform="translate(-24.304 -145.281)" fill="#161615"/>
      </g>
    </g>
  </g>
</svg>
