<svg xmlns="http://www.w3.org/2000/svg" xmlns:xlink="http://www.w3.org/1999/xlink" width="120" height="120" viewBox="0 0 120 120">
  <defs>
    <clipPath id="clip-path">
      <rect id="Rectángulo_379833" data-name="Rectángulo 379833" width="60.234" height="81.106" fill="none"/>
    </clipPath>
  </defs>
  <g id="Grupo_1081422" data-name="Grupo 1081422" transform="translate(-182.5 -2442.5)">
    <circle id="Elipse_5983" data-name="Elipse 5983" cx="60" cy="60" r="60" transform="translate(182.5 2442.5)" fill="#d5fff5"/>
    <g id="Grupo_1081341" data-name="Grupo 1081341" transform="translate(212.717 2462.337)">
      <g id="Grupo_1081340" data-name="Grupo 1081340" clip-path="url(#clip-path)">
        <path id="Trazado_834670" data-name="Trazado 834670" d="M60.275,78.465q0,15.318,0,30.635c0,2.587-.206,2.791-2.787,2.791q-27.319,0-54.638,0c-2.577,0-2.781-.205-2.783-2.794q-.007-6.948,0-13.9A6.8,6.8,0,0,1,.18,93.635a1.261,1.261,0,0,1,1.4-1.029A1.2,1.2,0,0,1,2.72,93.731a17.624,17.624,0,0,1,.068,2.048c.006,3.9.045,7.791-.021,11.685-.021,1.286.371,1.743,1.7,1.74q25.661-.052,51.321.011c1.584,0,1.785-.653,1.783-1.979q-.047-25.74-.021-51.48c0-2.842-.005-5.685,0-8.527,0-1-.105-2.21,1.336-2.222s1.383,1.177,1.383,2.192q.008,15.633,0,31.267" transform="translate(-0.043 -30.788)" fill="#161615"/>
        <path id="Trazado_834671" data-name="Trazado 834671" d="M30.289,0Q43.95,0,57.611,0c2.356,0,2.612.262,2.619,2.642q.01,3.316,0,6.633c0,.966-.211,1.916-1.388,1.9s-1.33-.983-1.33-1.943c0-1.685-.047-3.371.012-5.053.039-1.091-.367-1.509-1.465-1.483-2.21.052-4.422.014-6.633.014H5.045c-2.294,0-2.3,0-2.3,2.359q0,25.506-.011,51.012c0,1.1.37,2.7-1.3,2.722-1.788.021-1.4-1.648-1.406-2.789Q.007,29.484.022,2.951C.023.143.166,0,2.967,0Q16.628,0,30.289,0" transform="translate(0 0.001)" fill="#161615"/>
        <path id="Trazado_834672" data-name="Trazado 834672" d="M139.288,156.86c0-4.366-.012-8.731.005-13.1.009-2.231.445-2.644,2.7-2.654,1.946-.009,3.892,0,5.838,0a1.726,1.726,0,0,1,1.955,1.937c0,1.157.033,2.317-.043,3.469a1.324,1.324,0,0,1-1.389,1.412c-.942-.014-1.2-.655-1.266-1.483-.221-2.638-.236-2.56-2.961-2.652-1.5-.051-2.007.416-1.994,1.952q.1,11.123,0,22.248c-.011,1.46.473,1.92,1.914,1.874,3.483-.111,3.012.309,3.029-3.054.022-4.418.005-8.836.006-13.254,0-.421,0-.842.02-1.262.044-.781.41-1.331,1.234-1.359a1.288,1.288,0,0,1,1.372,1.255,20.7,20.7,0,0,1,.081,2.518q.009,7.653,0,15.306c0,2.189-.374,2.539-2.588,2.549q-2.6.011-5.207,0c-2.342-.007-2.7-.361-2.71-2.77-.013-4.313,0-8.626,0-12.939" transform="translate(-95.28 -96.526)" fill="#161615"/>
        <path id="Trazado_834673" data-name="Trazado 834673" d="M25.6,49a9.275,9.275,0,1,1-9.431,9.223A9.335,9.335,0,0,1,25.6,49m.574,15.83a6.269,6.269,0,0,0,5.313-3.688c.528-1.009.44-1.564-.888-1.516-1.468.053-2.94-.022-4.409.016a1.779,1.779,0,0,1-2.059-2c-.027-1.365,0-2.73-.027-4.095-.031-1.551-.413-1.759-1.794-1.022a6.617,6.617,0,0,0-3.132,7.4c.718,2.908,3.292,4.893,7,4.9m3.185-7.928c.605,0,1.079-.007,1.552,0,.96.016,1.05-.454.705-1.209a6.571,6.571,0,0,0-3.33-3.423c-.456-.206-1.048-.363-1.165.274a7.114,7.114,0,0,0,.072,3.885c.375.941,1.52.3,2.166.473" transform="translate(-11.06 -33.523)" fill="#161615"/>
        <path id="Trazado_834674" data-name="Trazado 834674" d="M64.739,16.019c3.892,0,7.785-.009,11.677,0,1.876.006,2.308.427,2.359,2.317.033,1.208.02,2.42-.024,3.628a1.674,1.674,0,0,1-1.868,1.846q-12.309-.016-24.617,0A1.672,1.672,0,0,1,50.4,21.962c-.042-1.261-.063-2.526-.015-3.786.065-1.746.519-2.149,2.357-2.154,4-.011,8,0,11.993,0m-.148,2.727c-3.259,0-6.517.006-9.776,0-.849,0-1.585.019-1.569,1.2.015,1.07.656,1.147,1.466,1.146q9.855-.012,19.709,0c.793,0,1.466-.037,1.49-1.121.026-1.165-.676-1.231-1.544-1.227-3.259.015-6.517.006-9.776.006" transform="translate(-34.451 -10.956)" fill="#161615"/>
        <path id="Trazado_834675" data-name="Trazado 834675" d="M109.389,173.814c0,3.475-.033,6.95.015,10.424.021,1.468-.549,2.13-2.048,2.089-2.052-.055-4.106-.046-6.159,0-1.446.03-2.145-.572-2.141-2.051q.024-10.5,0-21a1.794,1.794,0,0,1,2.023-2.047c2.053-.018,4.107-.037,6.159,0,1.729.028,2.136.447,2.145,2.174.019,3.475.006,6.949.006,10.424m-2.712-.027q0-3.311,0-6.621c0-3.167,0-3.115-3.2-3.112-1.306,0-1.733.456-1.717,1.754.058,4.834-.005,9.669.032,14.5.028,3.672-.655,3.212,3.4,3.294,1.235.025,1.511-.531,1.493-1.621-.045-2.732-.015-5.465-.013-8.2" transform="translate(-67.761 -110.271)" fill="#161615"/>
        <path id="Trazado_834676" data-name="Trazado 834676" d="M58.934,199.561c0-1.943.021-3.886-.006-5.828-.018-1.267.571-1.808,1.82-1.792q3.308.042,6.616,0c1.348-.02,1.9.645,1.895,1.93q-.013,5.75,0,11.5c0,1.385-.661,2-2.039,1.98-2.1-.031-4.2-.039-6.3,0-1.388.028-2.033-.542-2-1.963.045-1.942.011-3.885.012-5.828m2.709-.056c0,.579-.009,1.158,0,1.737.067,3.79-.616,3.324,3.5,3.384,1,.015,1.432-.331,1.4-1.371-.051-1.788.013-3.578-.018-5.367-.061-3.545.705-3.2-3.475-3.238-1-.008-1.455.354-1.417,1.383.044,1.156.01,2.315.006,3.473" transform="translate(-40.305 -131.299)" fill="#161615"/>
        <path id="Trazado_834677" data-name="Trazado 834677" d="M104.4,68.239c-3.472,0-6.945.005-10.417-.006a7.829,7.829,0,0,1-1.565-.132,1.294,1.294,0,0,1-1.158-1.3A1.267,1.267,0,0,1,92.417,65.5a8.633,8.633,0,0,1,1.566-.136c6.84-.009,13.679-.024,20.518.013,1.137.006,2.842-.34,2.893,1.345.056,1.849-1.7,1.482-2.889,1.5-3.367.042-6.734.015-10.1.015" transform="translate(-62.431 -44.708)" fill="#161615"/>
        <path id="Trazado_834678" data-name="Trazado 834678" d="M104.491,82.229q5.287,0,10.575,0a3.826,3.826,0,0,1,1.7.239,1.278,1.278,0,0,1,.814,1.242,1.152,1.152,0,0,1-.908,1.156,10.049,10.049,0,0,1-2.028.227q-10.259.024-20.518,0c-1.114,0-2.669.229-2.7-1.4s1.513-1.445,2.641-1.455c3.472-.028,6.944-.01,10.417-.01" transform="translate(-62.546 -56.247)" fill="#161615"/>
        <path id="Trazado_834679" data-name="Trazado 834679" d="M104.479,49q5.517,0,11.033,0c.945,0,1.966.063,2.012,1.237.049,1.257-1,1.461-2.006,1.463q-11.112.018-22.224,0c-.957,0-1.91-.221-1.921-1.382-.011-1.206.954-1.322,1.915-1.32q5.6.011,11.191,0" transform="translate(-62.505 -33.516)" fill="#161615"/>
        <path id="Trazado_834680" data-name="Trazado 834680" d="M23.411,223.823q-1.731,0-3.461,0a1.593,1.593,0,0,1-1.78-1.743c-.035-1.415-.031-2.832,0-4.247a1.594,1.594,0,0,1,1.738-1.785c2.307-.008,4.615,0,6.922-.007a1.556,1.556,0,0,1,1.763,1.592c.07,1.516.073,3.041.008,4.557a1.606,1.606,0,0,1-1.883,1.641c-1.1-.023-2.2-.005-3.3-.007m-.1-2.737v.015c.312,0,.625-.011.937,0,.867.037,1.554-.081,1.529-1.221-.023-1.057-.677-1.138-1.472-1.122-.832.016-1.665.013-2.5.014-.768,0-.95.466-.946,1.129,0,.632.1,1.165.888,1.181.52.01,1.041,0,1.561,0" transform="translate(-12.412 -147.786)" fill="#161615"/>
        <path id="Trazado_834681" data-name="Trazado 834681" d="M35.444,141.013q4.893,0,9.786,0c1,0,2.079.059,2.062,1.354-.017,1.264-1.1,1.364-2.09,1.364q-9.944,0-19.888,0c-1,0-2.049-.124-2.049-1.405,0-1.346,1.108-1.308,2.077-1.309q5.051,0,10.1,0" transform="translate(-15.915 -96.462)" fill="#161615"/>
        <path id="Trazado_834682" data-name="Trazado 834682" d="M35.166,126.776q-4.891,0-9.781,0c-.985,0-2.068-.053-2.085-1.345s1.055-1.377,2.048-1.377q9.939,0,19.877,0c.993,0,2.074.07,2.09,1.344s-1.053,1.381-2.054,1.381h-10.1" transform="translate(-15.939 -84.859)" fill="#161615"/>
        <path id="Trazado_834683" data-name="Trazado 834683" d="M99.661,101.853c-2.106,0-4.212-.007-6.318,0-.949,0-1.94-.066-1.976-1.269-.035-1.167.905-1.429,1.873-1.432q6.4-.018,12.793,0c.945,0,1.9.192,1.886,1.4-.018,1.243-1,1.294-1.94,1.293q-3.159,0-6.318,0" transform="translate(-62.501 -67.822)" fill="#161615"/>
        <path id="Trazado_834684" data-name="Trazado 834684" d="M30.651,157.971c1.785,0,3.571,0,5.356,0,.87,0,1.669.226,1.706,1.217.039,1.053-.771,1.453-1.693,1.46q-5.592.042-11.185,0c-.847-.007-1.606-.371-1.611-1.365,0-1.136.839-1.311,1.754-1.311h5.672" transform="translate(-15.888 -108.062)" fill="#161615"/>
      </g>
    </g>
  </g>
</svg>
