<svg xmlns="http://www.w3.org/2000/svg" xmlns:xlink="http://www.w3.org/1999/xlink" width="169" height="169" viewBox="0 0 169 169">
  <defs>
    <clipPath id="clip-path">
      <rect id="Rect치ngulo_379911" data-name="Rect치ngulo 379911" width="99.911" height="100.45" fill="none"/>
    </clipPath>
  </defs>
  <g id="Grupo_1081425" data-name="Grupo 1081425" transform="translate(-366.501 -857.215)">
    <g id="Grupo_159182" data-name="Grupo 159182" transform="translate(366.501 857.215)">
      <path id="Uni칩n_12" data-name="Uni칩n 12" d="M84.5,0A84.5,84.5,0,1,1,0,84.5,84.5,84.5,0,0,1,84.5,0Z" transform="translate(0 0)" fill="#ffae7e"/>
    </g>
    <g id="Grupo_1081376" data-name="Grupo 1081376" transform="translate(396.955 891.489)">
      <g id="Grupo_1081375" data-name="Grupo 1081375" clip-path="url(#clip-path)">
        <path id="Trazado_834871" data-name="Trazado 834871" d="M45.137,78.161c-.652,2.968-.2,5.972-.249,8.958-.018,1.145,1.169.859,1.84.918,3.774.332,7.553.692,11.337.818a19.643,19.643,0,0,1,12.312,4.314c.3-1.267.561-2.45,1.677-3.144a6.126,6.126,0,0,1,3.429-.532c2.549-.015,5.1,0,7.647,0,1.507,0,2.821.552,3.25,2.02.344,1.179.962,1.259,1.947,1.256,9.02-.026,18.039.028,27.058-.056,1.576-.015,1.9.444,1.891,1.937q-.1,14.312,0,28.625c.009,1.394-.387,1.718-1.741,1.709-8.954-.062-17.908-.019-26.862-.048-1.155,0-2.007.023-2.433,1.436-.391,1.3-1.635,1.768-2.991,1.766-2.614,0-5.229,0-7.843,0-3.706,0-4.4-.575-5.064-4.227a44.013,44.013,0,0,1-11.04,1.053c-7.189-.044-14.378,0-21.568-.016-4.82-.009-6.874-3.106-4.926-7.5a1.286,1.286,0,0,0-.185-1.374,4.57,4.57,0,0,1,.024-4.838c.416-.68.062-1.116-.042-1.729a15.133,15.133,0,0,0-3.232-6.684c-2.067-2.763.176-6.146,4.12-6.978a25.782,25.782,0,0,1-1.323-3.225c-.709-2.667-.061-4.183,2.306-5.853.3-.213.738-.27.7-.8-.188-2.573.4-5.179-.332-7.73-.827-2.254-2.147-4.3-2.631-6.708-1.031-5.134,1.089-9.38,5.583-10.593a12.451,12.451,0,0,0,4-1.929c1.724-1.215,1.827-2.1.427-3.636-2.6-2.856-2.859-5.243-1.129-8.767.535-1.09,1.006-1.294,2.036-.651.833.52,1.832.692.948,2.079-.946,1.485-1.438,3.122.161,4.6A10.8,10.8,0,0,1,46.422,56.1a5.162,5.162,0,0,1-1.607,4.619c-.784.665-.682.965.083,1.568,2.659,2.092,3.459,4.875,3.036,8.192-.358,2.8-1.73,5.172-2.8,7.682m25.411,30.987a55.091,55.091,0,0,1,.063-7.443c.519-3.778-1.462-5.838-4.344-7.5a13.224,13.224,0,0,0-5.326-1.83c-7.984-.792-16.063-.726-23.916-2.716-1.554-.394-1.981.57-1.794,1.931A5.186,5.186,0,0,0,40.3,95.932c1.958.069,3.923.059,5.883.009a6.4,6.4,0,0,1,6.164,3.4,5.255,5.255,0,0,0,4.3,2.976c1.82.155.844,1.575.983,2.421.172,1.042-.668.868-1.321.8a8.055,8.055,0,0,1-6.593-4.324,3.725,3.725,0,0,0-3.868-2.076c-.371.027-.95-.083-.924.437.061,1.26-.749,2.7.913,3.659a3.774,3.774,0,0,1,2.124,4.094c-.609,2.174.005,4.206-.116,6.207a34.606,34.606,0,0,0,.095,6.8c.179,1.343.543,1.4,1.563,1.4,4.184-.031,8.368.021,12.551-.031a33.24,33.24,0,0,0,7.183-.858,1.425,1.425,0,0,0,1.329-1.7c-.063-3.332-.024-6.667-.024-10m12.9,6.274c0-2.807.016-5.614-.016-8.421-.006-.456.3-1.291-.409-1.294-1.248-.006-2.679-.753-3.65.911a4.285,4.285,0,0,1-4.5,2.145c-.925-.127-1.121.084-1.116.946.027,4.635.035,9.27,0,13.905-.009,1,.293,1.382,1.336,1.353,2.348-.065,4.7-.069,7.05,0,1.032.031,1.352-.292,1.328-1.321-.063-2.74-.021-5.483-.022-8.225m3.957-19.329c.188.611.364,1.226.565,1.832q3.263,9.84,6.533,19.676c1.393,4.192,1.395,4.149,5.82,4.153,1.407,0,1.822-.2,1.286-1.738-2.191-6.278-4.242-12.606-6.342-18.916-1.811-5.441-1.809-5.442-7.562-5.092a2.037,2.037,0,0,0-.3.084m20.752,25.636h1.332c2.324,0,2.321,0,1.573-2.242q-3.211-9.627-6.417-19.256c-1.444-4.343-1.439-4.293-6.024-4.306-1.4,0-1.606.278-1.147,1.615,2.429,7.077,4.84,14.162,7.073,21.3.673,2.15,1.4,3.617,3.61,2.887M40.078,76.6c.784-.144,1.836.51,2.425-.57a15.1,15.1,0,0,0,2.314-7.354,4.817,4.817,0,1,0-9.63.074A13.766,13.766,0,0,0,36.7,74.54c.674,1.516,1.441,2.634,3.376,2.062m66.58,19.438,7.065,21.15c.318-4.922.364-9.752.3-14.58-.029-2.189.992-5.281-.412-6.327-1.463-1.09-4.369-.243-6.951-.243M83.452,97.284c-.138-1.268.671-3.289-.315-4.239s-2.978-.264-4.528-.273c-5.361-.033-5.34-.015-4.853,5.44.077.869.316,1.061,1.18.977a4.389,4.389,0,0,1,4.478,2.216c.923,1.612,2.337.93,3.482.84,1.1-.086.438-1.269.528-1.946a24.872,24.872,0,0,0,.029-3.016m3.518,7.832-.332.13v12.147c0,4.538,0,4.538,4.571,4.348.2-.008.392-.011.588-.007.585.013.616-.3.465-.751q-2.649-7.932-5.292-15.865m-46.991,16.61c1.044,0,2.092.044,3.133-.013a1.58,1.58,0,0,0,1.679-1.571,1.517,1.517,0,0,0-1.56-1.67c-2.151-.073-4.309-.072-6.46,0a1.51,1.51,0,0,0-1.58,1.644,1.568,1.568,0,0,0,1.656,1.586c1.039.079,2.088.018,3.133.018m.015-6.506c1.039,0,2.077.009,3.116,0a1.575,1.575,0,1,0,.078-3.148c-2.142-.035-4.285-.046-6.426,0a1.457,1.457,0,0,0-1.547,1.628,1.488,1.488,0,0,0,1.663,1.516c1.038.016,2.077,0,3.116.005m-.064-6.381v-.01c1.1,0,2.214.066,3.312-.02a1.52,1.52,0,0,0,1.522-1.688,1.426,1.426,0,0,0-1.51-1.469c-2.143-.037-4.288-.048-6.431-.009a1.474,1.474,0,0,0-1.619,1.568,1.542,1.542,0,0,0,1.609,1.611c1.034.08,2.078.018,3.118.018m1.632-25.161c0-.583.006-1.167,0-1.75-.013-1.046.363-2.114-1.513-2.139s-1.738.95-1.694,2.163a19.46,19.46,0,0,1-.015,3.108c-.243,1.935,1.158,1.893,2.331,1.973,1.535.1.7-1.156.866-1.8a6.409,6.409,0,0,0,.025-1.549m-1.733,15.5c-1.012-.344-1.585-.079-1.479,1.159.085.985-.343,2.183,1.443,2.022,1.033-.093,1.892.055,1.815-1.489-.063-1.27-.23-2.07-1.779-1.693m-4.659,1.647c-.119-.7.47-1.808-1.06-1.71-1.073.069-2.005.269-2.09,1.538s.755,1.6,1.876,1.708c1.266.117,1.423-.536,1.273-1.535M75.4,102.363a1.608,1.608,0,0,0-1.572,1.681,1.465,1.465,0,0,0,1.5,1.517A1.489,1.489,0,0,0,77,104.022c.029-.982-.627-1.522-1.6-1.659" transform="translate(-17.365 -27.688)" fill="#060504"/>
        <path id="Trazado_834872" data-name="Trazado 834872" d="M31.955,32.068c-1.6-1.475-1.108-3.111-.161-4.6.884-1.387-.115-1.558-.948-2.079-1.031-.644-1.5-.439-2.037.651-1.73,3.524-1.474,5.911,1.129,8.767,1.4,1.536,1.3,2.421-.426,3.636a12.442,12.442,0,0,1-4,1.929c-4.494,1.213-6.614,5.459-5.583,10.593.484,2.41,1.8,4.454,2.631,6.709l-5.985.031c.028-1.171-.414-1.606-1.707-1.688a6.452,6.452,0,0,1-6.107-4.7,6.262,6.262,0,0,1,1.8-6.974,19.662,19.662,0,0,0,4.741-5.632,4.839,4.839,0,0,1,.981,2.916c-.107,1.926,1.1,1.881,2.407,1.759,1.8-.168.783-1.418.8-2.223.019-.831-.575-1.65.791-2.174,4.535-1.739,5.532-5.764,2.472-9.478a5.062,5.062,0,0,1-.569-6.49A20.359,20.359,0,0,0,23.8,19.685a14.965,14.965,0,0,0,.284-7.938,3.4,3.4,0,0,1,3.281,2.594c.32,1.353,1.024,1.591,2.146,1.533A7.144,7.144,0,0,0,31,18.7c-.467,1.277-.387,2,1.285,2.39,3.851.906,4.65,4.087,1.823,6.921-.852.855-1.061,1.48-.121,2.3a5.508,5.508,0,0,1-2.034,1.752" transform="translate(-5.089 -7.136)" fill="#f9806c"/>
        <path id="Trazado_834873" data-name="Trazado 834873" d="M69.41,85.99c1.067-2.51,2.439-4.882,2.8-7.682.424-3.317-.377-6.1-3.036-8.192-.765-.6-.867-.9-.083-1.568a5.162,5.162,0,0,0,1.607-4.619,14.448,14.448,0,0,0,4.775-2.048c.281,1.6,1.1,1.549,2.278.825a7.956,7.956,0,0,0,3.3-3.5c.442-1,.864-.87,1.555-.312a1.844,1.844,0,0,1,.29,3.009c-.427.491-.935.911-1.355,1.407a4.393,4.393,0,0,0,1.655,7.106c.773.335,1.6.539,2.389.847a6.851,6.851,0,0,1,4.434,6.892,6.676,6.676,0,0,1-5.643,6.12,17.544,17.544,0,0,1-4.083.161c-1.35-.1-1.712.5-1.633,1.668L69.41,85.99M81.924,75.455c.033-2.735-1.886-4.541-4.3-6.085-.9-.577-1.307-.51-2,.355-1.126,1.407-.5,1.965.721,2.752,3.425,2.2,3.279,5.246-.369,6.875-1.571.7-.4,1.487-.325,2.195.077.737.4,1.239,1.445.9a6.95,6.95,0,0,0,4.827-6.99" transform="translate(-41.637 -35.517)" fill="#f97f6c"/>
        <path id="Trazado_834874" data-name="Trazado 834874" d="M24.424,8.738C23.3,8.8,22.6,8.559,22.278,7.206A3.4,3.4,0,0,0,19,4.612a14.965,14.965,0,0,1-.284,7.938A20.358,20.358,0,0,1,17.1,15.89a5.061,5.061,0,0,0,.569,6.49c3.06,3.715,2.064,7.739-2.472,9.478-1.367.524-.772,1.343-.791,2.174-.018.806,1,2.055-.8,2.223-1.306.122-2.514.166-2.407-1.759a4.84,4.84,0,0,0-.981-2.916,19.667,19.667,0,0,1-4.741,5.633,6.262,6.262,0,0,0-1.8,6.974,6.453,6.453,0,0,0,6.108,4.7c1.293.082,1.735.518,1.707,1.688.04,1.325-.535,1.77-1.89,1.609-4.1-.489-7.158-2.428-8.726-6.3s-1.1-7.715,1.945-10.49A17.816,17.816,0,0,0,8.878,25.068,10.622,10.622,0,0,1,11.9,28.1c.9,1.512,1.99.985,2.993.445a2.124,2.124,0,0,0,1.058-2.978,9.787,9.787,0,0,0-1.137-1.576c-2.063-2.755-2.726-5.919-.917-8.8,3.064-4.875,2.777-9.444-.084-14.142-.132-.216-.221-.458-.5-1.05,2.937.733,5.72.817,8.258,1.958a7.234,7.234,0,0,1,4.149,5.355c.279,1.229-.3,1.468-1.3,1.425" transform="translate(0 -0.001)" fill="#070505"/>
        <path id="Trazado_834875" data-name="Trazado 834875" d="M88.881,76.726c-.079-1.166.283-1.764,1.633-1.667A17.523,17.523,0,0,0,94.6,74.9a6.675,6.675,0,0,0,5.642-6.12,6.85,6.85,0,0,0-4.434-6.892c-.786-.309-1.616-.512-2.39-.847a4.393,4.393,0,0,1-1.654-7.106c.42-.5.928-.916,1.355-1.407a1.843,1.843,0,0,0-.29-3.009c-.691-.557-1.113-.686-1.555.312a7.951,7.951,0,0,1-3.3,3.5c-1.179.725-2,.772-2.278-.825.072-.591-.9-1.255.256-1.786,2.386-1.1,3.174-3.117,3-5.623-.035-.518-.005-1.04-.005-2.068,2.566,1.9,5.307,3.006,7.165,5.3A4.667,4.667,0,0,1,96,54.139a13.187,13.187,0,0,1-1.065,1.145c-1.641,1.693-1.5,2.337.668,3.093.553.193,1.1.4,1.644.621a10.024,10.024,0,0,1,6.107,10.9,10.146,10.146,0,0,1-9.5,8.384c-1.107.054-2.229-.075-3.326.043-1.3.14-1.766-.382-1.648-1.6" transform="translate(-51.865 -26.133)" fill="#080606"/>
        <path id="Trazado_834876" data-name="Trazado 834876" d="M68.616,39.453c-.941-.822-.732-1.447.121-2.3,2.826-2.834,2.027-6.014-1.823-6.921-1.672-.394-1.752-1.113-1.285-2.39.165-.614.2-1.163,1.208-1.03A7.533,7.533,0,0,1,73.4,32.335a7.724,7.724,0,0,1-2.916,7.743c-1.082.829-1.209-.555-1.87-.625" transform="translate(-39.715 -16.273)" fill="#080606"/>
        <path id="Trazado_834877" data-name="Trazado 834877" d="M80.765,177.211c0,3.334-.04,6.668.024,10a1.426,1.426,0,0,1-1.329,1.7,33.242,33.242,0,0,1-7.183.858c-4.183.052-8.367,0-12.551.031-1.02.007-1.385-.054-1.563-1.4a34.6,34.6,0,0,1-.095-6.8c.121-2-.493-4.033.116-6.207A3.774,3.774,0,0,0,56.06,171.3c-1.663-.954-.853-2.4-.913-3.659-.025-.52.554-.41.924-.437a3.725,3.725,0,0,1,3.868,2.076,8.053,8.053,0,0,0,6.593,4.324c.653.066,1.493.24,1.321-.8-.14-.846.837-2.266-.983-2.421a5.256,5.256,0,0,1-4.3-2.976,6.4,6.4,0,0,0-6.164-3.4c-1.96.05-3.924.06-5.883-.01a5.186,5.186,0,0,1-5.073-4.343c-.187-1.362.241-2.326,1.794-1.932,7.853,1.99,15.932,1.924,23.916,2.717a13.227,13.227,0,0,1,5.326,1.83c2.882,1.663,4.863,3.723,4.344,7.5a55.15,55.15,0,0,0-.063,7.443m-11.97,8c.576.159.791-.171,1.011-.638a8.721,8.721,0,0,1,4.194-4.2c1.741-.853.181-1.894,0-2.761-.24-1.151-1.085-.269-1.509-.069a11.381,11.381,0,0,0-5.2,4.857c-1.056,1.887-.636,2.675,1.5,2.813" transform="translate(-27.582 -95.751)" fill="#ecccb1"/>
        <path id="Trazado_834878" data-name="Trazado 834878" d="M153.351,208.19c0,2.742-.041,5.485.022,8.225.024,1.029-.3,1.352-1.328,1.321-2.348-.07-4.7-.067-7.05,0-1.043.029-1.345-.348-1.336-1.353.039-4.635.031-9.27,0-13.9-.005-.861.19-1.073,1.116-.946a4.285,4.285,0,0,0,4.5-2.145c.971-1.663,2.4-.917,3.65-.911.707,0,.4.838.409,1.294.032,2.807.016,5.614.016,8.421" transform="translate(-87.263 -120.456)" fill="#f6d26d"/>
        <path id="Trazado_834879" data-name="Trazado 834879" d="M178.427,173.922a2.093,2.093,0,0,1,.3-.084c5.753-.35,5.752-.349,7.562,5.092,2.1,6.31,4.151,12.637,6.342,18.916.536,1.537.121,1.739-1.286,1.738-4.425,0-4.427.039-5.82-4.153q-3.269-9.837-6.533-19.676c-.2-.607-.377-1.221-.565-1.832" transform="translate(-108.383 -105.518)" fill="#f6d26d"/>
        <path id="Trazado_834880" data-name="Trazado 834880" d="M214.421,199.624c-2.21.73-2.937-.737-3.61-2.887-2.233-7.14-4.644-14.225-7.073-21.3-.459-1.337-.253-1.619,1.147-1.615,4.585.013,4.58-.037,6.025,4.306q3.2,9.631,6.417,19.256c.748,2.242.751,2.241-1.574,2.242h-1.332" transform="translate(-123.624 -105.585)" fill="#f8e4a3"/>
        <path id="Trazado_834881" data-name="Trazado 834881" d="M50.289,104.761c-1.935.572-2.7-.546-3.376-2.062A13.755,13.755,0,0,1,45.4,96.91a4.817,4.817,0,1,1,9.63-.074,15.108,15.108,0,0,1-2.315,7.355c-.589,1.08-1.641.426-2.425.57" transform="translate(-27.576 -55.846)" fill="#f66b4f"/>
        <path id="Trazado_834882" data-name="Trazado 834882" d="M227.462,173.635c2.582,0,5.488-.847,6.951.243,1.4,1.046.383,4.138.412,6.327.065,4.828.02,9.658-.3,14.58l-7.065-21.15" transform="translate(-138.169 -105.282)" fill="#f9d46e"/>
        <path id="Trazado_834883" data-name="Trazado 834883" d="M153.033,169.958a24.791,24.791,0,0,1-.029,3.016c-.089.677.574,1.86-.528,1.946-1.144.089-2.559.772-3.482-.84a4.389,4.389,0,0,0-4.478-2.217c-.863.084-1.1-.108-1.18-.977-.486-5.455-.508-5.473,4.854-5.44,1.55.009,3.555-.663,4.527.273s.178,2.971.315,4.239" transform="translate(-86.945 -100.361)" fill="#f6d26d"/>
        <path id="Trazado_834884" data-name="Trazado 834884" d="M176.8,197.238q2.645,7.933,5.292,15.865c.15.45.119.764-.465.751-.2,0-.392,0-.588.007-4.571.19-4.571.19-4.571-4.348V197.368l.332-.13" transform="translate(-107.191 -119.81)" fill="#efdb9d"/>
        <path id="Trazado_834885" data-name="Trazado 834885" d="M50.2,234.432c-1.045,0-2.094.06-3.132-.018a1.568,1.568,0,0,1-1.656-1.586,1.51,1.51,0,0,1,1.58-1.644c2.152-.077,4.309-.078,6.461,0a1.517,1.517,0,0,1,1.559,1.67,1.58,1.58,0,0,1-1.679,1.57c-1.041.058-2.088.013-3.133.013" transform="translate(-27.582 -140.394)" fill="#dbbea5"/>
        <path id="Trazado_834886" data-name="Trazado 834886" d="M50.25,218.053c-1.039,0-2.077.012-3.116,0a1.487,1.487,0,0,1-1.663-1.516,1.457,1.457,0,0,1,1.546-1.628c2.141-.049,4.284-.037,6.426,0a1.575,1.575,0,1,1-.078,3.148c-1.038.011-2.077,0-3.116,0" transform="translate(-27.62 -130.521)" fill="#ecccb1"/>
        <path id="Trazado_834887" data-name="Trazado 834887" d="M50.168,201.737c-1.04,0-2.084.062-3.118-.018a1.542,1.542,0,0,1-1.609-1.611,1.474,1.474,0,0,1,1.619-1.568c2.143-.039,4.288-.027,6.431.009A1.426,1.426,0,0,1,55,200.018a1.52,1.52,0,0,1-1.522,1.688c-1.1.086-2.207.02-3.312.02v.01" transform="translate(-27.603 -120.586)" fill="#e6c8ad"/>
        <path id="Trazado_834888" data-name="Trazado 834888" d="M56.611,136.608a6.385,6.385,0,0,1-.025,1.549c-.167.649.67,1.909-.866,1.805-1.174-.08-2.574-.038-2.332-1.973a19.413,19.413,0,0,0,.015-3.108c-.044-1.213-.193-2.188,1.694-2.162s1.5,1.093,1.513,2.139c.007.583,0,1.167,0,1.75" transform="translate(-32.414 -80.618)" fill="#c99a73"/>
        <path id="Trazado_834889" data-name="Trazado 834889" d="M54.918,181.908c1.549-.377,1.716.422,1.779,1.693.077,1.544-.782,1.4-1.815,1.489-1.787.16-1.359-1.037-1.443-2.022-.106-1.237.467-1.5,1.479-1.159" transform="translate(-32.453 -110.413)" fill="#c99a73"/>
        <path id="Trazado_834890" data-name="Trazado 834890" d="M40.476,183.661c.149,1-.007,1.652-1.273,1.535-1.122-.1-1.962-.424-1.876-1.708s1.016-1.469,2.089-1.537c1.53-.1.941,1.013,1.06,1.71" transform="translate(-22.67 -110.52)" fill="#e6c8ad"/>
        <path id="Trazado_834891" data-name="Trazado 834891" d="M145.4,190.224c.967.137,1.624.677,1.595,1.659a1.489,1.489,0,0,1-1.672,1.539,1.465,1.465,0,0,1-1.5-1.517,1.608,1.608,0,0,1,1.575-1.681" transform="translate(-87.365 -115.549)" fill="#edb926"/>
        <path id="Trazado_834892" data-name="Trazado 834892" d="M91.965,91.742a6.95,6.95,0,0,1-4.827,6.99c-1.049.341-1.367-.161-1.445-.9-.075-.708-1.246-1.494.325-2.195,3.648-1.629,3.794-4.671.369-6.875-1.223-.787-1.847-1.345-.721-2.752.692-.865,1.1-.932,2-.355,2.413,1.544,4.332,3.35,4.3,6.085" transform="translate(-51.679 -51.803)" fill="#070505"/>
        <path id="Trazado_834893" data-name="Trazado 834893" d="M101.8,215.232c-2.138-.14-2.558-.927-1.5-2.814a11.381,11.381,0,0,1,5.2-4.857c.424-.2,1.269-1.081,1.509.069.181.867,1.741,1.908,0,2.761a8.718,8.718,0,0,0-4.193,4.2c-.221.467-.437.8-1.01.639" transform="translate(-60.589 -125.77)" fill="#080606"/>
      </g>
    </g>
  </g>
</svg>
