<svg xmlns="http://www.w3.org/2000/svg" xmlns:xlink="http://www.w3.org/1999/xlink" width="129" height="128" viewBox="0 0 129 128">
  <defs>
    <clipPath id="clip-path">
      <rect id="Rect치ngulo_379918" data-name="Rect치ngulo 379918" width="76.803" height="76.955" fill="none"/>
    </clipPath>
  </defs>
  <g id="Grupo_1081410" data-name="Grupo 1081410" transform="translate(-389 -1026)">
    <g id="Grupo_108927" data-name="Grupo 108927" transform="translate(-1 -3441)">
      <path id="Rect치ngulo_36179" data-name="Rect치ngulo 36179" d="M0,0H129V128H0Z" transform="translate(390 4467)" fill="#c1e29a"/>
    </g>
    <g id="Grupo_1081394" data-name="Grupo 1081394" transform="translate(415.099 1051.523)">
      <g id="Grupo_1081393" data-name="Grupo 1081393" clip-path="url(#clip-path)">
        <path id="Trazado_835011" data-name="Trazado 835011" d="M61.089,21.214c1.193,1.764,2.274,3.245,3.174,4.844C76.041,47,62.728,73.578,38.908,76.658A34.275,34.275,0,0,1,.367,47.528c-2.709-17.876,9.916-35.392,27.758-38.51a33.91,33.91,0,0,1,25.786,5.6c.4.271.8.858,1.269.643.591-.273.331-1,.269-1.5a9.179,9.179,0,0,1,3.524-8.593C60.524,3.848,61.888,2.3,63.341.86A2.029,2.029,0,0,1,65.615.129c.94.374,1.038,1.229,1.1,2.111.153,2.039.388,4.072.509,6.112.058.988.523,1.236,1.426,1.268,1.943.068,3.885.211,5.823.374.9.076,1.828.2,2.21,1.234.388,1.05-.289,1.7-.925,2.341-1.758,1.773-3.562,3.5-5.285,5.308a7.127,7.127,0,0,1-6.189,2.353c-.935-.094-1.888-.015-3.2-.015m-26.644-9.38a41.778,41.778,0,0,0-4.333.276A30.9,30.9,0,1,0,39.5,73.191c22.612-3.706,33.382-30.419,19.691-48.836-1.878-2.526-1.828-2.473-4.078-.34-.963.913-.85,1.471-.084,2.452a25.534,25.534,0,0,1,5.429,19.648,26.324,26.324,0,0,1-29.58,22.743C11.616,66.343,1.585,44.39,12.312,28.237c1.095-1.649,1.962-2.053,2.955-1.378s.919,1.524-.186,3.259a22.573,22.573,0,0,0-3.6,15.262A23.065,23.065,0,0,0,37.08,65.613C53.907,63.658,62.931,44.3,53.58,30.134c-2.207-3.343-1.74-2.624-4.178-.39a1.294,1.294,0,0,0-.174,2.11,18.132,18.132,0,0,1,3.6,10.307,15.838,15.838,0,0,1-.923,6.184,1.627,1.627,0,0,1-1.962,1.227,1.5,1.5,0,0,1-1.283-1.61,6.624,6.624,0,0,1,.311-1.459,14.8,14.8,0,0,0-1.31-10.888c-1.417-2.7-1.411-2.654-3.6-.531-.871.844-1.173,1.509-.441,2.676a9.546,9.546,0,0,1,1.113,6.809,10.562,10.562,0,1,1-20.324-5.455,10.387,10.387,0,0,1,14.211-5.966c1.494.724,2.373.541,3.279-.66a4.374,4.374,0,0,1,.738-.744c.9-.733.668-1.243-.224-1.8A15.181,15.181,0,0,0,19.517,45.808c2.107,9.552,11.83,14.491,21.069,10.68,1.118-.461,2.2-.751,2.816.578.632,1.371-.388,2-1.451,2.475a18.446,18.446,0,0,1-10.671,1.429A18.688,18.688,0,0,1,16.325,46.922,18.483,18.483,0,0,1,43.619,26.774c2.594,1.52,2.558,1.484,4.692-.68.809-.821.635-1.231-.209-1.83a22.87,22.87,0,0,0-16.525-4.371,28.406,28.406,0,0,0-4.955,1.119,1.658,1.658,0,0,1-1.894-.518,1.441,1.441,0,0,1-.248-1.669,2.559,2.559,0,0,1,1.812-1.2,25.924,25.924,0,0,1,23.125,3.5c2.312,1.559,2.251,1.529,4.231-.366,1.017-.974.855-1.532-.182-2.331a30.656,30.656,0,0,0-19.022-6.6M33.063,49.867c6.429-.019,9.89-5.128,7.979-9.846-.373-.92-.728-1.238-1.537-.371-1.088,1.166-2.241,2.271-3.382,3.387-.812.794-1.761,1.366-2.729.371-.917-.942-.519-1.915.322-2.752,1.06-1.056,2.125-2.106,3.168-3.179.964-.992.9-1.259-.439-1.629a6.915,6.915,0,0,0-7.576,2.21,6.765,6.765,0,0,0-1.074,7.682c1.256,2.744,3.515,4.107,5.268,4.126M71.424,13.223c-1.755-.169-3.034-.3-4.314-.412a1.194,1.194,0,0,0-.98.284q-2.029,2-4.037,4.013c-.275.277-.43.757.1.773,1.713.051,3.558.613,5.052-.659,1.36-1.158,2.593-2.467,4.181-4M63.346,5.917c-3.9,2.564-5.241,5.463-4.106,9.347,1.049-1.1,1.988-2.108,2.957-3.089,1.861-1.885,2.2-3.7,1.149-6.258" transform="translate(0 0)"/>
        <path id="Trazado_835012" data-name="Trazado 835012" d="M60.786,72.126a1.59,1.59,0,1,1,3.179,0,1.482,1.482,0,0,1-1.588,1.609,1.512,1.512,0,0,1-1.591-1.6" transform="translate(-42.567 -49.372)"/>
        <path id="Trazado_835013" data-name="Trazado 835013" d="M155.359,174.79c-.1,1.085-.647,1.659-1.648,1.63a1.463,1.463,0,0,1-1.56-1.619,1.5,1.5,0,0,1,1.636-1.564,1.526,1.526,0,0,1,1.572,1.553" transform="translate(-106.547 -121.313)"/>
      </g>
    </g>
  </g>
</svg>
