<svg xmlns="http://www.w3.org/2000/svg" xmlns:xlink="http://www.w3.org/1999/xlink" width="129" height="128" viewBox="0 0 129 128">
  <defs>
    <clipPath id="clip-path">
      <rect id="Rect치ngulo_379919" data-name="Rect치ngulo 379919" width="76.803" height="76.703" fill="none"/>
    </clipPath>
  </defs>
  <g id="Grupo_1081411" data-name="Grupo 1081411" transform="translate(-389 -1207)">
    <g id="Grupo_108927" data-name="Grupo 108927" transform="translate(-1 -3260)">
      <path id="Rect치ngulo_36179" data-name="Rect치ngulo 36179" d="M0,0H129V128H0Z" transform="translate(390 4467)" fill="#c1e29a"/>
    </g>
    <g id="Grupo_1081396" data-name="Grupo 1081396" transform="translate(415.099 1232.648)">
      <g id="Grupo_1081395" data-name="Grupo 1081395" transform="translate(0 0)" clip-path="url(#clip-path)">
        <path id="Trazado_835014" data-name="Trazado 835014" d="M72.188,65.832c-2.915,2.93-5.784,5.82-8.66,8.7-2.023,2.029-2.272,2.026-4.3,0Q51.261,66.569,43.293,58.6c-1.612-1.614-1.607-2.013.027-3.651q4.956-4.968,9.925-9.923c1.439-1.432,2.043-1.426,3.482-.013.852.837,1.708,1.672,2.532,2.536.489.513.884.5,1.364-.017q2.593-2.787,5.224-5.538a2.467,2.467,0,0,0,.471-1.53A9.084,9.084,0,0,1,84.195,39.4a9.02,9.02,0,0,1-7.245,11,5.3,5.3,0,0,0-3.1,1.569c-1.4,1.417-2.864,2.764-4.338,4.1-.678.616-.64,1.083-.015,1.725.891.917,1.686,1.927,2.521,2.9l.575-.319c0-1.116.04-2.235-.011-3.348-.053-1.156.3-1.73,1.595-1.722s1.447.707,1.446,1.716q-.014,12.243,0,24.485c0,1.343,0,2.687-.035,4.03-.035,1.308-.638,1.961-2.049,1.959q-24.485-.036-48.97,0c-1.107,0-1.624-.281-1.616-1.5.009-1.344.794-1.38,1.764-1.379q22.768.009,45.536,0c2.342,0,2.343,0,2.344-2.379q0-7.689-.005-15.378a1.085,1.085,0,0,0-.4-1.033M75.376,35.41a6.023,6.023,0,0,0-6.194,5.928,3.635,3.635,0,0,1-1.077,2.5c-2.989,3.121-5.921,6.3-8.924,9.405-.714.739-.781,1.238.012,1.933a25.628,25.628,0,0,1,2.524,2.531c.708.823,1.189.679,1.909-.016,3.072-2.968,6.22-5.858,9.3-8.822a4.273,4.273,0,0,1,2.9-1.275,6.1,6.1,0,0,0-.444-12.187M58.037,50.076a25.994,25.994,0,0,1-2.12-1.833c-.652-.69-1.122-.775-1.812-.033-1.25,1.347-2.555,2.647-3.9,3.9-.694.648-.589,1.077.032,1.694q6.987,6.934,13.916,13.924c.8.805,1.356.76,2.076-.041.8-.886,1.677-1.7,2.52-2.541,2.021-2.021,2.021-2.021.052-3.989-2.239-2.239-2.239-2.239-4.59-.05-1.362,1.268-1.865,1.261-3.237-.093-1.416-1.4-2.815-2.809-4.221-4.215-2.536-2.536-2.532-2.532,0-5.173a5.279,5.279,0,0,0,1.283-1.552m-10.8,5.253a3.036,3.036,0,0,0-1.311,1.138c-.4.515.129.809.421,1.1Q53.354,64.6,60.37,71.619c.638.642,1.115.822,1.849.1.711-.705.633-1.165-.039-1.831q-7-6.935-13.945-13.919c-.275-.274-.52-.617-1-.635" transform="translate(-7.652 -10.797)"/>
        <path id="Trazado_835015" data-name="Trazado 835015" d="M29.221,15.233c.2-2.376,1.51-3.524,3.658-4.01,1.036-.234,1.88-1.135,3.043-1.1,1.548.053,2.7,1.177,4.162,1.54,1.565.387,2.167,1.744,2.4,3.284.061.408.448.76.656,1.154a3.763,3.763,0,0,1-.009,3.707c-.069.131-.217.241-.237.375-.447,2.966-2.611,4.107-5.11,5.057a4.105,4.105,0,0,1-3.831-.045c-.256-.151-.479-.367-.746-.492-1.746-.817-2.2-.582-2.555,1.3a15.651,15.651,0,0,1-15.5,12.545,15.655,15.655,0,0,1-15-13.319,15.476,15.476,0,0,1,27.913-11.16c.278.387.415.918,1.162,1.162m-1.269,7.832A12.393,12.393,0,0,0,15.522,10.507,12.559,12.559,0,1,0,27.952,23.065m10.08-1.594c1.232.278,1.23-.3,1.471-1.158.426-1.524,1.214-2.715.025-4.454-.519-.758-.655-1.184-1.629-1.572-1.437-.574-2.4-.956-3.982-.05a3.234,3.234,0,0,0-1.777,1.83c-.644,1.448-.816,2.277,0,3.76.515.935.217,2.055,1.843,1.691.485-.109.873.393,1.175.808.477.656.959.628,1.421-.021a1.55,1.55,0,0,1,1.453-.834" transform="translate(0 -2.532)"/>
        <path id="Trazado_835016" data-name="Trazado 835016" d="M40.3,90.729q-12.164,0-24.328,0c-2.293,0-2.68-.352-2.685-2.681-.017-9.652,0-19.3-.015-28.955,0-1.086.178-1.767,1.544-1.762,1.4,0,1.5.749,1.5,1.806q-.02,13.357-.005,26.716c0,2,.007,2.005,1.963,2.006q22.014,0,44.028,0c1.97,0,1.971-.007,1.978-1.987.005-1.492.023-2.985,0-4.477-.014-1.034.6-1.233,1.455-1.226s1.432.221,1.418,1.256c-.035,2.537-.019,5.075-.01,7.612.006,1.555-1,1.7-2.215,1.7q-12.314-.022-24.627-.007" transform="translate(-4.426 -19.121)"/>
        <path id="Trazado_835017" data-name="Trazado 835017" d="M34.578.021C40.8.021,47.013.045,53.23,0a3.7,3.7,0,0,1,2.891,1.206q4.909,5.009,9.917,9.919a3.3,3.3,0,0,1,1.1,2.635c-.061,1.888-.048,3.78-.009,5.669.021.983-.437,1.317-1.349,1.329-.927.013-1.556-.207-1.53-1.31.031-1.292-.031-2.587.009-3.879.03-.962-.362-1.326-1.324-1.31-2.486.039-4.973.015-7.461.01-2.367,0-2.607-.254-2.611-2.69s-.036-4.875.013-7.311c.021-1.036-.364-1.4-1.392-1.394q-16.935.034-33.871.018c-.491,0-1.016-.051-1.306.5-.6,1.146-1.739.888-2.485.558-.983-.437-.533-1.568-.467-2.421a1.488,1.488,0,0,1,1.679-1.5q7.089.006,14.175,0h5.372M55.744,5.462v4.965c0,.586.249.952.874.954,1.712.006,3.423,0,5.031,0l-5.9-5.922" transform="translate(-4.4 0)"/>
        <path id="Trazado_835018" data-name="Trazado 835018" d="M53.265,91.459c-2.387,0-4.775.021-7.161-.009-1.586-.019-2.053-.487-2.065-2.06-.023-2.984.013-5.968-.015-8.952-.013-1.352.533-2.044,1.942-2.022,1.989.031,3.98.037,5.968,0,1-.02,1.276.442,1.278,1.362,0,.942-.205,1.546-1.3,1.516-1.193-.033-2.389.035-3.58-.009-.986-.037-1.478.278-1.437,1.354.057,1.54.059,3.085,0,4.624-.042,1.079.442,1.354,1.433,1.346,4.028-.035,8.057-.007,12.085-.018.948,0,1.753-.035,1.77,1.341.016,1.348-.635,1.565-1.75,1.545-2.386-.043-4.774-.013-7.161-.014" transform="translate(-14.683 -26.152)"/>
        <path id="Trazado_835019" data-name="Trazado 835019" d="M98.532,15.136c0,1.74-.029,3.48.011,5.22.025,1.132-.4,1.582-1.582,1.566-1.137-.015-1.47-.5-1.458-1.535.028-2.684-.064-5.371.035-8.052.053-1.455-.457-1.964-1.88-1.845-.829.069-1.894.31-1.98-1.112-.067-1.109.164-1.848,1.522-1.747,1.038.077,2.087,0,3.131.018,1.655.024,2.113.424,2.174,2.12.064,1.788.015,3.579.015,5.369Z" transform="translate(-30.572 -2.541)"/>
        <path id="Trazado_835020" data-name="Trazado 835020" d="M32.608,65.938c-2.137,0-4.275-.027-6.412.009-1.16.019-1.4-.594-1.4-1.6s.409-1.441,1.414-1.438q6.412.024,12.824,0c1.084-.005,1.481.443,1.478,1.527S40.1,65.967,39.02,65.95c-2.137-.035-4.275-.011-6.412-.011" transform="translate(-8.269 -20.98)"/>
        <path id="Trazado_835021" data-name="Trazado 835021" d="M49.82,50.66c-2.139,0-4.277-.021-6.416.01-1.124.016-1.466-.551-1.449-1.579.016-.976.387-1.464,1.418-1.459q6.416.031,12.831,0c1.14-.007,1.414.548,1.416,1.578,0,1.014-.369,1.465-1.385,1.456-2.139-.019-4.277-.006-6.416,0" transform="translate(-13.993 -15.886)"/>
        <path id="Trazado_835022" data-name="Trazado 835022" d="M42.858,58.3c-1.689,0-3.378-.027-5.066.01-1.136.025-1.418-.541-1.414-1.574,0-1,.344-1.468,1.372-1.462,3.427.018,6.854.023,10.281,0,1.132-.009,1.428.541,1.422,1.575-.006,1-.353,1.477-1.38,1.463-1.738-.025-3.477-.007-5.215-.007" transform="translate(-12.133 -18.433)"/>
        <path id="Trazado_835023" data-name="Trazado 835023" d="M54.337,41.02c-1.74,0-3.48-.034-5.219.013-1.04.028-1.416-.424-1.413-1.42,0-.964.307-1.478,1.374-1.468q5.219.047,10.438,0c1.034-.009,1.417.434,1.412,1.43,0,.962-.3,1.489-1.374,1.459-1.738-.049-3.479-.013-5.219-.013" transform="translate(-15.911 -12.722)"/>
        <path id="Trazado_835024" data-name="Trazado 835024" d="M29.961,81.285c-1.243,0-2.487-.026-3.73.009-1.007.027-1.44-.39-1.43-1.415.009-.958.274-1.486,1.358-1.469q3.952.064,7.906,0c1.085-.018,1.343.511,1.352,1.468.011,1.029-.423,1.44-1.428,1.414-1.342-.033-2.685-.008-4.028-.008" transform="translate(-8.271 -26.151)"/>
        <path id="Trazado_835025" data-name="Trazado 835025" d="M30.166,86.064c1.343,0,2.687.029,4.029-.008,1.055-.03,1.21.587,1.218,1.436.007.881-.24,1.436-1.25,1.429-2.686-.018-5.373-.023-8.058,0-1.108.011-1.3-.614-1.3-1.538s.363-1.363,1.33-1.334c1.342.041,2.686.011,4.029.011" transform="translate(-8.274 -28.7)"/>
        <path id="Trazado_835026" data-name="Trazado 835026" d="M30.1,96.545c-1.344,0-2.688-.02-4.031.007-1.012.019-1.264-.542-1.256-1.423.008-.845.161-1.458,1.216-1.447,2.736.028,5.473.023,8.208,0,.945-.007,1.18.511,1.173,1.328s-.049,1.533-1.131,1.528c-1.394-.006-2.787,0-4.18,0v.006" transform="translate(-8.275 -31.245)"/>
        <path id="Trazado_835027" data-name="Trazado 835027" d="M28.752,73.58c-.791,0-1.584-.023-2.373.007-.992.039-1.582-.235-1.592-1.4-.01-1.127.389-1.653,1.538-1.633q2.521.043,5.044,0c1.112-.019,1.412.521,1.416,1.562,0,1.117-.465,1.51-1.512,1.467-.839-.035-1.681-.007-2.521-.006" transform="translate(-8.267 -23.531)"/>
        <path id="Trazado_835028" data-name="Trazado 835028" d="M55.731,86.06c.846,0,1.694.042,2.537-.01,1.082-.066,1.347.479,1.352,1.45.006,1.019-.387,1.447-1.408,1.426q-2.611-.053-5.224,0c-1.065.021-1.344-.509-1.353-1.481-.009-1.028.382-1.453,1.41-1.394.892.05,1.79.01,2.686.011" transform="translate(-17.221 -28.697)"/>
        <path id="Trazado_835029" data-name="Trazado 835029" d="M27.631,55.27c.4,0,.793.019,1.188,0,1.052-.057,1.5.379,1.516,1.48.013,1.174-.464,1.62-1.59,1.56a21.2,21.2,0,0,0-2.226,0c-1.121.059-1.748-.245-1.746-1.56,0-1.384.769-1.53,1.819-1.483.345.016.692,0,1.039,0" transform="translate(-8.262 -18.43)"/>
        <path id="Trazado_835030" data-name="Trazado 835030" d="M42.8,73.576c-.444,0-.889-.019-1.332,0-1.012.053-1.4-.423-1.408-1.421s.3-1.622,1.412-1.6c.69.016,1.382-.007,2.073-.009,1.054,0,2.073-.133,2.068,1.516s-1.01,1.524-2.071,1.512c-.247,0-.494,0-.74,0Z" transform="translate(-13.361 -23.53)"/>
        <path id="Trazado_835031" data-name="Trazado 835031" d="M10.272,28.944a3.3,3.3,0,0,1,1.711,1.381c.9,1.142,1.554,1.064,2.556.019,3.094-3.228,6.324-6.328,9.448-9.528.8-.824,1.342-.88,2.18-.041s.65,1.345-.089,2.074c-3.785,3.736-7.525,7.517-11.3,11.264-1.23,1.222-1.861,1.2-3.154-.022-.829-.786-1.631-1.6-2.425-2.424-.33-.341-.89-.68-.555-1.24a3.561,3.561,0,0,1,1.626-1.484" transform="translate(-2.849 -6.728)"/>
      </g>
    </g>
  </g>
</svg>
