<svg xmlns="http://www.w3.org/2000/svg" xmlns:xlink="http://www.w3.org/1999/xlink" width="169" height="169" viewBox="0 0 169 169">
  <defs>
    <clipPath id="clip-path">
      <rect id="Rect치ngulo_379914" data-name="Rect치ngulo 379914" width="87.499" height="87.429" fill="none"/>
    </clipPath>
  </defs>
  <g id="Grupo_1081428" data-name="Grupo 1081428" transform="translate(-3815.501 10842.785)">
    <g id="Grupo_1081372" data-name="Grupo 1081372" transform="translate(3430.5 -12900.785)">
      <g id="Grupo_159182" data-name="Grupo 159182" transform="translate(385.001 2058)">
        <path id="Uni칩n_12" data-name="Uni칩n 12" d="M84.5,0A84.5,84.5,0,1,1,0,84.5,84.5,84.5,0,0,1,84.5,0Z" transform="translate(0 0)" fill="#ffae7e"/>
      </g>
    </g>
    <g id="Grupo_1081382" data-name="Grupo 1081382" transform="translate(3856.251 -10802.001)">
      <g id="Grupo_1081381" data-name="Grupo 1081381" clip-path="url(#clip-path)">
        <path id="Trazado_834944" data-name="Trazado 834944" d="M2.937,45.086q0-17.5,0-34.99c0-.767.109-1.455-.8-2.031a4.123,4.123,0,0,1-1.9-4.993C.89,1.071,2.445.007,4.819.005Q20.689-.008,36.56,0q6.912,0,13.823,0c2.529,0,4.12,1.027,4.782,3.045.633,1.932.01,3.642-2.032,5.1a1.471,1.471,0,0,0-.644,1.425q.024,5.8.026,11.606a1.755,1.755,0,0,0,.5,1.372,1.149,1.149,0,0,1,.186,1.563c-.884.916-.673,1.987-.674,3.034q-.013,19.031-.018,38.062c0,1.1-.056,1.974,1.481,1.256a1.319,1.319,0,0,1,1.895.906,1.291,1.291,0,0,1-1.042,1.817c-2.325.285-2.456,1.735-2.351,3.6.128,2.269.062,4.55.024,6.826-.082,4.877-3.076,7.8-7.948,7.806q-16.895,0-33.789,0c-4.854,0-7.853-2.987-7.858-7.863q-.017-17.239,0-34.478ZM49.514,3.1c-.506-.05-1.013-.143-1.519-.144q-21.323-.012-42.645,0a9.538,9.538,0,0,0-1.19.056A1.234,1.234,0,0,0,3.008,4.272a1.279,1.279,0,0,0,.95,1.437A5.822,5.822,0,0,0,5.481,5.8q19.617.006,39.234,0c1.59,0,3.179-.057,4.769-.088.39.031.779.08,1.169.089.965.021,1.677-.315,1.692-1.406.016-1.108-.7-1.437-1.666-1.4-.389.013-.777.071-1.165.108M46.793,16.078c.453.214.926.394,1.355.647,1.1.646,1.465.352,1.4-.9-.078-1.58-.018-3.166-.018-4.75,0-2.351,0-2.351-2.419-2.231a2.094,2.094,0,0,0-.331.069c-7.049-.034-14.1-.079-21.147-.1q-9.128-.025-18.256.018c-.521,0-1.464-.429-1.5.556-.086,2.569-.029,5.144-.029,8.04a7.942,7.942,0,0,1,8.681-.1,3.794,3.794,0,0,0,3.752-.314,7.043,7.043,0,0,1,7.155,0,4.267,4.267,0,0,0,4.384.054,7.256,7.256,0,0,1,7.469.026,3.835,3.835,0,0,0,3.908.086,9.453,9.453,0,0,1,5.59-1.1M45.409,84.307a4.086,4.086,0,0,0,4.1-4.429q.024-26.173.01-52.346c0-.68.025-1.215-.82-1.623a1.318,1.318,0,0,1-.071-2.5,1.76,1.76,0,0,0,.9-1.8c.024-1.939-1.754-1.527-2.73-2.158a3.822,3.822,0,0,0-3.876.175,7.032,7.032,0,0,1-6.864.117,5,5,0,0,0-5.024-.022,6.678,6.678,0,0,1-6.545.055,5.245,5.245,0,0,0-5.341.039A5.993,5.993,0,0,1,13.4,20a6.238,6.238,0,0,0-6.455.034,1.7,1.7,0,0,0-1.113,1.78c.053,2.389.018,4.779.018,7.169,0,2.8,0,2.8,2.794,3.1.113.012.229.008.339.029A1.348,1.348,0,0,1,10.2,33.527a1.307,1.307,0,0,1-1.257,1.366,7.928,7.928,0,0,1-1.7.036c-1.163-.127-1.444.4-1.415,1.479.026.984.09,1.591,1.351,1.514,1.814-.111,3.64,0,5.46-.037,1.047-.019,1.892.3,1.922,1.43.03,1.157-.856,1.5-1.868,1.508-1.764.015-3.53.067-5.29-.011-1.143-.051-1.572.252-1.593,1.492-.022,1.315.531,1.544,1.612,1.414a8.282,8.282,0,0,1,1.193,0c.932.024,1.562.487,1.583,1.425.021.953-.646,1.4-1.541,1.493a4.92,4.92,0,0,1-1.191.024c-1.244-.174-1.642.262-1.663,1.576-.024,1.5.826,1.312,1.734,1.295.341-.007.683,0,1.024,0,.919.018,1.588.446,1.633,1.383.05,1.046-.674,1.5-1.64,1.571a8.132,8.132,0,0,1-1.534.005c-1.258-.146-1.165.669-1.175,1.5-.01.814-.006,1.424,1.128,1.374,1.874-.083,3.754-.006,5.631-.027,1.032-.012,1.92.308,1.951,1.425.035,1.231-.905,1.567-2,1.562-1.878-.007-3.755.027-5.632-.012-.808-.017-1.025.28-1.1,1.078-.136,1.405.31,2.012,1.756,1.783a4.224,4.224,0,0,1,1.192.016A1.449,1.449,0,0,1,10.2,62.622a1.433,1.433,0,0,1-1.36,1.489,5.7,5.7,0,0,1-1.362.034c-1-.073-1.663-.026-1.681,1.369-.019,1.455.639,1.58,1.741,1.483a5.28,5.28,0,0,1,1.36.045,1.419,1.419,0,0,1,1.3,1.366,1.4,1.4,0,0,1-1.32,1.515,7.24,7.24,0,0,1-1.872.037c-1.08-.116-1.212.463-1.166,1.33.043.8-.16,1.606,1.143,1.543,1.816-.087,3.64-.006,5.461-.025,1.069-.011,2.086.235,2.106,1.454C14.57,75.6,13.5,75.819,12.37,75.8c-1.82-.028-3.642.024-5.461-.02-.817-.02-1.015.284-1.089,1.078-.13,1.4.32,2.013,1.764,1.792a4.11,4.11,0,0,1,1.191.025A1.447,1.447,0,0,1,10.2,80.112,1.415,1.415,0,0,1,8.669,81.6c-.767.034-1.538.007-2.493.007,1.016,2.281,2.676,2.871,4.769,2.866,10.923-.025,21.846-.009,32.769-.018.565,0,1.129-.1,1.694-.146" transform="translate(0 0)" fill="#050506"/>
        <path id="Trazado_834945" data-name="Trazado 834945" d="M185.559,16.3l-3.614-2.736a7.88,7.88,0,0,1-.81-.62c-1.239-1.223-.878-7.519.5-8.568,1.581-1.207,3.218-2.344,4.758-3.6a1.926,1.926,0,0,1,2.866.046c.421.379.9.689,1.358,1.029,4.618,3.458,4.6,3.457,4.494,9.31a2.361,2.361,0,0,1-1.092,2.146c-5.324,3.5-9.52,8.252-14,12.688a4.716,4.716,0,0,0,.439,6.479c.636.478,1.27.959,1.907,1.434,1.777,1.325,3.571.726,4.141-1.382a4.348,4.348,0,0,1,5.756-3,4.4,4.4,0,0,1,2.43,5.909,4.2,4.2,0,0,1-6.151,1.882c-1.217-.874-2.059-.438-3.083-.007-1.07.45-.428,1.383-.578,2.088a2.961,2.961,0,0,0,1.8,3.573c3.4,1.637,4.5,4.3,4.093,8.009-.186,1.674-.472,2.919-1.971,3.772-.686.391-1.224,1.062-1.929,1.394-2.219,1.044-2.561,3.117-3.057,5.159-.276,1.137.633,1.323,1.241,1.732s1.123,1.159,2.043.4a29.633,29.633,0,0,1,2.683-1.806,1.368,1.368,0,0,1,2.087.335,1.409,1.409,0,0,1-.464,2.076q-.346.246-.7.484c-2.743,1.854-2.708,1.844-1.888,5.056a2.664,2.664,0,0,0,1.191,1.755c.192.12.36.277.542.413,4.742,3.543,4.725,3.543,4.553,9.451a2.335,2.335,0,0,1-1.033,2c-1.7,1.239-3.387,2.493-5.043,3.787a1.733,1.733,0,0,1-2.451,0c-.569-.47-1.175-.9-1.765-1.34-4.59-3.456-4.573-3.455-4.348-9.223a2.521,2.521,0,0,1,1.149-2.134c1.2-.855,2.333-1.821,3.57-2.623a1.419,1.419,0,0,0,.66-1.982c-.535-1.25-.369-2.663-1.627-3.774-2.007-1.773-3.965-1.383-6.119-.681a1.585,1.585,0,0,0-.933.848c-1.643,2.729-4.255,3.3-6.753,1.419a1.517,1.517,0,0,0-1.683-.249c-.883.332-1.882.5-2.309-.649-.439-1.18.24-1.828,1.345-2.08a1.541,1.541,0,0,0,1.265-1.357,4.041,4.041,0,0,1,3.355-3.231,4.25,4.25,0,0,1,4.367,1.683c.844,1.045,3.792.483,4.2-.8.277-.862.416-1.768.676-2.637a.81.81,0,0,0-.328-1.026,10.04,10.04,0,0,0-.962-.7c-3.184-1.706-5.022-4.1-4.2-7.936a1.48,1.48,0,0,0-.841-1.7c-.295-.165-.527-.443-.824-.6-3.2-1.7-5-4.129-4.179-7.951a1.351,1.351,0,0,0-.806-1.521c-.972-.584-1.919-1.219-2.835-1.888a1.379,1.379,0,0,1-.367-2.085,1.336,1.336,0,0,1,1.957-.326c.146.088.289.18.438.262,1.079.59,2.083,2.079,3.134,1.753,1.434-.444,2.64-1.706,3.864-2.714.829-.683.658-4.537-.162-5.422-.541-.584-1.17-1.092-1.67-1.707-.872-1.07-1.8-1.787-3.3-1.267a1.9,1.9,0,0,1-1.338-.091c-1.351-.683-2.607-1.409-4.217-.568-.539.282-1.187-.214-1.383-.932a1.271,1.271,0,0,1,.724-1.7c1.3-.376,1.6-1.233,1.9-2.43a4.257,4.257,0,0,1,5.156-2.82,4.4,4.4,0,0,1,3.21,5.1c-.123.9,2,3.981,2.873,4.146.325.063.508-.169.707-.368,2.442-2.445,4.885-4.889,7.384-7.39m-12.36,23.2c.245.826-.418,1.835.523,2.52,1.279.931,2.6,2.62,3.842,2.568,1.364-.057,2.671-1.71,3.984-2.693.793-.594.449-1.485.412-2.224-.048-.956.517-2.091-.569-2.833-1.3-.891-2.5-2.706-3.859-2.541-1.42.173-2.716,1.714-3.972,2.768-.749.629-.148,1.621-.361,2.435M187.856,49.72c-.237-.878.438-1.961-.609-2.664-1.31-.88-2.483-2.707-3.855-2.538-1.422.175-2.691,1.734-3.986,2.742-.7.547-.364,1.394-.327,2.082.049.917-.494,2.015.36,2.732,1.254,1.053,2.6,2.659,3.965,2.719,1.243.055,2.55-1.655,3.852-2.553.983-.678.387-1.673.6-2.521M183.414,8.753c.275.867-.456,1.942.552,2.67,1.277.922,2.565,2.55,3.843,2.545s2.568-1.639,3.854-2.556c.824-.588.492-1.464.458-2.2-.044-.97.5-2.118-.442-2.885-1.221-1-2.49-2.506-3.84-2.623-1.373-.119-2.53,1.667-3.84,2.535-1,.661-.347,1.67-.586,2.513M183.386,78.8c.382.762-.462,1.846.586,2.58,1.291.9,2.572,2.543,3.849,2.535s2.567-1.641,3.846-2.568c.811-.588.5-1.467.455-2.205-.053-.967.5-2.112-.446-2.877-1.228-.991-2.5-2.5-3.848-2.609-1.37-.113-2.538,1.655-3.837,2.537-.991.673-.332,1.677-.605,2.608M171.809,19.026c-.184-.839-.632-1.478-1.572-1.427a1.356,1.356,0,0,0-1.368,1.436,1.392,1.392,0,0,0,1.361,1.459c.927.044,1.4-.572,1.58-1.468m2.809,45.354c0-1.06-.5-1.542-1.347-1.564a1.257,1.257,0,0,0-1.433,1.314,1.312,1.312,0,0,0,1.432,1.5,1.255,1.255,0,0,0,1.348-1.254M190.7,32.188a1.342,1.342,0,0,0-1.4,1.37A1.3,1.3,0,0,0,190.783,35,1.25,1.25,0,0,0,192.1,33.58a1.333,1.333,0,0,0-1.393-1.392" transform="translate(-107.656 -0.103)" fill="#070706"/>
        <path id="Trazado_834946" data-name="Trazado 834946" d="M56.572,120.905c-.565.051-1.129.146-1.694.147-10.923.009-21.846-.007-32.77.018-2.093,0-3.754-.585-4.769-2.866.955,0,1.725.027,2.493-.007a1.416,1.416,0,0,0,1.529-1.485,1.447,1.447,0,0,0-1.423-1.437,4.1,4.1,0,0,0-1.191-.025c-1.444.221-1.894-.388-1.764-1.792.073-.793.272-1.1,1.089-1.078,1.819.044,3.641-.008,5.461.02,1.133.017,2.2-.2,2.179-1.538-.02-1.219-1.037-1.465-2.106-1.455-1.82.018-3.644-.062-5.461.025-1.3.062-1.1-.747-1.142-1.543-.046-.867.086-1.446,1.165-1.33a7.257,7.257,0,0,0,1.872-.037,1.4,1.4,0,0,0,1.32-1.515,1.418,1.418,0,0,0-1.3-1.366,5.266,5.266,0,0,0-1.36-.045c-1.1.1-1.76-.029-1.741-1.484.018-1.4.677-1.442,1.681-1.369A5.706,5.706,0,0,0,20,100.71a1.433,1.433,0,0,0,1.36-1.489,1.449,1.449,0,0,0-1.429-1.429,4.211,4.211,0,0,0-1.192-.016c-1.445.229-1.892-.377-1.756-1.783.077-.8.294-1.1,1.1-1.078,1.876.039,3.754,0,5.632.012,1.09,0,2.03-.331,2-1.562-.031-1.117-.919-1.436-1.951-1.425-1.877.021-3.757-.056-5.631.027-1.133.05-1.138-.56-1.128-1.374.011-.835-.082-1.65,1.175-1.5a8.133,8.133,0,0,0,1.534-.005c.966-.073,1.69-.525,1.64-1.571-.044-.936-.714-1.364-1.633-1.383-.341-.007-.683-.009-1.024,0-.908.017-1.757.2-1.734-1.295.021-1.314.419-1.75,1.663-1.576a4.94,4.94,0,0,0,1.192-.024c.894-.1,1.561-.54,1.541-1.493-.021-.938-.652-1.4-1.583-1.425a8.285,8.285,0,0,0-1.194,0c-1.081.129-1.634-.1-1.612-1.414.021-1.241.45-1.543,1.593-1.492,1.76.078,3.526.026,5.29.011,1.012-.009,1.9-.352,1.868-1.508-.03-1.134-.875-1.45-1.922-1.431-1.82.033-3.646-.074-5.46.037-1.26.077-1.325-.529-1.351-1.514-.029-1.079.251-1.607,1.415-1.479a7.932,7.932,0,0,0,1.7-.036,1.307,1.307,0,0,0,1.257-1.367,1.347,1.347,0,0,0-1.211-1.417c-.111-.022-.227-.017-.339-.029-2.794-.3-2.794-.3-2.794-3.1,0-2.39.035-4.78-.018-7.169a1.7,1.7,0,0,1,1.112-1.78,6.238,6.238,0,0,1,6.455-.034,5.994,5.994,0,0,0,5.753-.187,5.245,5.245,0,0,1,5.341-.039,6.677,6.677,0,0,0,6.545-.055,5,5,0,0,1,5.024.023,7.031,7.031,0,0,0,6.864-.118,3.823,3.823,0,0,1,3.876-.175l-.025,49.666a10.189,10.189,0,0,0-3.921,1.036,1.817,1.817,0,0,1-2.436-.612,7,7,0,0,0-7.882-2.09,7.3,7.3,0,1,0,9.74,7.343c.066-.578-.222-1.313.633-1.574,1.292-.394,2.585-.781,3.878-1.172-.212,4.115.729,8.36-1.383,12.26M37.392,77.391c3.46.02,6.729-2.47,7.1-5.9A2.9,2.9,0,0,1,46.882,68.6a1.978,1.978,0,0,0,1.452-1.087,1.347,1.347,0,0,0-.3-1.573,1.629,1.629,0,0,0-2.059-.1c-1.335.779-2.21.739-3.328-.651a6.95,6.95,0,0,0-8.7-1.49,7.28,7.28,0,0,0,3.445,13.7m15.2-11.317A10.808,10.808,0,0,0,56.1,64.5a1.172,1.172,0,0,0,.3-1.534,1.318,1.318,0,0,0-1.677-.781,21.417,21.417,0,0,0-3.105,1.3,1.256,1.256,0,0,0-.607,1.6,1.427,1.427,0,0,0,1.585.99" transform="translate(-11.162 -36.599)" fill="#ec304b"/>
        <path id="Trazado_834947" data-name="Trazado 834947" d="M58.037,32.917a9.455,9.455,0,0,0-5.59,1.1,3.834,3.834,0,0,1-3.907-.086A7.257,7.257,0,0,0,41.07,33.9a4.266,4.266,0,0,1-4.383-.054,7.044,7.044,0,0,0-7.155,0,3.794,3.794,0,0,1-3.753.314,7.941,7.941,0,0,0-8.68.1c0-2.9-.057-5.471.029-8.04.033-.985.976-.553,1.5-.556q9.127-.049,18.255-.018c7.049.019,14.1.064,21.147.1q.005,3.583.01,7.166" transform="translate(-11.244 -16.839)" fill="#02a7f2"/>
        <path id="Trazado_834948" data-name="Trazado 834948" d="M134.272,106.585q.012-24.832.024-49.665c.976.631,2.754.219,2.73,2.158a1.76,1.76,0,0,1-.9,1.8,1.318,1.318,0,0,0,.071,2.505c.845.407.82.942.82,1.622q0,26.173-.01,52.346a4.086,4.086,0,0,1-4.105,4.429c2.113-3.9,1.171-8.146,1.383-12.26,1.15-.982,1.238-1.96-.012-2.933" transform="translate(-87.491 -37.472)" fill="#b9193a"/>
        <path id="Trazado_834949" data-name="Trazado 834949" d="M55.27,11.4c-1.59.031-3.179.087-4.769.088q-19.617.011-39.234,0A5.837,5.837,0,0,1,9.745,11.4a1.279,1.279,0,0,1-.95-1.437A1.234,1.234,0,0,1,9.946,8.7a9.473,9.473,0,0,1,1.19-.057q21.323,0,42.645,0c.506,0,1.013.093,1.519.143q-.015,1.306-.03,2.613" transform="translate(-5.787 -5.687)" fill="#00bbd3"/>
        <path id="Trazado_834950" data-name="Trazado 834950" d="M136.931,33.039q-.005-3.583-.01-7.166a2.133,2.133,0,0,1,.331-.069c2.418-.12,2.418-.119,2.419,2.231,0,1.584-.059,3.17.018,4.75.062,1.253-.308,1.547-1.4.9-.429-.254-.9-.434-1.355-.647" transform="translate(-90.138 -16.961)" fill="#0376ba"/>
        <path id="Trazado_834951" data-name="Trazado 834951" d="M144.826,11.475q.015-1.306.03-2.613c.389-.037.776-.095,1.165-.108.97-.033,1.682.3,1.666,1.4-.016,1.09-.728,1.427-1.692,1.406-.39-.009-.779-.058-1.169-.089" transform="translate(-95.342 -5.762)" fill="#007f8b"/>
        <path id="Trazado_834952" data-name="Trazado 834952" d="M182.093,52.629c-.177.9-.653,1.512-1.58,1.468a1.391,1.391,0,0,1-1.361-1.459,1.356,1.356,0,0,1,1.368-1.436c.94-.051,1.388.588,1.572,1.427" transform="translate(-117.94 -33.706)" fill="#e6c700"/>
        <path id="Trazado_834953" data-name="Trazado 834953" d="M190.623,185.108a1.255,1.255,0,0,1-1.348,1.254,1.312,1.312,0,0,1-1.432-1.5,1.257,1.257,0,0,1,1.433-1.313c.842.022,1.345.5,1.346,1.564" transform="translate(-123.662 -120.83)" fill="#fad800"/>
        <path id="Trazado_834954" data-name="Trazado 834954" d="M240.357,93.9a1.333,1.333,0,0,1,1.393,1.392,1.25,1.25,0,0,1-1.312,1.425,1.3,1.3,0,0,1-1.48-1.447,1.342,1.342,0,0,1,1.4-1.37" transform="translate(-157.312 -61.82)" fill="#fad800"/>
        <path id="Trazado_834955" data-name="Trazado 834955" d="M100.128,198.215c1.25.973,1.162,1.951.012,2.933-1.293.39-2.586.778-3.878,1.172-.855.261-.567,1-.633,1.574a7.3,7.3,0,1,1-9.739-7.343,7,7,0,0,1,7.882,2.09,1.817,1.817,0,0,0,2.436.612,10.188,10.188,0,0,1,3.92-1.036m-11.591.929A4.179,4.179,0,0,0,84,203.5c.04,2.526,1.849,4.187,4.531,4.161a4.115,4.115,0,0,0,4.134-4.242,4.181,4.181,0,0,0-4.131-4.272" transform="translate(-53.348 -129.101)" fill="#080302"/>
        <path id="Trazado_834956" data-name="Trazado 834956" d="M62.764,91.277a7.28,7.28,0,0,1-3.445-13.7,6.95,6.95,0,0,1,8.7,1.49c1.118,1.39,1.993,1.43,3.328.65a1.629,1.629,0,0,1,2.059.1,1.346,1.346,0,0,1,.3,1.573,1.977,1.977,0,0,1-1.452,1.087,2.9,2.9,0,0,0-2.392,2.89c-.369,3.432-3.637,5.923-7.1,5.9m.084-2.96c2.588-.243,4.289-1.937,4.309-4.292a4.383,4.383,0,0,0-8.737-.391c-.218,2.566,1.627,4.517,4.427,4.683" transform="translate(-36.534 -50.484)" fill="#060301"/>
        <path id="Trazado_834957" data-name="Trazado 834957" d="M118.038,78.629a1.427,1.427,0,0,1-1.585-.99,1.256,1.256,0,0,1,.607-1.6,21.414,21.414,0,0,1,3.105-1.3,1.318,1.318,0,0,1,1.677.781,1.172,1.172,0,0,1-.3,1.534,10.807,10.807,0,0,1-3.509,1.571" transform="translate(-76.611 -49.154)" fill="#080302"/>
        <path id="Trazado_834958" data-name="Trazado 834958" d="M94.25,213.511c-2.682.026-4.491-1.635-4.531-4.161A4.179,4.179,0,0,1,94.252,205a7.54,7.54,0,0,1,0,8.514" transform="translate(-59.063 -134.954)" fill="#fad800"/>
        <path id="Trazado_834959" data-name="Trazado 834959" d="M102.981,213.511a7.54,7.54,0,0,0,0-8.514,4.182,4.182,0,0,1,4.131,4.272,4.115,4.115,0,0,1-4.134,4.242" transform="translate(-67.795 -134.954)" fill="#f4ba07"/>
        <path id="Trazado_834960" data-name="Trazado 834960" d="M68.45,94.213c-2.8-.166-4.645-2.118-4.427-4.683a4.223,4.223,0,0,1,4.8-3.869c1.189,2.907,1.586,5.781-.371,8.552" transform="translate(-42.136 -56.381)" fill="#fad800"/>
        <path id="Trazado_834961" data-name="Trazado 834961" d="M77.014,94.247c1.957-2.771,1.56-5.645.371-8.552a4.244,4.244,0,0,1,3.938,4.26C81.3,92.31,79.6,94,77.014,94.247" transform="translate(-50.7 -56.415)" fill="#f4ba07"/>
      </g>
    </g>
  </g>
</svg>
