<svg xmlns="http://www.w3.org/2000/svg" xmlns:xlink="http://www.w3.org/1999/xlink" width="129" height="128" viewBox="0 0 129 128">
  <defs>
    <clipPath id="clip-path">
      <rect id="Rect치ngulo_379920" data-name="Rect치ngulo 379920" width="76.804" height="76.804" fill="none"/>
    </clipPath>
  </defs>
  <g id="Grupo_1081412" data-name="Grupo 1081412" transform="translate(-389 -1388)">
    <g id="Grupo_108927" data-name="Grupo 108927" transform="translate(-1 -3079)">
      <path id="Rect치ngulo_36179" data-name="Rect치ngulo 36179" d="M0,0H129V128H0Z" transform="translate(390 4467)" fill="#c1e29a"/>
    </g>
    <g id="Grupo_1081398" data-name="Grupo 1081398" transform="translate(415.098 1413.598)">
      <g id="Grupo_1081397" data-name="Grupo 1081397" clip-path="url(#clip-path)">
        <path id="Trazado_835032" data-name="Trazado 835032" d="M77.058,56.756c0,.934-.03,1.5.006,2.065a2.319,2.319,0,0,1-1.744,2.55,4.4,4.4,0,0,0-2.372,5.772,2.212,2.212,0,0,1-.516,2.9,17.926,17.926,0,0,0-1.738,1.751c-1.154,1.4-2.35,1.927-4.139.934-1.377-.764-4.542.65-5.012,2.176a2.767,2.767,0,0,1-3.35,2.175,7.935,7.935,0,0,0-1.695,0c-1.826.2-3.01-.379-3.591-2.287-.48-1.577-3.676-2.762-5.219-1.97a2.525,2.525,0,0,1-3.523-.68,11.115,11.115,0,0,0-1.526-1.525,2.825,2.825,0,0,1-.865-4.017c.751-1.4-.609-4.558-2.128-5.035a2.769,2.769,0,0,1-2.212-3.326,9.693,9.693,0,0,0,0-2A2.693,2.693,0,0,1,39.545,53c1.7-.535,2.984-3.67,2.158-5.266a2.6,2.6,0,0,1,.749-3.642,10.507,10.507,0,0,0,1.417-1.417c1.112-1.359,2.288-1.828,4.008-.91,1.481.79,4.608-.591,5.116-2.216a2.7,2.7,0,0,1,3.239-2.109,11.485,11.485,0,0,0,2.158,0A2.638,2.638,0,0,1,61.5,39.511c.562,1.715,3.659,3.046,5.244,2.208a2.672,2.672,0,0,1,3.763.817,10.446,10.446,0,0,0,1.418,1.415c1.332,1.086,1.747,2.256.835,3.889-.651,1.166.436,4.535,1.615,4.874,2.363.678,3.124,2.128,2.686,4.041M70.069,46.582C70,45.5,68.088,44.2,67.137,44.7a3.021,3.021,0,0,1-3.323-.13,6.8,6.8,0,0,0-1.988-.819,3.186,3.186,0,0,1-2.692-2.415c-.261-1.1-1.152-.968-1.977-.989s-1.574.038-1.8,1.023a3.068,3.068,0,0,1-2.563,2.345,7.165,7.165,0,0,0-2,.8,2.979,2.979,0,0,1-3.452.151c-.953-.607-1.5.111-2.1.687-.576.56-1.135,1.125-.581,1.989a2.971,2.971,0,0,1-.149,3.451,7.2,7.2,0,0,0-.8,2,3.064,3.064,0,0,1-2.343,2.565c-.985.226-1.045.98-1.024,1.8s-.116,1.717.987,1.979a3.21,3.21,0,0,1,2.418,2.69,9.031,9.031,0,0,0,.956,2.264,2.429,2.429,0,0,1,.087,2.749c-.645,1-.218,1.678.517,2.409.7.693,1.349,1.089,2.282.494a2.532,2.532,0,0,1,2.889.093,7.946,7.946,0,0,0,2.123.9,3.319,3.319,0,0,1,2.8,2.511c.244,1.026,1.1.907,1.866.915s1.6.068,1.849-.946a3.185,3.185,0,0,1,2.669-2.441,6.867,6.867,0,0,0,1.99-.811,2.847,2.847,0,0,1,3.31-.143c.922.595,1.511.01,2.12-.6s1.2-1.2.606-2.12a2.885,2.885,0,0,1,.135-3.312,9.655,9.655,0,0,0,.968-2.426,2.636,2.636,0,0,1,2-2.107c1.073-.261,1.263-.99,1.253-1.973-.01-.957-.121-1.718-1.211-2.007-.7-.186-1.542-.452-1.671-1.216-.4-2.393-3.1-4.39-1.266-7.172.051-.076.032-.2.044-.3" transform="translate(-18.85 -18.855)"/>
        <path id="Trazado_835033" data-name="Trazado 835033" d="M0,8.7A8.542,8.542,0,0,1,8.684,0a8.761,8.761,0,0,1,8.783,8.684A8.939,8.939,0,0,1,8.7,17.467,8.764,8.764,0,0,1,0,8.7m14.555-.066a5.915,5.915,0,0,0-5.884-5.9A6.126,6.126,0,0,0,2.73,8.656a5.913,5.913,0,0,0,6.045,5.9,5.761,5.761,0,0,0,5.779-5.919" transform="translate(0 0)"/>
        <path id="Trazado_835034" data-name="Trazado 835034" d="M128.461,0A8.536,8.536,0,0,1,137.1,8.749a8.76,8.76,0,0,1-8.75,8.718,8.938,8.938,0,0,1-8.717-8.83A8.766,8.766,0,0,1,128.461,0M128.4,14.555a5.909,5.909,0,0,0,5.97-5.973,6.132,6.132,0,0,0-5.854-5.852,5.91,5.91,0,0,0-5.97,5.973,5.8,5.8,0,0,0,5.854,5.852" transform="translate(-60.292 0)"/>
        <path id="Trazado_835035" data-name="Trazado 835035" d="M8.692,137.1A8.544,8.544,0,0,1,0,128.4a8.762,8.762,0,0,1,8.694-8.773,8.933,8.933,0,0,1,8.772,8.773A8.761,8.761,0,0,1,8.692,137.1m5.862-8.7a5.759,5.759,0,0,0-5.843-5.855A5.909,5.909,0,0,0,2.729,128.5a6.139,6.139,0,0,0,5.851,5.863,5.908,5.908,0,0,0,5.974-5.969" transform="translate(0 -60.293)"/>
        <path id="Trazado_835036" data-name="Trazado 835036" d="M137.1,128.407a8.541,8.541,0,0,1-8.694,8.69,8.762,8.762,0,0,1-8.771-8.7,8.931,8.931,0,0,1,8.775-8.77,8.758,8.758,0,0,1,8.691,8.776m-14.554-.008a5.909,5.909,0,0,0,5.976,5.968,6.137,6.137,0,0,0,5.849-5.858,5.909,5.909,0,0,0-5.977-5.966,5.8,5.8,0,0,0-5.848,5.857" transform="translate(-60.293 -60.293)"/>
        <path id="Trazado_835037" data-name="Trazado 835037" d="M70.194,14.876c-9.218,0-18.272,0-27.325,0-.669,0-1.34.013-2.005-.038A1.371,1.371,0,0,1,40.74,12.1a10.509,10.509,0,0,1,1.842-.113q12.968-.01,25.936,0c.873,0,1.574.1,1.449-1.242-.1-1.041.965-1.565,2-1.038a43.692,43.692,0,0,1,4.4,2.554c1.1.734,1.056,1.755-.053,2.486-1.2.792-2.473,1.477-3.72,2.2-.682.394-1.392.768-2.154.217-.793-.573-.533-1.348-.247-2.288" transform="translate(-19.904 -4.789)"/>
        <path id="Trazado_835038" data-name="Trazado 835038" d="M70.16,131.894c-.214-.867-.555-1.718.294-2.3.906-.623,1.67-.032,2.421.393,1.119.633,2.246,1.26,3.324,1.959,1.26.817,1.288,1.836.024,2.665a45.548,45.548,0,0,1-4.136,2.4c-1.138.586-2.226.105-2.123-1.006.128-1.392-.643-1.216-1.471-1.216q-12.969,0-25.937-.005a9.571,9.571,0,0,1-1.988-.165,1.28,1.28,0,0,1-1.072-1.475,1.313,1.313,0,0,1,1.233-1.192,11.384,11.384,0,0,1,1.541-.053q13.046,0,26.091,0h1.8" transform="translate(-19.9 -65.177)"/>
        <path id="Trazado_835039" data-name="Trazado 835039" d="M126.218,59.335c.405.831.662,1.563-.077,2.2s-1.44.293-2.13-.1c-1.247-.717-2.522-1.393-3.725-2.178-1.247-.814-1.251-1.865-.013-2.68,1.157-.762,2.383-1.419,3.589-2.105.718-.408,1.456-.881,2.265-.2.776.656.514,1.432-.1,2.458,1.089-.551.822-1.242.825-1.773.025-4.523.012-9.046.017-13.568a8.794,8.794,0,0,1,.078-1.536,1.281,1.281,0,0,1,1.263-1.142,1.222,1.222,0,0,1,1.356,1.01,8.333,8.333,0,0,1,.184,1.829c.014,4.677.009,9.354.008,14.031,0,3.534,0,3.534-3.539,3.756" transform="translate(-60.151 -19.508)"/>
        <path id="Trazado_835040" data-name="Trazado 835040" d="M16.95,74.718c1.027,0,2.055-.018,3.082.006.821.019,1.433.424,1.456,1.275.026.941-.615,1.365-1.5,1.383-1.284.026-2.569.049-3.852.009-.932-.029-1.279.357-1.268,1.276.03,2.722.017,5.445,0,8.168,0,.583.054.731.76.607,1.523-.266,2.235.748,1.531,2.143a43.084,43.084,0,0,1-2.389,4.133c-.77,1.18-1.823,1.19-2.58.022A45.735,45.735,0,0,1,9.731,89.47c-.6-1.186-.057-2.142,1.244-2.075,1.11.058,1.005-.52,1-1.2,0-2.877-.008-5.754,0-8.631.009-2.549.314-2.851,2.81-2.856.719,0,1.438,0,2.158,0v.014" transform="translate(-4.782 -37.65)"/>
        <path id="Trazado_835041" data-name="Trazado 835041" d="M65.819,77.238A11.443,11.443,0,1,1,77.238,65.771,11.668,11.668,0,0,1,65.819,77.238m8.527-11.476a8.549,8.549,0,1,0-8.517,8.583,8.595,8.595,0,0,0,8.517-8.583" transform="translate(-27.394 -27.394)"/>
        <path id="Trazado_835042" data-name="Trazado 835042" d="M137.271,131.527a2.061,2.061,0,0,1-.837,1.413c-1.362,1.244-2.733,2.478-4.089,3.728a1.708,1.708,0,0,1-2.689-.022c-.538-.548-1.113-1.067-1.6-1.657a1.338,1.338,0,0,1-.007-1.943,1.278,1.278,0,0,1,1.931-.017c.946,1.008,1.59.648,2.382-.174a19.272,19.272,0,0,1,2.651-2.328,1.368,1.368,0,0,1,2.258,1" transform="translate(-64.326 -65.629)"/>
      </g>
    </g>
  </g>
</svg>
