<svg xmlns="http://www.w3.org/2000/svg" xmlns:xlink="http://www.w3.org/1999/xlink" width="129" height="128" viewBox="0 0 129 128">
  <defs>
    <clipPath id="clip-path">
      <rect id="Rect치ngulo_379922" data-name="Rect치ngulo 379922" width="83.744" height="83.757" fill="none"/>
    </clipPath>
  </defs>
  <g id="Grupo_1081414" data-name="Grupo 1081414" transform="translate(-389 -1750)">
    <g id="Grupo_108927" data-name="Grupo 108927" transform="translate(-1 -2717)">
      <path id="Rect치ngulo_36179" data-name="Rect치ngulo 36179" d="M0,0H129V128H0Z" transform="translate(390 4467)" fill="#c1e29a"/>
    </g>
    <g id="Grupo_1081402" data-name="Grupo 1081402" transform="translate(414 1775.243)">
      <g id="Grupo_1081401" data-name="Grupo 1081401" transform="translate(0 0)" clip-path="url(#clip-path)">
        <path id="Trazado_835053" data-name="Trazado 835053" d="M11.576,54.109c-4.341-5.223-4.655-9.323-1.22-14.894a3.7,3.7,0,0,0,.434-2.092c0-7.008.025-14.018-.019-21.026a3.96,3.96,0,0,1,1.245-3.125Q17.962,7.143,23.8,1.2A3.634,3.634,0,0,1,26.608.019C36.87.054,47.131.081,57.392,0c1.773-.014,2.146.608,2.132,2.235-.071,7.68-.037,15.362-.022,23.045,0,.676-.246,1.531.885,1.667,1.181.143,1.579-.343,1.568-1.517-.042-4.99-.019-9.98-.015-14.97,0-2.335.006-2.331,2.285-2.347,3.524-.026,3.135.379,3.063-3.185-.032-1.625.354-2.292,2.134-2.237,4.145.125,8.3.08,12.446.017,1.344-.019,1.909.361,1.875,1.8-.08,3.419-.059,6.841-.008,10.261.018,1.2-.365,1.7-1.632,1.689-4.429-.053-8.859-.041-13.288-.011-1.062.008-1.556-.365-1.5-1.465.048-.894-.017-1.794.006-2.689.022-.826-.286-1.229-1.171-1.245-.953-.017-1.288.384-1.284,1.305q.034,6.644,0,13.29c0,.9.288,1.333,1.26,1.33,1.02,0,1.245-.541,1.192-1.391-.008-.112,0-.225,0-.337.061-3.667.061-3.667,3.657-3.667,3.7,0,7.4.037,11.1-.016,1.242-.018,1.675.435,1.655,1.666q-.081,5.211,0,10.428c.021,1.252-.457,1.658-1.676,1.645q-6.559-.075-13.12,0c-1.263.014-1.715-.477-1.628-1.688.059-.835-.014-1.681.011-2.522.026-.859-.36-1.2-1.213-1.2s-1.238.306-1.235,1.179q.024,6.814,0,13.626c0,.922.5,1.118,1.3,1.111.759-.009,1.155-.3,1.143-1.089-.012-.9.048-1.8,0-2.693-.062-1.111.314-1.629,1.521-1.616,4.485.044,8.971.031,13.457.009.968-.005,1.438.325,1.431,1.359-.029,3.645-.036,7.289,0,10.933.012,1.137-.518,1.432-1.543,1.425-4.429-.029-8.859-.037-13.288,0-1.142.01-1.564-.384-1.595-1.555-.1-3.7-.138-3.754-3.77-3.816-1.286-.023-1.618-.535-1.608-1.717.039-5.158.013-10.317.016-15.475,0-.873.075-1.7-1.236-1.691s-1.211.859-1.211,1.714c0,7.68-.043,15.363.034,23.044.016,1.659-.41,2.251-2.155,2.216-5.269-.108-10.542-.012-15.811-.059a3.544,3.544,0,0,0-2.815,1.167q-2.968,3.094-6.064,6.067a4.577,4.577,0,0,0-1.47,3.591c.043,4.765-.024,9.534.039,14.3.018,1.381-.44,1.846-1.83,1.838q-13.793-.071-27.587,0C.443,83.764-.019,83.3,0,81.919c.066-4.372.013-8.747.026-13.12a14.833,14.833,0,0,1,10.144-14.2c.417-.147.836-.29,1.4-.485m26.6-10.658c-.975-.054-1.413-.116-1.847-.094-.926.043-1.312-.365-1.307-1.293q.028-6.9,0-13.8c0-.92.38-1.319,1.3-1.306q2.859.037,5.719,0c.931-.013,1.306.4,1.3,1.315-.023,1.908-.033,3.815.013,5.721a13.424,13.424,0,0,0,.186,3.784,4.316,4.316,0,0,0,2.3-4.216c-.138-5.211-.014-10.43-.068-15.645-.014-1.314.425-1.819,1.747-1.747a33.67,33.67,0,0,0,4.539-.008c1.641-.131,2.1.5,2.088,2.1q-.112,10.769-.008,21.534a6.3,6.3,0,0,1-1.989,4.8Q48.19,48.5,44.3,52.457c-.358.362-.956.616-.883,1.416,4,0,7.972-.017,11.945.011,1.164.008,1.2-.712,1.2-1.564q-.01-23.889.013-47.779c0-1.144-.352-1.585-1.541-1.581q-13.124.052-26.245,0c-1.285-.008-1.636.474-1.615,1.683.059,3.306-.048,6.619.049,9.925.043,1.508-.507,1.935-1.949,1.9-3.306-.084-6.617,0-9.926-.042-1.092-.014-1.642.246-1.632,1.491q.07,8.5,0,16.993c-.012,1.278.416,1.207,1.372.828a10.1,10.1,0,0,1,7.707-.029c1.246.5,1.5.259,1.485-1.021-.055-4.71.006-9.42-.038-14.131-.012-1.208.371-1.738,1.636-1.683,1.735.073,3.477.055,5.215.008,1.069-.029,1.5.381,1.494,1.471q-.039,10.767,0,21.534c0,1.073-.378,1.542-1.473,1.49-.551-.027-1.366-.246-1.279.8a13.177,13.177,0,0,1-1.133,7.2c3.9-1.643,6.181-4.988,9.478-7.92M18.936,80.8c2.58,0,5.161-.052,7.739.021,1.265.037,1.653-.435,1.635-1.665-.059-3.756.106-7.519-.064-11.269a8.046,8.046,0,0,1,2.687-6.551c6.216-6.074,12.32-12.262,18.461-18.415a10.024,10.024,0,0,0,1.325-1.512,1.94,1.94,0,0,0-.3-2.607,2.034,2.034,0,0,0-2.615-.405,7.274,7.274,0,0,0-1.4,1.188q-5.365,5.339-10.712,10.7a20.718,20.718,0,0,1-8.32,5.236,2.416,2.416,0,0,0-1.793,1.729,6.5,6.5,0,0,1-5.78,4.914A6.512,6.512,0,0,1,12.8,58.272c-.411-.828-.867-1.069-1.7-.741-4.3,1.687-7.073,4.688-7.833,9.3C2.6,70.9,3.14,75.009,2.938,79.091c-.077,1.529.638,1.743,1.913,1.735,1.252-.006,1.97-.169,1.935-1.718-.094-4.2-.024-8.412-.036-12.617,0-1.017-.013-1.863,1.44-1.87,1.4-.006,1.517.729,1.51,1.809-.025,4.092.055,8.187-.04,12.279-.037,1.572.361,2.215,2.044,2.122,2.4-.135,4.821-.035,7.232-.035m-.092-42.784a7.9,7.9,0,0,0,.206,15.8,7.9,7.9,0,1,0-.206-15.8M75.36,13.5c1.344,0,2.689-.035,4.033.011,1,.035,1.426-.345,1.4-1.369-.046-1.735-.038-3.473,0-5.209.019-.954-.419-1.277-1.326-1.266q-3.948.041-7.9,0c-.92-.011-1.328.34-1.311,1.284.035,1.735.044,3.473,0,5.207-.029,1.041.431,1.39,1.414,1.354,1.231-.045,2.464-.011,3.7-.011m.311,11.018c-1.344,0-2.689.036-4.031-.012-1.007-.035-1.418.364-1.39,1.379.045,1.679.041,3.36,0,5.041-.023.968.286,1.447,1.34,1.43,2.631-.041,5.264-.033,7.9,0,.928.009,1.32-.359,1.3-1.292-.033-1.735-.044-3.473,0-5.208.029-1.049-.448-1.379-1.423-1.345-1.231.044-2.464.012-3.7.012m-.139,18.846c-1.344,0-2.688.016-4.031-.006-.827-.014-1.252.3-1.242,1.173.023,1.849.016,3.7.006,5.544,0,.777.367,1.113,1.13,1.11,2.745-.01,5.488-.014,8.232,0,.89,0,1.166-.447,1.156-1.26q-.031-2.687,0-5.376c.01-.859-.378-1.211-1.22-1.2-1.343.024-2.687.006-4.031.006m-45.9-12.253c0-2.626-.01-5.251.006-7.877,0-.819-.121-1.4-1.159-1.423-1.092-.024-1.3.524-1.3,1.455q.034,7.208,0,14.413a2.727,2.727,0,0,0,.682,1.833c.351.422.635,1.034,1.317.793.613-.217.442-.84.445-1.318.014-2.625.006-5.25.005-7.876M51.17,27.419c0-2.02.053-4.041-.025-6.055-.033-.86.6-2.188-1.156-2.233s-1.232,1.261-1.247,2.149c-.048,2.914-.018,5.832-.017,8.747,0,1.234.066,2.471-.015,3.7s.711,1.339,1.586,1.443c1.232.146.845-.8.857-1.358.043-2.13.017-4.262.017-6.391M24.237,5.969,16.651,13.49c2.065,0,4.288,0,6.509,0,.662,0,1.076-.263,1.076-.977,0-2.269,0-4.538,0-6.546M40.4,35.087c0-1.289-.025-2.579.009-3.867.025-.9-.28-1.35-1.256-1.332-.864.015-1.2.372-1.2,1.217q.029,4.039,0,8.074c-.005.823.281,1.234,1.168,1.249.95.016,1.312-.378,1.287-1.3-.037-1.344-.01-2.689-.01-4.037M18.981,59.2a4.068,4.068,0,0,0,3.134-1.667c.179-.267.445-.6.147-.884a.99.99,0,0,0-.776-.079,14.852,14.852,0,0,1-4.15.184c-.567-.015-1.359-.692-1.645.023-.292.732.544,1.245,1.1,1.682a4.543,4.543,0,0,0,2.188.741" transform="translate(0 0)"/>
        <path id="Trazado_835054" data-name="Trazado 835054" d="M39.666,12.937c-3.53,0-7.061-.019-10.591.012-1.061.01-1.667-.219-1.668-1.476s.6-1.484,1.664-1.48q10.592.034,21.184,0c1.06,0,1.667.219,1.667,1.476s-.6,1.49-1.664,1.48c-3.53-.032-7.061-.012-10.591-.012" transform="translate(2.207 0.805)"/>
        <path id="Trazado_835055" data-name="Trazado 835055" d="M34.139,7.95c-1.793,0-3.586-.028-5.377.01-1.046.022-1.35-.485-1.342-1.445.008-.912.192-1.5,1.286-1.5q5.543.039,11.091,0c1.044-.008,1.328.486,1.344,1.444.022,1.065-.358,1.532-1.457,1.5-1.849-.048-3.7-.013-5.545-.014" transform="translate(2.208 0.404)"/>
        <path id="Trazado_835056" data-name="Trazado 835056" d="M70.051,10.446c-.447,0-.9-.031-1.342,0-1.124.085-1.445-.48-1.432-1.52.013-.975.34-1.465,1.366-1.418.781.036,1.567.022,2.349,0,1.081-.032,1.977-.025,1.95,1.525-.025,1.462-.883,1.445-1.884,1.418-.336-.01-.671,0-1.007,0" transform="translate(5.418 0.604)"/>
        <path id="Trazado_835057" data-name="Trazado 835057" d="M70.116,27.879c-.5,0-1.008-.024-1.511.005-1.056.062-1.329-.506-1.325-1.451,0-.92.214-1.528,1.3-1.48.781.033,1.566,0,2.349,0,1.02-.005,2.011-.146,2.016,1.454.006,1.578-.94,1.507-1.986,1.484-.28-.006-.56,0-.84,0Z" transform="translate(5.419 2.009)"/>
        <path id="Trazado_835058" data-name="Trazado 835058" d="M70.026,45.314c-.5,0-1.008-.021-1.511,0-1.135.055-1.227-.668-1.229-1.535,0-.85.215-1.418,1.212-1.386.837.026,1.679.022,2.517-.012,1.108-.045,1.957.024,1.926,1.548-.029,1.484-.927,1.407-1.908,1.393-.336,0-.671,0-1.007,0v-.012" transform="translate(5.419 3.413)"/>
      </g>
    </g>
  </g>
</svg>
