<svg xmlns="http://www.w3.org/2000/svg" xmlns:xlink="http://www.w3.org/1999/xlink" width="169" height="169" viewBox="0 0 169 169">
  <defs>
    <clipPath id="clip-path">
      <rect id="Rect치ngulo_379916" data-name="Rect치ngulo 379916" width="94.86" height="95.058" fill="none"/>
    </clipPath>
  </defs>
  <g id="Grupo_1081430" data-name="Grupo 1081430" transform="translate(-4518.666 10842.786)">
    <g id="Grupo_1081374" data-name="Grupo 1081374" transform="translate(3430.666 -12900.785)">
      <g id="Grupo_159184" data-name="Grupo 159184" transform="translate(1088 2057.999)">
        <path id="Uni칩n_12" data-name="Uni칩n 12" d="M84.5,0A84.5,84.5,0,1,1,0,84.5,84.5,84.5,0,0,1,84.5,0Z" transform="translate(0 0)" fill="#ffae7e"/>
      </g>
    </g>
    <g id="Grupo_1081386" data-name="Grupo 1081386" transform="translate(4555.736 -10805.815)">
      <g id="Grupo_1081385" data-name="Grupo 1081385" clip-path="url(#clip-path)">
        <path id="Trazado_834984" data-name="Trazado 834984" d="M82.2,75.988c1.675,2.8,3.334,5.607,5.03,8.393,2.2,3.613,1.462,5.27-2.88,5.883,1.434,2.579,2.828,5.087,4.222,7.6q.808,1.454,1.615,2.909c1.646,2.986.774,4.744-2.748,5.3,2.211,4.024,4.408,8.005,6.59,11.995,1.8,3.283.635,5.255-3.085,5.262-2.409,0-4.822.082-7.226-.032-1.282-.061-1.621.406-1.463,1.556a7.265,7.265,0,0,1,0,1.3,4.973,4.973,0,0,1-.114,1.1c-.579,2.1-2.585,2.836-6.477,2.386a3.255,3.255,0,0,1-2.949-3.247c-.242-3.057-.242-3.057-3.26-3.057q-2.687,0-5.374,0c-3.364-.006-4.453-1.377-3.616-4.8-1.985,0-3.929.033-5.87-.016-.841-.022-.854.427-.849,1.043.019,2.161.026,4.323,0,6.484q-.041,3.52-3.509,3.587c-1.853.034-3.706.03-5.559,0-2.347-.037-3.528-1.209-3.559-3.536-.028-2.1-.044-4.2.011-6.3.023-.9-.12-1.342-1.179-1.291-1.828.089-3.664.024-5.527.024.781,3.539-.25,4.8-3.778,4.8-2.285,0-4.578.112-6.854-.04-1.484-.1-1.843.447-1.648,1.754a5.7,5.7,0,0,1,0,1.295,4.679,4.679,0,0,1-.206,1.083c-.692,2.087-2.861,2.8-6.582,2.195a3.282,3.282,0,0,1-2.751-3.421c-.12-2.866-.12-2.866-3.074-2.866-2.038,0-4.077.019-6.115-.005-3-.036-4.256-2.079-2.843-4.712,2.239-4.171,4.536-8.312,6.822-12.49-3.641-.722-4.381-2.393-2.577-5.632,1.879-3.373,3.762-6.744,5.625-10.083-.481-.5-.935-.286-1.334-.339a2.835,2.835,0,0,1-2.356-4.2c.452-.94,1.056-1.807,1.591-2.706C10.49,79.7,12.6,76.219,14.782,72.784c1.394-2.193,3.733-2.289,5.1-.146q4.072,6.4,7.934,12.94c1.253,2.119.182,4.232-2.231,4.443-1.3.113-1.269.472-.73,1.415,1.716,3,3.372,6.03,5.081,9.032.655,1.152,1.291,2.3.747,3.659-.566,1.412-1.829,1.83-3.381,1.9l2.149,3.877,6.531-11.709a5.257,5.257,0,0,0-.7-.208c-3.665-.419-4.682-2.366-2.9-5.587,1.5-2.7,3.015-5.382,4.516-8.076.947-1.7,1.881-3.407,2.92-5.29-.576-.045-.865-.08-1.155-.088-3.845-.114-5.02-2.2-3.13-5.6,2.968-5.337,5.932-10.677,8.936-15.994,1.562-2.765,4.348-2.782,5.921-.05,1.447,2.512,2.83,5.061,4.244,7.592,1.654,2.962,3.338,5.908,4.958,8.889,1.536,2.827.23,5.059-2.954,5.171-.448.016-.981-.23-1.436.376,2.351,4.214,4.715,8.462,7.087,12.7,2.055,3.673,1.156,5.475-3,6.02-.086.011-.154.157-.3.317l6.461,11.53,2.107-3.823c-3.531-.593-4.377-2.393-2.7-5.4s3.351-6.043,5.065-9.042c.558-.976.915-1.533-.754-1.631a2.7,2.7,0,0,1-2.193-4.209q3.977-6.786,8.233-13.406c1.165-1.807,3.366-1.688,4.672.041.481.637.9,1.323,1.344,1.986a3.831,3.831,0,0,0,.99,1.574M47.42,118.572c-3.224-.141-3.224-.141-3.224,2.956v1.665c0,3.3,0,3.3,3.253,3.137,3.973.064,3.171.3,3.26-3.174.013-.494,0-.987,0-1.481,0-3.24,0-3.24-3.291-3.1m35.587-14.138a2.352,2.352,0,0,1,1.526-1.791,8.858,8.858,0,0,0,2.91-.181c-.486-.909-.95-1.759-1.4-2.617-1.986-3.815-4.427-7.385-6.106-11.365A1.883,1.883,0,0,1,81.9,86.9h3.14c-2.438-3.981-4.712-7.682-6.97-11.393-.4-.663-.749-.774-1.131-.011-.218.436-.426.877-.639,1.316-2.279,3.186-4.183,6.6-6.346,10.159,1.091,0,1.827-.006,2.562,0,2.523.023,3.058.962,1.82,3.242-.854,1.572-1.755,3.118-2.624,4.681-1.4,2.51-2.781,5.024-4.309,7.785.882,0,1.43-.012,1.977,0,2.495.063,3.067,1.069,1.857,3.3q-1.633,3.009-3.3,6a2.262,2.262,0,0,0-.239,2.068c.82,2.33-.114,3.872-2.64,4.442-.738.167-1.211.512-1.175,1.149.04.712.773.428,1.2.429q11.577,0,23.155-.036c.184.013.369.037.553.039,2.723.029,2.723.029,1.461-2.3l-7.238-13.34m-25.94-9.7h3.1c-.9-1.624-1.692-3-2.437-4.4-2.311-4.345-5.049-8.459-7.05-12.973.34-1.821,1.83-1.433,3.041-1.581h3.387l-9.62-17.159a8.714,8.714,0,0,0-1.61,2.766L37.732,75.848c1.675,0,2.909-.018,4.142,0,2.184.039,2.8,1.042,1.757,2.937-2.052,3.729-4.148,7.434-6.221,11.151-.859,1.54-1.707,3.086-2.685,4.855,1.216,0,2.126,0,3.037,0,2.687.017,3.234.933,1.929,3.275q-4.413,7.922-8.852,15.829c-.48.855-.743,1.422.684,1.414,10-.053,20.009-.063,30.015-.088.366.026.733.07,1.1.073,2.155.016,2.162.006,1.089-1.914-1.945-3.48-3.942-6.931-5.829-10.442-1.186-2.207-2.659-4.27-3.471-6.672.323-1.47,1.487-1.5,2.641-1.535m-32.242-8c-2.322-3.778-4.6-7.493-6.887-11.2-.367-.6-.766-.552-1.115.015-2.285,3.705-4.564,7.414-7.034,11.428,1.3,0,2.205-.031,3.109.007,1.8.076,2.422,1.1,1.6,2.712-.757,1.484-1.621,2.912-2.432,4.368-1.551,2.786-3.1,5.575-4.73,8.513.7.049,1.12.095,1.545.106,3.017.082,3.51.942,2.045,3.625-2.219,4.063-4.42,8.135-6.694,12.167-.723,1.281-.528,1.641.968,1.633,8.094-.047,16.189-.014,24.284-.043.522,0,1.431.429,1.51-.477.066-.755-.642-.972-1.4-1.12-1.948-.377-3.107-1.789-2.532-3.587.585-1.827-.184-3.062-.951-4.443-.93-1.672-1.889-3.329-2.763-5.031-.769-1.5-.165-2.514,1.516-2.715.772-.092,1.581.186,2.345-.205a4.464,4.464,0,0,0-.836-1.854c-1.952-3.505-3.937-6.992-5.872-10.507-1.179-2.142-.6-3.1,1.789-3.159a6.016,6.016,0,0,0,2.538-.229M18.886,124.93c.218-1.145-.132-1.675-1.418-1.628-1.08.04-1.692.167-1.638,1.478.045,1.088.193,1.7,1.495,1.648,1.09-.042,1.832-.178,1.561-1.5m58.557,1.438c1.2.23,1.6-.273,1.6-1.481,0-1.162-.3-1.606-1.531-1.588-1.142.017-1.635.27-1.589,1.521.04,1.107.216,1.812,1.518,1.548" transform="translate(0 -34.768)" fill="#050602"/>
        <path id="Trazado_834985" data-name="Trazado 834985" d="M89.366,46.712c-.446-.664-.863-1.349-1.345-1.986-1.307-1.729-3.508-1.848-4.672-.041q-4.26,6.611-8.233,13.407A2.7,2.7,0,0,0,77.309,62.3c1.668.1,1.311.655.754,1.631-1.714,3-3.387,6.022-5.065,9.042s-.826,4.809,2.7,5.4L73.6,82.2l-6.461-11.53c.148-.16.216-.306.3-.317,4.161-.544,5.06-2.346,3-6.02-2.373-4.242-4.737-8.49-7.087-12.7.455-.607.988-.361,1.436-.377,3.184-.112,4.49-2.344,2.954-5.171-1.62-2.981-3.3-5.927-4.958-8.889-1.413-2.532-2.8-5.08-4.244-7.592-1.574-2.732-4.359-2.715-5.921.05-3,5.317-5.968,10.657-8.936,15.994-1.89,3.4-.715,5.486,3.13,5.6.29.009.579.043,1.155.088-1.038,1.883-1.972,3.59-2.919,5.29-1.5,2.695-3.021,5.379-4.516,8.076-1.785,3.221-.767,5.168,2.9,5.587a5.292,5.292,0,0,1,.7.208L37.6,82.2l-2.149-3.878c1.552-.069,2.814-.488,3.381-1.9.544-1.356-.092-2.508-.747-3.66-1.708-3-3.364-6.034-5.081-9.032-.54-.943-.566-1.3.729-1.414,2.413-.211,3.484-2.324,2.231-4.443q-3.862-6.532-7.935-12.94c-1.362-2.142-3.7-2.046-5.1.147C20.753,48.517,18.644,52,16.5,55.46l-2.743-4.232c1.218-.951.724-2.04.3-3.171-2.412-6.512-.8-13.938,4.1-18.325-.12,1.233-.267,2.3-.32,3.377a7.415,7.415,0,1,0,14.8.842,22.226,22.226,0,0,0-1.674-10.208c.6,0,.97-.021,1.331.006a6.8,6.8,0,0,1,1.095.161c3.765.917,5.73,3.589,6.88,7.061.654,1.975,1.889,2.3,3.171.711,3.5-4.342,5.444-9.069,3.364-14.726-.784-2.133-.111-3.881,1.765-5.357.606-.477.951-.557,1.443.161a8.915,8.915,0,0,0,7,3.9c2.458.208,3.723,1.536,4.222,3.935a12.5,12.5,0,0,1-.278,5.131c-.19.928-.517,1.865.442,2.52.926.632,1.754.082,2.567-.385a26.818,26.818,0,0,0,8.332-7.213c.943.052,1.122.829,1.406,1.494a17.8,17.8,0,0,1,.765,12.158c-.966,3.457.508,5.239,4.1,5.252,2.741,2.135,4.761,2.289,7.815.514a19.455,19.455,0,0,0,6.395-6.063c1.289.755,1.506,2.149,1.916,3.38a7.824,7.824,0,0,1-5.34,10.324" transform="translate(-8.154 -7.066)" fill="#fb9601"/>
        <path id="Trazado_834986" data-name="Trazado 834986" d="M66.805,12.587A26.818,26.818,0,0,1,58.473,19.8c-.814.467-1.642,1.016-2.567.385-.959-.655-.632-1.592-.442-2.52a12.5,12.5,0,0,0,.278-5.131c-.5-2.4-1.764-3.727-4.222-3.935a8.915,8.915,0,0,1-7-3.9c-.493-.718-.837-.638-1.444-.161-1.876,1.476-2.549,3.224-1.765,5.357,2.08,5.657.14,10.383-3.364,14.726-1.282,1.589-2.517,1.264-3.171-.711-1.15-3.472-3.115-6.144-6.88-7.061a6.8,6.8,0,0,0-1.095-.161c-.361-.027-.726-.006-1.331-.006a22.224,22.224,0,0,1,1.674,10.208,7.415,7.415,0,1,1-14.8-.842c.054-1.074.2-2.143.321-3.377-4.894,4.388-6.51,11.814-4.1,18.325.419,1.13.913,2.219-.3,3.171-1.348.287-2.012-.37-2.49-1.579-3.136-7.935-1.359-14.976,3.82-21.41a28.971,28.971,0,0,1,5.039-4.892c.736-.561,1.488-.988,2.333-.31.814.654.695,1.452.269,2.325a19.171,19.171,0,0,0-1.66,8.274,4.054,4.054,0,0,0,3.741,4.271,4.015,4.015,0,0,0,4.545-3.41,14.76,14.76,0,0,0-1.915-10.317c-1.168-2.068-.722-3,1.617-3.4,5.519-.946,9.933,1.114,12.828,5.985.155.261.33.509.572.88,1.883-3.147,2.625-6.245,1.326-9.758C36.7,6.557,40.034.917,44.49.046a1.506,1.506,0,0,1,1.933,1.248c.586,2.416,2.288,3.5,4.578,3.99,6.36,1.363,8.086,3.531,8.07,10.408C62,13.369,64.763,11.3,65.335,7.481c.317-2.116,1.4-2.568,3.166-1.307A18.634,18.634,0,0,1,75.53,25.369c-.014.06-.047.116-.056.176-.212,1.4-1.221,2.961.435,4.061,1.687,1.121,3.079-.073,4.358-.977,2.508-1.772,4.629-3.9,5.44-7.009a5.384,5.384,0,0,0,.11-2.382,1.544,1.544,0,0,1,.839-1.708,1.392,1.392,0,0,1,1.694.338A16.043,16.043,0,0,1,90.4,19.992c2.439,3.268,4.8,6.582,5.423,10.775a9.373,9.373,0,0,1-4.565,9.583,1.876,1.876,0,0,1-2.625-.374A2.148,2.148,0,0,1,89.9,37.429a5.436,5.436,0,0,0,2.8-4.318c.32-3.91-1.72-6.9-3.946-10.114l-1.471,2.945a19.458,19.458,0,0,1-6.394,6.063c-3.054,1.774-5.074,1.621-7.815-.514a7.693,7.693,0,0,1-.794-6.506q2.124-8.5-4.165-14.955l-1.311,2.557" transform="translate(-2.65 0)" fill="#070504"/>
        <path id="Trazado_834987" data-name="Trazado 834987" d="M222.39,64.952l1.471-2.944c2.225,3.21,4.265,6.2,3.945,10.113a5.436,5.436,0,0,1-2.8,4.318,2.148,2.148,0,0,0-1.265,2.547l-3.782,1.244a3.822,3.822,0,0,1-.99-1.574,7.824,7.824,0,0,0,5.34-10.324c-.41-1.231-.627-2.624-1.916-3.38" transform="translate(-137.754 -39.01)" fill="#ef7a01"/>
        <path id="Trazado_834988" data-name="Trazado 834988" d="M113.2,125.619c-10,.024-20.01.035-30.015.088-1.427.007-1.164-.56-.684-1.414q4.443-7.906,8.852-15.83c1.3-2.342.758-3.258-1.929-3.275-.91-.006-1.821,0-3.036,0,.978-1.769,1.826-3.315,2.685-4.855,2.074-3.717,4.169-7.422,6.221-11.151,1.044-1.9.427-2.9-1.757-2.937-1.233-.022-2.467,0-4.142,0l8.147-14.458a87.824,87.824,0,0,1,5.593,9.643c.845,1.528,2.1,2.884,2.25,4.75-1.211.148-2.7-.241-3.041,1.581a8.554,8.554,0,0,1-1.1.01c-1.728-.2-1.887.448-1.067,1.8.949,1.567,1.831,3.177,2.706,4.788,1.95,3.591,4.138,7.054,5.849,10.774-1.155.041-2.318.066-2.641,1.536a9,9,0,0,1-1.109.006c-1.673-.191-1.949.37-1.1,1.8,1.444,2.431,2.874,4.876,4.172,7.386,1.691,3.27,3.879,6.278,5.152,9.767" transform="translate(-51.663 -45.159)" fill="#a3c200"/>
        <path id="Trazado_834989" data-name="Trazado 834989" d="M31.315,120.388a6.017,6.017,0,0,1-2.538.229c-2.389.055-2.968,1.016-1.789,3.158,1.934,3.515,3.92,7,5.872,10.507a4.458,4.458,0,0,1,.836,1.854c-.764.391-1.573.113-2.345.205-1.681.2-2.285,1.216-1.516,2.715.873,1.7,1.833,3.359,2.762,5.031.767,1.38,1.535,2.616.951,4.443-.576,1.8.584,3.209,2.532,3.586.763.148,1.471.366,1.4,1.12-.079.906-.988.475-1.51.477-8.094.03-16.189,0-24.284.043-1.5.009-1.691-.351-.968-1.633,2.274-4.032,4.476-8.1,6.694-12.167,1.465-2.683.973-3.542-2.044-3.625-.425-.012-.85-.057-1.545-.106,1.632-2.938,3.179-5.727,4.73-8.513.81-1.456,1.675-2.884,2.432-4.368.822-1.611.195-2.636-1.6-2.712-.9-.038-1.81-.007-3.109-.007,2.47-4.015,4.748-7.723,7.034-11.428.349-.567.748-.612,1.115-.016,2.285,3.711,4.565,7.426,6.887,11.2" transform="translate(-6.49 -68.419)" fill="#5fa717"/>
        <path id="Trazado_834990" data-name="Trazado 834990" d="M192.879,139.2a2.352,2.352,0,0,0-1.526,1.791h-3.011c1.41,2.55,2.683,4.707,3.815,6.935,1.468,2.891,3.392,5.55,4.42,8.664q-11.577.025-23.155.036c-.426,0-1.159.283-1.2-.429-.036-.637.438-.982,1.175-1.149,2.526-.57,3.46-2.112,2.64-4.442a2.263,2.263,0,0,1,.239-2.068q1.665-2.991,3.3-6c1.209-2.229.638-3.234-1.857-3.3-.547-.014-1.094,0-1.976,0,1.527-2.761,2.913-5.276,4.309-7.785.869-1.564,1.77-3.11,2.624-4.681,1.239-2.28.7-3.219-1.82-3.242-.735-.007-1.471,0-2.562,0,2.163-3.564,4.066-6.973,6.346-10.158a5.694,5.694,0,0,0,1,2.148c1.507,2.663,3.487,5.051,4.6,7.939a1.883,1.883,0,0,0-1.957,1.576c-3.072.057-3.075.059-1.6,2.859.2.381.461.729.658,1.11,1.774,3.437,3.961,6.65,5.538,10.194" transform="translate(-108.346 -71.323)" fill="#5fa717"/>
        <path id="Trazado_834991" data-name="Trazado 834991" d="M149.317,184.736c-1.273-3.489-3.462-6.5-5.152-9.767-1.3-2.511-2.728-4.955-4.172-7.386-.846-1.425-.571-1.986,1.1-1.8a9.006,9.006,0,0,0,1.109-.006c.812,2.4,2.285,4.464,3.471,6.672,1.887,3.51,3.884,6.962,5.829,10.442,1.073,1.919,1.066,1.929-1.089,1.914-.367,0-.733-.047-1.1-.073" transform="translate(-87.778 -104.276)" fill="#8da900"/>
        <path id="Trazado_834992" data-name="Trazado 834992" d="M138.542,132.18c-1.711-3.721-3.9-7.183-5.849-10.774-.875-1.611-1.757-3.221-2.706-4.788-.82-1.353-.661-2,1.067-1.8a8.49,8.49,0,0,0,1.1-.01c2,4.513,4.739,8.627,7.05,12.973.745,1.4,1.537,2.778,2.437,4.4Z" transform="translate(-81.475 -72.21)" fill="#8da900"/>
        <path id="Trazado_834993" data-name="Trazado 834993" d="M131.543,81.482c-.147-1.866-1.4-3.222-2.25-4.75a87.863,87.863,0,0,0-5.593-9.643,8.714,8.714,0,0,1,1.61-2.766l9.62,17.16Z" transform="translate(-77.821 -40.466)" fill="#8ca700"/>
        <path id="Trazado_834994" data-name="Trazado 834994" d="M223.921,203.433c-1.028-3.114-2.953-5.773-4.42-8.664-1.132-2.228-2.4-4.385-3.815-6.935H218.7l7.237,13.34c1.263,2.327,1.263,2.327-1.46,2.3-.185,0-.369-.025-.554-.039" transform="translate(-135.69 -118.168)" fill="#529114"/>
        <path id="Trazado_834995" data-name="Trazado 834995" d="M215.787,158.98c-1.576-3.544-3.764-6.757-5.538-10.194-.2-.382-.458-.73-.658-1.11-1.471-2.8-1.469-2.8,1.6-2.859,1.678,3.98,4.119,7.55,6.105,11.365.447.858.911,1.708,1.4,2.617a8.849,8.849,0,0,1-2.91.182" transform="translate(-131.254 -91.106)" fill="#529114"/>
        <path id="Trazado_834996" data-name="Trazado 834996" d="M211.315,120.325c-1.116-2.887-3.1-5.276-4.6-7.939a5.694,5.694,0,0,1-1-2.148c.213-.44.421-.88.639-1.317.382-.763.727-.652,1.131.011,2.257,3.71,4.531,7.411,6.969,11.393Z" transform="translate(-129.418 -68.19)" fill="#518f13"/>
        <path id="Trazado_834997" data-name="Trazado 834997" d="M122.415,233.635c-3.253.161-3.253.161-3.253-3.137v-1.665c0-3.1,0-3.1,3.224-2.957q.014,3.879.029,7.758" transform="translate(-74.966 -142.074)" fill="#974d2b"/>
        <path id="Trazado_834998" data-name="Trazado 834998" d="M127.884,233.639l-.029-7.758c3.291-.138,3.291-.138,3.291,3.1,0,.494.011.988,0,1.481-.089,3.477.713,3.238-3.26,3.174" transform="translate(-80.435 -142.077)" fill="#713b20"/>
        <path id="Trazado_834999" data-name="Trazado 834999" d="M45.733,240.333c.271,1.32-.47,1.457-1.56,1.5-1.3.049-1.45-.56-1.5-1.648-.055-1.311.558-1.439,1.638-1.478,1.286-.047,1.636.483,1.418,1.628" transform="translate(-26.847 -150.17)" fill="#9f522d"/>
        <path id="Trazado_835000" data-name="Trazado 835000" d="M206.225,241.771c-1.3.264-1.479-.441-1.518-1.548-.045-1.251.448-1.5,1.589-1.521,1.231-.019,1.535.425,1.531,1.588,0,1.208-.4,1.711-1.6,1.481" transform="translate(-128.781 -150.17)" fill="#9f522d"/>
        <path id="Trazado_835001" data-name="Trazado 835001" d="M172.978,29.6l1.311-2.557q6.278,6.462,4.165,14.955a7.693,7.693,0,0,0,.794,6.506c-3.592-.013-5.066-1.795-4.1-5.252a17.8,17.8,0,0,0-.764-12.158c-.284-.665-.463-1.443-1.406-1.494" transform="translate(-108.822 -17.013)" fill="#f07a00"/>
      </g>
    </g>
  </g>
</svg>
