<svg xmlns="http://www.w3.org/2000/svg" xmlns:xlink="http://www.w3.org/1999/xlink" width="64" height="63" viewBox="0 0 64 63">
  <defs>
    <clipPath id="clip-path">
      <rect id="Rectángulo_377731" data-name="Rectángulo 377731" width="64" height="63" transform="translate(180 3330.811)" fill="#fff" stroke="#707070" stroke-width="1"/>
    </clipPath>
    <clipPath id="clip-path-2">
      <rect id="Rectángulo_377407" data-name="Rectángulo 377407" width="41.843" height="74.591" fill="none"/>
    </clipPath>
  </defs>
  <g id="Enmascarar_grupo_374" data-name="Enmascarar grupo 374" transform="translate(-180 -3330.811)" clip-path="url(#clip-path)">
    <g id="Grupo_1073497" data-name="Grupo 1073497" transform="translate(225.942 3319.559) rotate(39)">
      <g id="Grupo_1073032" data-name="Grupo 1073032" clip-path="url(#clip-path-2)">
        <path id="Unión_39" data-name="Unión 39" d="M3786.261,8415.568c.019-1.911-.012-3.823.009-5.734a1.219,1.219,0,0,1,.315-.777c2.5-2.49,5.014-4.957,7.528-7.431a1.758,1.758,0,0,0,.682-1.43,1.436,1.436,0,0,0-.8-1.233,1.377,1.377,0,0,0-1.508.076,4.384,4.384,0,0,0-.564.489q-2.576,2.539-5.149,5.082c-.123.123-.26.23-.477.418-.025-.238-.049-.36-.049-.483,0-2.859.015-5.72,0-8.579a1.28,1.28,0,0,1,.4-1.015q3.732-3.64,7.437-7.308a1.843,1.843,0,0,0,.718-1.366,1.426,1.426,0,0,0-.815-1.331,1.4,1.4,0,0,0-1.593.147c-.308.25-.589.539-.872.817q-2.4,2.364-4.795,4.731c-.1.1-.219.188-.422.361a4.21,4.21,0,0,1-.059-.445q.019-6.138.04-12.272a4.317,4.317,0,0,0-.084-.789,1.506,1.506,0,0,0-2.94-.038,4.67,4.67,0,0,0-.1.938q-.006,5.487,0,10.977v1.652c-.2-.192-.308-.283-.406-.381-1.791-1.761-3.57-3.535-5.382-5.271a2.332,2.332,0,0,0-1.119-.564,1.459,1.459,0,0,0-1.329,2.283,10.243,10.243,0,0,0,.944,1.024c2.319,2.292,4.649,4.573,6.953,6.88a1.358,1.358,0,0,1,.363.863c.032,2.826.025,5.652.025,8.479,0,.188-.036.378-.065.676-.182-.147-.283-.217-.37-.3q-2.677-2.651-5.354-5.3a1.742,1.742,0,0,0-1.356-.623,1.487,1.487,0,0,0-1.227,2.185,3.706,3.706,0,0,0,.636.76c2.446,2.423,4.906,4.831,7.34,7.266a1.36,1.36,0,0,1,.374.858c.019,1.9-.023,3.791-.015,5.686,0,.46-.125.556-.581.481-5.3-.855-9.049-3.941-11.879-8.3a24.714,24.714,0,0,1-3.61-10.346,24.991,24.991,0,0,1,1.958-12.742,90.538,90.538,0,0,1,7.2-14.2c2.547-4.127,5.261-8.153,7.906-12.221.161-.245.355-.467.579-.759.19.269.327.465.465.661a168.726,168.726,0,0,1,11.556,18.685,58.967,58.967,0,0,1,4.765,11.207,23.642,23.642,0,0,1-3.975,21.36,16.155,16.155,0,0,1-8.085,6c-.879.287-1.8.449-2.7.665a.844.844,0,0,1-.2.027C3786.341,8416.063,3786.258,8415.905,3786.261,8415.568Z" transform="translate(-3763.806 -8352.234)" fill="#c1e29a" stroke="rgba(0,0,0,0)" stroke-miterlimit="10" stroke-width="1"/>
        <path id="Trazado_819647" data-name="Trazado 819647" d="M32.029,63.075a24.969,24.969,0,0,0,8.613-13.048,27.892,27.892,0,0,0,1.2-8,25.812,25.812,0,0,0-1.537-8.133,80.162,80.162,0,0,0-6.318-13.787c-.787-1.406-1.563-2.821-2.423-4.181-.271-.428-2.486-4.379-2.544-4.316L20.993,0c-.219.277-.332.414-.438.556A184,184,0,0,0,9.011,18.074a86.408,86.408,0,0,0-7.5,15.87A24.5,24.5,0,0,0,0,41.828a33.022,33.022,0,0,0,.478,5A26.063,26.063,0,0,0,6.5,59.968a19.269,19.269,0,0,0,12.479,6.9c.309.038.381.185.377.461-.012.9-.019,1.8-.008,2.694.013,1.064.021,2.129.081,3.191a1.468,1.468,0,0,0,1.4,1.372,1.494,1.494,0,0,0,1.558-1.194,3.847,3.847,0,0,0,.085-.79c.008-1.729.014-3.459,0-5.189,0-.344.064-.506.44-.548a17.419,17.419,0,0,0,5.8-1.7c.217-.107,3.189-2,3.319-2.1m-9.061.724c-.389.093-.517-.049-.513-.465.018-1.912-.012-3.825.009-5.736a1.221,1.221,0,0,1,.313-.776c2.5-2.489,5.016-4.957,7.528-7.432a1.753,1.753,0,0,0,.683-1.428,1.44,1.44,0,0,0-.8-1.234,1.38,1.38,0,0,0-1.509.077,4.441,4.441,0,0,0-.564.489q-2.577,2.539-5.149,5.083c-.123.121-.261.229-.477.417-.025-.238-.049-.361-.049-.482,0-2.86.015-5.72,0-8.579a1.272,1.272,0,0,1,.394-1.014q3.732-3.641,7.438-7.309a1.847,1.847,0,0,0,.719-1.367,1.422,1.422,0,0,0-.816-1.328,1.4,1.4,0,0,0-1.593.145c-.309.25-.589.538-.873.818q-2.4,2.365-4.794,4.733c-.1.1-.22.187-.422.359a4.075,4.075,0,0,1-.059-.445q.019-6.136.04-12.271a4.279,4.279,0,0,0-.085-.791,1.505,1.505,0,0,0-2.939-.037,4.647,4.647,0,0,0-.1.938q-.005,5.488,0,10.976c0,.5,0,1.006,0,1.652-.205-.191-.308-.283-.407-.379-1.79-1.761-3.569-3.535-5.382-5.272a2.315,2.315,0,0,0-1.119-.563,1.3,1.3,0,0,0-1.4.741,1.313,1.313,0,0,0,.073,1.543,10.42,10.42,0,0,0,.945,1.024c2.318,2.292,4.648,4.572,6.952,6.879a1.364,1.364,0,0,1,.364.864c.031,2.826.025,5.652.025,8.478,0,.189-.035.378-.065.677-.183-.15-.284-.219-.37-.3q-2.678-2.649-5.354-5.3a1.743,1.743,0,0,0-1.357-.622,1.487,1.487,0,0,0-1.228,2.184,3.722,3.722,0,0,0,.636.76c2.447,2.422,4.907,4.831,7.342,7.265a1.366,1.366,0,0,1,.372.859c.02,1.895-.022,3.791-.015,5.686,0,.459-.125.555-.581.481-5.3-.855-9.048-3.942-11.877-8.3A24.687,24.687,0,0,1,3.3,45.141,24.992,24.992,0,0,1,5.256,32.4a90.756,90.756,0,0,1,7.205-14.2c2.547-4.128,5.262-8.152,7.907-12.219.159-.245.354-.467.578-.76l.465.661A168.9,168.9,0,0,1,32.965,24.565a59.012,59.012,0,0,1,4.767,11.208,23.649,23.649,0,0,1-3.975,21.361,16.171,16.171,0,0,1-8.086,6c-.879.287-1.8.449-2.7.664" transform="translate(0)" fill="#264100"/>
      </g>
    </g>
  </g>
</svg>
